<?xml version="1.0" encoding="utf-8"?>
<!-- Generator: Adobe Illustrator 27.0.0, SVG Export Plug-In . SVG Version: 6.00 Build 0)  -->
<svg version="1.1" id="Capa_1" xmlns="http://www.w3.org/2000/svg" xmlns:xlink="http://www.w3.org/1999/xlink" x="0px" y="0px"
	 viewBox="0 0 97.3 98.4" style="enable-background:new 0 0 97.3 98.4;" xml:space="preserve">
<path d="M97.3,57.2c0,1.4-0.6,2.8-1.7,4L70.6,92c-1.5,1.8-3.7,2.9-6,2.9H35.8c-3.4,0-6.7,1.3-9.1,3.6L0,98.4v-3.7l27.1-29.6
	c1.5-1.6,3.6-2.5,5.7-2.5h36.4c1.4,0,2.8,0.5,3.8,1.6c0.2,0.2,0.5,0.5,0.6,0.7c0.2,0.4,0.4,0.7,0.5,1.1c0,0,0,0,0,0.1
	c0.4,0.9,0.5,1.9,0.3,2.9c-0.4,2.5-2.8,4.4-5.6,4.4H40.5c-1,0-1.8,0.8-1.8,1.8c0,1,0.8,1.8,1.8,1.8h28.3c4.6,0,8.4-3.1,9.1-7.4
	c0.2-1.3,0.2-2.6-0.2-3.9l10.3-12.3c2.1-2.1,5.5-2.1,7.6,0C96.7,54.4,97.3,55.8,97.3,57.2L97.3,57.2z M31.6,23.9
	C31.6,10.7,42.3,0,55.5,0c13.2,0,23.9,10.7,23.9,23.9c0,13.2-10.7,23.9-23.9,23.9C42.3,47.7,31.6,37,31.6,23.9z M59.9,28.9v1
	c0,1.6-1.3,2.9-2.9,2.9h-3.1c-1.6,0-2.9-1.3-2.9-2.9c0-1-0.8-1.8-1.8-1.8c-1,0-1.8,0.8-1.8,1.8c0,3.5,2.8,6.3,6.2,6.4v2.9
	c0,1,0.8,1.8,1.8,1.8c1,0,1.8-0.8,1.8-1.8v-2.9c3.4-0.1,6.2-3,6.2-6.4v-1c0-3-2-5.5-4.9-6.3l-5.4-1.3c-1.3-0.3-2.2-1.5-2.2-2.8v-1
	c0-1.6,1.3-2.9,2.9-2.9H57c1.6,0,2.9,1.3,2.9,2.9c0,1,0.8,1.8,1.8,1.8c1,0,1.8-0.8,1.8-1.8c0-3.5-2.8-6.3-6.2-6.4V8.4
	c0-1-0.8-1.8-1.8-1.8c-1,0-1.8,0.8-1.8,1.8v2.7c-3.4,0.1-6.2,3-6.2,6.4v1c0,3,2,5.5,4.9,6.3l5.4,1.3C59,26.5,59.9,27.6,59.9,28.9
	L59.9,28.9z"/>
</svg>
