<?xml version="1.0" encoding="utf-8"?>
<!-- Generator: Adobe Illustrator 27.0.0, SVG Export Plug-In . SVG Version: 6.00 Build 0)  -->
<svg version="1.1" id="Capa_1" xmlns="http://www.w3.org/2000/svg" xmlns:xlink="http://www.w3.org/1999/xlink" x="0px" y="0px"
	 viewBox="0 0 1080 1080" style="enable-background:new 0 0 1080 1080;" xml:space="preserve">
<g>
	<g>
		<g>
			<path d="M1786.9,400.8c-1.7,3.5-3.4,7-5.1,10.5c-1.1,2.2-1.6,4.5-0.9,6.9c0.6,2.1,2.2,4.4,4.1,5.4c4.1,2.2,10,1.2,12.3-3.2
				c9.8-19,20.3-37.7,31.5-56c11.2-18.4,23-36.3,35.5-53.9c7-9.8,14.2-19.6,21.6-29.1c-0.5,0.6-0.9,1.2-1.4,1.8
				c5.8-7.5,11.8-15,17.8-22.3c3-3.6,6-7.3,9.1-10.8c2.9-3.4,5.7-7.3,9.2-10.1c-0.6,0.5-1.2,0.9-1.8,1.4c0.7-0.5,1.4-1,2.2-1.3
				c-0.7,0.3-1.4,0.6-2.1,0.9c0.7-0.3,1.3-0.4,2-0.5c-0.8,0.1-1.6,0.2-2.4,0.3c0.6,0,1.1,0,1.7,0c-0.8-0.1-1.6-0.2-2.4-0.3
				c0.6,0.1,1.1,0.3,1.6,0.5c-0.7-0.3-1.4-0.6-2.1-0.9c1,0.4,1.8,1,2.7,1.6c-0.6-0.5-1.2-0.9-1.8-1.4c3.8,3,7,6.8,10.3,10.3
				c3.5,3.7,7,7.5,10.5,11.3c6.9,7.7,13.7,15.5,20.2,23.5c3.7,4.5,7.3,9.1,10.9,13.7c-0.5-0.6-0.9-1.2-1.4-1.8
				c13.5,17.5,26.1,35.6,38.1,54.2c12,18.6,23.4,37.5,34.7,56.5c6.3,10.7,12.5,21.5,18.8,32.2c4.1-4.1,8.2-8.2,12.3-12.3
				c-11.1-6.4-22.2-12.8-33.4-19.3c-3.9-2.3-8.9-1.2-11.6,2.3c-2.6,3.3-2.7,8.9,0.7,11.8c12.5,10.8,27.2,18.7,43.2,23
				c5.3,1.4,11.8-2.7,11.4-8.7c-0.8-11.4-1.5-22.9-2.3-34.3c-5.9,0.8-11.8,1.6-17.7,2.4c0.9,3.3,1.5,6.6,2,10
				c-0.1-0.8-0.2-1.6-0.3-2.4c0.9,6.9,0.9,13.9,0,20.9c0.1-0.8,0.2-1.6,0.3-2.4c-0.1,0.9-0.3,1.8-0.4,2.7c-0.4,2.5-0.4,4.7,0.9,6.9
				c1.1,1.9,3.2,3.6,5.4,4.1c2.3,0.5,4.9,0.4,6.9-0.9c1.9-1.2,3.8-3.1,4.1-5.4c2.1-12.8,1.7-25.7-1.6-38.3c-1.2-4.3-5.5-7-9.9-6.4
				c-4.2,0.6-8.1,4.4-7.8,8.8c0.8,11.4,1.5,22.9,2.3,34.3c3.8-2.9,7.6-5.8,11.4-8.7c-4.6-1.2-9-2.7-13.3-4.5
				c0.7,0.3,1.4,0.6,2.1,0.9c-7.8-3.3-15.1-7.6-21.8-12.7c0.6,0.5,1.2,0.9,1.8,1.4c-1.4-1.1-2.8-2.2-4.1-3.4
				c-3.6,4.7-7.3,9.4-10.9,14.1c11.1,6.4,22.2,12.8,33.4,19.3c3.3,1.9,8.2,1.5,10.9-1.4c2.7-3,3.5-7.3,1.4-10.9
				c-16.2-28-32.4-55.9-49.8-83.2c-17.7-27.8-36.8-54.7-57.9-80c-10.5-12.6-21.5-24.7-32.9-36.4c-3.3-3.4-6.9-6.7-11.6-8.1
				c-6-1.7-11.6,0.5-16.1,4.4c-2.7,2.3-5,5.4-7.3,8.1c-2.6,3-5.1,6-7.6,9c-20.3,24.4-39.4,49.9-57.2,76.3
				c-17.4,25.9-33.5,52.7-48.2,80.2c-1.8,3.3-3.5,6.7-5.3,10c5.2,3,10.4,6.1,15.5,9.1c1.7-3.5,3.4-7,5.1-10.5
				c1.1-2.2,1.6-4.5,0.9-6.9c-0.6-2.1-2.2-4.4-4.1-5.4C1795.2,395.4,1789.1,396.3,1786.9,400.8L1786.9,400.8z"/>
		</g>
	</g>
	<g>
		<g>
			<path d="M2099.8,492.3c11.4,15.8,22.1,32.1,32,48.8c9.9,16.7,19.2,33.9,27.6,51.4c4.8,9.9,9.3,19.9,13.5,30
				c-0.3-0.7-0.6-1.4-0.9-2.1c6.4,15.3,12.3,30.8,17.6,46.6c1.5,4.5,3,9,4.4,13.5c2.9-3.8,5.8-7.6,8.7-11.4
				c-32.6,0.3-65.3,0.7-97.8-3.1c-29.2-3.4-58.3-7-87.6-8.4c-17.4-0.8-34.8-0.8-52.2,0.1c-3.8,0.2-7.8,2.6-8.7,6.6
				c-0.9,3.8,0.5,8.2,4.1,10.2c7.3,3.9,14.2,8.4,20.7,13.4c-0.6-0.5-1.2-0.9-1.8-1.4c5.5,4.2,10.6,8.8,15.5,13.8
				c3.6-4.7,7.3-9.4,10.9-14.1c-16.8-8.6-32.8-18.7-47.7-30.2c0.6,0.5,1.2,0.9,1.8,1.4c-1.1-0.9-2.2-1.7-3.3-2.6
				c-0.6,4.7-1.2,9.4-1.8,14.1c7.2-3.6,14.5-7.1,21.9-10.2c-0.7,0.3-1.4,0.6-2.1,0.9c15.2-6.4,31.1-11.9,47.5-14.1
				c-0.8,0.1-1.6,0.2-2.4,0.3c2.8-0.4,5.5-0.6,8.3-0.8c2.4-0.1,4.7-0.9,6.4-2.6c1.6-1.6,2.7-4.1,2.6-6.4c-0.2-4.7-4-9.2-9-9
				c-23.2,1.1-45.6,9.4-66.6,18.7c-5.3,2.4-10.6,4.9-15.7,7.5c-2.5,1.3-3.9,3.9-4.3,6.6c-0.3,2.6,0.3,5.8,2.5,7.6
				c12.9,10.2,26.5,19.6,40.8,27.7c4,2.3,8,4.4,12,6.5c4,2.1,8.8,1.3,11.6-2.3c2.7-3.5,2.5-8.6-0.7-11.8c-11.1-11.4-24-21.1-38-28.6
				c-1.5,5.6-3,11.2-4.5,16.8c30.3-1.6,60.5-0.2,90.7,2.7c14.6,1.4,29.2,3.2,43.7,4.9c16.1,1.9,32.2,3.1,48.3,3.6
				c18.3,0.5,36.7,0.3,55,0.1c5.7-0.1,10.4-5.7,8.7-11.4c-8.5-27.3-18.8-54-30.7-80c-11.5-25.3-24.7-49.8-39.3-73.5
				c-8.2-13.3-16.9-26.3-26-39c-1.4-2-3-3.5-5.4-4.1c-2.2-0.6-5-0.3-6.9,0.9c-1.9,1.2-3.6,3.1-4.1,5.4
				C2098.4,487.6,2098.4,490.3,2099.8,492.3L2099.8,492.3z"/>
		</g>
	</g>
	<g>
		<g>
			<path d="M1915.2,665.1c-33.3-0.6-66.7-0.5-100,0.1c-33.2,0.6-66.3,1.8-99.4,3.6c-18.6,1-37.2,2.2-55.7,3.6
				c2.6,4.5,5.2,9,7.8,13.5c10.5-19,21-37.9,31.6-56.9c10.5-19,21-37.9,31.6-56.9c5.9-10.7,11.9-21.4,17.8-32.1
				c2.2-3.9,1.3-8.9-2.3-11.6c-1.5-1.2-3.5-2-5.5-1.9c-2.5,0.1-4.4,1.1-6.4,2.6c-0.7,0.6-1.4,1.1-2.1,1.7c0.6-0.5,1.2-0.9,1.8-1.4
				c-8.8,6.8-18.5,12.4-28.7,16.7c0.7-0.3,1.4-0.6,2.1-0.9c-1.8,0.8-3.6,1.5-5.4,2.1c2.9,5,5.8,10,8.8,15c5-4.4,10.1-8.6,15.3-12.7
				c-0.6,0.5-1.2,0.9-1.8,1.4c7.9-6.1,16-11.7,24.5-17c-4.5-2.6-9-5.2-13.5-7.8c1,20.2,0.2,40.5-2.5,60.5c0.1-0.8,0.2-1.6,0.3-2.4
				c-0.2,1.8-0.5,3.6-0.8,5.5c-0.4,2.5-0.4,4.7,0.9,6.9c1.1,1.9,3.2,3.6,5.4,4.1c2.3,0.5,4.9,0.4,6.9-0.9c1.8-1.2,3.8-3.1,4.1-5.4
				c2.7-17.7,4.1-35.6,4-53.6c0-4.9-0.2-9.9-0.4-14.8c-0.2-3.2-1.6-6.1-4.5-7.8c-2.7-1.6-6.4-1.7-9.1,0
				c-14.7,9.2-28.6,19.6-41.6,31.1c-2.9,2.5-3.5,7.7-1.4,10.9c0.8,1.3,1.9,2.4,3.2,3.2c1.8,1.1,4.9,1.6,6.9,0.9
				c7.3-2.7,14.4-5.9,21.1-9.7c6.8-3.8,13.1-8.3,19.1-13.1c-4.7-3.6-9.4-7.3-14.1-10.9c-10.5,19-21,37.9-31.6,56.9
				c-10.5,19-21,37.9-31.6,56.9c-5.9,10.7-11.9,21.4-17.8,32.1c-1.6,2.8-1.7,6.3,0,9.1c1.5,2.6,4.7,4.7,7.8,4.5
				c33.2-2.4,66.5-4.3,99.8-5.6c33.1-1.3,66.3-1.9,99.4-2c18.6-0.1,37.2,0.1,55.8,0.4c4.7,0.1,9.2-4.2,9-9
				C1924,669.2,1920.2,665.2,1915.2,665.1L1915.2,665.1z"/>
		</g>
	</g>
</g>
<g>
	<polygon points="2163,1208.2 2163,1224 2033.5,1224 2023.8,1222.9 2022.9,1225.7 2030.9,1231.1 2064.8,1265 2052.9,1277 
		1997.6,1221.7 1997.6,1209.5 2052.9,1154.2 2064.8,1166.2 2030.9,1200.1 2022.9,1205.5 2023.8,1208.3 2033.5,1207.2 2142.7,1207.2 
		2065.3,1075.6 2080.1,1067 2162.4,1207.2 	"/>
</g>
<g>
	<polygon points="1766,1225.6 1765.6,1217.6 1830.4,1105.4 1836.2,1097.7 1834.2,1095.5 1825.6,1099.7 1779.2,1112.1 1774.8,1095.8 
		1850.3,1075.5 1860.9,1081.6 1881.1,1157.2 1864.8,1161.5 1852.4,1115.1 1851.7,1105.5 1848.8,1104.9 1845,1113.8 1790.4,1208.5 
		1943.1,1207.2 1943.1,1224.3 1780.5,1225.6 	"/>
</g>
<g>
	<polygon points="1955,855 1964.4,854.6 2029.2,966.8 2033,975.7 2035.9,975.1 2036.6,965.5 2049,919.1 2065.4,923.5 2045.1,999 
		2034.6,1005.1 1959,984.9 1963.4,968.6 2009.8,981 2018.5,985.2 2020.4,983 2014.6,975.2 1960,880.6 1884.7,1013.5 1869.9,1004.9 
		1950.1,863.5 	"/>
</g>
<g>
	<g>
		<path d="M1200.4,694.8l-71.2-71.2v-15.7l71.2-71.2l15.4,15.4l-43.8,43.7l-10.3,6.9l1.2,3.6l12.4-1.5h166.9v21.7h-166.9l-12.4-1.5
			l-1.2,3.6l10.3,6.9l43.8,43.8L1200.4,694.8z"/>
	</g>
</g>
<polygon points="-592,174 -857,633 -327,633 "/>
<g>
	<g>
		<path d="M-1098.4,843.1c2.3,33,4.6,66,5.2,99.1c0.6,32.7-0.9,65.3-4.4,97.8c-1.8,16.5-3.7,33-4.9,49.6
			c-1.1,16.2-1.4,32.5-1.2,48.8c0.3,32.9,1.3,65.7,2.1,98.6c0.8,37.4,1.7,74.7,2.5,112.1c0.1,5.5,2.3,11,6.2,14.8
			c3.6,3.6,9.6,6.4,14.8,6.2c11.2-0.5,21.3-9.2,21-21c-1.5-66.2-3.3-132.5-4.5-198.7c-0.3-16.6-0.3-33.2,0.5-49.8
			c0.8-16.3,2.5-32.4,4.2-48.6c1.8-16.2,3.6-32.4,4.6-48.6c1-16.3,1.4-32.7,1.3-49c-0.2-37.1-2.8-74.1-5.3-111.1
			c-0.4-5.6-2.1-10.8-6.2-14.8c-3.6-3.6-9.6-6.4-14.8-6.2c-5.4,0.2-11.1,2-14.8,6.2C-1095.8,832.1-1098.8,837.5-1098.4,843.1
			L-1098.4,843.1z"/>
	</g>
</g>
<g>
	<g>
		<path d="M-1077.6,838.4c7.4-1.3,14.8-2.6,22.2-3.7c3.7-0.6,7.4-1.1,11.1-1.6c0.9-0.1,1.7-0.3,2.6-0.4c-0.2,0-3.8,0.5-1.3,0.2
			c2-0.3,4-0.5,6-0.8c15.2-1.9,30.4-3.3,45.7-4.3c30.3-2,60.7-2.3,91-0.9c30.1,1.4,60.3,4.1,90.1,8.3c-0.7-0.1-4.4-0.6-0.4,0
			c0.9,0.1,1.7,0.2,2.6,0.4c1.7,0.2,3.5,0.5,5.2,0.7c4,0.6,8,1.2,12.1,1.8c7.5,1.1,14.9,2.3,22.4,3.6c14.9,2.5,29.8,5.1,44.7,7.9
			c60.1,11.3,119.8,25.1,180.1,35.3c60.9,10.3,123.1,18,185,19c58.9,1,118.9-9.2,166.2-46.5c5-3.9,9.7-8.1,14.1-12.7
			c7.7-7.8,8.4-22,0-29.7c-8.3-7.6-21.5-8.4-29.7,0c-2.2,2.3-4.5,4.5-6.8,6.6c-2.3,2-5.3,3.8-7.3,6.1c0-0.1,3.3-2.4,1.4-1.1
			c-0.6,0.4-1.2,0.9-1.8,1.3c-1.4,1-2.8,2-4.2,2.9c-2.6,1.8-5.3,3.5-8,5.1c-5.5,3.2-11.1,6.1-16.9,8.8c-1.3,0.6-2.7,1.1-4,1.8
			c0,0,3.8-1.5,1.6-0.7c-0.9,0.3-1.8,0.7-2.7,1.1c-3,1.1-6,2.2-9,3.2c-12.6,4.2-25.5,7.2-38.6,9.1c-0.8,0.1-1.7,0.2-2.5,0.4
			c-2.5,0.4,1.2-0.1,1.3-0.2c-1.8,0.5-4.1,0.5-6,0.7c-3.7,0.4-7.4,0.7-11.1,1c-7.4,0.5-14.9,0.8-22.3,0.9c-30,0.4-60.1-2-90-4.8
			c-15.1-1.4-30.2-3.1-45.2-5c-1.7-0.2-3.5-0.4-5.2-0.7c-0.9-0.1-1.7-0.2-2.6-0.3c-3.2-0.4,3.6,0.5,0.4,0.1c-3.8-0.5-7.5-1-11.3-1.6
			c-7.5-1.1-15-2.2-22.5-3.4c-59.9-9.7-119-23.3-178.5-34.7c-60.5-11.7-121.6-21.6-183.2-25.6c-61.4-4-122.8-1-183.6,8.3
			c-7.4,1.1-14.8,2.4-22.2,3.7c-10.8,2-17.9,15.7-14.7,25.8C-1099.7,835.4-1089.2,840.5-1077.6,838.4L-1077.6,838.4z"/>
	</g>
</g>
<g>
	<g>
		<path d="M-1077.6,1374.7c7.4-1.3,14.8-2.6,22.2-3.7c3.7-0.6,7.4-1.1,11.1-1.6c0.9-0.1,1.7-0.3,2.6-0.4c-0.2,0-3.8,0.5-1.3,0.2
			c2-0.3,4-0.5,6-0.8c15.2-1.9,30.4-3.3,45.7-4.3c30.3-2,60.7-2.3,91-0.9c30.1,1.4,60.3,4.1,90.1,8.3c-0.7-0.1-4.4-0.6-0.4,0
			c0.9,0.1,1.7,0.2,2.6,0.4c1.7,0.2,3.5,0.5,5.2,0.7c4,0.6,8,1.2,12.1,1.8c7.5,1.1,14.9,2.3,22.4,3.6c14.9,2.5,29.8,5.1,44.7,7.9
			c60.1,11.3,119.8,25.1,180.1,35.3c60.9,10.3,123.1,18,185,19c58.9,1,118.9-9.2,166.2-46.5c5-3.9,9.7-8.1,14.1-12.7
			c7.7-7.8,8.4-22,0-29.7c-8.3-7.6-21.5-8.4-29.7,0c-2.2,2.3-4.5,4.5-6.8,6.6c-2.3,2-5.3,3.8-7.3,6.1c0-0.1,3.3-2.4,1.4-1.1
			c-0.6,0.4-1.2,0.9-1.8,1.3c-1.4,1-2.8,2-4.2,2.9c-2.6,1.8-5.3,3.5-8,5.1c-5.5,3.2-11.1,6.1-16.9,8.8c-1.3,0.6-2.7,1.1-4,1.8
			c0,0,3.8-1.5,1.6-0.7c-0.9,0.3-1.8,0.7-2.7,1.1c-3,1.1-6,2.2-9,3.2c-12.6,4.2-25.5,7.2-38.6,9.1c-0.8,0.1-1.7,0.2-2.5,0.4
			c-2.5,0.4,1.2-0.1,1.3-0.2c-1.8,0.5-4.1,0.5-6,0.7c-3.7,0.4-7.4,0.7-11.1,1c-7.4,0.5-14.9,0.8-22.3,0.9c-30,0.4-60.1-2-90-4.8
			c-15.1-1.4-30.2-3.1-45.2-5c-1.7-0.2-3.5-0.4-5.2-0.7c-0.9-0.1-1.7-0.2-2.6-0.3c-3.2-0.4,3.6,0.5,0.4,0.1c-3.8-0.5-7.5-1-11.3-1.6
			c-7.5-1.1-15-2.2-22.5-3.4c-59.9-9.7-119-23.3-178.5-34.7c-60.5-11.7-121.6-21.6-183.2-25.6c-61.4-4-122.8-1-183.6,8.3
			c-7.4,1.1-14.8,2.4-22.2,3.7c-10.8,2-17.9,15.7-14.7,25.8C-1099.7,1371.6-1089.2,1376.8-1077.6,1374.7L-1077.6,1374.7z"/>
	</g>
</g>
<g>
	<g>
		<path d="M-200.7,823.4c4.9,70.4,8.4,140.9,10.5,211.4c2,70.2,2.7,140.4,1.9,210.5c-0.5,39.4-1.4,78.8-2.7,118.1
			c-0.4,11,9.9,21.5,21,21c11.7-0.5,20.6-9.2,21-21c2.4-70.5,3.4-141.1,2.9-211.6c-0.5-70.2-2.3-140.4-5.7-210.5
			c-1.9-39.3-4.2-78.7-6.9-118c-0.4-5.6-2.1-10.8-6.2-14.8c-3.6-3.6-9.6-6.4-14.8-6.2c-5.4,0.2-11.1,2-14.8,6.2
			C-198.1,812.5-201.1,817.9-200.7,823.4L-200.7,823.4z"/>
	</g>
</g>
<g>
	<g>
		<path d="M-565.3,982.6c-4.6-3.8-9.3-7.2-14.8-9.6c-5.4-2.3-10.7-4.5-16.5-5.6c-9.8-1.9-19.8-2.7-29.7-1.6
			c-9.3,1-18.5,2.6-27.3,6.2c-5,2.1-10,4.2-14.7,7c-1.6,1-3.2,2.1-4.6,3.2c-2.8,2.1-5.7,4.3-8.3,6.7c-3.9,3.6-7.3,7.9-10.3,12.3
			c-2.9,4.2-4.9,8.9-6.8,13.6c-1.5,3.8-2.1,7.7-2.7,11.8c-0.5,4.1-1,8-0.7,12.1c0.8,10,3.1,19.2,7.9,28c2.3,4.1,5.2,7.9,8.4,11.4
			c1,1.1,2.1,2.1,3.2,3c2.5,2,5,4.1,7.8,5.7c2.8,1.6,5.9,2.8,8.9,4c1.7,0.7,3.4,1.2,5.2,1.5c6.5,1.3,13,1.8,19.6,1.3
			c4.8-0.3,9.5-0.9,14.3-1.1c4-0.2,8-0.1,12,0.2c1.9,0.1,3.9,0.4,5.8,0.6c-1.9-0.2-3.7-0.5-5.6-0.8c8.8,1.2,17.5,3.6,25.7,7
			c-1.7-0.7-3.3-1.4-5-2.1c7.7,3.3,15,7.4,21.6,12.5c-1.4-1.1-2.8-2.2-4.3-3.3c5.9,4.6,11.2,9.8,15.8,15.7c-1.1-1.4-2.2-2.8-3.3-4.3
			c4.3,5.7,7.9,11.8,10.7,18.4c-0.7-1.7-1.4-3.3-2.1-5c2.9,7.1,4.9,14.5,6,22.1c-0.3-1.9-0.5-3.7-0.8-5.6c1,7.4,1,15,0,22.4
			c0.2-1.9,0.5-3.7,0.8-5.6c-0.9,6.8-2.7,13.4-5.3,19.7c0.7-1.7,1.4-3.3,2.1-5c-2.5,5.8-5.7,11.3-9.6,16.3c1.1-1.4,2.2-2.8,3.3-4.3
			c-4.3,5.5-9.2,10.3-14.7,14.6c1.4-1.1,2.8-2.2,4.3-3.3c-6.6,5-13.8,9.2-21.4,12.4c1.7-0.7,3.3-1.4,5-2.1
			c-8.4,3.5-17.3,5.9-26.4,7.2c1.9-0.3,3.7-0.5,5.6-0.8c-9,1.2-18.2,1.1-27.2-0.1c1.9,0.2,3.7,0.5,5.6,0.8
			c-10.1-1.4-19.9-4.1-29.3-8c1.7,0.7,3.3,1.4,5,2.1c-9.5-4-18.4-9.2-26.6-15.5c1.4,1.1,2.8,2.2,4.3,3.3
			c-7.6-5.9-14.6-12.7-20.5-20.4c1.1,1.4,2.2,2.8,3.3,4.3c-5.4-7.1-10-14.8-13.5-23c0.7,1.7,1.4,3.3,2.1,5c-2.3-5.5-4.1-11.2-5.3-17
			c-0.6-2.7-1.9-5.1-3.8-7.1c-1.5-2.3-3.4-4.1-5.9-5.4c-2.4-1.5-5-2.4-7.8-2.5c-2.8-0.6-5.6-0.5-8.4,0.4c-5.1,1.6-10,4.8-12.6,9.7
			c-0.7,1.7-1.4,3.3-2.1,5c-1,3.7-1,7.4,0,11.2c1.8,8.6,5,16.7,8.6,24.7c2.9,6.4,6.5,12.4,10.6,18.1c5.1,7,10.6,13.7,16.9,19.6
			c6.4,6,13.3,11.4,20.6,16.1c5.9,3.9,12.2,7.2,18.7,10c8.1,3.5,16.2,6.6,24.9,8.5c8.6,1.9,17.4,3.1,26.2,3.3
			c8.9,0.2,17.8-0.8,26.5-2.3c9.5-1.7,18.3-5,27.1-8.7c7.2-3.1,14-7,20.2-11.7c4.4-3.3,8.7-6.7,12.7-10.6c3.9-3.9,7.3-8.2,10.6-12.6
			c5.7-7.6,9.8-16.2,12.9-25.2c1.3-3.7,2.3-7.5,3-11.3c1-5.5,1.8-11.1,2-16.7c0.4-9.4-0.7-19.1-2.8-28.3c-0.9-3.9-2-7.7-3.4-11.4
			c-1.9-5.2-4.1-10.4-6.8-15.3c-1.9-3.5-4-6.8-6.3-10c-3.3-4.4-6.7-8.8-10.5-12.8c-2.7-2.8-5.5-5.3-8.6-7.7
			c-4.4-3.5-8.8-6.9-13.6-9.8c-3.3-2-6.7-3.8-10.2-5.4c-5.1-2.3-10.3-4.5-15.6-6.3c-9-3-18.5-4.5-27.9-5.4
			c-8.5-0.8-16.9-0.1-25.4,0.6c-4.7,0.4-9.4,0.6-14,0c1.9,0.2,3.7,0.5,5.6,0.8c-2.8-0.4-5.5-1.1-8.1-2.1c1.7,0.7,3.3,1.4,5,2.1
			c-2.3-1-4.4-2.2-6.4-3.7c1.4,1.1,2.8,2.2,4.3,3.3c-2.2-1.7-4.1-3.7-5.8-5.8c1.1,1.4,2.2,2.8,3.3,4.3c-1.9-2.6-3.5-5.3-4.8-8.3
			c0.7,1.7,1.4,3.3,2.1,5c-1.5-3.6-2.5-7.4-3-11.3c0.2,1.9,0.5,3.7,0.8,5.6c-0.5-3.9-0.5-7.9,0-11.8c-0.3,1.9-0.5,3.7-0.8,5.6
			c0.5-3.5,1.4-6.9,2.8-10.1c-0.7,1.7-1.4,3.3-2.1,5c1.4-3.4,3.4-6.5,5.6-9.4c-1.1,1.4-2.2,2.8-3.3,4.3c2.7-3.4,5.8-6.5,9.2-9.2
			c-1.4,1.1-2.8,2.2-4.3,3.3c4.4-3.4,9.2-6.1,14.2-8.2c-1.7,0.7-3.3,1.4-5,2.1c6.4-2.7,13.2-4.5,20.1-5.4c-1.9,0.3-3.7,0.5-5.6,0.8
			c7.3-1,14.7-1,22-0.1c-1.9-0.3-3.7-0.5-5.6-0.8c5.2,0.7,10.3,2,15.2,4c-1.7-0.7-3.3-1.4-5-2.1c3.5,1.5,6.9,3.4,9.9,5.7
			c-1.4-1.1-2.8-2.2-4.3-3.3c0.3,0.3,0.6,0.5,1,0.8c1.9,2,4.2,3.5,6.8,4.3c2.5,1.3,5.2,1.9,8.1,1.8c2.9,0.1,5.6-0.5,8.1-1.8
			c2.6-0.8,4.9-2.3,6.8-4.3c3.7-4,6.4-9.3,6.2-14.8c-0.3-1.9-0.5-3.7-0.8-5.6C-560.9,988.3-562.7,985.3-565.3,982.6L-565.3,982.6z"
			/>
	</g>
</g>
<g>
	<g>
		<path d="M-627.4,947.2c-0.1,43.6-1.2,87.2-3.5,130.7c-2.2,43.3-5.4,86.6-9.7,129.7c-2.4,24.3-5.2,48.6-8.2,72.8
			c-0.1,2.9,0.5,5.6,1.8,8.1c0.8,2.6,2.3,4.9,4.3,6.8c3.6,3.6,9.6,6.4,14.8,6.2c5.4-0.2,11.1-2,14.8-6.2c1.1-1.4,2.2-2.8,3.3-4.3
			c1.9-3.3,2.9-6.8,2.9-10.6c5.5-43.2,9.9-86.6,13.3-130.1c3.4-43.2,5.7-86.5,7-129.9c0.7-24.4,1.1-48.9,1.2-73.3
			c0-5.4-2.4-11-6.2-14.8c-3.6-3.6-9.6-6.4-14.8-6.2c-5.4,0.2-11.1,2-14.8,6.2C-625,936.5-627.4,941.5-627.4,947.2L-627.4,947.2z"/>
	</g>
</g>
<g>
	<g>
		<path d="M350.3,101c-45.3-10.7-85.6,24.2-99.7,65c-7.3,21.1-8.5,44.2-8.4,66.4c0,22.7,0.2,45.2-1,67.9
			c-1.3,23.2-2.6,46.3-1.7,69.6c0.9,23.1,3.3,46,5.4,69c2.1,23.3,3.7,46.7,3.3,70.1c-0.4,23.4-2.2,46.7-3,70.1
			c-1.5,47.1,4.8,93.5,8.4,140.3c3.6,46.5,3.9,93.2,3.1,139.9c-0.4,22.6-1.8,45.3-1.6,67.8c0.2,22.3,4.8,46,21.8,61.9
			c15.7,14.7,36.5,20.3,57.2,23.1c22.2,3,44.5,3.9,66.9,3.5c21.4-0.4,42.7-1.9,64-3.2c21-1.3,42-2,63-2.6
			c43.4-1.1,86.7-5.1,129.9-9.8c21.8-2.4,44.1-3.8,65.6-8.2c20.9-4.3,41.1-14.5,52.4-33.4c11.2-18.7,11-41.2,10.9-62.3
			c-0.1-19.5-0.2-39.1-0.5-58.6c-1-83.1-3-166.3-5.4-249.4c-2.6-88.4-5.9-176.7-9.1-265.1c-0.9-23.6-1.7-47.3-2.6-70.9
			c-0.8-21.2-0.8-42.6-3.6-63.6c-2.8-20.6-9.2-40.8-23.9-56.1c-16-16.7-38.5-22.6-60.7-25c-21.4-2.3-43.1-1.9-64.6-2.6
			c-23.5-0.7-47.1-1.4-70.6-2.1c-47.4-1.4-94.7-2.8-142.1-4.2c-23-0.7-45.9-1.4-68.9-2.1c-11-0.3-21.5,9.9-21,21
			c0.5,11.7,9.2,20.6,21,21c91.8,2.7,183.6,5.5,275.4,8.2c21.5,0.6,43.1,0.6,64.5,2.2c2.1,0.2,4.1,0.3,6.2,0.5
			c0.5,0.1,5,0.7,1.3,0.1c-3.7-0.6,0.8,0.1,1.3,0.2c4.4,0.7,8.8,1.7,13.1,3.1c1.1,0.3,2.1,0.7,3.1,1.1c1.6,0.6,3.6,2.2-0.7-0.4
			c1.9,1.1,4,1.9,5.9,3c0.6,0.3,4.2,3,4.4,2.9c-0.7-0.6-1.4-1.1-2.1-1.7c0.7,0.6,1.4,1.1,2,1.7c1,0.9,1.9,1.7,2.8,2.7
			c0.6,0.6,1.1,1.3,1.7,1.9c3.1,3.2-2.6-4-0.2-0.3c0.9,1.4,1.9,2.7,2.7,4.2c1.1,1.8,2,3.7,2.9,5.5c1.9,3.9-1.4-3.7-0.4-1
			c0.5,1.4,1,2.8,1.5,4.2c1.2,3.7,2.2,7.4,2.9,11.2c0.4,2.1,0.8,4.3,1.1,6.5c0.3,1.7-0.4,2.8-0.2-1.7c-0.1,1.3,0.3,2.7,0.4,3.9
			c2.1,20.7,2.1,41.7,2.9,62.5c3.3,89.7,6.8,179.5,9.7,269.2c2.5,79.4,4.7,158.8,6.1,238.2c0.7,39,1.3,78.1,1.5,117.1
			c0.1,9.3,0.2,18.6,0,27.9c0,1-0.4,12.8-0.8,12.7c0.1-0.9,0.3-1.9,0.4-2.8c-0.1,0.9-0.3,1.8-0.5,2.8c-0.2,0.9-0.3,1.8-0.5,2.7
			c-0.6,2.5-1.4,4.8-2.1,7.3c-0.8,2.9,2.4-4.7,0.3-0.6c-0.4,0.8-0.8,1.6-1.3,2.4c-0.7,1.2-1.5,2.3-2.2,3.5c-1,1.7-2.1,1.2,0.9-1.2
			c-1.5,1.2-2.9,3-4.3,4.4c-1.4,1.4-2,0.4,1.4-1c-1,0.4-2,1.5-3,2.1c-1.7,1.1-3.5,2.1-5.4,3c-0.6,0.3-1.7,0.6-2.3,1
			c3.8-2.8,2.6-1.1,0.4-0.3c-4,1.4-8.1,2.5-12.3,3.4c-4,0.9-8.1,1.5-12.2,2.1c-3,0.4,5.6-0.7,1.1-0.2c-0.8,0.1-1.7,0.2-2.5,0.3
			c-3,0.3-5.9,0.7-8.9,1c-10.8,1.2-21.6,2.4-32.3,3.6c-20.9,2.3-41.7,4.4-62.6,6.1c-41.8,3.4-83.7,3.4-125.6,6
			c-40.7,2.5-81.9,6-122.6,1.8c-2.1-0.2-4.7-0.1-6.7-0.8c5.2,1.7,1.3,0.2-0.3-0.1c-1-0.1-1.9-0.3-2.9-0.5c-4.4-0.7-8.9-1.6-13.2-2.8
			c-2.2-0.6-4.3-1.2-6.4-1.9c-0.8-0.3-1.7-0.6-2.5-0.9c-4.4-1.5,4.3,2.2,0.1,0c-1.8-0.9-3.5-1.8-5.2-2.8c-0.9-0.6-1.8-1.2-2.8-1.8
			c-3.8-2.3,3.4,3.1,0.1,0.1c-1.6-1.5-3.1-3-4.6-4.6c-2.2-2.3,1.1,0.9,0.8,1.1c-0.1,0.1-1.7-2.5-1.8-2.8c-0.6-1-1.1-2-1.6-2.9
			c-1.9-3.3,0.7,1.1,0.5,1.3c0.2-0.2-2.3-7.2-2.4-7.7c-0.5-2-0.8-4-1.2-6c-0.6-3,0.5,5.5,0.1,0.8c-0.1-0.9-0.2-1.8-0.2-2.8
			c-0.4-4.9-0.4-9.8-0.4-14.7c0.6-44.6,2.5-89.2,1.7-133.8c-0.4-23-1.4-46.1-3.2-69c-1.7-22.4-4.2-44.7-6.1-67
			c-1.9-23-3.1-45.9-2.4-69c0.6-22.5,2.3-45,3-67.5c1.3-45.2-5.4-89.9-8.1-135c-2.6-44.8,3-89.4,2.4-134.2
			c-0.1-10.4-0.3-20.7,0.1-31.1c0.2-5,0.6-10,1.1-15c0.1-1,0.2-2.1,0.4-3.1c-1,5.7,0,0.4,0.2-0.6c0.4-2.6,0.9-5.1,1.5-7.7
			c1.2-5,2.8-9.9,4.4-14.8c0.7-2.2,1.3-0.6-0.6,1.4c0.6-0.6,1-2.1,1.4-3c1.1-2.2,2.2-4.3,3.4-6.3c1.1-1.9,2.3-3.7,3.6-5.5
			c0.5-0.7,1.1-1.4,1.6-2.1c-2.6,4.2-1.7,2.2-0.8,1.1c3.2-3.6,6.4-7.1,10.1-10.2c0.7-0.6,1.4-1.1,2-1.6c-3.8,3.4-2.3,1.7-1.2,1
			c1.8-1.2,3.5-2.4,5.4-3.4c1.5-0.8,4.4-1.7,5.6-2.9c-2,1.9-3.8,1.4-1.6,0.7c1-0.3,1.9-0.7,2.9-1c1.8-0.6,3.6-1,5.4-1.4
			c0.4-0.1,0.8-0.2,1.2-0.2c2.3-0.4,1.6-0.3-1.9,0.2c0.6,0.1,1.9-0.2,2.5-0.2c2.1-0.1,4.1,0,6.2,0.1c2.4,0.1,0.8,1.2-1.8-0.3
			c0.9,0.5,2.7,0.5,3.7,0.8c10.7,2.5,23.2-3.3,25.8-14.7C367.4,116.1,361.7,103.7,350.3,101L350.3,101z"/>
	</g>
</g>
<g>
	<g>
		<path d="M450.1,201c8.8,2.1,18,1.9,26.9,2.1c7.6,0.2,15.2,0.3,22.7,0.5c15,0.3,30,0.6,45,0.9c8.5,0.2,17,0.3,25.5,0.5
			c2.9,0.1,5.6-0.5,8.1-1.8c2.6-0.8,4.9-2.3,6.8-4.3c2-1.9,3.5-4.2,4.3-6.8c1.3-2.5,1.9-5.2,1.8-8.1c-0.2-5.4-2-11.1-6.2-14.8
			c-4.2-3.8-9.1-6-14.8-6.2c-29.1-0.6-58.3-1.2-87.4-1.8c-4-0.1-8-0.2-12-0.2c-4-0.1-8,0-11.9-0.6c1.9,0.3,3.7,0.5,5.6,0.8
			c-1.1-0.2-2.1-0.4-3.2-0.6c-5.4-1.3-11.3-0.7-16.2,2.1c-2.4,1.3-4.4,3.1-5.9,5.4c-1.9,2-3.1,4.4-3.8,7.1c-1.2,5.4-1,11.4,2.1,16.2
			C440.5,195.9,444.7,199.7,450.1,201L450.1,201z"/>
	</g>
</g>
<g>
	<g>
		<path d="M503.5,835.4c-3.2,0.8-6.3,2.2-9.4,3.6c-1.5,0.7-2.9,1.5-4.2,2.5c-2.7,2-5.5,4-7.8,6.4c-2.3,2.4-4.3,5.1-6.2,7.8
			c-2.9,4.1-4.9,9-6.4,13.7c-0.5,1.6-0.9,3.3-1.2,4.9c-0.6,3.4-1.1,6.9-1.2,10.4c0,1.8,0.1,3.5,0.3,5.3c0.4,3.5,0.8,7.1,1.7,10.5
			c0.5,1.7,1,3.5,1.7,5.1c1.3,3.2,2.6,6.5,4.4,9.5c1.3,2.3,2.9,4.4,4.5,6.5c1.6,2.1,3.2,4.2,5.1,6c2.5,2.5,5.4,4.6,8.2,6.6
			c1.5,1.1,3,2,4.6,2.8c4.6,2.3,9.7,4.4,14.8,5.2c3.5,0.5,7,1.1,10.6,1.2c3.6,0,7.2-0.6,10.7-1.1c5.3-0.8,10.1-2.7,14.9-5
			c1.6-0.8,3.2-1.6,4.6-2.7c2.8-1.9,5.6-4,8-6.4c2.4-2.4,4.5-5.3,6.5-8c1-1.4,1.9-2.9,2.6-4.4c2.2-4.6,4.3-9.4,5.1-14.5
			c0.5-3.4,1.1-6.9,1.1-10.4c0-3.4-0.6-7-1.2-10.3c-0.3-1.7-0.7-3.3-1.3-4.9c-1.2-3.3-2.5-6.6-4.3-9.6c-1.8-3-4-5.7-6.3-8.4
			c-1.2-1.4-2.5-2.7-3.9-3.8c-4.2-3.4-8.4-6.6-13.3-8.7c-3.4-1.4-6.7-3-10.3-3.9c-3.8-1-7.8-1.4-11.7-1.8
			c-6.2-0.6-12.4,0.2-18.5,1.2c-2.2,0.4-4.4,0.9-6.5,1.5c-5.1,1.4-9.9,5.1-12.6,9.7c-1.5,2.4-2.4,5-2.5,7.8
			c-0.6,2.8-0.5,5.6,0.4,8.4c1.6,5.1,4.8,10,9.7,12.6c5,2.6,10.6,3.7,16.2,2.1c2.7-0.7,5.4-1.3,8.2-1.7c-1.9,0.3-3.7,0.5-5.6,0.8
			c4.3-0.6,8.6-0.6,12.9,0c-1.9-0.3-3.7-0.5-5.6-0.8c3.4,0.5,6.6,1.3,9.8,2.6c-1.7-0.7-3.3-1.4-5-2.1c2.9,1.2,5.7,2.8,8.2,4.7
			c-1.4-1.1-2.8-2.2-4.3-3.3c2.2,1.7,4.1,3.7,5.9,5.8c-1.1-1.4-2.2-2.8-3.3-4.3c1.4,1.9,2.6,3.9,3.6,6.1c-0.7-1.7-1.4-3.3-2.1-5
			c1,2.3,1.6,4.7,2,7.1c-0.3-1.9-0.5-3.7-0.8-5.6c0.4,2.7,0.3,5.4,0,8.1c0.3-1.9,0.5-3.7,0.8-5.6c-0.4,3-1.2,5.8-2.3,8.6
			c0.7-1.7,1.4-3.3,2.1-5c-1,2.4-2.4,4.7-3.9,6.7c1.1-1.4,2.2-2.8,3.3-4.3c-1.6,2-3.3,3.8-5.3,5.3c1.4-1.1,2.8-2.2,4.3-3.3
			c-2.1,1.6-4.3,2.8-6.7,3.9c1.7-0.7,3.3-1.4,5-2.1c-2.8,1.2-5.8,2-8.9,2.4c1.9-0.3,3.7-0.5,5.6-0.8c-3.2,0.4-6.4,0.4-9.6,0
			c1.9,0.3,3.7,0.5,5.6,0.8c-2.9-0.4-5.8-1.2-8.5-2.3c1.7,0.7,3.3,1.4,5,2.1c-2.6-1.1-5.1-2.6-7.3-4.3c1.4,1.1,2.8,2.2,4.3,3.3
			c-2.4-1.9-4.6-4.1-6.5-6.6c1.1,1.4,2.2,2.8,3.3,4.3c-2-2.7-3.7-5.6-5.1-8.7c0.7,1.7,1.4,3.3,2.1,5c-1.3-3.2-2.3-6.6-2.7-10.1
			c0.3,1.9,0.5,3.7,0.8,5.6c-0.4-3-0.4-6,0-8.9c-0.3,1.9-0.5,3.7-0.8,5.6c0.4-3.1,1.3-6.2,2.5-9.1c-0.7,1.7-1.4,3.3-2.1,5
			c1.1-2.6,2.5-5,4.2-7.2c-1.1,1.4-2.2,2.8-3.3,4.3c1.5-1.9,3.1-3.6,5-5c-1.4,1.1-2.8,2.2-4.3,3.3c1.7-1.3,3.5-2.4,5.5-3.2
			c-1.7,0.7-3.3,1.4-5,2.1c1.2-0.5,2.3-0.9,3.6-1.1c2.7-0.6,5.1-1.9,7.1-3.8c2.3-1.5,4.1-3.4,5.4-5.9c1.5-2.4,2.4-5,2.5-7.8
			c0.6-2.8,0.5-5.6-0.4-8.4c-1.6-5.1-4.8-10-9.7-12.6c-1.7-0.7-3.3-1.4-5-2.1C511,834.4,507.2,834.4,503.5,835.4L503.5,835.4z"/>
	</g>
</g>
<g>
	<g>
		<path d="M295,826c31.6-0.9,63.2-1.8,94.8-2.8c30.7-0.9,61.4-1.8,92.1-2.7c30.2-0.9,60.4-1.7,90.5-2.6c30.6-0.9,61.2-1.8,91.9-2.7
			c31.4-0.9,62.9-1.8,94.3-2.7c4.1-0.1,8.2-0.2,12.3-0.4c5.5-0.2,10.9-2.2,14.8-6.2c3.6-3.6,6.4-9.6,6.2-14.8
			c-0.5-11.1-9.2-21.3-21-21c-31.6,0.9-63.2,1.8-94.8,2.8c-30.7,0.9-61.4,1.8-92.1,2.7c-30.2,0.9-60.4,1.7-90.5,2.6
			c-30.6,0.9-61.2,1.8-91.9,2.7c-31.4,0.9-62.9,1.8-94.3,2.7c-4.1,0.1-8.2,0.2-12.3,0.4c-5.5,0.2-10.9,2.2-14.8,6.2
			c-3.6,3.6-6.4,9.6-6.2,14.8C274.5,816.1,283.2,826.3,295,826L295,826z"/>
	</g>
</g>
</svg>
