<?xml version="1.0" encoding="utf-8"?>
<!-- Generator: Adobe Illustrator 27.0.0, SVG Export Plug-In . SVG Version: 6.00 Build 0)  -->
<svg version="1.1" id="Capa_1" xmlns="http://www.w3.org/2000/svg" xmlns:xlink="http://www.w3.org/1999/xlink" x="0px" y="0px"
	 viewBox="0 0 1080 1080" style="enable-background:new 0 0 1080 1080;" xml:space="preserve">
<style type="text/css">
	.st0{fill:#EDEDED;}
</style>
<g>
	<g>
		<path class="st0" d="M248.1,391.4c-23.4,29.6-40.6,63.5-50.8,100c-10,35.7-13.5,73.6-9.9,110.5c3.7,37.5,14,73.7,30.4,107.6
			c15.5,32.2,36.7,61.8,61.8,87.2c26,26.1,56.6,47.7,89.9,63.2c35.2,16.5,72.3,26.6,110.9,31.4c37.2,4.7,74.9,3.4,112-2.5
			c36.1-5.7,71.1-16.7,104.2-32.2c33.2-15.6,64-36.4,90.6-61.6c26.4-24.9,48.4-54.5,64.5-87c16.8-33.8,27.4-69.8,31.6-107.3
			c4.1-37.1,0.5-75-10.7-110.6c-12.3-39.1-32-75.8-53.5-110.6c-21.1-34.2-45.8-66.6-76.5-92.7c-31-26.3-66.1-46.5-104.2-60.5
			c-38.2-14-79.4-21-120.2-19.9c-37.2,1.1-74.4,8.6-109,22.2c-36.2,14.2-69.5,34.2-99,59.6c-27.5,23.7-50.9,52.3-69.8,83.4
			c-19,31.4-33.5,65.9-42.6,101.4c-4.6,18-7.7,36.3-9.7,54.8c-0.9,8.4,8,16.5,16.1,16.1c9.5-0.5,15.1-7.1,16.1-16.1
			c0.2-2.1,0.5-4.3,0.8-6.4c0.1-0.4,0.1-0.7,0.2-1.1c0.2-1.8,0.2-1.4-0.2,1.1c0.4-0.5,0.4-2.5,0.5-3.2c0.7-4.6,1.5-9.2,2.3-13.7
			c1.6-8.7,3.6-17.5,5.9-26c2.2-8.3,4.7-16.4,7.4-24.5c1.4-4.1,2.8-8,4.4-12c0.8-2,1.5-4,2.3-6c0.4-1,0.8-2,1.2-3
			c0.7-1.6,0.5-1.3-0.4,0.9c0.3-0.7,0.5-1.3,0.8-1.9c6.8-15.9,14.8-31.3,23.8-46c4.5-7.4,9.3-14.5,14.3-21.5
			c1.1-1.5,2.3-3.1,3.4-4.7c0.6-0.8,1.3-1.7,1.9-2.5c2.2-3-2.2,2.8,0.1-0.1c2.8-3.5,5.7-7,8.6-10.6c11.1-13.1,23.2-25.4,36.2-36.5
			c3.4-2.8,6.7-5.7,10.2-8.4c0.8-0.6,3.4-3.1,0.2-0.2c0.8-0.8,1.8-1.4,2.6-2c2.1-1.5,4.1-3.1,6.2-4.5c7.1-5.1,14.4-9.8,21.9-14.3
			c7.7-4.6,15.8-9,23.9-12.9c3.9-1.9,7.8-3.7,11.8-5.4c1-0.5,2-1,3-1.3c-4.2,1.3-0.8,0.3,0.2-0.1c2.1-0.9,4.4-1.8,6.5-2.6
			c16.6-6.4,33.7-11.3,51.2-14.9c3.8-0.8,7.7-1.5,11.6-2.1c0.9-0.2,5.9-0.3,6.4-0.9c-0.7,0.1-1.5,0.2-2.1,0.3
			c0.7-0.1,1.5-0.2,2.1-0.3c1.5-0.2,2.8-0.3,4.3-0.5c8.9-1,17.8-1.6,26.7-1.8s17.9,0,26.7,0.6c4.8,0.3,9.7,0.8,14.5,1.4
			c1.2,0.2,2.5,0.2,3.6,0.5c-4.3-0.8-0.3,0,0.5,0.1c2.8,0.4,5.6,0.8,8.4,1.3c19.6,3.4,38.8,8.7,57.5,15.6c2.3,0.8,4.6,1.8,6.8,2.6
			c1.1,0.5,2.3,0.9,3.4,1.4c3.9,1.5-3.1-1.4,0.7,0.3c4.5,2,9,4,13.4,6.1c8,3.9,16,8.1,23.7,12.7c8,4.7,15.9,9.9,23.5,15.3
			c1.8,1.3,3.7,2.7,5.4,4c0.9,0.7,1.8,1.3,2.7,2.1c-3.3-2.8-0.3-0.2,0.3,0.2c3.5,2.8,7,5.7,10.4,8.7c14.6,12.6,27.8,26.6,39.8,41.6
			c0.7,0.8,4.5,5.7,1.8,2.3c1.5,1.8,2.8,3.8,4.3,5.7c3.1,4.1,6,8.3,8.9,12.5c5.6,8.1,11,16.4,16.1,24.8
			c10.1,16.5,19.7,33.5,28.3,50.8c2.1,4.3,4.2,8.6,6.2,12.9c1,2.1,2,4.4,2.9,6.5c0.3,0.8,0.6,1.5,0.9,2.2c0.7,1.6,0.6,1.5-0.2-0.5
			c0.3,0.8,0.6,1.5,0.9,2.2c3.8,9.2,7.2,18.5,10.1,28c2.8,9.2,5.1,18.5,6.9,27.9c0.3,1.7,0.6,3.4,0.9,5.2c0.3,1.8,0.2,4.5,0.9,6.2
			c-0.1-0.8-0.2-1.5-0.3-2.2c0.1,0.7,0.2,1.4,0.2,2.1c0.2,1.1,0.2,2.1,0.4,3.1c0.3,2.5,0.5,4.9,0.7,7.3c1.4,17.1,1.1,34.2-0.8,51.3
			c-0.2,1.1-0.2,2.1-0.4,3.1c-0.1,0.4-0.1,0.7-0.2,1.1c-0.2,1.8-0.2,1.4,0.2-1.1c-0.6,1.8-0.6,4.3-0.9,6.2c-0.7,4.5-1.5,9-2.5,13.4
			c-1.8,8.2-3.8,16.4-6.3,24.4c-2.5,8.4-5.4,16.6-8.7,24.8c-0.4,1-0.8,1.9-1.1,2.9c-0.2,0.3-0.2,0.6-0.4,1c-0.7,1.6-0.5,1.3,0.4-0.9
			c0.3,0.8-2.1,4.9-2.5,5.7c-1.8,4.1-3.8,8.2-5.9,12.3c-7.7,15.2-16.7,29.7-26.9,43.4c-0.6,0.8-1.2,1.7-1.8,2.5
			c-2.2,2.9,2.3-2.8,0,0c-1.1,1.4-2.1,2.7-3.2,4.1c-2.8,3.4-5.7,6.9-8.7,10.3c-6,6.7-12.3,13-18.8,19.2
			c-6.2,5.8-12.6,11.4-19.3,16.7c-0.8,0.6-1.6,1.5-2.5,2c3.6-2,0.8-0.6-0.1,0.1c-1.7,1.3-3.4,2.5-5.1,3.8c-3.7,2.7-7.5,5.3-11.3,7.9
			c-14.3,9.6-29.5,18-45.1,25.3c-1.9,0.9-3.8,1.8-5.7,2.6c-1.8,0.8-3.9,2.1-5.8,2.5c0.6-0.2,1.3-0.5,1.9-0.8
			c-0.6,0.3-1.3,0.5-1.9,0.8c-1,0.4-1.9,0.8-2.9,1.2c-2.3,0.9-4.6,1.8-6.9,2.7c-7.9,3-15.9,5.7-23.9,8.1c-16.4,5-33.2,8.8-50.1,11.5
			c-2.1,0.3-4.1,0.6-6.2,0.9c-1.1,0.2-4.6,0.3,0.2,0c-1,0.1-2.1,0.3-3.1,0.4c-4.6,0.5-9.2,1.1-13.9,1.5c-9,0.8-18.1,1.3-27.1,1.5
			c-17.8,0.3-35.5-0.6-53.2-2.8c-1-0.2-2.3-0.1-3.2-0.4c0.7,0.1,1.4,0.2,2.1,0.3c-0.7-0.1-1.5-0.2-2.1-0.3c-2.1-0.3-4.3-0.6-6.4-1
			c-4.3-0.7-8.6-1.5-12.9-2.4c-8.9-1.8-17.7-3.9-26.4-6.4c-8.4-2.4-16.6-5.1-24.8-8c-4.1-1.5-8.1-3.1-12.2-4.7
			c-3.5-1.5,3.3,1.5-0.2-0.1c-1-0.5-2-0.8-3-1.3c-2.3-1-4.7-2.1-7-3.1c-16.2-7.7-31.7-16.6-46.3-27c-1.8-1.3-3.6-2.6-5.4-3.9
			c-0.8-0.6-1.8-1.3-2.6-1.9c-0.3-0.2-0.5-0.4-0.8-0.6c-1.4-1.1-1.1-0.8,0.8,0.7c-0.8-1.4-3.4-2.8-4.7-3.8c-1.8-1.5-3.7-3-5.4-4.5
			c-6.2-5.3-12.2-10.9-17.9-16.6c-6.1-6.1-11.8-12.4-17.3-18.9c-1.3-1.6-2.6-3.1-3.9-4.7c-0.6-0.8-1.3-1.6-1.9-2.5
			c-0.2-0.3-0.5-0.5-0.6-0.8c-1.1-1.4-0.8-1.1,0.6,0.8c-0.7,0-3.2-4.3-3.8-4.9c-1.2-1.7-2.5-3.4-3.6-5.1c-10-14.1-18.8-29-26.3-44.6
			c-1.7-3.4-3.2-6.9-4.7-10.4c-0.1-0.2-1.1-2.9-1.2-2.8c0.3,0.6,0.5,1.3,0.8,1.9c-0.2-0.6-0.5-1.3-0.8-1.9c-0.9-2.2-1.8-4.5-2.7-6.8
			c-3.1-8.1-5.8-16.4-8.2-24.7c-2.3-8-4.2-16.2-5.8-24.4c-0.8-4.1-1.5-8.4-2.1-12.6c-0.1-0.4-0.1-0.7-0.2-1.1
			c-0.2-1.8-0.2-1.4,0.2,1.1c0.2-0.6-0.3-2.5-0.4-3.2c-0.3-2.5-0.5-5-0.8-7.4c-1.6-17.5-1.7-35.1-0.2-52.6c0.2-2.1,0.4-4.3,0.6-6.4
			c0.2-1.4,1.3-5.1,0.8-6.4c-0.1,0.7-0.2,1.5-0.3,2.1c0.1-0.7,0.2-1.4,0.3-2.1c0.2-1.1,0.3-2.1,0.5-3.2c0.4-2.5,0.8-4.9,1.3-7.4
			c1.5-8.4,3.4-16.8,5.7-25c2.4-8.6,5.1-17,8.4-25.3c0.8-2,1.5-4,2.4-5.9c1.4-3.4-1.5,3.4,0-0.1c0.5-1,0.8-1.9,1.3-2.9
			c1.7-3.8,3.5-7.7,5.4-11.5c3.8-7.5,7.9-14.9,12.4-22c2.2-3.5,4.6-7,7-10.5c1.2-1.7,2.5-3.4,3.7-5.1c0.5-0.8,1.1-1.9,1.9-2.5
			c-0.4,0.5-0.8,1.1-1.2,1.6c0.5-0.5,0.8-1.1,1.3-1.6c2.8-3.4,4.7-6.7,4.7-11.3c0-4-1.8-8.7-4.7-11.3
			C265.1,386,253.7,384.3,248.1,391.4L248.1,391.4z"/>
	</g>
</g>
<g>
	<g>
		<path class="st0" d="M583.8,425.3c-5.9-3.3-12.2-6.1-18.6-8.1c-6.4-2.1-12.9-3.1-19.5-4c-12.3-1.6-24.7-0.7-36.9,1.2
			c-11.1,1.8-22,4.8-32.5,8.7c-10.8,4.1-21.5,8.8-31,15.3c-10,6.9-19.2,15.2-25.4,25.7c-6.7,11.6-8.9,25.1-5.7,38.1
			c0.8,3.5,2.3,6.9,3.8,10.1c1,2.1,2.1,4.1,3.5,6.1c2.1,3,4.4,6,7,8.6c2.6,2.7,5.6,4.9,8.6,7.2c5,3.8,10.4,6.4,16.2,8.7
			c5.4,2.2,11.2,3.7,17.1,4.5c7.5,1.1,14.9,1.8,22.4,1.8c6.3,0.1,12.6-0.2,18.8-0.3c12.2-0.3,24.4-0.4,36.5,0.7c3,0.2,6,0.6,9,1
			c-1.5-0.2-2.8-0.4-4.3-0.6c11.3,1.5,22.6,4.3,33.2,8.7c-1.3-0.5-2.5-1.1-3.8-1.6c7.2,3.1,13.9,7,20.1,11.7
			c-1.1-0.8-2.1-1.7-3.3-2.5c5.5,4.3,10.5,9.2,14.8,14.7c-0.8-1.1-1.7-2.1-2.5-3.3c3.6,4.7,6.7,9.7,9,15.2c-0.5-1.3-1.1-2.5-1.6-3.8
			c2,4.7,3.4,9.7,4.1,14.9c-0.2-1.5-0.4-2.8-0.6-4.3c0.8,5.5,0.6,11.1-0.1,16.6c0.2-1.5,0.4-2.8,0.6-4.3
			c-1.4,10.1-4.7,19.9-8.7,29.3c0.5-1.3,1.1-2.5,1.6-3.8c-3.8,8.9-8.3,17.5-14.2,25.2c0.8-1.1,1.7-2.1,2.5-3.3
			c-3.5,4.6-7.6,8.7-12.1,12.3c1.1-0.8,2.1-1.7,3.3-2.5c-3.8,2.9-7.9,5.3-12.3,7.1c1.3-0.5,2.5-1.1,3.8-1.6c-4.7,2-9.8,3.3-14.9,4
			c1.5-0.2,2.8-0.4,4.3-0.6c-7,0.9-13.9,0.7-20.9-0.2c1.5,0.2,2.8,0.4,4.3,0.6c-14.5-2-28.3-6.9-41.8-12.5c1.3,0.5,2.5,1.1,3.8,1.6
			c-10-4.2-19.7-8.7-29.4-13.4c-9.5-4.6-18.8-9.5-27.8-15.1c-5.1-3.1-10-6.5-14.7-10.2c1.1,0.8,2.1,1.7,3.3,2.5
			c-7.6-5.9-14.6-12.4-20.8-19.8c-1.5-1.5-3.2-2.7-5.2-3.3c-1.9-1-4-1.5-6.2-1.4c-4,0-8.7,1.8-11.3,4.7c-2.8,3.1-4.9,7.1-4.7,11.3
			c0.2,1.5,0.4,2.8,0.6,4.3c0.8,2.8,2.1,5.1,4.1,7.1c5.1,6.1,10.8,11.7,16.9,16.9c7.1,5.9,14.6,11.3,22.4,16.2
			c13.7,8.4,28.3,15.3,43,22.1c16.2,7.4,32.7,14.7,50.2,18.5c9,2,18.5,3.3,27.8,2.9c5.2-0.2,10.4-0.8,15.5-2c5.1-1.1,9.9-3,14.6-5.1
			c3.6-1.5,7-3.5,10.2-5.8c4.1-2.9,8-6.1,11.5-9.7c6.1-6.4,11.3-13.7,15.6-21.4c4.5-8.1,8.2-16.8,11.3-25.5
			c3.5-9.8,5.9-20.1,6.5-30.5c0.3-5.5-0.3-10.9-1.1-16.3c-0.5-3.4-1.4-6.8-2.5-10.1c-2.7-7.9-6.4-15.5-11.4-22.1
			c-5.1-6.8-10.6-13.1-17.4-18.4c-6.7-5.3-13.6-10-21.5-13.6c-9-4.1-18.2-7.4-27.8-9.3c-9.9-2.1-20-3.4-30-4
			c-8.9-0.5-17.8-0.6-26.6-0.5c-9,0.2-18.1,0.6-27,0.4c-4.4-0.2-9-0.5-13.3-1c1.5,0.2,2.8,0.4,4.3,0.6c-6.3-0.8-12.6-2.3-18.4-4.7
			c1.3,0.5,2.5,1.1,3.8,1.6c-4.5-1.9-8.7-4.4-12.6-7.4c1.1,0.8,2.1,1.7,3.3,2.5c-3.1-2.5-6-5.2-8.4-8.4c0.8,1.1,1.7,2.1,2.5,3.3
			c-2.1-2.7-3.8-5.6-5.1-8.8c0.5,1.3,1.1,2.5,1.6,3.8c-1.1-2.8-1.9-5.6-2.3-8.5c0.2,1.5,0.4,2.8,0.6,4.3c-0.4-2.9-0.4-5.8,0-8.7
			c-0.2,1.5-0.4,2.8-0.6,4.3c0.5-3.1,1.3-6.1,2.5-9c-0.5,1.3-1.1,2.5-1.6,3.8c1.5-3.6,3.5-6.9,5.9-10c-0.8,1.1-1.7,2.1-2.5,3.3
			c3.4-4.4,7.6-8.4,12-11.8c-1.1,0.8-2.1,1.7-3.3,2.5c7.4-5.7,15.8-10.2,24.4-13.9c-1.3,0.5-2.5,1.1-3.8,1.6
			c13.5-5.7,27.7-10,42.2-11.9c-1.5,0.2-2.8,0.4-4.3,0.6c9.8-1.3,19.8-1.5,29.6-0.2c-1.5-0.2-2.8-0.4-4.3-0.6
			c7.4,1,14.7,2.9,21.6,5.7c-1.3-0.5-2.5-1.1-3.8-1.6c2.8,1.2,5.7,2.6,8.4,4.1c3.7,2.1,8.4,2.8,12.4,1.6c3.8-1,7.7-3.9,9.7-7.4
			c2-3.8,3-8.3,1.6-12.4C590,431,587.6,427.5,583.8,425.3L583.8,425.3z"/>
	</g>
</g>
<g>
	<g>
		<path class="st0" d="M491.4,373c4.6,44.1,9.1,88.3,13.7,132.4c4.5,43.9,9.1,87.8,13.6,131.7c2.5,24.7,5.1,49.3,7.7,73.9
			c0.5,4.4,1.5,8.1,4.7,11.3c2.8,2.8,7.4,4.9,11.3,4.7c4.1-0.2,8.5-1.5,11.3-4.7c2.7-3,5.1-7.2,4.7-11.3
			c-4.6-44.1-9.1-88.3-13.7-132.4c-4.5-43.9-9.1-87.8-13.6-131.7c-2.5-24.7-5.1-49.3-7.7-73.9c-0.5-4.4-1.5-8.1-4.7-11.3
			c-2.8-2.8-7.4-4.9-11.3-4.7c-4.1,0.2-8.5,1.5-11.3,4.7C493.4,364.6,490.9,368.8,491.4,373L491.4,373z"/>
	</g>
</g>
<g>
	<g>
		<path class="st0" d="M171.8,821.8c-5.1-5.9-10.1-12-14.9-18.2c1.1,1.4,2.2,2.8,3.3,4.3c-22.3-28.9-40.6-60.6-54.8-94.1
			c0.7,1.7,1.4,3.3,2.1,5c-14.9-35.5-25.1-72.9-30.2-111c0.3,1.9,0.5,3.7,0.8,5.6c-4.8-36.5-5-73.5-0.2-109.9
			c-0.3,1.9-0.5,3.7-0.8,5.6c4.9-36.7,14.9-72.5,29.3-106.6c-0.7,1.7-1.4,3.3-2.1,5c14.6-34.3,33.5-66.7,56.3-96.2
			c-1.1,1.4-2.2,2.8-3.3,4.3c22-28.4,47.5-54.1,75.9-76.1c-1.4,1.1-2.8,2.2-4.3,3.3c8.5-6.5,17.2-12.7,26.1-18.6
			c9.2-6,13.9-18.9,7.5-28.7c-5.9-9.2-18.9-14-28.7-7.5c-40,26.2-75.7,58.8-105.1,96.5c-30.4,38.9-54.4,81.8-71.2,128.3
			c-16.5,45.6-25,94.3-25.2,142.8C32,605.4,40.4,656,56.8,703.3c16.9,48.9,41.7,94.1,73.9,134.5c3.7,4.7,7.5,9.2,11.4,13.7
			c7.2,8.3,22.4,8,29.7,0C180,842.7,179.5,830.7,171.8,821.8L171.8,821.8z"/>
	</g>
</g>
<g>
	<g>
		<path class="st0" d="M243.9,172.7c-16.7,0.6-33.4,1.2-50.1,1.8c-4.7,0.2-9.5,0.3-14.2,0.5c-5.5,0.2-10.9,2.2-14.8,6.2
			c-2,1.9-3.5,4.2-4.3,6.8c-1.3,2.5-1.9,5.2-1.8,8.1c0.2,5.4,2,11.1,6.2,14.8c4,3.7,9.2,6.4,14.8,6.2c16.7-0.6,33.4-1.2,50.1-1.8
			c4.7-0.2,9.5-0.3,14.2-0.5c5.5-0.2,10.9-2.2,14.8-6.2c2-1.9,3.5-4.2,4.3-6.8c1.3-2.5,1.9-5.2,1.8-8.1c-0.2-5.4-2-11.1-6.2-14.8
			C254.7,175.1,249.5,172.5,243.9,172.7L243.9,172.7z"/>
	</g>
</g>
<g>
	<g>
		<path class="st0" d="M225.3,201.2c-9.3,17-17.5,34.7-24.8,52.6c-1.9,4.7-3.7,9.3-5.5,14.1c-0.9,2.8-1,5.6-0.4,8.4
			c0.1,2.8,1,5.4,2.5,7.8c1.3,2.4,3.1,4.4,5.4,5.9c2,1.9,4.4,3.1,7.1,3.8c5.4,1.2,11.4,1,16.2-2.1c1.4-1.1,2.8-2.2,4.3-3.3
			c2.6-2.6,4.4-5.7,5.4-9.3c2.4-6.3,4.9-12.6,7.5-18.8c-0.7,1.7-1.4,3.3-2.1,5c6.2-14.6,13.1-28.9,20.7-42.8
			c2.7-4.9,3.6-10.8,2.1-16.2c-0.6-2.7-1.9-5.1-3.8-7.1c-1.5-2.3-3.4-4.1-5.9-5.4c-4.9-2.6-10.8-3.9-16.2-2.1
			C232.8,193.2,228,196.4,225.3,201.2L225.3,201.2z"/>
	</g>
</g>
<g>
	<g>
		<path class="st0" d="M939.8,649.5c-5.4,30.4-14.3,60.1-26.3,88.6c0.7-1.7,1.4-3.3,2.1-5c-11.3,26.8-25.4,52.4-41.8,76.3
			c-4.6,6.8-9.5,13.4-14.5,19.9c1.1-1.4,2.2-2.8,3.3-4.3c-17.2,22.2-36.5,42.8-57.7,61.2c-6.1,5.3-12.3,10.4-18.7,15.3
			c1.4-1.1,2.8-2.2,4.3-3.3c-27.7,21.4-58.1,39.1-90.3,52.8c1.7-0.7,3.3-1.4,5-2.1c-35,14.7-71.8,24.7-109.4,29.8
			c1.9-0.3,3.7-0.5,5.6-0.8c-38.2,5.1-77,5.2-115.3,0.1c1.9,0.2,3.7,0.5,5.6,0.8c-24.4-3.3-48.4-8.7-71.8-16.3
			c-10.5-3.4-23.4,3.9-25.8,14.7c-2.6,11.5,3.5,22.2,14.7,25.8c48.4,15.7,100.1,22.5,150.9,20.6c50.9-1.9,101.8-12.1,149.2-31.1
			c24.1-9.6,47.4-20.9,69.4-34.7c20.5-12.8,39.9-27.4,58.1-43.3c35-30.7,65.2-67.5,89.1-107.5c23.9-40.1,41.9-84.4,52-130
			c1.2-5.4,2.3-10.9,3.3-16.4c1-5.7,0.9-11-2.1-16.2c-2.5-4.4-7.5-8.5-12.6-9.7c-5.4-1.2-11.4-1-16.2,2.1
			C945.1,639.8,940.8,644.2,939.8,649.5L939.8,649.5z"/>
	</g>
</g>
<g>
	<g>
		<path class="st0" d="M390,1005.8c11,12.6,21.9,25.3,32.9,37.9c3.1,3.6,6.2,7.2,9.3,10.8c1.9,2,4.2,3.5,6.8,4.3
			c2.5,1.3,5.2,1.9,8.1,1.8c2.9,0.1,5.6-0.5,8.1-1.8c2.6-0.8,4.9-2.3,6.8-4.3c3.7-4,6.4-9.3,6.2-14.8c-0.3-1.9-0.5-3.7-0.8-5.6
			c-1-3.6-2.8-6.6-5.4-9.3c-11-12.6-21.9-25.3-32.9-37.9c-3.1-3.6-6.2-7.2-9.3-10.8c-1.9-2-4.2-3.5-6.8-4.3
			c-2.5-1.3-5.2-1.9-8.1-1.8c-2.9-0.1-5.6,0.5-8.1,1.8c-2.6,0.8-4.9,2.3-6.8,4.3c-3.7,4-6.4,9.3-6.2,14.8c0.3,1.9,0.5,3.7,0.8,5.6
			C385.6,1000.1,387.4,1003.2,390,1005.8L390,1005.8z"/>
	</g>
</g>
<g>
	<g>
		<path class="st0" d="M424.9,1000.1c17.4-3.1,34.6-7.2,51.5-12.2c4.8-1.4,9.5-2.9,14.2-4.5c2.7-0.6,5.1-1.9,7.1-3.8
			c2.3-1.5,4.1-3.4,5.4-5.9c1.5-2.4,2.4-5,2.5-7.8c0.6-2.8,0.5-5.6-0.4-8.4c-1.6-5.1-4.8-10-9.7-12.6c-4.8-2.6-10.8-3.9-16.2-2.1
			c-16.7,5.6-33.8,10.2-51.1,13.9c-4.9,1-9.8,2-14.6,2.9c-2.7,0.6-5.1,1.9-7.1,3.8c-2.3,1.5-4.1,3.4-5.4,5.9c-1.5,2.4-2.4,5-2.5,7.8
			c-0.6,2.8-0.5,5.6,0.4,8.4c1.6,5.1,4.8,10,9.7,12.6c1.7,0.7,3.3,1.4,5,2.1C417.4,1001.1,421.1,1001.1,424.9,1000.1L424.9,1000.1z"
			/>
	</g>
</g>
<g>
	<g>
		<path class="st0" d="M484.7,97c36.9-1.1,74-0.6,110.8,2.7c10.5,0.9,20.9,2.1,31.3,3.5c-1.9-0.3-3.7-0.5-5.6-0.8
			c36.5,4.9,72.7,12.9,107.4,25.2c8.5,3,16.9,6.3,25.2,9.8c-1.7-0.7-3.3-1.4-5-2.1c31.4,13.3,61.3,30.3,88.3,51.2
			c-1.4-1.1-2.8-2.2-4.3-3.3c21.7,16.9,41.5,36.2,58.4,57.9c-1.1-1.4-2.2-2.8-3.3-4.3c17.7,22.9,31.7,48.2,43,74.8
			c-0.7-1.7-1.4-3.3-2.1-5c16.4,38.9,26.8,79.9,35.6,121c2.5,11.7,4.9,23.5,7.2,35.3c1,4.9,5.4,10.1,9.7,12.6
			c4.5,2.6,11.1,3.8,16.2,2.1c5.1-1.6,10-4.8,12.6-9.7c2.7-5.2,3.3-10.4,2.1-16.2c-9.1-46.2-18.8-92.6-35.1-136.9
			c-8.5-23.2-18.6-45.9-31.1-67.2c-11.9-20.2-26.1-39.2-42-56.5c-30.1-32.6-67-59.3-106.4-79.4c-43.2-21.9-89.5-36.7-137-45.4
			c-51.7-9.4-104.3-12.5-156.8-11.8c-6.4,0.1-12.7,0.2-19.1,0.4c-5.5,0.2-10.9,2.2-14.8,6.2c-3.6,3.6-6.4,9.6-6.2,14.8
			c0.2,5.4,2,11.1,6.2,14.8C473.9,94.5,479.1,97.1,484.7,97L484.7,97z"/>
	</g>
</g>
<g>
	<g>
		<path class="st0" d="M992.9,442.4c-12.1-11.9-25.1-22.7-38.7-32.9c-2.4-1.5-5-2.4-7.8-2.5c-2.8-0.6-5.6-0.5-8.4,0.4
			c-1.7,0.7-3.3,1.4-5,2.1c-2.4,1.3-4.4,3.1-5.9,5.4c-1.3,1.3-2.2,2.9-2.7,4.6c-1.3,2.5-1.9,5.2-1.8,8.1c0.3,1.9,0.5,3.7,0.8,5.6
			c1,3.6,2.8,6.6,5.4,9.3c12.5,15.1,27.3,28.1,43.3,39.4c4.1,2.9,8.4,5.7,12.7,8.3c1.7,0.7,3.3,1.4,5,2.1c2.8,0.9,5.6,1,8.4,0.4
			c1.9,0,3.7-0.5,5.3-1.4c2.6-0.8,4.9-2.3,6.8-4.3c13.7-17.2,26.1-35.3,36.6-54.7c2.7-5.1,5.3-10.2,7.8-15.4c1.5-2.4,2.4-5,2.5-7.8
			c0.6-2.8,0.5-5.6-0.4-8.4c-0.6-2.7-1.9-5.1-3.8-7.1c-1.5-2.3-3.4-4.1-5.9-5.4c-4.9-2.6-10.8-3.9-16.2-2.1
			c-4.9,1.6-10.2,4.8-12.6,9.7c-8.1,17.1-17.6,33.4-28.4,48.9c-3.1,4.4-6.3,8.7-9.6,13c1.1-1.4,2.2-2.8,3.3-4.3
			c-1,1.3-2.1,2.6-3.1,3.9c8.5-1.1,17-2.2,25.4-3.3c-6.8-4.1-13.4-8.6-19.7-13.4c1.4,1.1,2.8,2.2,4.3,3.3
			c-11.8-9.1-22.5-19.5-32.1-30.9c-8.5,11-17,22-25.4,33c1.7,1.3,3.5,2.6,5.2,3.9c-1.4-1.1-2.8-2.2-4.3-3.3
			c10.3,8,20.1,16.5,29.3,25.7c3.8,3.8,9.4,6.2,14.8,6.2c2.9,0.1,5.6-0.5,8.1-1.8c2.6-0.8,4.9-2.3,6.8-4.3c3.7-4,6.4-9.3,6.2-14.8
			C998.8,451.7,996.9,446.4,992.9,442.4L992.9,442.4z"/>
	</g>
</g>
</svg>
