<?xml version="1.0" encoding="utf-8"?>
<!-- Generator: Adobe Illustrator 27.0.0, SVG Export Plug-In . SVG Version: 6.00 Build 0)  -->
<svg version="1.1" id="Capa_1" xmlns="http://www.w3.org/2000/svg" xmlns:xlink="http://www.w3.org/1999/xlink" x="0px" y="0px"
	 viewBox="0 0 1080 1080" style="enable-background:new 0 0 1080 1080;" xml:space="preserve">
<style type="text/css">
	.st0{fill:#EDEDED;}
</style>
<g>
	<g>
		<path class="st0" d="M349.9,505.4c-3.9,9.4-6.8,19.2-8.7,29.2c-2.2,11.5-3.5,23.3-3.5,35c0,11.9,1.3,23.8,3.5,35.4
			c1.8,10,4.6,19.9,8.3,29.4c4.2,10.9,9.1,21.6,15.2,31.6c5.9,9.6,12.8,18.7,20.3,27.1c6.4,7.2,13.4,13.9,20.9,20
			c8.7,7,17.7,13.6,27.4,19.2c9.8,5.7,20.1,10.4,30.6,14.5c9,3.5,18.3,6.4,27.7,8.5c10.7,2.4,21.7,3.7,32.5,5.1
			c9.8,1.3,19.7,2.3,29.5,2.2c6.3-0.1,12.6-0.8,18.8-1.9c4.2-0.8,8.3-2.1,12.4-3c9.3-2.1,18.8-3.6,28-6c6-1.6,11.7-3.8,17.4-6.3
			c4.4-1.9,8.2-4.5,12.1-7.2c10.5-7.2,20.8-14.8,30.5-23c17.9-15,33.1-33,44.6-53.3c11.4-20.1,19.7-42,26.2-64.2
			c1.5-5,3-10.1,4.1-15.2c1.4-6.2,2.2-12.7,2.7-19.1c0.8-10.4,0.5-20.9-0.1-31.2c-0.6-11.1-0.9-22.4-3-33.3s-6.4-21.4-11.4-31.2
			c-5.3-10.5-12.2-20-19.4-29.2c-6.4-8.1-13.4-15.6-20.9-22.6c-15.9-14.7-33.9-27.7-53.8-36.5c-11.3-5-22.9-9.3-34.9-12.4
			c-12.1-3.1-24.5-4.9-36.9-6.2c-23.8-2.4-48.2-1.4-71.7,3.1c-22.8,4.4-44.5,14.1-62.9,28.2c-9.5,7.3-18.5,15.1-26.6,23.9
			c-8.2,8.9-15.7,18.4-22.6,28.3c-13.2,18.7-23.4,39.1-31.6,60.5c-8.2,21.5-13.1,43.7-15.8,66.5c-1.2,10.3-1.8,20.6-1.7,30.9
			c0,5.4,2.3,11,6.2,14.8c3.6,3.6,9.6,6.4,14.8,6.2c5.4-0.2,11.1-2,14.8-6.2c3.8-4.1,6.2-9.2,6.2-14.8c-0.1-11.7,0.7-23.4,2.2-35
			c-0.3,1.9-0.5,3.7-0.8,5.6c3-22.4,9-44.2,17.8-65c-0.7,1.7-1.4,3.3-2.1,5c8.5-20,19.4-38.9,32.7-56.1c-1.1,1.4-2.2,2.8-3.3,4.3
			c10.2-13.2,21.8-25.4,34.9-35.7c-1.4,1.1-2.8,2.2-4.3,3.3c9.4-7.3,19.7-13.5,30.7-18.2c-1.7,0.7-3.3,1.4-5,2.1
			c11.8-4.9,24.3-7.9,36.9-9.7c-1.9,0.3-3.7,0.5-5.6,0.8c21.1-2.8,42.8-2.7,63.9,0.1c-1.9-0.3-3.7-0.5-5.6-0.8
			c17.6,2.4,34.9,6.8,51.3,13.7c-1.7-0.7-3.3-1.4-5-2.1c13.7,5.8,26.5,13.5,38.3,22.6c-1.4-1.1-2.8-2.2-4.3-3.3
			c13.4,10.4,25.6,22.4,35.9,35.8c-1.1-1.4-2.2-2.8-3.3-4.3c7.3,9.5,13.7,19.8,18.4,30.8c-0.7-1.7-1.4-3.3-2.1-5
			c3.2,7.5,5.5,15.3,6.7,23.4c-0.3-1.9-0.5-3.7-0.8-5.6c0.6,4.7,0.7,9.4,1,14.1c0.3,5.2,0.6,10.3,0.8,15.5
			c0.4,10.5,0.5,21.1-0.9,31.5c0.2-1.9,0.5-3.7,0.8-5.6c-1.3,9.6-4.4,19.1-7.3,28.4c-3.1,9.8-6.5,19.5-10.5,29
			c0.7-1.7,1.4-3.3,2.1-5c-6.7,15.9-15,31.1-25.6,44.8c1.1-1.4,2.2-2.8,3.3-4.3c-10.3,13.3-22.7,24.6-35.9,34.9
			c1.4-1.1,2.8-2.2,4.3-3.3c-5.2,4-10.5,7.9-15.9,11.6c-4.7,3.2-9.2,6.4-14.5,8.7c1.7-0.7,3.3-1.4,5-2.1c-9,3.8-18.7,5.7-28.3,7.6
			c-4.6,0.9-9.3,1.8-13.9,2.9c-4.3,1-8.5,2.3-12.9,2.9c1.9-0.3,3.7-0.5,5.6-0.8c-13.7,1.8-27.7,0.2-41.3-1.6
			c1.9,0.3,3.7,0.5,5.6,0.8c-9.6-1.3-19.2-2.6-28.6-4.9c-9.8-2.3-19.4-5.5-28.6-9.4c1.7,0.7,3.3,1.4,5,2.1
			c-14.9-6.3-28.9-14.4-41.7-24.3c1.4,1.1,2.8,2.2,4.3,3.3c-11.7-9.1-22.2-19.5-31.2-31.2c1.1,1.4,2.2,2.8,3.3,4.3
			c-8.4-10.9-15.3-22.8-20.7-35.5c0.7,1.7,1.4,3.3,2.1,5c-5.8-13.7-9.7-28-11.7-42.7c0.3,1.9,0.5,3.7,0.8,5.6
			c-1.9-14.3-1.9-28.7-0.1-43c-0.3,1.9-0.5,3.7-0.8,5.6c1.7-12.9,5.1-25.5,10-37.4c0.9-2.8,1-5.6,0.4-8.4c-0.1-2.8-1-5.4-2.5-7.8
			c-2.5-4.4-7.5-8.5-12.6-9.7c-5.4-1.2-11.4-1-16.2,2.1c-1.4,1.1-2.8,2.2-4.3,3.3C352.7,498.7,350.9,501.8,349.9,505.4L349.9,505.4z
			"/>
	</g>
</g>
<g>
	<g>
		<path class="st0" d="M370.5,286.3c5.9-20.8,10.1-42.1,14.1-63.4c4.1-21.7,7.9-43.5,12.7-65.1c1.3-5.8,2.7-11.6,4.2-17.4
			c1.5-5.7,2.8-11.5,5.1-16.9c-0.7,1.7-1.4,3.3-2.1,5c0.9-2,1.9-3.9,3.3-5.6c-1.1,1.4-2.2,2.8-3.3,4.3c1-1.2,2.1-2.3,3.4-3.3
			c-1.4,1.1-2.8,2.2-4.3,3.3c1.8-1.4,3.7-2.5,5.8-3.3c-1.7,0.7-3.3,1.4-5,2.1c4.8-2,9.9-2.9,15-3.6c-1.9,0.3-3.7,0.5-5.6,0.8
			c16.3-2.2,32.7-4.5,49-6.7c-1.9,0.3-3.7,0.5-5.6,0.8c33.4-4.5,67.1-8.4,100.8-7c9.4,0.4,18.7,1.2,28,2.4c-1.9-0.3-3.7-0.5-5.6-0.8
			c11.2,1.5,22.2,3.6,33.2,6.5c11.3,2.9,22.6,6.3,33.4,10.8c-1.7-0.7-3.3-1.4-5-2.1c4.3,1.8,8.4,4,12,6.8c-1.4-1.1-2.8-2.2-4.3-3.3
			c2.4,1.9,4.6,4.1,6.5,6.6c-1.1-1.4-2.2-2.8-3.3-4.3c3.5,4.6,6.2,9.8,8.4,15.1c-0.7-1.7-1.4-3.3-2.1-5c4.5,10.8,8.7,21.8,13.4,32.5
			c2.5,5.6,5.1,11.1,7.5,16.7c-0.7-1.7-1.4-3.3-2.1-5c2.7,6.4,4.5,13,5.4,19.9c-0.3-1.9-0.5-3.7-0.8-5.6c1.5,11.3,1.8,22.8,2.2,34.3
			c0.2,5.5,2.2,10.9,6.2,14.8c3.6,3.6,9.6,6.4,14.8,6.2c5.4-0.2,11.1-2,14.8-6.2c3.7-4,6.3-9.2,6.2-14.8c-0.5-14.8-1-29.7-3.6-44.3
			c-1.7-9.4-5.7-18.1-9.6-26.7c-2.7-6-5.4-12-8-18.1c0.7,1.7,1.4,3.3,2.1,5c-4.3-10.1-7.8-20.7-12.7-30.5
			c-5.6-11.3-14.3-21.1-25.4-27.3c-5.6-3.1-11.7-5.5-17.8-7.7c-5-1.8-10-3.5-15-5c-9.7-3-19.6-5.4-29.6-7.3
			c-20.5-3.9-41.5-5.9-62.3-6c-19.2-0.1-38.4,1.4-57.4,3.5c-24.6,2.7-49,6.4-73.5,9.7c1.9-0.3,3.7-0.5,5.6-0.8c-7.8,1-16,1.6-23.5,4
			c-4.2,1.4-8.6,3-12.3,5.5c-5.5,3.6-9.3,7.5-13.1,12.9c-2.8,4-4.5,8.7-6,13.3c-1,3.2-1.9,6.4-2.8,9.6c-1.8,6.7-3.4,13.4-4.9,20.1
			c-6.3,27.8-10.8,55.9-16.3,83.9c-3,15.3-6.4,30.5-10.6,45.5c-1.5,5.2-0.6,11.5,2.1,16.2c2.5,4.4,7.5,8.5,12.6,9.7
			c5.4,1.2,11.4,1,16.2-2.1C365.5,295.9,369,291.7,370.5,286.3L370.5,286.3z"/>
	</g>
</g>
<g>
	<g>
		<path class="st0" d="M335.2,262.9c-34.1-8.9-69.1-13.1-103.5-20.9c-4.5-1-9-2.1-13.5-3.2c-7.6-1.9-15.3-3.7-23.1-1.5
			c-10.4,3-17.3,11.4-24,19.3c-10.9,12.7-21,26.1-30.5,39.8c-18.3,26.5-34.4,54.8-47.6,84.2c-6.8,15.2-13.2,30.8-18.2,46.7
			c-2.3,7.4-4.6,14.9-5.8,22.5c-1,6.2-1.9,12.5-1.2,18.8c0.4,3.6,0.8,7.4,1.8,10.9c1.1,3.7,2.7,7.3,4.3,10.7
			c1.8,3.7,4.1,7.1,6.5,10.4c3.5,4.7,7.2,9.3,11,13.9c5.4,6.5,11.2,12.6,17.3,18.5c11.4,10.8,24,20.3,36.5,29.7
			c2.7,2,5.4,4.1,8.1,6.2c-1.4-1.1-2.8-2.2-4.3-3.3c14.2,11,27.4,23,39.3,36.5c3.4,3.9,9.8,6.2,14.8,6.2c5.2,0,11.3-2.3,14.8-6.2
			c3.7-4,6.4-9.3,6.2-14.8c-0.3-1.9-0.5-3.7-0.8-5.6c-1-3.6-2.8-6.6-5.4-9.3c-7.4-8.5-15.4-16.5-23.8-23.9
			c-8.3-7.2-17-13.9-25.8-20.5c-4.1-3.1-8.2-6.2-12.2-9.3c1.4,1.1,2.8,2.2,4.3,3.3c-17.2-13.3-32.7-28.2-46.1-45.4
			c1.1,1.4,2.2,2.8,3.3,4.3c-3.2-4.1-6.1-8.5-8.2-13.3c0.7,1.7,1.4,3.3,2.1,5c-1.2-2.9-2-5.8-2.5-8.9c0.3,1.9,0.5,3.7,0.8,5.6
			c-0.5-4.1-0.4-8.2,0.2-12.3c-0.3,1.9-0.5,3.7-0.8,5.6c1.4-9.8,4.5-19.5,7.6-28.9c3.1-9.3,6.6-18.4,10.4-27.3
			c-0.7,1.7-1.4,3.3-2.1,5c13.5-31.9,30.4-62.4,49.9-91c5.3-7.8,10.8-15.4,16.6-22.9c-1.1,1.4-2.2,2.8-3.3,4.3
			c3.7-4.8,7.6-9.6,11.5-14.2c1.8-2.2,3.7-4.3,5.6-6.4c2.1-2.3,4.1-4.7,6.5-6.7c-1.4,1.1-2.8,2.2-4.3,3.3c0.8-0.6,1.7-1.1,2.6-1.5
			c-1.7,0.7-3.3,1.4-5,2.1c0.7-0.3,1.4-0.4,2.1-0.6c-1.9,0.3-3.7,0.5-5.6,0.8c1.2-0.1,2.3-0.1,3.5,0c-1.9-0.3-3.7-0.5-5.6-0.8
			c4.3,0.7,8.6,2.1,12.9,3.1c4.1,1,8.3,1.9,12.4,2.8c8,1.7,16,3.3,24,4.7c15.5,2.8,31.1,5.4,46.5,8.6c9.6,1.9,19.1,4.1,28.5,6.6
			c5.3,1.4,11.4,0.7,16.2-2.1c4.4-2.5,8.5-7.5,9.7-12.6c1.2-5.4,1-11.4-2.1-16.2C344.8,268,340.6,264.3,335.2,262.9L335.2,262.9z"/>
	</g>
</g>
<g>
	<g>
		<path class="st0" d="M188,616.2c-10.5,26.8-20.9,53.5-31.4,80.3c-5.2,13.3-10.4,26.6-15.6,39.9c-2.6,6.6-5.2,13.3-7.8,19.9
			c-1.2,3.1-2.5,6.2-3.5,9.4c-1.5,4.8-2.3,9.9-2.5,14.8c-0.1,3.2,0.4,6.5,1,9.7c0.6,3.3,2,6.3,3.3,9.3c1.8,4.2,4.9,7.8,7.8,11.3
			c4,4.5,8.6,8.6,12.8,12.9c8.3,8.4,16.2,17.1,24.2,25.8c14.7,16.2,29.5,32.6,46.4,46.5c10.3,8.4,21,16.3,32.5,23.1
			c2.7,1.6,5.5,3.2,8.3,4.7c6,3.1,11.7,5.1,18.5,5.4c9.2,0.5,17.3-4.3,25.4-7.9c2.1-0.9,4.2-1.9,6.3-2.7c-1.7,0.7-3.3,1.4-5,2.1
			c14.6-6.2,29.6-11.6,44.5-17c15.5-5.6,31-11.2,46.4-17.2c8.9-3.5,17.9-7.2,26.6-11.3c2.4-1.3,4.4-3.1,5.9-5.4
			c1.9-2,3.1-4.4,3.8-7.1c0.9-2.8,1-5.6,0.4-8.4c-0.1-2.8-1-5.4-2.5-7.8c-2.9-4.5-7.2-8.4-12.6-9.7c-1.9-0.3-3.7-0.5-5.6-0.8
			c-3.8,0-7.3,1-10.6,2.9c-3.6,1.7-7.3,3.3-11,4.9c1.7-0.7,3.3-1.4,5-2.1c-15,6.3-30.3,11.8-45.6,17.4c-15.7,5.7-31.5,11.3-47,17.5
			c-5.5,2.2-10.9,4.5-16.3,6.8c-3.8,1.6-7.5,3.5-11.4,5.1c1.7-0.7,3.3-1.4,5-2.1c-1.6,0.6-3.2,1.2-4.9,1.5c1.9-0.3,3.7-0.5,5.6-0.8
			c-1.2,0.2-2.3,0.2-3.5,0c1.9,0.3,3.7,0.5,5.6,0.8c-1.5-0.2-2.9-0.7-4.3-1.2c1.7,0.7,3.3,1.4,5,2.1c-6.2-2.7-12.2-6.5-17.9-10.2
			c-5.4-3.5-10.7-7.2-15.8-11.1c1.4,1.1,2.8,2.2,4.3,3.3c-12.8-9.9-24.4-21.2-35.5-33c-11.4-12.1-22.3-24.6-33.8-36.7
			c-3.5-3.7-7-7.3-10.6-10.8c-3.6-3.6-7.5-7-10.6-11c1.1,1.4,2.2,2.8,3.3,4.3c-1.2-1.6-2.3-3.3-3.1-5.2c0.7,1.7,1.4,3.3,2.1,5
			c-0.6-1.6-1-3.2-1.3-4.8c0.3,1.9,0.5,3.7,0.8,5.6c-0.2-2.1-0.2-4.1,0.1-6.2c-0.3,1.9-0.5,3.7-0.8,5.6c0.7-5.1,2.6-10,4.5-14.8
			c2-5.1,4-10.1,5.9-15.2c4-10.2,8-20.4,12-30.6c8-20.4,15.9-40.8,23.9-61.2c4.5-11.5,9-23,13.5-34.6c0.9-2.8,1-5.6,0.4-8.4
			c-0.1-2.8-1-5.4-2.5-7.8c-1.3-2.4-3.1-4.4-5.4-5.9c-2-1.9-4.4-3.1-7.1-3.8c-5.4-1.2-11.4-1-16.2,2.1c-1.4,1.1-2.8,2.2-4.3,3.3
			C190.8,609.5,189,612.6,188,616.2L188,616.2z"/>
	</g>
</g>
<g>
	<g>
		<path class="st0" d="M395.2,879.2c10.9,36,21.7,72.1,32.6,108.1c1.6,5.4,3.3,10.8,5.9,15.7c3.2,6,8.7,11.4,14.8,14.5
			c8.7,4.4,18.4,6.6,27.9,8.7c18,4,36.5,6.5,54.9,7.4c16.8,0.8,33.6,0.2,50.3-1.8c18.4-2.2,36.5-5.6,54.3-10.9
			c8-2.4,16-5.2,23.8-8.3c8-3.2,15.9-6.7,24.1-9.5c4.1-1.4,8.2-2.6,12.4-3.4c4-0.8,8.1-1.1,12.1-2.2c11.2-2.9,21.4-10.7,26.4-21.2
			c2.1-4.4,4-9,5-13.9s1.6-10,2.1-15c0.7-8.9,1-17.9,1.2-26.8c0.4-18.6,0.1-37.2-1.1-55.8c-0.3-4.6-0.7-9.3-1-13.9
			c0.1-2.9-0.5-5.6-1.8-8.1c-0.8-2.6-2.3-4.9-4.3-6.8c-3.6-3.6-9.6-6.4-14.8-6.2c-5.4,0.2-11.1,2-14.8,6.2
			c-3.6,3.9-6.6,9.4-6.2,14.8c2.3,27,2.9,54.2,1.8,81.3c-0.3,6.7-0.5,13.4-1.3,20c0.3-1.9,0.5-3.7,0.8-5.6
			c-0.6,4.3-1.5,8.5-3.2,12.4c0.7-1.7,1.4-3.3,2.1-5c-0.9,2-1.9,3.9-3.2,5.6c1.1-1.4,2.2-2.8,3.3-4.3c-1,1.3-2.1,2.4-3.4,3.4
			c1.4-1.1,2.8-2.2,4.3-3.3c-1.3,1-2.7,1.8-4.3,2.5c1.7-0.7,3.3-1.4,5-2.1c-3.8,1.5-7.8,2.1-11.8,2.7c-4,0.6-8,1.5-11.9,2.7
			c-8,2.4-15.7,5.7-23.4,8.8c-15.2,6.2-30.7,11.3-46.7,15c-8.9,2-17.9,3.7-26.9,4.9c1.9-0.3,3.7-0.5,5.6-0.8
			c-20.3,2.7-40.8,3.3-61.2,1.8c-5.8-0.4-11.6-1-17.4-1.8c1.9,0.3,3.7,0.5,5.6,0.8c-8-1.1-15.9-2.5-23.7-4.2
			c-3.9-0.9-7.8-1.8-11.7-2.8c-3.7-1-7.4-1.9-10.9-3.4c1.7,0.7,3.3,1.4,5,2.1c-1.5-0.7-2.9-1.4-4.3-2.4c1.4,1.1,2.8,2.2,4.3,3.3
			c-1-0.8-2-1.7-2.8-2.7c1.1,1.4,2.2,2.8,3.3,4.3c-1.1-1.4-1.9-3-2.6-4.6c0.7,1.7,1.4,3.3,2.1,5c-1.4-3.3-2.3-6.8-3.3-10.3
			c-1.1-3.8-2.3-7.6-3.4-11.4c-2.3-7.7-4.6-15.4-7-23.1c-4.6-15.3-9.2-30.6-13.8-45.9c-2.6-8.7-5.2-17.3-7.8-26
			c-1.6-5.1-5-9.8-9.7-12.6c-2.4-1.5-5-2.4-7.8-2.5c-2.8-0.6-5.6-0.5-8.4,0.4c-5.1,1.6-10,4.8-12.6,9.7
			C394.7,867.9,393.5,873.7,395.2,879.2L395.2,879.2z"/>
	</g>
</g>
<g>
	<g>
		<path class="st0" d="M724.9,845.3c15.8,2.4,31.7,4.8,47.5,7.3c7.7,1.2,15.5,2.4,23.2,3.6c3.9,0.6,7.8,1.2,11.7,1.8
			c5.2,0.8,10.4,1.7,15.7,1.8c1.7,0,3.3-0.1,5-0.3c3.4-0.4,7.1-0.7,10.4-1.9c3-1.1,6-2.2,8.7-3.9c2.9-1.7,5.6-3.9,8.2-6.2
			c5.2-4.6,9.2-10.5,13.4-15.9c10.8-13.7,21.4-27.5,32.1-41.4c19.1-24.8,38.1-49.7,56.8-74.8c4.7-6.3,9.5-12.7,14.2-19
			c2.4-3.2,4.7-6.4,7.1-9.5c2.1-2.9,4.3-5.7,6.1-8.8c1.6-2.8,2.8-5.8,3.9-8.8c1.2-3.2,1.5-6.7,1.9-10c0.7-6.7-1.5-13-4.2-18.9
			c-2-4.3-5.2-8.1-8.4-11.6c-2.3-2.5-4.8-4.8-7.3-7.2c-23.3-21.7-46.5-43.3-69.8-65c-2.9-2.7-5.7-5.3-8.6-8c-4-3.8-9.3-6.2-14.8-6.2
			c-2.9-0.1-5.6,0.5-8.1,1.8c-2.6,0.8-4.9,2.3-6.8,4.3c-3.7,4-6.4,9.3-6.2,14.8s2,11,6.2,14.8c23.4,21.8,46.8,43.6,70.2,65.4
			c3.3,3,6.5,6.1,9.8,9.1c2.7,2.5,5.4,5.1,7.7,8c-1.1-1.4-2.2-2.8-3.3-4.3c1.3,1.7,2.4,3.5,3.3,5.4c-0.7-1.7-1.4-3.3-2.1-5
			c0.6,1.4,1,2.9,1.2,4.4c-0.3-1.9-0.5-3.7-0.8-5.6c0.1,1.3,0.1,2.7-0.1,4c0.3-1.9,0.5-3.7,0.8-5.6c-0.3,1.7-0.8,3.2-1.4,4.8
			c0.7-1.7,1.4-3.3,2.1-5c-1.8,4-4.4,7.6-7.1,11.1c-2.9,4-5.9,8-8.8,11.9c-5.9,7.9-11.8,15.9-17.8,23.8
			c-11.9,15.8-23.8,31.6-35.9,47.3c-6.8,8.9-13.6,17.7-20.4,26.5c1.1-1.4,2.2-2.8,3.3-4.3c-6.7,8.6-13.3,17.2-20,25.8
			c-3.3,4.3-6.6,8.5-10,12.8c-2.8,3.6-5.7,7.2-9.3,10c1.4-1.1,2.8-2.2,4.3-3.3c-1.5,1.2-3.2,2.2-4.9,3c1.7-0.7,3.3-1.4,5-2.1
			c-1.9,0.8-3.9,1.3-5.9,1.6c1.9-0.2,3.7-0.5,5.6-0.8c-4.2,0.5-8.3,0.2-12.5-0.3c1.9,0.2,3.7,0.5,5.6,0.8c-11-1.5-22-3.3-33-5
			c-11.2-1.7-22.3-3.4-33.5-5.1c-6.3-1-12.6-1.9-18.9-2.9c-2.8-0.9-5.6-1-8.4-0.4c-2.8,0.1-5.4,1-7.8,2.5c-2.4,1.3-4.4,3.1-5.9,5.4
			c-1.9,2-3.1,4.4-3.8,7.1c-1.2,5.4-1,11.4,2.1,16.2c1.1,1.4,2.2,2.8,3.3,4.3C718.2,842.5,721.3,844.3,724.9,845.3L724.9,845.3z"/>
	</g>
</g>
<g>
	<g>
		<path class="st0" d="M892.5,551.4c14.9-11.7,29.9-23.3,44.8-35c7.4-5.8,14.8-11.5,22.2-17.3c3-2.3,5.9-4.6,8.3-7.6
			c1.5-1.8,3.3-4,4.5-6.1c1.3-2.2,2.2-4.7,3.1-7.1c1.3-3.6,1.8-7.7,1.8-11.5c0-5.8-1.3-11.7-2.8-17.3c-1.1-4.2-2.2-8.4-3.3-12.5
			c-2.1-8-4.3-15.9-6.5-23.8c-4.3-15.3-8.9-30.5-14.1-45.5c-11-31.8-24.6-62.8-41.6-91.7c-4.9-8.3-9.9-16.6-16.5-23.6
			c-7.7-8.2-18.1-13.7-29-16.2c-5.6-1.3-11.3-1.9-17-2.6c-4.5-0.5-9-1.1-13.5-1.6c-7.9-0.9-15.9-1.9-23.9-2.7
			c-13.9-1.5-27.8-2.7-41.8-3.3c-15.1-0.6-30.2-0.4-45.2,0.3c-4.4,0.2-8.8,0.5-13.1,0.7c-2.9-0.1-5.6,0.5-8.1,1.8
			c-2.6,0.8-4.9,2.3-6.8,4.3c-2,1.9-3.5,4.2-4.3,6.8c-1.3,2.5-1.9,5.2-1.8,8.1c0.2,5.4,2,11.1,6.2,14.8c4,3.6,9.3,6.5,14.8,6.2
			c18.7-1.2,37.5-1.8,56.2-1.1c16.9,0.6,33.6,2.2,50.4,4.1c11.3,1.3,22.6,2.5,33.8,4c-1.9-0.3-3.7-0.5-5.6-0.8
			c5.7,0.8,11.3,1.8,16.6,4c-1.7-0.7-3.3-1.4-5-2.1c2.5,1.1,4.9,2.4,7.1,4.1c-1.4-1.1-2.8-2.2-4.3-3.3c2.9,2.2,5.4,4.9,7.6,7.8
			c-1.1-1.4-2.2-2.8-3.3-4.3c3.1,4,5.7,8.3,8.3,12.6c2.7,4.5,5.3,9,7.8,13.6c4.9,8.9,9.5,18,13.8,27.2c2.4,5.1,4.7,10.3,6.9,15.5
			c-0.7-1.7-1.4-3.3-2.1-5c6.4,15.1,12,30.5,17,46.1c5.2,16,9.8,32.2,14.2,48.4c1.3,4.8,2.6,9.6,3.8,14.4c1.3,4.9,2.8,9.7,3.5,14.7
			c-0.3-1.9-0.5-3.7-0.8-5.6c0.3,2,0.3,4.1,0.1,6.1c0.3-1.9,0.5-3.7,0.8-5.6c-0.2,1.3-0.6,2.6-1.1,3.9c0.7-1.7,1.4-3.3,2.1-5
			c-0.6,1.2-1.3,2.4-2.1,3.5c1.1-1.4,2.2-2.8,3.3-4.3c-3.4,4.4-8.3,7.5-12.6,10.9c-5.1,3.9-10.1,7.9-15.2,11.8
			c-10.1,7.9-20.2,15.8-30.3,23.7c-5.7,4.5-11.5,8.9-17.2,13.4c-2,1.9-3.5,4.2-4.3,6.8c-1.3,2.5-1.9,5.2-1.8,8.1
			c-0.1,2.9,0.5,5.6,1.8,8.1c0.8,2.6,2.3,4.9,4.3,6.8c4,3.7,9.3,6.4,14.8,6.2c1.9-0.3,3.7-0.5,5.6-0.8
			C886.8,555.8,889.9,554,892.5,551.4L892.5,551.4z"/>
	</g>
</g>
</svg>
