<?xml version="1.0" encoding="utf-8"?>
<!-- Generator: Adobe Illustrator 27.0.0, SVG Export Plug-In . SVG Version: 6.00 Build 0)  -->
<svg version="1.1" id="Capa_1" xmlns="http://www.w3.org/2000/svg" xmlns:xlink="http://www.w3.org/1999/xlink" x="0px" y="0px"
	 viewBox="0 0 178.7 178.7" style="enable-background:new 0 0 178.7 178.7;" xml:space="preserve">
<style type="text/css">
	.st0{fill:#EDEDED;}
</style>
<g>
	<g>
		<path class="st0" d="M178.7,89.4c0,2.6-0.1,4.9-0.3,7.1c-3.6,46.1-42.7,82.2-89,82.2C40.1,178.7,0,138.6,0,89.4S40.1,0,89.3,0
			c14.2,0,27.9,3.3,40.5,9.7c4,2.1,8,4.5,11.6,7.2l2.9,2.1l-9.6,15.7l-3.5-2.6c-3.3-2.4-6.8-4.6-10.4-6.4
			c-9.9-4.9-20.5-7.4-31.6-7.4c-39.2,0-71,31.9-71,71s31.9,71,71,71c35,0,65-25.8,70.2-60.3h-51.8l21.9,35l-17.6,11.4l-22.6-37.6
			l-22.2,37.6l-18-11.4L71,100.1H30.2V79H71L49,43.5l18.1-11.4L89.4,70L112,32.3l17.4,11.3L107.6,79l70.4,0.1l0.3,3.6
			C178.6,84.8,178.7,87.1,178.7,89.4z"/>
	</g>
</g>
</svg>
