<?xml version="1.0" encoding="utf-8"?>
<!-- Generator: Adobe Illustrator 27.0.0, SVG Export Plug-In . SVG Version: 6.00 Build 0)  -->
<svg version="1.1" id="Capa_1" xmlns="http://www.w3.org/2000/svg" xmlns:xlink="http://www.w3.org/1999/xlink" x="0px" y="0px"
	 viewBox="0 0 178.7 178.7" style="enable-background:new 0 0 178.7 178.7;" xml:space="preserve">
<style type="text/css">
	.st0{fill:#D8FF33;}
	.st1{fill:#31FF84;}
</style>
<g>
	<g>
		<path class="st0" d="M178.7,89.4c0,2.6-0.1,4.9-0.3,7.1c-3.6,46.1-42.7,82.2-89,82.2C40.1,178.7,0,138.6,0,89.4S40.1,0,89.3,0
			c14.2,0,27.9,3.3,40.5,9.7c4,2.1,8,4.5,11.6,7.2l2.9,2.1l-9.6,15.7l-3.5-2.6c-3.3-2.4-6.8-4.6-10.4-6.4
			c-9.9-4.9-20.5-7.4-31.6-7.4c-39.2,0-71,31.9-71,71s31.9,71,71,71c35,0,65-25.8,70.2-60.3h-51.8l21.9,35l-17.6,11.4l-22.6-37.6
			l-22.2,37.6l-18-11.4L71,100.1H30.2V79H71L49,43.5l18.1-11.4L89.4,70L112,32.3l17.4,11.3L107.6,79l70.4,0.1l0.3,3.6
			C178.6,84.8,178.7,87.1,178.7,89.4z"/>
	</g>
</g>
<g>
	<path d="M265.2-62.1c-7.3-4.2-13-10.4-17-18.4c-4-8.1-6.1-17.6-6.1-28.5c0-10.8,2-20.2,5.9-28.3c3.9-8.1,9.6-14.4,16.9-18.7
		c7.3-4.4,15.8-6.6,25.5-6.6c13.2,0,23.5,3.2,31,9.7c7.5,6.4,12.4,15.9,14.7,28.4l-22.8,0.9c-1.3-6.5-3.8-11.6-7.7-15.1
		c-3.9-3.6-9-5.3-15.2-5.3c-5.4,0-10,1.4-13.8,4.3c-3.8,2.9-6.8,7-8.9,12.3c-2.1,5.3-3.1,11.5-3.1,18.6c0,7.2,1,13.4,3.1,18.7
		c2.1,5.2,5,9.2,8.9,12s8.4,4.2,13.6,4.2c6.8,0,12.2-1.9,16-5.7c3.8-3.8,6.3-9.2,7.4-16.4l22.9,0.9c-2.1,12.7-7.1,22.5-15,29.3
		c-7.9,6.9-18.4,10.3-31.4,10.3C280.8-55.8,272.5-57.9,265.2-62.1z"/>
	<path d="M351.1-135.4h21.6v77.3h-21.6V-135.4z M360.5-165.5h21l-13,21.2h-16.4L360.5-165.5z"/>
	<path d="M389.7-135.4h20.5l0.7,22.5l-1.6-0.4c1.2-7.8,3.5-13.4,6.6-16.9c3.2-3.5,7.5-5.2,13.1-5.2h7.1v17.9H429
		c-4.1,0-7.5,0.6-10.1,1.7s-4.5,2.8-5.8,5.1c-1.3,2.3-1.9,5.4-1.9,9.2v43.4h-21.6L389.7-135.4L389.7-135.4z"/>
	<path d="M460.6-61.4c-6-3.3-10.5-8-13.8-14.1c-3.2-6.1-4.8-13.2-4.8-21.3s1.6-15.2,4.8-21.3c3.2-6.1,7.8-10.8,13.8-14.1
		c6-3.3,12.8-5,20.6-5c6.8,0,12.9,1.2,18.4,3.6c5.4,2.4,9.8,5.9,13.2,10.4c3.4,4.6,5.4,10,6.2,16.2l-22.3,1c-0.7-4.7-2.4-8.3-5-10.8
		c-2.7-2.5-6.2-3.7-10.4-3.7c-5.4,0-9.6,2.1-12.5,6.2c-3,4.1-4.5,9.9-4.5,17.4c0,7.6,1.5,13.5,4.5,17.6s7.2,6.2,12.5,6.2
		c4.2,0,7.7-1.3,10.5-3.9c2.7-2.6,4.4-6.4,5-11.5l22.3,0.9c-0.8,6.2-2.8,11.7-6.1,16.4s-7.7,8.3-13.1,10.9
		c-5.4,2.5-11.6,3.8-18.5,3.8C473.5-56.4,466.6-58,460.6-61.4z"/>
	<path d="M537.5-64c-4.5-5.1-6.7-12.3-6.7-21.6v-49.8h21.6v44.7c0,6,0.9,10.3,2.7,13s4.7,4.1,8.6,4.1c4.4,0,7.9-1.5,10.3-4.6
		c2.5-3.1,3.7-7.6,3.7-13.5v-43.7h21.6v77.3h-19.7L579-80.3l2.7,0.6c-1.2,7.7-3.9,13.5-8.2,17.4c-4.3,3.9-10.1,5.9-17.4,5.9
		C548.2-56.4,542-58.9,537.5-64z"/>
	<path d="M623.5-63c-3.5-3.3-5.2-8.4-5.2-15.3v-82.1H640v79.9c0,2.3,0.5,3.9,1.6,4.9s2.6,1.4,4.6,1.4h5.2v16.1h-12.8
		C632-58.1,627-59.7,623.5-63z"/>
	<path d="M679.1-61.4c-5.9-3.3-10.5-8-13.7-14.1s-4.8-13.2-4.8-21.3s1.6-15.2,4.8-21.3c3.2-6.1,7.8-10.8,13.7-14.1
		c5.9-3.3,12.8-5,20.7-5c7.8,0,14.6,1.7,20.5,5c5.9,3.3,10.5,8,13.8,14.1s4.9,13.2,4.9,21.3s-1.6,15.2-4.9,21.3
		c-3.3,6.1-7.9,10.8-13.8,14.1c-5.9,3.3-12.8,5-20.5,5C691.9-56.4,685-58,679.1-61.4z M712.2-79.2c2.9-4.2,4.4-10,4.4-17.5
		s-1.5-13.3-4.4-17.5s-7.1-6.3-12.5-6.3s-9.6,2.1-12.5,6.3c-3,4.2-4.5,10-4.5,17.5c0,7.6,1.5,13.5,4.5,17.6s7.2,6.2,12.5,6.2
		C705.1-73,709.3-75,712.2-79.2z"/>
	<path d="M781.1-160.4h22.6l27.2,77.7l27.1-77.7h22.8L843.6-58.1H818L781.1-160.4z"/>
	<path d="M898.6-61.4c-5.9-3.3-10.4-8-13.6-14.1c-3.2-6.1-4.8-13.2-4.8-21.3s1.6-15.2,4.8-21.3c3.2-6.1,7.7-10.8,13.5-14.1
		c5.9-3.3,12.7-5,20.5-5c7.6,0,14.2,1.7,20,5c5.7,3.4,10.1,8.2,13.2,14.5c3.1,6.3,4.6,13.7,4.6,22.3v4.3h-54.2
		c0.2,6,1.8,10.5,4.8,13.5c3,3.1,7.1,4.6,12.3,4.6c3.6,0,6.7-0.8,9.2-2.3s4.2-3.9,5.3-7.1l21.8,1.3c-2.1,7.7-6.4,13.7-12.9,18
		s-14.4,6.5-23.7,6.5C911.4-56.4,904.5-58,898.6-61.4z M930.1-116.8c-2.8-2.9-6.5-4.3-11.1-4.3s-8.4,1.5-11.2,4.5
		c-2.9,3-4.6,7.1-5.2,12.4h32.1C934.4-109.7,932.9-113.9,930.1-116.8z"/>
	<path d="M970.6-135.4h20.5l0.7,22.5l-1.6-0.4c1.2-7.8,3.5-13.4,6.6-16.9c3.2-3.5,7.5-5.2,13.1-5.2h7.1v17.9h-7.1
		c-4.1,0-7.5,0.6-10.1,1.7s-4.5,2.8-5.8,5.1c-1.2,2.3-1.9,5.4-1.9,9.2v43.4h-21.6L970.6-135.4L970.6-135.4z"/>
	<path d="M1037.8-61.4c-4.8-3.3-8.5-8-11-14.1s-3.8-13.2-3.8-21.3c0-8.2,1.3-15.3,3.9-21.3c2.6-6.1,6.3-10.7,11-14.1
		c4.8-3.3,10.3-5,16.6-5c5.5,0,10.2,1.1,14.2,3.4s7,5.4,9.2,9.3v-36h21.6v102.3h-20.8l-0.4-11.4c-2.1,4.1-5.3,7.4-9.4,9.7
		c-4.2,2.3-9,3.5-14.3,3.5C1048.1-56.4,1042.6-58,1037.8-61.4z M1070.5-75.7c2.4-1.8,4.2-4.5,5.5-8c1.2-3.5,1.9-7.9,1.9-13
		s-0.6-9.6-1.9-13.1c-1.2-3.6-3.1-6.2-5.5-8s-5.3-2.7-8.8-2.7c-5.1,0-9.1,2.1-12.1,6.4s-4.5,10.1-4.5,17.4c0,7.2,1.5,13,4.5,17.3
		c3,4.3,7,6.5,12,6.5C1065.2-73,1068.1-73.9,1070.5-75.7z"/>
	<path d="M1132.4-61.4c-5.9-3.3-10.4-8-13.6-14.1s-4.8-13.2-4.8-21.3s1.6-15.2,4.8-21.3c3.2-6.1,7.7-10.8,13.5-14.1
		c5.9-3.3,12.7-5,20.5-5c7.6,0,14.2,1.7,20,5c5.7,3.4,10.1,8.2,13.2,14.5s4.6,13.7,4.6,22.3v4.3h-54.2c0.2,6,1.8,10.5,4.8,13.5
		c3,3.1,7.1,4.6,12.3,4.6c3.7,0,6.7-0.8,9.2-2.3c2.4-1.5,4.2-3.9,5.3-7.1l21.8,1.3c-2.1,7.7-6.4,13.7-12.9,18s-14.4,6.5-23.7,6.5
		C1145.1-56.4,1138.3-58,1132.4-61.4z M1163.9-116.8c-2.8-2.9-6.5-4.3-11.1-4.3s-8.4,1.5-11.2,4.5c-2.9,3-4.6,7.1-5.2,12.4h32.1
		C1168.2-109.7,1166.7-113.9,1163.9-116.8z"/>
</g>
<g>
	<g>
		<path class="st1" d="M178.7-110.6c0,2.6-0.1,4.9-0.3,7.1c-3.6,46.1-42.7,82.2-89,82.2C40.1-21.3,0-61.4,0-110.6S40.1-200,89.3-200
			c14.2,0,27.9,3.3,40.5,9.7c4,2.1,8,4.5,11.6,7.2l2.9,2.1l-9.6,15.7l-3.5-2.6c-3.3-2.4-6.8-4.6-10.4-6.4
			c-9.9-4.9-20.5-7.4-31.6-7.4c-39.2,0-71,31.9-71,71s31.9,71,71,71c35,0,65-25.8,70.2-60.3h-51.8l21.9,35l-17.6,11.4L89.3-91.2
			L67.1-53.6L49.1-65L71-99.9H30.2V-121H71l-22-35.5l18.1-11.4L89.4-130l22.6-37.7l17.4,11.3L107.6-121l70.4,0.1l0.3,3.6
			C178.6-115.2,178.7-112.9,178.7-110.6z"/>
	</g>
</g>
</svg>
