<?xml version="1.0" encoding="utf-8"?>
<!-- Generator: Adobe Illustrator 27.0.0, SVG Export Plug-In . SVG Version: 6.00 Build 0)  -->
<svg version="1.1" id="Capa_1" xmlns="http://www.w3.org/2000/svg" xmlns:xlink="http://www.w3.org/1999/xlink" x="0px" y="0px"
	 viewBox="0 0 1080 1080" style="enable-background:new 0 0 1080 1080;" xml:space="preserve">
<g>
	<g>
		<path d="M34.8,856.3c0.6,18,1.3,36,1.9,54c0.6,18,1.3,36,1.9,54c0.4,10.2,0.7,20.3,1.1,30.5c0.3,1.9,0.5,3.7,0.8,5.6
			c0.6,2.7,1.9,5.1,3.8,7.1c0.9,1.6,2.2,2.8,3.8,3.8c2,1.9,4.4,3.1,7.1,3.8c8.7,3.2,17.7,5.4,26.9,6.6c10.9,1.5,21.7,2.4,32.6,2.5
			c18.7,0.1,37.4-1.6,56.1-2c10.5-0.2,21.1,0,31.5,1.2c2.9,0.1,5.6-0.5,8.1-1.8c2.6-0.8,4.9-2.3,6.8-4.3c2-1.9,3.5-4.2,4.3-6.8
			c1.3-2.5,1.9-5.2,1.8-8.1c-0.2-5.4-2-11.1-6.2-14.8c-1.4-1.1-2.8-2.2-4.3-3.3c-3.3-1.9-6.8-2.9-10.6-2.9
			c-29.9-3.3-59.8,1.1-89.7,0.8c-8.2-0.1-16.4-0.5-24.6-1.6c1.9,0.3,3.7,0.5,5.6,0.8c-9.3-1.3-18.5-3.4-27.3-6.7
			c5.1,6.8,10.3,13.5,15.4,20.2c-0.6-18-1.3-36-1.9-54s-1.3-36-1.9-54c-0.4-10.2-0.7-20.3-1.1-30.5c-0.2-5.5-2.2-10.9-6.2-14.8
			c-1.9-2-4.2-3.5-6.8-4.3c-2.5-1.3-5.2-1.9-8.1-1.8c-5.4,0.2-11.1,2-14.8,6.2C37.2,845.5,34.6,850.7,34.8,856.3L34.8,856.3z"/>
	</g>
</g>
<g>
	<g>
		<path d="M76,851c54.8-49.1,109.5-98.2,164.3-147.3s109.5-98.2,164.3-147.3s109.5-98.2,164.3-147.3
			c53.3-47.8,106.4-95.9,160.2-143.1c26.2-22.9,52.6-45.5,79.5-67.5c6.5-5.3,13.1-10.6,19.7-15.8c3.3-2.6,6.6-5.2,9.9-7.8
			c1.7-1.3,3.3-2.6,5-3.9c0.8-0.6,1.7-1.3,2.5-1.9c4.2-3.3-3.5,2.7,0.7-0.6c13.8-10.6,27.6-21,41.7-31.1c6.8-4.9,13.7-9.8,20.6-14.6
			c9-6.2,14-18.7,7.5-28.7c-5.8-9-19.1-14.2-28.7-7.5C829.3,127,774,171.8,720.3,218.2c-54,46.6-106.8,94.6-159.9,142.3
			c-54.8,49.1-109.5,98.2-164.3,147.3c-55,49.3-110,98.6-164.9,147.8c-54.8,49.1-109.5,98.2-164.3,147.3
			c-6.8,6.1-13.7,12.3-20.5,18.4c-8.2,7.4-8,22.3,0,29.7C55,859,67.2,858.8,76,851L76,851z"/>
	</g>
</g>
<g>
	<g>
		<path d="M211,1016.6c61.5-45.1,123-90.1,184.5-135.2c30.5-22.4,60.7-45.1,89-70.2c27.6-24.6,54.1-50.4,80.8-75.9
			c53.7-51,107.2-102,160.5-153.3c53.5-51.6,106.7-103.5,159.2-156c52.4-52.3,104.2-105.2,155.2-158.9c6.4-6.7,12.8-13.5,19.1-20.3
			c7.5-8,8.5-21.9,0-29.7c-8.2-7.5-21.7-8.5-29.7,0C978.9,271,927.2,324.1,875,376.5C822.8,429,769.9,480.8,716.7,532.3
			C663.5,583.7,610,634.8,556.4,685.8c-26.6,25.3-53.2,50.8-80.1,75.9c-13.5,12.6-27.1,24.9-41.2,36.7c-7,5.8-14.1,11.6-21.3,17.2
			c-0.8,0.7-1.7,1.3-2.5,2c0.5-0.4,3.5-2.7,0.4-0.3c-1.7,1.3-3.4,2.6-5.1,3.9c-3.8,2.9-7.7,5.8-11.6,8.7
			c-60.4,45-121.4,89.1-182.1,133.6c-7.7,5.6-15.4,11.3-23.1,16.9c-4.6,3.3-8.1,6.9-9.7,12.6c-1.4,5-0.8,11.7,2.1,16.2
			C187.9,1017.8,201.6,1023.5,211,1016.6L211,1016.6z"/>
	</g>
</g>
<g>
	<g>
		<path d="M899.2,108.2c15.9,3.7,31.8,7.5,47.2,12.8c4.4,1.5,8.7,3.2,13,5c-1.7-0.7-3.3-1.4-5-2.1c11.1,4.7,21.8,10.5,31.4,17.9
			c-1.4-1.1-2.8-2.2-4.3-3.3c7,5.4,13.3,11.6,18.7,18.6c-1.1-1.4-2.2-2.8-3.3-4.3c5.6,7.2,10.2,15.1,13.7,23.5
			c-0.7-1.7-1.4-3.3-2.1-5c3.6,8.6,6,17.6,7.3,26.8c-0.3-1.9-0.5-3.7-0.8-5.6c0.6,4.2,0.9,8.4,0.9,12.7c0.1,5.4,2.3,11,6.2,14.8
			c1.9,2,4.2,3.5,6.8,4.3c2.5,1.3,5.2,1.9,8.1,1.8c5.4-0.2,11.1-2,14.8-6.2c3.7-4.1,6.2-9.2,6.2-14.8c-0.1-8.3-1.1-16.6-2.7-24.7
			c-1.3-6.3-3.1-12.5-5.5-18.4c-3-7.6-6.4-15.1-10.8-22.1c-4.3-6.8-9.2-13.2-14.6-19.1c-5.4-5.8-11.5-10.8-17.8-15.6
			c-5-3.8-10.3-7.2-15.8-10.3c-12.3-6.8-25.6-12.1-39-16.4c-13.6-4.4-27.6-7.7-41.5-10.9c-5.4-1.3-11.3-0.7-16.2,2.1
			c-2.4,1.3-4.4,3.1-5.9,5.4c-1.9,2-3.1,4.4-3.8,7.1c-1.2,5.4-1,11.4,2.1,16.2C889.5,103.1,893.8,107,899.2,108.2L899.2,108.2z"/>
	</g>
</g>
<g>
	<g>
		<path d="M80,975.7c2.7,2.7,5.4,5.4,8.1,8c1.9,2,4.2,3.5,6.8,4.3c2.5,1.3,5.2,1.9,8.1,1.8c1.9-0.2,3.7-0.5,5.6-0.8
			c2.7-0.6,5.1-1.9,7.1-3.8c1.6-0.9,2.8-2.2,3.8-3.8c1.9-2,3.1-4.4,3.8-7.1c1.2-5.3,1-11.5-2.1-16.2c-6.5-9.7-13.1-19.5-19.6-29.2
			c-2.9-4.4-7.2-8.4-12.6-9.7c-1.9-0.2-3.7-0.5-5.6-0.8c-2.9-0.1-5.6,0.5-8.1,1.8c-1.8,0.5-3.3,1.4-4.6,2.7
			c-2.3,1.5-4.1,3.4-5.4,5.9c-2.6,4.9-3.9,10.8-2.1,16.2c1.5,4.5,3.3,8.8,5.3,13.1c1.3,2.7,2.7,5.3,4.3,7.8
			c2.5,3.9,5.3,7.5,8.2,11.1c1.9,2.3,4,4.5,6.2,6.6c1.9,2,4.2,3.5,6.8,4.3c2.5,1.3,5.2,1.9,8.1,1.8c1.9-0.3,3.7-0.5,5.6-0.8
			c2.7-0.6,5.1-1.9,7.1-3.8c1.6-0.9,2.8-2.2,3.8-3.8c1.9-2,3.1-4.4,3.8-7.1c0.3-1.9,0.5-3.7,0.8-5.6c0-3.8-1-7.3-2.9-10.6
			c-5.1-6.9-10.4-13.5-16.7-19.3c-6.2-5.8-13-11-20.2-15.5c-2.4-1.5-5-2.4-7.8-2.5c-2.8-0.6-5.6-0.5-8.4,0.4c-1.7,0.7-3.3,1.4-5,2.1
			c-2.4,1.3-4.4,3.1-5.9,5.4c-1.3,1.3-2.2,2.9-2.7,4.6c-1.3,2.5-1.9,5.2-1.8,8.1c0.3,1.9,0.5,3.7,0.8,5.6c1,3.6,2.8,6.6,5.4,9.3
			c12.8,14.5,26.4,28.4,40.6,41.5c3.9,3.6,9.4,6.4,14.8,6.2c1.9-0.3,3.7-0.5,5.6-0.8c2.7-0.6,5.1-1.9,7.1-3.8
			c1.6-0.9,2.8-2.2,3.8-3.8c1.9-2,3.1-4.4,3.8-7.1c0.3-1.9,0.5-3.7,0.8-5.6c0-3.8-1-7.3-2.9-10.6c-4.4-8.6-10-16.4-16.2-23.8
			c-6.2-7.4-13.4-13.5-21.1-19.4c-2.4-1.5-5-2.4-7.8-2.5c-2.8-0.6-5.6-0.5-8.4,0.4c-1.7,0.7-3.3,1.4-5,2.1c-2.4,1.3-4.4,3.1-5.9,5.4
			c-1.3,1.3-2.2,2.9-2.7,4.6c-1.3,2.5-1.9,5.2-1.8,8.1c0.2,5.6,2.1,10.8,6.2,14.8c13.6,13.6,27.2,27.2,40.8,40.9
			c1.4,1.1,2.8,2.2,4.3,3.3c2.4,1.5,5,2.4,7.8,2.5c1.9,0.5,3.7,0.5,5.6,0c2.8-0.1,5.4-1,7.8-2.5c1.4-1.1,2.8-2.2,4.3-3.3
			c1.1-1.4,2.2-2.8,3.3-4.3c1.5-2.4,2.4-5,2.5-7.8c0.6-2.8,0.5-5.6-0.4-8.4c-3.2-7.6-6.5-14.8-11-21.7c-4.4-6.7-9.4-13.2-14.7-19.2
			c-8.5-9.7-18.2-18.2-28.2-26.3c-6.9-5.6-14-11-21.1-16.4c-2.4-1.5-5-2.4-7.8-2.5c-2.8-0.6-5.6-0.5-8.4,0.4c-1.7,0.7-3.3,1.4-5,2.1
			c-2.4,1.3-4.4,3.1-5.9,5.4c-1.3,1.3-2.2,2.9-2.7,4.6c-1.3,2.5-1.9,5.2-1.8,8.1c0.3,1.9,0.5,3.7,0.8,5.6c1,3.6,2.8,6.6,5.4,9.3
			c16.1,19.7,33.4,38.5,51.8,56.1c5.1,4.9,10.4,9.8,15.7,14.6c1.9,2,4.2,3.5,6.8,4.3c2.5,1.3,5.2,1.9,8.1,1.8
			c2.9,0.1,5.6-0.5,8.1-1.8c2.6-0.8,4.9-2.3,6.8-4.3c3.7-4,6.4-9.3,6.2-14.8c-0.2-5.4-2-11.1-6.2-14.8c-18.9-17-36.8-35.2-53.6-54.3
			c-4.7-5.4-9.3-10.8-13.9-16.4c-8.5,11-17,22-25.4,33c2.1,1.6,4.2,3.2,6.4,4.9c-1.4-1.1-2.8-2.2-4.3-3.3
			c12.6,9.7,25,19.8,35.9,31.5c3,3.3,5.9,6.6,8.6,10.2c-1.1-1.4-2.2-2.8-3.3-4.3c5.7,7.5,10.7,15.5,14.4,24.2
			c-0.7-1.7-1.4-3.3-2.1-5c0.1,0.1,0.1,0.2,0.2,0.4c11.7-6.8,23.4-13.6,35.1-20.4c-13.6-13.6-27.2-27.2-40.8-40.9
			c-8.5,11-17,22-25.4,33c0.2,0.2,0.4,0.3,0.7,0.5c-1.4-1.1-2.8-2.2-4.3-3.3c7.1,5.5,13.4,11.8,18.8,18.9c-1.1-1.4-2.2-2.8-3.3-4.3
			c3.9,5.1,7.4,10.5,10.3,16.3c11-8.5,22-17,33-25.4c-14.3-13.1-27.9-26.9-40.6-41.5c-8.5,11-17,22-25.4,33c2.9,1.8,5.6,3.7,8.3,5.8
			c-1.4-1.1-2.8-2.2-4.3-3.3c7.3,5.6,13.8,12.2,19.5,19.4c-1.1-1.4-2.2-2.8-3.3-4.3c0.5,0.7,1,1.4,1.5,2c11-8.5,22-17,33-25.4
			c-2.7-2.5-5.2-5.3-7.5-8.2c1.1,1.4,2.2,2.8,3.3,4.3c-3.7-4.8-6.8-10.1-9.2-15.7c0.7,1.7,1.4,3.3,2.1,5c-0.7-1.8-1.4-3.6-2-5.4
			c-12.8,5.4-25.6,10.8-38.4,16.2c6.5,9.7,13.1,19.5,19.6,29.2c11-8.5,22-17,33-25.4c-2.7-2.7-5.4-5.4-8.1-8
			c-3.8-3.8-9.4-6.2-14.8-6.2c-2.9-0.1-5.6,0.5-8.1,1.8c-2.6,0.8-4.9,2.3-6.8,4.3c-3.7,4-6.4,9.3-6.2,14.8
			C74.1,966.4,75.9,971.7,80,975.7L80,975.7z"/>
	</g>
</g>
<g>
	<g>
		<path d="M68.9,867.7c5.3,1,10.7,1.6,16.1,1.3c5.5-0.3,10.9-1.1,16.3-2.2c7.7-1.6,15.2-3.9,22.8-5.9c4.3-1.1,8.6-2,12.9-2.7
			c-1.9,0.3-3.7,0.5-5.6,0.8c4.5-0.6,9-0.8,13.6-0.2c-1.9-0.3-3.7-0.5-5.6-0.8c2.7,0.4,5.5,0.9,8,1.9c-1.7-0.7-3.3-1.4-5-2.1
			c1,0.4,1.9,0.9,2.8,1.6c-1.4-1.1-2.8-2.2-4.3-3.3c0.7,0.6,1.3,1.2,1.8,1.8c-1.1-1.4-2.2-2.8-3.3-4.3c0.7,1,1.3,2,1.8,3.2
			c-0.7-1.7-1.4-3.3-2.1-5c1.1,2.7,1.7,5.6,2.1,8.5c-0.3-1.9-0.5-3.7-0.8-5.6c0.8,6.1,0.5,12.4,0.4,18.5c-0.1,7.3-0.4,14.6-0.3,21.9
			c0.1,4.7,0.5,9.2,1.3,13.8c0.7,1.7,1.4,3.3,2.1,5c1.3,2.4,3.1,4.4,5.4,5.9c1.3,1.3,2.9,2.2,4.6,2.7c2.5,1.3,5.2,1.9,8.1,1.8
			c17.2,0.5,34.2-2.6,51.3-4.5c3.9-0.4,7.8-0.8,11.7-0.9c-7-7-14-14-21-21c-0.1,2.2-0.2,4.4-0.5,6.6c0.3-1.9,0.5-3.7,0.8-5.6
			c-0.9,6.8-3,13.3-5.6,19.6c0.7-1.7,1.4-3.3,2.1-5c-6.1,14.3-14.5,27.7-18,43c-1.3,5.9-2.1,12-2.3,18c-0.1,2.9,0.5,5.6,1.8,8.1
			c0.8,2.6,2.3,4.9,4.3,6.8c1.9,2,4.2,3.5,6.8,4.3c2.5,1.3,5.2,1.9,8.1,1.8c5.4-0.2,11.1-2,14.8-6.2c3.8-4.2,6-9.1,6.2-14.8
			c0.1-2.2,0.2-4.4,0.5-6.6c-0.3,1.9-0.5,3.7-0.8,5.6c0.9-6.8,3-13.3,5.6-19.6c-0.7,1.7-1.4,3.3-2.1,5c6.1-14.3,14.5-27.7,18-43
			c1.3-5.9,2.1-12,2.3-18c0.1-2.9-0.5-5.6-1.8-8.1c-0.8-2.6-2.3-4.9-4.3-6.8c-4-3.7-9.2-6.3-14.8-6.2c-7.3,0.2-14.6,1.2-21.8,2.1
			c-8.7,1.1-17.4,2.2-26.1,2.8c-5,0.3-10,0.5-15.1,0.4c6.7,5.1,13.5,10.3,20.2,15.4c0-0.3-0.1-0.5-0.1-0.8c0.3,1.9,0.5,3.7,0.8,5.6
			c-0.9-6.8-0.4-13.9-0.3-20.7c0.2-7.7,0.5-15.4,0.1-23.1c-0.2-5.1-0.9-10.3-2.2-15.2c-0.7-2.7-1.9-5.3-3.1-7.9
			c-0.5-1.1-1.1-2.2-1.8-3.2c-3.3-4.5-5-6.4-9.7-9.6c-0.5-0.3-1-0.7-1.5-0.9c-2.1-1.1-4.4-2-6.7-2.8c-3.2-1.2-6.7-1.6-10.1-2
			c-3.2-0.4-6.4-0.8-9.7-0.7c-6.7,0.2-13.5,1.3-20,2.7c-11.3,2.5-22.3,6.5-33.8,8.1c1.9-0.3,3.7-0.5,5.6-0.8
			c-4.5,0.6-9,0.8-13.6,0.2c1.9,0.3,3.7,0.5,5.6,0.8c-0.6-0.1-1.2-0.2-1.8-0.3c-2.8-0.9-5.6-1-8.4-0.4c-2.8,0.1-5.4,1-7.8,2.5
			c-2.4,1.3-4.4,3.1-5.9,5.4c-1.9,2-3.1,4.4-3.8,7.1c-1.2,5.4-1,11.4,2.1,16.2C59.1,862.4,63.6,866.7,68.9,867.7L68.9,867.7z"/>
	</g>
</g>
<g>
	<g>
		<path d="M868.5,169.7c8,2.1,16.1,4.1,24.1,6.2c7.4,1.9,14.9,3.6,22,6.5c-1.7-0.7-3.3-1.4-5-2.1c3.5,1.5,6.8,3.3,9.8,5.7
			c-1.4-1.1-2.8-2.2-4.3-3.3c5.5,4.3,9.9,9.6,14.2,15.1c-1.1-1.4-2.2-2.8-3.3-4.3c9.4,12.1,17.1,25.5,23.1,39.6
			c-0.7-1.7-1.4-3.3-2.1-5c6.3,14.9,10.6,30.7,12.8,46.8c-0.3-1.9-0.5-3.7-0.8-5.6c0.8,6.2,1.3,12.3,1.5,18.6
			c0.2,5.5,2.2,10.9,6.2,14.8c1.9,2,4.2,3.5,6.8,4.3c2.5,1.3,5.2,1.9,8.1,1.8c5.4-0.2,11.1-2,14.8-6.2c3.7-4,6.3-9.2,6.2-14.8
			c-0.4-14.1-2.3-28.3-5.6-42c-3.2-13.6-8.1-26.6-14-39.3c-5.1-11.1-11.4-21.7-18.6-31.5c-4.7-6.3-9.5-12.8-15.2-18.3
			c-3.5-3.3-7.3-6.4-11.3-9c-4.1-2.7-8.7-4.5-13.2-6.3c-6.9-2.7-14.3-4.3-21.4-6.2c-7.8-2-15.6-4-23.4-6c-5.3-1.4-11.4-0.7-16.2,2.1
			c-2.4,1.3-4.4,3.1-5.9,5.4c-1.9,2-3.1,4.4-3.8,7.1c-1.2,5.4-1,11.4,2.1,16.2C858.9,164.6,863.1,168.3,868.5,169.7L868.5,169.7z"/>
	</g>
</g>
<g>
	<g>
		<path d="M546.3,516c-16.3,15.9-28.2,35.4-35.9,56.8c-1.9,5.2-3.4,10.4-4.5,15.8c-1,3.7-1,7.4,0,11.2c0.6,2.7,1.9,5.1,3.8,7.1
			c1.5,2.3,3.4,4.1,5.9,5.4c3.3,1.9,6.8,2.9,10.6,2.9c3.5-0.4,7.1-0.7,10.5-1.7c3.5-1,6.9-2.5,10.1-4.1c4.7-2.4,9-5.9,13-9.3
			c5.8-5.1,10.6-11.2,15.6-17.1c10.1-11.9,20.7-23.4,31.6-34.5c21.9-22.2,45.2-42.8,68.9-63c23.8-20.3,48-40.1,71.8-60.4
			c23.5-20.2,46.5-41,67.9-63.5c22.3-23.4,43-48.6,60.5-75.8c2.1-3.2,4.1-6.5,6.1-9.8c1.5-2.4,2.4-5,2.5-7.8
			c0.6-2.8,0.5-5.6-0.4-8.4c-0.7-1.7-1.4-3.3-2.1-5c-1.3-2.4-3.1-4.4-5.4-5.9c-3.5-2.7-8.1-4.7-12.7-4.5c-5.7,0.3-10.6,2.2-14.8,6.2
			c-20,18.6-40.1,37.2-60.1,55.8s-40.1,37.2-60.1,55.8c-20.1,18.7-40.2,37.4-60.4,56c-20,18.6-40.1,37.2-60.1,55.8
			s-40.1,37.2-60.1,55.8c-2.5,2.3-4.9,4.6-7.4,6.9c-3.9,3.6-6.2,9.7-6.2,14.8c0,5.2,2.3,11.3,6.2,14.8c4,3.7,9.3,6.4,14.8,6.2
			c5.7-0.3,10.6-2.2,14.8-6.2c20-18.6,40.1-37.2,60.1-55.8c20-18.6,40.1-37.2,60.1-55.8c20.1-18.7,40.2-37.4,60.4-56
			c20-18.6,40.1-37.2,60.1-55.8c20-18.6,40.1-37.2,60.1-55.8c2.5-2.3,4.9-4.6,7.4-6.9c-11-8.5-22-17-33-25.4
			c-8.3,13.8-17.4,27-27.2,39.7c1.1-1.4,2.2-2.8,3.3-4.3c-16.2,20.9-34.1,40.3-52.9,58.8c-19,18.5-38.9,36.1-59.1,53.3
			c-20.3,17.3-41,34.3-61.3,51.5c-20.4,17.3-40.5,34.9-59.7,53.6c-9.5,9.2-18.8,18.7-27.7,28.4c-4.5,4.9-8.9,9.9-13.3,15
			c-4.3,5-8.4,10.2-12.9,15c-2.3,2.4-4.7,4.7-7.3,6.7c1.4-1.1,2.8-2.2,4.3-3.3c-2.5,1.9-5.2,3.6-8.2,4.9c1.7-0.7,3.3-1.4,5-2.1
			c-2.3,1-4.7,1.6-7.2,2c1.9-0.3,3.7-0.5,5.6-0.8c-0.3,0-0.7,0.1-1,0.1c6.7,8.9,13.5,17.7,20.2,26.6c1.7-7.6,4-15.1,7-22.3
			c-0.7,1.7-1.4,3.3-2.1,5c4.3-10.1,9.8-19.6,16.5-28.2c-1.1,1.4-2.2,2.8-3.3,4.3c3.5-4.5,7.3-8.8,11.4-12.8
			c3.8-3.7,6.2-9.5,6.2-14.8c0-5.2-2.3-11.3-6.2-14.8c-4-3.7-9.3-6.4-14.8-6.2C555.6,510.1,550.4,512,546.3,516L546.3,516z"/>
	</g>
</g>
</svg>
