<?xml version="1.0" encoding="utf-8"?>
<!-- Generator: Adobe Illustrator 27.0.0, SVG Export Plug-In . SVG Version: 6.00 Build 0)  -->
<svg version="1.1" id="Capa_1" xmlns="http://www.w3.org/2000/svg" xmlns:xlink="http://www.w3.org/1999/xlink" x="0px" y="0px"
	 viewBox="0 0 1080 1080" style="enable-background:new 0 0 1080 1080;" xml:space="preserve">
<style type="text/css">
	.st0{stroke:#000000;stroke-width:18;stroke-miterlimit:10;}
</style>
<g>
	<g>
		<g>
			<path d="M-716.9,1088.1c-2.9,5.9-5.8,11.8-8.7,17.7c-2.5,5.1-3.7,10.5-2.1,16.2c1.3,4.9,5.1,10.2,9.7,12.6
				c4.9,2.6,10.8,3.9,16.2,2.1c5.1-1.6,10-4.8,12.6-9.7c14.7-28.4,29.5-56.9,45.3-84.7c13.4-23.6,27.6-46.8,43-69.1
				c9.1-13.2,18.5-26,28.3-38.7c-1.1,1.4-2.2,2.8-3.3,4.3c8.3-10.7,16.8-21.2,25.4-31.6c4.7-5.6,9.4-11.2,14.1-16.8
				c4.7-5.5,9.2-11.8,14.9-16.3c-1.4,1.1-2.8,2.2-4.3,3.3c1.1-0.8,2.1-1.4,3.3-2c-1.7,0.7-3.3,1.4-5,2.1c1-0.4,2-0.7,3-0.9
				c-1.9,0.2-3.7,0.5-5.6,0.8c1.1-0.1,2.2-0.1,3.3,0c-1.9-0.3-3.7-0.5-5.6-0.8c1.1,0.2,2.2,0.5,3.2,0.9c-1.7-0.7-3.3-1.4-5-2.1
				c1.5,0.7,2.8,1.5,4.1,2.5c-1.4-1.1-2.8-2.2-4.3-3.3c3.8,2.9,7,6.6,10.4,10c3.4,3.5,6.8,7.1,10.2,10.7c7,7.4,13.8,14.8,20.5,22.4
				c13.6,15.2,26.7,30.9,39.3,46.9c21.8,27.6,44.7,54.3,67.4,81.2c11.5,13.6,22.8,27.3,33.7,41.4c-1.1-1.4-2.2-2.8-3.3-4.3
				c14.9,19.4,29,39.4,41.9,60.2c4.1,6.7,8.2,13.4,12.1,20.2c9.6-9.6,19.2-19.2,28.7-28.7c-18.8-10.9-37.6-21.7-56.4-32.6
				c-9.1-5.3-20.7-2.8-27.1,5.4c-2.7,3.5-4.7,8.1-4.5,12.7c0.2,5.3,2,11.2,6.2,14.8c21.9,18.9,47.6,32.9,75.6,40.3
				c6.5,1.7,13,0.3,18.3-3.8c4.9-3.8,8.7-10,8.3-16.5c-1.3-19.3-2.6-38.6-3.9-57.9c-13.7,1.9-27.5,3.7-41.2,5.6
				c1.5,5.5,2.6,11.1,3.4,16.8c-0.3-1.9-0.5-3.7-0.8-5.6c1.6,11.9,1.6,23.9,0,35.8c0.3-1.9,0.5-3.7,0.8-5.6c-0.2,1.3-0.4,2.7-0.6,4
				c-0.9,2.8-1,5.6-0.4,8.4c0.1,2.8,1,5.4,2.5,7.8c2.5,4.4,7.5,8.5,12.6,9.7c5.4,1.2,11.4,1,16.2-2.1c4.3-2.8,8.8-7.3,9.7-12.6
				c1.9-11.3,3-22.6,2.4-34.1c-0.5-11.3-2.2-22.8-5.2-33.8c-2.7-10.1-12.9-16.4-23-15c-4.4,0.6-9,2.4-12.1,5.8
				c-3.6,3.9-6.5,9.3-6.2,14.8c1.3,19.3,2.6,38.6,3.9,57.9c8.9-6.7,17.7-13.5,26.6-20.2c-7.7-2-15.1-4.6-22.4-7.6
				c1.7,0.7,3.3,1.4,5,2.1c-13.2-5.6-25.7-12.9-37-21.6c1.4,1.1,2.8,2.2,4.3,3.3c-2.3-1.8-4.6-3.7-6.9-5.6c-8.5,11-17,22-25.4,33
				c18.8,10.9,37.6,21.7,56.4,32.6c7.8,4.5,19.2,3.6,25.4-3.3c6.3-6.9,8.1-17.1,3.3-25.4c-12.3-21.2-25.6-41.9-40-61.7
				c-13.7-18.9-28.2-37.1-43.1-55c-14.3-17.2-28.9-34.1-43.3-51.2c-16.8-20.1-32.8-40.9-49.5-61c-17.6-21.1-36.1-41.5-55.3-61.2
				c-6.5-6.6-13.4-12.9-22.5-15.5c-2.8-0.8-6-1.2-8.9-1.2c-3,0-6.2,0.4-9.1,1.3c-5.9,2-10.3,4.8-15,8.9c-4.6,3.9-8.3,9-12.2,13.5
				c-4.1,4.8-8.2,9.6-12.2,14.4c-15.2,18.1-29.9,36.6-43.9,55.6c-11.7,15.8-22.9,32-33.4,48.6c-10.7,16.8-20.7,34-30.4,51.3
				c-11.1,19.9-21.7,40.1-32.3,60.3c-2.9,5.5-5.8,11.1-8.6,16.6c12.1,7.1,24.2,14.1,36.3,21.2c2.9-5.9,5.8-11.8,8.7-17.7
				c2.5-5.1,3.7-10.5,2.1-16.2c-1.3-4.9-5.1-10.2-9.7-12.6c-4.9-2.6-10.8-3.9-16.2-2.1C-709.3,1080-714.5,1083.2-716.9,1088.1
				L-716.9,1088.1z"/>
		</g>
	</g>
	<g>
		<g>
			<path d="M-237.1,1264.6c13.8,19.1,27,38.6,39.2,58.6c10.6,17.3,20.3,35.1,29.2,53.3c4.8,9.9,9.4,20,13.6,30.2
				c-0.7-1.7-1.4-3.3-2.1-5c13.3,31.6,24.2,64.1,34.6,96.7c3.5,10.9,6.9,21.8,10.3,32.7c6.7-8.9,13.5-17.7,20.2-26.6
				c-27.6,0.3-55.2,0.6-82.8,0s-55.1-2-82.5-5.2c-22.1-2.6-44.3-4.8-66.6-6c-19.7-1.1-39.3-1.4-59-1c-23,0.4-45.9,1.5-68.9,2.7
				c-3.3,0.2-6.6,0.3-10,0.5c-4.8,0.2-8.9,1.6-12.7,4.5c-3.5,2.7-6.5,6.5-7.5,10.9c-0.8,3.7-0.8,7.5,0,11.2
				c1.1,4.8,5.3,10.2,9.7,12.6c12.2,6.5,23.9,14,34.9,22.5c-1.4-1.1-2.8-2.2-4.3-3.3c9.3,7.2,18.1,15,26.3,23.5
				c8.5-11,17-22,25.4-33c-22-11.2-43.2-24-63.4-38.3c-5.8-4.1-11.5-8.3-17.2-12.7c1.4,1.1,2.8,2.2,4.3,3.3c-1.9-1.5-3.8-3-5.7-4.5
				c-1.4,11-2.8,22-4.3,33c12-6.1,24.2-11.8,36.5-17c-1.7,0.7-3.3,1.4-5,2.1c25.8-10.9,52.8-20.2,80.7-24c-1.9,0.2-3.7,0.5-5.6,0.8
				c4.7-0.6,9.5-1.1,14.2-1.3c5.5-0.3,10.9-2.2,14.8-6.2c3.6-3.6,6.4-9.6,6.2-14.8c-0.2-5.4-2-11.1-6.2-14.8
				c-4-3.7-9.3-6.4-14.8-6.2c-40.4,1.9-79.2,16.3-115.8,32.6c-8.9,4-17.6,8.2-26.3,12.5c-5.8,2.9-9.2,9.2-10,15.3
				c-0.6,2.8-0.5,5.6,0.4,8.4c1,3.6,2.8,6.6,5.4,9.3c22.3,17.7,45.6,33.9,70.4,48c6.6,3.7,13.3,7.3,20.1,10.8
				c4.8,2.5,10.8,3.8,16.2,2.1c4.4-1.4,8.1-3.8,10.9-7.5c6.4-8.3,5.7-20-1.6-27.6c-19-19.6-41.3-36.4-65.4-49.2
				c-3.5,13-7.1,26.1-10.6,39.1c23.7-1.2,47.5-2.5,71.3-3c19.8-0.5,39.5-0.4,59.3,0.5c21.6,1,43.2,2.9,64.7,5.4
				c27.2,3.1,54.3,5.2,81.6,6c27.6,0.8,55.2,0.6,82.8,0.4c3.4,0,6.8-0.1,10.2-0.1c13.2-0.1,24.4-13.4,20.2-26.6
				c-6.4-20.7-12.9-41.3-19.8-61.8c-6-17.8-12.2-35.5-19.2-53c-7.2-18.1-14.9-36-23.5-53.4c-8.2-16.6-17.1-32.7-26.7-48.5
				c-11-18.1-22.7-35.6-34.9-52.8c-1.7-2.4-3.4-4.7-5.1-7.1c-1.3-2.4-3.1-4.4-5.4-5.9c-2-1.9-4.4-3.1-7.1-3.8
				c-5-1.4-11.7-0.8-16.2,2.1s-8.4,7.2-9.7,12.6C-240.4,1253.6-240.4,1260.1-237.1,1264.6L-237.1,1264.6z"/>
		</g>
	</g>
	<g>
		<g>
			<path d="M-566,1499c-25.6-0.4-51.1-0.9-76.7-1.3c-21.9-0.3-43.8-0.6-65.7-0.6c-20.7,0-41.4,0.1-62.1,0.6
				c-21.6,0.5-43.2,1.2-64.8,2.3c-24.9,1.2-49.7,2.8-74.5,4.5c-3.5,0.2-7,0.5-10.4,0.8c6,10.5,12.1,21.1,18.1,31.6
				c17.8-32.1,35.7-64.3,53.5-96.4c17.8-32,35.5-64.1,53.3-96.1c10-18,20-36,30-54.1c2.6-4.6,3.8-11,2.1-16.2
				c-1.4-4.4-3.8-8.1-7.5-10.9c-3.5-2.7-8.1-4.7-12.7-4.5c-1.9,0.2-3.7,0.5-5.6,0.8c-3.6,1-6.6,2.8-9.3,5.4
				c-1.1,0.9-2.3,1.8-3.4,2.7c1.4-1.1,2.8-2.2,4.3-3.3c-14.9,11.5-31.2,21-48.5,28.3c1.7-0.7,3.3-1.4,5-2.1
				c-3.1,1.3-6.2,2.5-9.3,3.7c6.8,11.7,13.6,23.4,20.4,35.1c8.4-7.4,16.9-14.5,25.8-21.3c-1.4,1.1-2.8,2.2-4.3,3.3
				c13.3-10.3,27.2-19.9,41.5-28.8c-10.5-6-21.1-12.1-31.6-18.1c1.3,26.6,0.8,53.3-1.7,79.8c-0.7,7.6-1.6,15.2-2.6,22.8
				c0.3-1.9,0.5-3.7,0.8-5.6c-0.4,3-0.8,6-1.3,8.9c-0.9,2.8-1,5.6-0.4,8.4c0.1,2.8,1,5.4,2.5,7.8c2.5,4.4,7.5,8.5,12.6,9.7
				c5.4,1.2,11.4,1,16.2-2.1c4.3-2.8,8.9-7.3,9.7-12.6c4.6-30.5,7.2-61.2,7-92.1c-0.1-8.3-0.3-16.7-0.7-25
				c-0.4-7.5-3.8-14.2-10.4-18.1c-6.3-3.7-14.9-3.9-21.2,0c-20,12.5-39.1,26.3-57.3,41.3c-4.8,4-9.6,8-14.2,12.1
				c-1.1,1.4-2.2,2.8-3.3,4.3c-1.5,2.4-2.4,5-2.5,7.8c-0.6,4.5,0,9.5,2.5,13.4c2,3,4.5,5.6,7.5,7.5c2.4,1.5,5,2.4,7.8,2.5
				c2.8,0.6,5.6,0.5,8.4-0.4c12.7-4.7,25.2-10.3,37.1-17c11.8-6.7,22.9-14.6,33.5-23.1c-11-8.5-22-17-33-25.4
				c-17.8,32.1-35.7,64.3-53.5,96.4c-17.8,32-35.5,64.1-53.3,96.1c-10,18-20,36-30,54.1c-3.7,6.6-3.9,14.6,0,21.2
				c3.5,6,10.9,10.9,18.1,10.4c25.5-1.9,51-3.5,76.5-4.9c21.9-1.1,43.7-2,65.6-2.5c20.7-0.5,41.4-0.7,62.1-0.8
				c21.6,0,43.2,0.2,64.8,0.5c24.9,0.3,49.8,0.8,74.7,1.2c3.5,0.1,7,0.1,10.5,0.2c5.3,0.1,11.1-2.4,14.8-6.2
				c3.6-3.6,6.4-9.6,6.2-14.8c-0.2-5.4-2-11.1-6.2-14.8C-555.3,1501.3-560.3,1499.1-566,1499L-566,1499z"/>
		</g>
	</g>
</g>
<g>
	<polygon points="-1085,487.2 -1085,503 -1214.5,503 -1224.2,501.9 -1225.1,504.7 -1217.1,510.1 -1183.2,544 -1195.1,556 
		-1250.4,500.7 -1250.4,488.5 -1195.1,433.2 -1183.2,445.2 -1217.1,479.1 -1225.1,484.5 -1224.2,487.3 -1214.5,486.2 -1105.3,486.2 
		-1182.7,354.6 -1167.9,346 -1085.6,486.2 	"/>
</g>
<g>
	<polygon points="-1482,504.6 -1482.4,496.6 -1417.6,384.4 -1411.8,376.7 -1413.8,374.5 -1422.4,378.7 -1468.8,391.1 -1473.2,374.8 
		-1397.7,354.5 -1387.1,360.6 -1366.9,436.2 -1383.2,440.5 -1395.6,394.1 -1396.3,384.5 -1399.2,383.9 -1403,392.8 -1457.6,487.5 
		-1304.9,486.2 -1304.9,503.3 -1467.5,504.6 	"/>
</g>
<g>
	<polygon points="-1293,134 -1283.6,133.6 -1218.8,245.8 -1215,254.7 -1212.1,254.1 -1211.4,244.5 -1199,198.1 -1182.6,202.5 
		-1202.9,278 -1213.4,284.1 -1289,263.9 -1284.6,247.6 -1238.2,260 -1229.5,264.2 -1227.6,262 -1233.4,254.2 -1288,159.6 
		-1363.3,292.5 -1378.1,283.9 -1297.9,142.5 	"/>
</g>
<g>
	<g>
		<path d="M-1749.6,529.8l-71.2-71.2v-15.7l71.2-71.2l15.4,15.4l-43.8,43.7l-10.3,6.9l1.2,3.6l12.4-1.5h166.9v21.7h-166.9l-12.4-1.5
			l-1.2,3.6l10.3,6.9l43.8,43.8L-1749.6,529.8z"/>
	</g>
</g>
<g>
	<g>
		<path class="st0" d="M110.9,306.6C75.9,350.8,50.2,401.4,35,455.9c-14.9,53.3-20.2,109.9-14.8,165c5.5,56,20.9,110.1,45.4,160.7
			c23.1,48.1,54.8,92.3,92.3,130.2c38.8,39,84.5,71.2,134.2,94.4c52.6,24.6,108,39.7,165.6,46.9c55.5,7,111.8,5.1,167.2-3.7
			c53.9-8.5,106.2-24.9,155.6-48.1c49.6-23.3,95.6-54.4,135.3-92c39.4-37.2,72.3-81.4,96.3-129.9c25.1-50.5,40.9-104.2,47.2-160.2
			c6.1-55.4,0.7-112-16-165.2c-18.4-58.4-47.8-113.2-79.9-165.2c-31.5-51.1-68.4-99.4-114.2-138.4C803,111.1,750.6,80.9,693.7,60
			c-57-20.9-118.6-31.4-179.5-29.7C458.6,32,403.1,43.2,351.4,63.5c-54.1,21.2-103.8,51.1-147.8,89c-41.1,35.4-76,78.1-104.2,124.5
			c-28.4,46.9-50,98.4-63.6,151.4c-6.9,26.9-11.5,54.2-14.5,81.8c-1.3,12.5,11.9,24.6,24,24c14.2-0.7,22.5-10.6,24-24
			c0.3-3.1,0.7-6.4,1.2-9.6c0.1-0.6,0.1-1,0.3-1.6c0.3-2.7,0.3-2.1-0.3,1.6c0.6-0.7,0.6-3.7,0.7-4.8c1-6.9,2.2-13.7,3.4-20.5
			c2.4-13,5.4-26.1,8.8-38.8c3.3-12.4,7-24.5,11-36.6c2.1-6.1,4.2-11.9,6.6-17.9c1.2-3,2.2-6,3.4-9c0.6-1.5,1.2-3,1.8-4.5
			c1-2.4,0.7-1.9-0.6,1.3c0.4-1,0.7-1.9,1.2-2.8c10.2-23.7,22.1-46.7,35.5-68.7c6.7-11,13.9-21.7,21.4-32.1c1.6-2.2,3.4-4.6,5.1-7
			c0.9-1.2,1.9-2.5,2.8-3.7c3.3-4.5-3.3,4.2,0.1-0.1c4.2-5.2,8.5-10.5,12.8-15.8c16.6-19.6,34.6-37.9,54.1-54.5
			c5.1-4.2,10-8.5,15.2-12.5c1.2-0.9,5.1-4.6,0.3-0.3c1.2-1.2,2.7-2.1,3.9-3c3.1-2.2,6.1-4.6,9.3-6.7c10.6-7.6,21.5-14.6,32.7-21.4
			c11.5-6.9,23.6-13.4,35.7-19.3c5.8-2.8,11.6-5.5,17.6-8.1c1.5-0.7,3-1.5,4.5-1.9c-6.3,1.9-1.2,0.4,0.3-0.1
			c3.1-1.3,6.6-2.7,9.7-3.9c24.8-9.6,50.3-16.9,76.5-22.2c5.7-1.2,11.5-2.2,17.3-3.1c1.3-0.3,8.8-0.4,9.6-1.3
			c-1,0.1-2.2,0.3-3.1,0.4c1-0.1,2.2-0.3,3.1-0.4c2.2-0.3,4.2-0.4,6.4-0.7c13.3-1.5,26.6-2.4,39.9-2.7c13.3-0.3,26.7,0,39.9,0.9
			c7.2,0.4,14.5,1.2,21.7,2.1c1.8,0.3,3.7,0.3,5.4,0.7c-6.4-1.2-0.4,0,0.7,0.1c4.2,0.6,8.4,1.2,12.5,1.9c29.3,5.1,57.9,13,85.9,23.3
			c3.4,1.2,6.9,2.7,10.2,3.9c1.6,0.7,3.4,1.3,5.1,2.1c5.8,2.2-4.6-2.1,1,0.4c6.7,3,13.4,6,20,9.1c11.9,5.8,23.9,12.1,35.4,19
			c11.9,7,23.7,14.8,35.1,22.8c2.7,1.9,5.5,4,8.1,6c1.3,1,2.7,1.9,4,3.1c-4.9-4.2-0.4-0.3,0.4,0.3c5.2,4.2,10.5,8.5,15.5,13
			c21.8,18.8,41.5,39.7,59.4,62.1c1,1.2,6.7,8.5,2.7,3.4c2.2,2.7,4.2,5.7,6.4,8.5c4.6,6.1,9,12.4,13.3,18.7
			c8.4,12.1,16.4,24.5,24,37c15.1,24.6,29.4,50,42.3,75.9c3.1,6.4,6.3,12.8,9.3,19.3c1.5,3.1,3,6.6,4.3,9.7c0.4,1.2,0.9,2.2,1.3,3.3
			c1,2.4,0.9,2.2-0.3-0.7c0.4,1.2,0.9,2.2,1.3,3.3c5.7,13.7,10.8,27.6,15.1,41.8c4.2,13.7,7.6,27.6,10.3,41.7
			c0.4,2.5,0.9,5.1,1.3,7.8c0.4,2.7,0.3,6.7,1.3,9.3c-0.1-1.2-0.3-2.2-0.4-3.3c0.1,1,0.3,2.1,0.3,3.1c0.3,1.6,0.3,3.1,0.6,4.6
			c0.4,3.7,0.7,7.3,1,10.9c2.1,25.5,1.6,51.1-1.2,76.6c-0.3,1.6-0.3,3.1-0.6,4.6c-0.1,0.6-0.1,1-0.3,1.6c-0.3,2.7-0.3,2.1,0.3-1.6
			c-0.9,2.7-0.9,6.4-1.3,9.3c-1,6.7-2.2,13.4-3.7,20c-2.7,12.2-5.7,24.5-9.4,36.4c-3.7,12.5-8.1,24.8-13,37
			c-0.6,1.5-1.2,2.8-1.6,4.3c-0.3,0.4-0.3,0.9-0.6,1.5c-1,2.4-0.7,1.9,0.6-1.3c0.4,1.2-3.1,7.3-3.7,8.5c-2.7,6.1-5.7,12.2-8.8,18.4
			c-11.5,22.7-24.9,44.3-40.2,64.8c-0.9,1.2-1.8,2.5-2.7,3.7c-3.3,4.3,3.4-4.2,0,0c-1.6,2.1-3.1,4-4.8,6.1
			c-4.2,5.1-8.5,10.3-13,15.4c-9,10-18.4,19.4-28.1,28.7c-9.3,8.7-18.8,17-28.8,24.9c-1.2,0.9-2.4,2.2-3.7,3c5.4-3,1.2-0.9-0.1,0.1
			c-2.5,1.9-5.1,3.7-7.6,5.7c-5.5,4-11.2,7.9-16.9,11.8c-21.4,14.3-44.1,26.9-67.3,37.8c-2.8,1.3-5.7,2.7-8.5,3.9
			c-2.7,1.2-5.8,3.1-8.7,3.7c0.9-0.3,1.9-0.7,2.8-1.2c-0.9,0.4-1.9,0.7-2.8,1.2c-1.5,0.6-2.8,1.2-4.3,1.8c-3.4,1.3-6.9,2.7-10.3,4
			c-11.8,4.5-23.7,8.5-35.7,12.1c-24.5,7.5-49.6,13.1-74.8,17.2c-3.1,0.4-6.1,0.9-9.3,1.3c-1.6,0.3-6.9,0.4,0.3,0
			c-1.5,0.1-3.1,0.4-4.6,0.6c-6.9,0.7-13.7,1.6-20.8,2.2c-13.4,1.2-27,1.9-40.5,2.2c-26.6,0.4-53-0.9-79.4-4.2
			c-1.5-0.3-3.4-0.1-4.8-0.6c1,0.1,2.1,0.3,3.1,0.4c-1-0.1-2.2-0.3-3.1-0.4c-3.1-0.4-6.4-0.9-9.6-1.5c-6.4-1-12.8-2.2-19.3-3.6
			c-13.3-2.7-26.4-5.8-39.4-9.6c-12.5-3.6-24.8-7.6-37-11.9c-6.1-2.2-12.1-4.6-18.2-7c-5.2-2.2,4.9,2.2-0.3-0.1
			c-1.5-0.7-3-1.2-4.5-1.9c-3.4-1.5-7-3.1-10.5-4.6c-24.2-11.5-47.3-24.8-69.1-40.3c-2.7-1.9-5.4-3.9-8.1-5.8
			c-1.2-0.9-2.7-1.9-3.9-2.8c-0.4-0.3-0.7-0.6-1.2-0.9c-2.1-1.6-1.6-1.2,1.2,1c-1.2-2.1-5.1-4.2-7-5.7c-2.7-2.2-5.5-4.5-8.1-6.7
			c-9.3-7.9-18.2-16.3-26.7-24.8c-9.1-9.1-17.6-18.5-25.8-28.2c-1.9-2.4-3.9-4.6-5.8-7c-0.9-1.2-1.9-2.4-2.8-3.7
			c-0.3-0.4-0.7-0.7-0.9-1.2c-1.6-2.1-1.2-1.6,0.9,1.2c-1,0-4.8-6.4-5.7-7.3c-1.8-2.5-3.7-5.1-5.4-7.6
			c-14.9-21.1-28.1-43.3-39.3-66.6c-2.5-5.1-4.8-10.3-7-15.5c-0.1-0.3-1.6-4.3-1.8-4.2c0.4,0.9,0.7,1.9,1.2,2.8
			c-0.3-0.9-0.7-1.9-1.2-2.8c-1.3-3.3-2.7-6.7-4-10.2c-4.6-12.1-8.7-24.5-12.2-36.9c-3.4-11.9-6.3-24.2-8.7-36.4
			c-1.2-6.1-2.2-12.5-3.1-18.8c-0.1-0.6-0.1-1-0.3-1.6c-0.3-2.7-0.3-2.1,0.3,1.6c0.3-0.9-0.4-3.7-0.6-4.8c-0.4-3.7-0.7-7.5-1.2-11
			c-2.4-26.1-2.5-52.4-0.3-78.5c0.3-3.1,0.6-6.4,0.9-9.6c0.3-2.1,1.9-7.6,1.2-9.6c-0.1,1-0.3,2.2-0.4,3.1c0.1-1,0.3-2.1,0.4-3.1
			c0.3-1.6,0.4-3.1,0.7-4.8c0.6-3.7,1.2-7.3,1.9-11c2.2-12.5,5.1-25.1,8.5-37.3c3.6-12.8,7.6-25.4,12.5-37.8c1.2-3,2.2-6,3.6-8.8
			c2.1-5.1-2.2,5.1,0-0.1c0.7-1.5,1.2-2.8,1.9-4.3c2.5-5.7,5.2-11.5,8.1-17.2c5.7-11.2,11.8-22.2,18.5-32.9
			c3.3-5.2,6.9-10.5,10.5-15.7c1.8-2.5,3.7-5.1,5.5-7.6c0.7-1.2,2.2-3,3-3.7c4.2-5.1,7-10,7-16.9c0-6-2.7-13-7-16.9
			C136.4,298.5,119.2,296.1,110.9,306.6L110.9,306.6z"/>
	</g>
</g>
<g>
	<g>
		<path d="M2056.5,243.6c-30.6,38.7-53,82.9-66.3,130.5c-13,46.6-17.6,96.1-12.9,144.3c4.8,49,18.3,96.2,39.7,140.5
			c20.2,42,47.9,80.7,80.7,113.8c33.9,34.1,73.9,62.2,117.4,82.5c45.9,21.5,94.4,34.7,144.7,41c48.6,6.1,97.8,4.4,146.2-3.2
			c47.1-7.5,92.8-21.8,136-42c43.3-20.3,83.6-47.5,118.3-80.4c34.4-32.5,63.2-71.2,84.2-113.6c21.9-44.1,35.8-91.1,41.2-140
			c5.3-48.4,0.6-97.9-14-144.4c-16-51.1-41.8-99-69.8-144.4c-27.6-44.6-59.8-86.9-99.9-121c-40.4-34.3-86.3-60.7-136-79
			c-49.9-18.3-103.7-27.4-156.9-26c-48.6,1.4-97.1,11.2-142.3,29c-47.2,18.6-90.7,44.6-129.2,77.8c-35.9,31-66.5,68.3-91.1,108.8
			c-24.8,41-43.7,86-55.6,132.4c-6,23.5-10.1,47.4-12.7,71.5c-1.2,11,10.5,21.5,21,21c12.4-0.6,19.7-9.3,21-21
			c0.3-2.8,0.6-5.6,1-8.3c0.1-0.5,0.1-0.9,0.2-1.4c0.3-2.3,0.2-1.8-0.2,1.4c0.5-0.6,0.5-3.3,0.6-4.2c0.9-6,1.9-12,3-17.9
			c2.1-11.4,4.7-22.8,7.7-34c2.9-10.8,6.1-21.4,9.7-32c1.8-5.3,3.7-10.5,5.7-15.7c1-2.6,2-5.2,3-7.8c0.5-1.3,1.1-2.6,1.6-3.9
			c0.9-2.1,0.7-1.7-0.5,1.2c0.4-0.9,0.7-1.7,1.1-2.5c8.9-20.7,19.3-40.8,31.1-60c5.9-9.6,12.1-18.9,18.7-28c1.5-2,3-4.1,4.5-6.1
			c0.8-1.1,1.7-2.2,2.5-3.3c2.9-3.9-2.9,3.7,0.1-0.1c3.7-4.6,7.4-9.2,11.2-13.8c14.5-17.1,30.3-33.1,47.3-47.7
			c4.4-3.7,8.8-7.4,13.3-10.9c1-0.8,4.4-4,0.3-0.2c1-1,2.3-1.8,3.4-2.6c2.7-2,5.4-4,8.1-5.9c9.3-6.6,18.8-12.8,28.6-18.7
			c10.1-6,20.6-11.7,31.2-16.8c5.1-2.5,10.2-4.8,15.4-7.1c1.3-0.6,2.6-1.3,3.9-1.7c-5.5,1.7-1,0.4,0.2-0.1c2.8-1.2,5.7-2.3,8.5-3.4
			c21.7-8.3,44-14.8,66.8-19.4c5-1,10.1-1.9,15.2-2.7c1.2-0.2,7.7-0.4,8.3-1.2c-0.9,0.1-1.9,0.2-2.8,0.4c0.9-0.1,1.9-0.2,2.8-0.4
			c1.9-0.2,3.7-0.4,5.6-0.7c11.6-1.3,23.2-2.1,34.9-2.3c11.6-0.2,23.3,0,34.8,0.8c6.3,0.4,12.6,1,18.9,1.8c1.6,0.2,3.2,0.3,4.7,0.6
			c-5.6-1.1-0.4,0,0.7,0.1c3.7,0.5,7.3,1.1,11,1.7c25.6,4.4,50.7,11.3,75,20.3c3,1.1,6,2.3,8.9,3.4c1.5,0.6,3,1.2,4.4,1.8
			c5.1,2-4.1-1.8,0.9,0.4c5.9,2.6,11.7,5.2,17.5,8c10.5,5.1,20.9,10.6,30.9,16.6c10.5,6.2,20.8,12.9,30.7,20
			c2.4,1.7,4.8,3.5,7.1,5.2c1.2,0.9,2.4,1.7,3.5,2.7c-4.3-3.6-0.4-0.3,0.4,0.3c4.6,3.7,9.2,7.4,13.6,11.3c19,16.4,36.3,34.7,52,54.3
			c0.9,1.1,5.9,7.4,2.4,3c1.9,2.4,3.7,4.9,5.6,7.4c4,5.4,7.8,10.8,11.6,16.3c7.3,10.6,14.3,21.4,21,32.4
			c13.2,21.6,25.7,43.7,37,66.3c2.8,5.6,5.5,11.2,8.1,16.8c1.3,2.8,2.6,5.7,3.8,8.5c0.4,1,0.8,1.9,1.2,2.9c0.9,2.1,0.8,1.9-0.3-0.7
			c0.4,1,0.8,1.9,1.2,2.9c4.9,12,9.4,24.2,13.2,36.6c3.7,12,6.7,24.1,9,36.4c0.4,2.2,0.8,4.5,1.2,6.8c0.4,2.4,0.3,5.9,1.2,8.1
			c-0.1-1-0.3-1.9-0.4-2.9c0.1,0.9,0.2,1.8,0.3,2.7c0.2,1.4,0.3,2.7,0.5,4.1c0.4,3.2,0.7,6.4,0.9,9.5c1.8,22.3,1.4,44.7-1.1,66.9
			c-0.2,1.4-0.3,2.7-0.5,4.1c-0.1,0.5-0.1,0.9-0.2,1.4c-0.3,2.3-0.2,1.8,0.2-1.5c-0.8,2.4-0.8,5.6-1.2,8.1c-0.9,5.9-2,11.7-3.3,17.5
			c-2.3,10.7-5,21.4-8.2,31.9c-3.3,10.9-7.1,21.7-11.3,32.4c-0.5,1.3-1,2.5-1.5,3.8c-0.2,0.4-0.3,0.8-0.5,1.3
			c-0.9,2.1-0.7,1.7,0.5-1.2c0.4,1.1-2.8,6.4-3.3,7.5c-2.4,5.4-5,10.7-7.7,16c-10.1,19.8-21.8,38.8-35.1,56.6
			c-0.8,1.1-1.6,2.2-2.4,3.2c-2.9,3.8,3-3.7,0,0c-1.4,1.8-2.8,3.5-4.2,5.3c-3.7,4.5-7.5,9-11.4,13.4c-7.8,8.7-16,17-24.5,25
			c-8.1,7.6-16.5,14.9-25.2,21.8c-1,0.8-2.1,2-3.3,2.6c4.7-2.6,1.1-0.8-0.1,0.1c-2.2,1.7-4.4,3.3-6.7,4.9
			c-4.8,3.5-9.8,6.9-14.7,10.3c-18.7,12.5-38.5,23.5-58.9,33c-2.5,1.2-5,2.3-7.5,3.4c-2.3,1-5.1,2.8-7.6,3.3c0.8-0.3,1.7-0.7,2.5-1
			c-0.8,0.4-1.7,0.7-2.5,1.1c-1.3,0.5-2.5,1-3.8,1.6c-3,1.2-6,2.4-9,3.5c-10.3,3.9-20.7,7.4-31.2,10.6c-21.4,6.5-43.3,11.5-65.4,15
			c-2.7,0.4-5.4,0.8-8.1,1.2c-1.4,0.2-6,0.4,0.2,0c-1.3,0.1-2.7,0.4-4.1,0.5c-6,0.7-12,1.4-18.1,1.9c-11.8,1-23.6,1.7-35.4,1.9
			c-23.2,0.4-46.4-0.8-69.5-3.6c-1.3-0.2-3-0.1-4.2-0.5c0.9,0.1,1.8,0.2,2.8,0.4c-0.9-0.1-1.9-0.3-2.8-0.4c-2.8-0.4-5.6-0.8-8.4-1.3
			c-5.6-0.9-11.2-1.9-16.8-3.1c-11.6-2.3-23.1-5.1-34.5-8.3c-10.9-3.1-21.7-6.6-32.4-10.5c-5.3-2-10.6-4.1-15.9-6.2
			c-4.6-1.9,4.3,1.9-0.2-0.1c-1.3-0.6-2.6-1.1-3.9-1.7c-3-1.3-6.1-2.7-9.1-4.1c-21.1-10-41.4-21.7-60.5-35.2c-2.4-1.7-4.7-3.4-7-5.1
			c-1.1-0.8-2.3-1.7-3.4-2.5c-0.4-0.3-0.7-0.5-1.1-0.8c-1.8-1.4-1.4-1.1,1.1,0.9c-1.1-1.8-4.5-3.6-6.2-5c-2.4-2-4.8-3.9-7.1-5.9
			c-8.1-6.9-15.9-14.2-23.4-21.7c-7.9-7.9-15.4-16.2-22.6-24.7c-1.7-2.1-3.4-4.1-5.1-6.2c-0.8-1-1.7-2.1-2.5-3.2
			c-0.3-0.4-0.6-0.7-0.8-1.1c-1.4-1.8-1.1-1.4,0.8,1.1c-0.9,0-4.2-5.6-4.9-6.4c-1.6-2.2-3.2-4.4-4.7-6.6
			c-13-18.4-24.5-37.9-34.3-58.2c-2.2-4.5-4.2-9-6.2-13.6c-0.1-0.3-1.5-3.8-1.6-3.7c0.4,0.8,0.7,1.7,1.1,2.5c-0.3-0.8-0.7-1.7-1-2.5
			c-1.2-2.9-2.4-5.9-3.5-8.9c-4-10.6-7.6-21.4-10.7-32.3c-3-10.5-5.5-21.2-7.6-31.9c-1.1-5.4-2-10.9-2.8-16.4
			c-0.1-0.5-0.1-0.9-0.2-1.4c-0.3-2.3-0.3-1.8,0.2,1.4c0.3-0.8-0.4-3.3-0.5-4.2c-0.4-3.2-0.7-6.5-1-9.7c-2.1-22.8-2.2-45.8-0.2-68.6
			c0.2-2.8,0.5-5.6,0.8-8.4c0.2-1.8,1.7-6.7,1-8.3c-0.1,0.9-0.2,1.9-0.4,2.8c0.1-0.9,0.3-1.8,0.4-2.8c0.2-1.4,0.4-2.8,0.6-4.2
			c0.5-3.2,1.1-6.4,1.7-9.7c2-11,4.5-21.9,7.5-32.6c3.1-11.2,6.7-22.2,10.9-33c1-2.6,2-5.2,3.1-7.7c1.8-4.5-1.9,4.4,0-0.1
			c0.6-1.3,1.1-2.5,1.7-3.8c2.2-5,4.6-10,7.1-15c4.9-9.8,10.3-19.4,16.2-28.7c2.9-4.6,6-9.2,9.1-13.7c1.6-2.2,3.2-4.5,4.8-6.6
			c0.7-1,1.5-2.5,2.5-3.3c-0.5,0.7-1.1,1.4-1.6,2.1c0.6-0.7,1.1-1.4,1.7-2.1c3.6-4.5,6.2-8.8,6.2-14.8c0-5.2-2.3-11.3-6.2-14.8
			C2078.7,236.6,2063.8,234.4,2056.5,243.6L2056.5,243.6z"/>
	</g>
</g>
<g>
	<g>
		<path class="st0" d="M612.3,357.2c-8.8-4.9-18.2-9.1-27.8-12.1c-9.6-3.1-19.3-4.6-29.1-6c-18.4-2.4-36.9-1-55.1,1.8
			c-16.6,2.7-32.9,7.2-48.5,13c-16.1,6.1-32.1,13.1-46.3,22.8c-14.9,10.3-28.7,22.7-37.9,38.4c-10,17.3-13.3,37.5-8.5,56.9
			c1.2,5.2,3.4,10.3,5.7,15.1c1.5,3.1,3.1,6.1,5.2,9.1c3.1,4.5,6.6,9,10.5,12.8c3.9,4,8.4,7.3,12.8,10.8c7.5,5.7,15.5,9.6,24.2,13
			c8.1,3.3,16.7,5.5,25.5,6.7c11.2,1.6,22.2,2.7,33.4,2.7c9.4,0.1,18.8-0.3,28.1-0.4c18.2-0.4,36.4-0.6,54.5,1
			c4.5,0.3,9,0.9,13.4,1.5c-2.2-0.3-4.2-0.6-6.4-0.9c16.9,2.2,33.7,6.4,49.6,13c-1.9-0.7-3.7-1.6-5.7-2.4
			c10.8,4.6,20.8,10.5,30,17.5c-1.6-1.2-3.1-2.5-4.9-3.7c8.2,6.4,15.7,13.7,22.1,22c-1.2-1.6-2.5-3.1-3.7-4.9
			c5.4,7,10,14.5,13.4,22.7c-0.7-1.9-1.6-3.7-2.4-5.7c3,7,5.1,14.5,6.1,22.2c-0.3-2.2-0.6-4.2-0.9-6.4c1.2,8.2,0.9,16.6-0.1,24.8
			c0.3-2.2,0.6-4.2,0.9-6.4c-2.1,15.1-7,29.7-13,43.8c0.7-1.9,1.6-3.7,2.4-5.7c-5.7,13.3-12.4,26.1-21.2,37.6
			c1.2-1.6,2.5-3.1,3.7-4.9c-5.2,6.9-11.3,13-18.1,18.4c1.6-1.2,3.1-2.5,4.9-3.7c-5.7,4.3-11.8,7.9-18.4,10.6
			c1.9-0.7,3.7-1.6,5.7-2.4c-7,3-14.6,4.9-22.2,6c2.2-0.3,4.2-0.6,6.4-0.9c-10.5,1.3-20.8,1-31.2-0.3c2.2,0.3,4.2,0.6,6.4,0.9
			c-21.7-3-42.3-10.3-62.4-18.7c1.9,0.7,3.7,1.6,5.7,2.4c-14.9-6.3-29.4-13-43.9-20c-14.2-6.9-28.1-14.2-41.5-22.5
			c-7.6-4.6-14.9-9.7-22-15.2c1.6,1.2,3.1,2.5,4.9,3.7c-11.3-8.8-21.8-18.5-31.1-29.6c-2.2-2.2-4.8-4-7.8-4.9
			c-2.8-1.5-6-2.2-9.3-2.1c-6,0-13,2.7-16.9,7c-4.2,4.6-7.3,10.6-7,16.9c0.3,2.2,0.6,4.2,0.9,6.4c1.2,4.2,3.1,7.6,6.1,10.6
			c7.6,9.1,16.1,17.5,25.2,25.2c10.6,8.8,21.8,16.9,33.4,24.2c20.5,12.5,42.3,22.8,64.2,33c24.2,11,48.8,22,75,27.6
			c13.4,3,27.6,4.9,41.5,4.3c7.8-0.3,15.5-1.2,23.1-3c7.6-1.6,14.8-4.5,21.8-7.6c5.4-2.2,10.5-5.2,15.2-8.7
			c6.1-4.3,11.9-9.1,17.2-14.5c9.1-9.6,16.9-20.5,23.3-32c6.7-12.1,12.2-25.1,16.9-38.1c5.2-14.6,8.8-30,9.7-45.5
			c0.4-8.2-0.4-16.3-1.6-24.3c-0.7-5.1-2.1-10.2-3.7-15.1c-4-11.8-9.6-23.1-17-33c-7.6-10.2-15.8-19.6-26-27.5
			c-10.2-7.9-20.3-14.9-32.1-20.3c-13.4-6.1-27.2-11-41.5-13.9c-14.8-3.1-29.9-5.1-44.8-6c-13.3-0.7-26.6-0.9-39.7-0.7
			c-13.4,0.3-27,0.9-40.3,0.6c-6.6-0.3-13.4-0.7-19.9-1.5c2.2,0.3,4.2,0.6,6.4,0.9c-9.4-1.2-18.8-3.4-27.5-7
			c1.9,0.7,3.7,1.6,5.7,2.4c-6.7-2.8-13-6.6-18.8-11c1.6,1.2,3.1,2.5,4.9,3.7c-4.6-3.7-9-7.8-12.5-12.5c1.2,1.6,2.5,3.1,3.7,4.9
			c-3.1-4-5.7-8.4-7.6-13.1c0.7,1.9,1.6,3.7,2.4,5.7c-1.6-4.2-2.8-8.4-3.4-12.7c0.3,2.2,0.6,4.2,0.9,6.4c-0.6-4.3-0.6-8.7,0-13
			c-0.3,2.2-0.6,4.2-0.9,6.4c0.7-4.6,1.9-9.1,3.7-13.4c-0.7,1.9-1.6,3.7-2.4,5.7c2.2-5.4,5.2-10.3,8.8-14.9
			c-1.2,1.6-2.5,3.1-3.7,4.9c5.1-6.6,11.3-12.5,17.9-17.6c-1.6,1.2-3.1,2.5-4.9,3.7c11-8.5,23.6-15.2,36.4-20.8
			c-1.9,0.7-3.7,1.6-5.7,2.4c20.2-8.5,41.4-14.9,63-17.8c-2.2,0.3-4.2,0.6-6.4,0.9c14.6-1.9,29.6-2.2,44.2-0.3
			c-2.2-0.3-4.2-0.6-6.4-0.9c11,1.5,22,4.3,32.3,8.5c-1.9-0.7-3.7-1.6-5.7-2.4c4.2,1.8,8.5,3.9,12.5,6.1c5.5,3.1,12.5,4.2,18.5,2.4
			c5.7-1.5,11.5-5.8,14.5-11c3-5.7,4.5-12.4,2.4-18.5C621.4,365.7,617.8,360.5,612.3,357.2L612.3,357.2z"/>
	</g>
</g>
<g>
	<g>
		<path class="st0" d="M474.2,279.1c6.9,65.9,13.6,131.9,20.5,197.7c6.7,65.6,13.6,131.1,20.3,196.7c3.7,36.9,7.6,73.6,11.5,110.4
			c0.7,6.6,2.2,12.1,7,16.9c4.2,4.2,11,7.3,16.9,7c6.1-0.3,12.7-2.2,16.9-7c4-4.5,7.6-10.8,7-16.9c-6.9-65.9-13.6-131.9-20.5-197.7
			c-6.7-65.6-13.6-131.1-20.3-196.7c-3.7-36.9-7.6-73.6-11.5-110.3c-0.7-6.6-2.2-12.1-7-16.9c-4.2-4.2-11-7.3-16.9-7
			c-6.1,0.3-12.7,2.2-16.9,7C477.2,266.6,473.4,272.8,474.2,279.1L474.2,279.1z"/>
	</g>
</g>
<g>
	<g>
		<path d="M2019.5,342.3c4.1,9.9,9.1,18.4,16.6,26.2c6.1,6.3,13.3,11.6,20.8,16.1c13.3,8.1,27.8,13.8,41.7,20.8
			c7.7,3.9,15.3,8.2,22.2,13.5c-1.4-1.1-2.8-2.2-4.2-3.3c4.5,3.5,8.6,7.5,12.2,12c-1.1-1.4-2.2-2.8-3.3-4.3
			c2.9,3.8,5.3,7.9,7.2,12.3c-0.7-1.7-1.4-3.3-2.1-5c2.8,7,4.4,14.3,5.4,21.7c-0.2-1.9-0.5-3.7-0.8-5.6
			c7.1,54.3-3.2,109.2,2.7,163.6c2.8,26.3,8.5,51.4,19.4,75.5c5.3,11.8,12.2,22.5,20.2,32.7c4.4,5.7,9.2,11.2,15.6,14.6
			c5.8,3.1,11.8,4.4,18.3,3.5c6-0.8,10.9-3.2,14.6-8.1c1.5-2,2.7-3.9,3.9-6.1c7.6-13.8,13.6-28.8,17.6-44
			c3.2-12.3,4.6-25.1,9.4-36.9c-0.7,1.7-1.4,3.3-2.1,5c1.6-3.8,3.6-7.4,6.2-10.7c-1.1,1.4-2.2,2.8-3.3,4.3c1.9-2.4,4.1-4.5,6.5-6.4
			c-1.4,1.1-2.8,2.2-4.2,3.3c2.8-2.1,5.8-3.8,8.9-5.2c-1.7,0.7-3.3,1.4-5,2.1c6.3-2.7,13-4,19.8-4.9c-1.9,0.3-3.7,0.5-5.6,0.8
			c16.6-2.2,34.2-1.8,50.1-7.6c19-6.9,35.4-19.9,45.5-37.5c10.6-18.5,13.2-40.5,8.4-61.2c-4.2-17.8-15-33.6-28.7-45.5
			c-13.3-11.5-28.5-20.4-42.4-31.1c1.4,1.1,2.8,2.2,4.3,3.3c-6.3-4.9-12.2-10.3-17.2-16.6c1.1,1.4,2.2,2.8,3.3,4.3
			c-7.4-9.5-10.7-21.3-19.5-29.9c-8.7-8.5-19.9-12.7-29.5-19.9c1.4,1.1,2.8,2.2,4.2,3.3c-2.6-2-4.9-4.2-7-6.8
			c1.1,1.4,2.2,2.8,3.3,4.3c-1.3-1.8-2.4-3.6-3.3-5.7c0.7,1.7,1.4,3.3,2.1,5c-0.5-1.5-0.9-2.9-1.2-4.5c0.2,1.9,0.5,3.7,0.8,5.6
			c-0.2-1.6-0.2-3.1,0-4.7c-0.2,1.9-0.5,3.7-0.8,5.6c0.3-1.5,0.6-3,1.2-4.4c-0.7,1.7-1.4,3.3-2.1,5c0.9-2,1.9-3.8,3.3-5.6
			c-1.1,1.4-2.2,2.8-3.3,4.3c2-2.6,4.3-4.8,6.9-6.8c-1.4,1.1-2.8,2.2-4.3,3.3c6.4-4.8,13.7-8.3,21-11.4c-1.7,0.7-3.3,1.4-5,2.1
			c14.3-6,29.3-10.8,42.9-18.5c11.6-6.5,22.6-14.9,32-24.4c19.6-19.6,34.1-45,40-72.1c6.9-31.7,3.4-64.1-9.5-93.9
			c-11-25.3-29.8-47-50.5-64.9c-12.2-10.5-25.1-20.6-38.7-29.2c-15.2-9.6-33.3-17.1-51.6-15.7c-5.6,0.4-10.8,2.1-14.8,6.2
			c-3.6,3.6-6.4,9.6-6.2,14.8c0.5,10.7,9.3,21.9,21,21c3.6-0.3,7.1-0.2,10.7,0.3c-1.9-0.3-3.7-0.5-5.6-0.8
			c5.3,0.8,10.4,2.4,15.4,4.5c-1.7-0.7-3.3-1.4-5-2.1c13.2,5.8,25,14.6,36.4,23.3c-1.4-1.1-2.8-2.2-4.2-3.3
			c15.5,12,30.1,25.3,42.1,40.8c-1.1-1.4-2.2-2.8-3.3-4.3c7.5,9.7,13.8,20.2,18.6,31.5c-0.7-1.7-1.4-3.3-2.1-5
			c4.2,10.2,7.1,20.9,8.6,31.8c-0.2-1.9-0.5-3.7-0.8-5.6c1.5,11.7,1.6,23.4,0,35.1c0.2-1.9,0.5-3.7,0.8-5.6
			c-1.5,11-4.4,21.6-8.7,31.8c0.7-1.7,1.4-3.3,2.1-5c-4.3,10.1-9.9,19.7-16.7,28.4c1.1-1.4,2.2-2.8,3.3-4.3
			c-6.8,8.7-14.6,16.5-23.3,23.3c1.4-1.1,2.8-2.2,4.2-3.3c-9.2,7-19.1,12.6-29.7,17.1c1.7-0.7,3.3-1.4,5-2.1
			c-12.6,5.3-25.6,9.7-37.8,15.8c-11.7,6-23.8,14.7-29.3,27.1c-4,8.9-5.5,18.4-2.8,28c2.2,7.7,6.8,14.8,12.6,20.3
			c8.9,8.6,20.2,12.9,29.9,20.2c-1.4-1.1-2.8-2.2-4.2-3.3c2.3,1.8,4.4,3.9,6.3,6.2c-1.1-1.4-2.2-2.8-3.3-4.3
			c5,6.8,7.7,14.9,12.7,21.7c5.3,7.1,11.1,13.4,17.9,19.1c12.6,10.3,26.5,18.7,39.4,28.6c-1.4-1.1-2.8-2.2-4.3-3.3
			c6.6,5.1,12.8,10.7,17.9,17.3c-1.1-1.4-2.2-2.8-3.3-4.3c3.3,4.3,6.1,9,8.3,14c-0.7-1.7-1.4-3.3-2.1-5c2.1,5.1,3.5,10.4,4.3,15.9
			c-0.2-1.9-0.5-3.7-0.8-5.6c0.7,5.8,0.7,11.7,0,17.5c0.3-1.9,0.5-3.7,0.8-5.6c-0.8,5-2.1,9.9-4,14.7c0.7-1.7,1.4-3.3,2.1-5
			c-2.1,5-4.8,9.6-8.1,13.9c1.1-1.4,2.2-2.8,3.3-4.3c-3.3,4.2-7.1,8-11.3,11.4c1.4-1.1,2.8-2.2,4.3-3.3c-4.3,3.3-8.9,6-13.8,8.2
			c1.7-0.7,3.3-1.4,5-2.1c-6.6,2.8-13.6,4.3-20.6,5.3c1.9-0.3,3.7-0.5,5.6-0.8c-20.7,2.8-42.4,2.2-61.3,12.6
			c-10.5,5.8-19.5,15.3-24.5,26.2c-4.8,10.3-7.4,20.8-9.6,31.9c-2.5,12.1-5.9,24-10.7,35.4c0.7-1.7,1.4-3.3,2.1-5
			c-2.8,6.6-6.1,13.1-9.7,19.3c4.2-3.2,8.4-6.4,12.6-9.7c-0.3,0.1-0.6,0.1-0.9,0.2c1.9-0.3,3.7-0.5,5.6-0.8c-0.6,0.1-1.2,0.1-1.8,0
			c1.9,0.3,3.7,0.5,5.6,0.8c-1-0.2-1.8-0.4-2.7-0.8c1.7,0.7,3.3,1.4,5,2.1c-1.2-0.6-2.2-1.3-3.3-2.1c1.4,1.1,2.8,2.2,4.3,3.3
			c-3.4-2.8-6.1-6.4-8.8-9.9c1.1,1.4,2.2,2.8,3.3,4.3c-7.4-9.8-13.4-20.5-18.2-31.8c0.7,1.7,1.4,3.3,2.1,5
			c-7.2-17.2-11.5-35.5-14-53.9c0.2,1.9,0.5,3.7,0.8,5.6c-6.5-49.8,0.9-100-1.7-149.9c-0.7-13.4-1.7-27.4-5.3-40.4
			c-3.4-12-9.2-22.5-17.3-32c-11-12.8-26.4-21.4-41.3-28.7c-15.7-7.6-32.2-14-46.1-24.7c1.4,1.1,2.8,2.2,4.3,3.3
			c-4.2-3.3-8.1-7-11.4-11.2c1.1,1.4,2.2,2.8,3.3,4.3c-2.8-3.6-5-7.4-6.8-11.5c0.7,1.7,1.4,3.3,2.1,5c-0.1-0.2-0.2-0.4-0.3-0.7
			c-2.2-5.3-4.5-9.5-9.7-12.6c-4.5-2.6-11.1-3.8-16.2-2.1c-5.1,1.6-10,4.8-12.6,9.7C2019.2,330.8,2017.4,337.3,2019.5,342.3
			L2019.5,342.3z"/>
	</g>
</g>
<g>
	<g>
		<path d="M2599.7,64.2c-28.8,28.5-50.6,63.2-64.9,101c-6.7,17.6-11.4,35.9-14.1,54.5c-3.1,21.9-8.3,49.5,8,67.5
			c11.6,12.8,30.8,13.8,45.9,7.4c10.9-4.6,19.6-12.9,30.4-17.6c-1.7,0.7-3.3,1.4-5,2.1c7.5-3.1,15.3-4.9,23.4-6.1
			c-1.9,0.3-3.7,0.5-5.6,0.8c6.7-0.9,13.5-1.3,20.2-1.6c6.8-0.3,13.7-0.7,20.6,0c-1.9-0.3-3.7-0.5-5.6-0.8c3.2,0.4,6.3,1.2,9.4,2.4
			c-1.7-0.7-3.3-1.4-5-2.1c2.2,1,4.2,2.2,6.1,3.6c-1.4-1.1-2.8-2.2-4.2-3.3c2.6,2,4.8,4.4,6.8,6.9c-1.1-1.4-2.2-2.8-3.3-4.3
			c4.6,6.2,7.8,13.1,10.8,20.2c-0.7-1.7-1.4-3.3-2.1-5c7.6,18,14.7,36.5,17.5,56c-0.2-1.9-0.5-3.7-0.8-5.6
			c1.1,8.2,1.3,16.4,0.2,24.6c0.2-1.9,0.5-3.7,0.8-5.6c-0.8,5.7-2.3,11.3-4.6,16.6c0.7-1.7,1.4-3.3,2.1-5c-1.6,3.8-3.6,7.4-6,10.7
			c1.1-1.4,2.2-2.8,3.3-4.3c-1.5,1.9-3.1,3.5-4.9,5c1.4-1.1,2.8-2.2,4.3-3.3c-1.6,1.2-3.2,2.1-5,2.9c1.7-0.7,3.3-1.4,5-2.1
			c-1.8,0.7-3.5,1.2-5.4,1.5c1.9-0.3,3.7-0.5,5.6-0.8c-2.9,0.4-5.7,0.3-8.5,0c1.9,0.3,3.7,0.5,5.6,0.8c-3.6-0.5-7-1.5-10.3-2.9
			c1.7,0.7,3.3,1.4,5,2.1c-7.6-3.3-14.1-8.4-20.7-13.3c-7.8-5.8-15.6-10.4-24.7-13.9c-18.6-7.1-39.2-5.6-58.4-2.7
			c-10,1.5-19.5,3.8-28.8,8c-9.6,4.3-17,11.6-23.1,19.9c-10.9,15-14.3,35.1-12.9,53.3c0.9,11.8,3.2,23.5,5.4,35.2
			c2.1,10.7,3.8,21.4,5.3,32.2c-0.3-1.9-0.5-3.7-0.8-5.6c2.9,22,4.3,44,4.9,66.2c0.6,20.4,2.2,42.6,13.8,60.2
			c3.6,5.4,7.8,10.5,12.7,14.7c5.5,4.6,11.4,8.6,17.1,13c-1.4-1.1-2.8-2.2-4.3-3.3c4.4,3.4,8.3,7.2,11.7,11.6
			c-1.1-1.4-2.2-2.8-3.3-4.3c7.2,9.6,11.9,20.6,17.6,31c6.9,12.6,15.7,24,27.6,32.3c12,8.4,27.1,10.5,41.3,7.8
			c15.7-3,28.2-15.5,32.5-30.6c4-14-0.2-28,1.6-42.1c-0.2,1.9-0.5,3.7-0.8,5.6c0.6-3.7,1.5-7.2,2.9-10.6c-0.7,1.7-1.4,3.3-2.1,5
			c2.1-4.9,4.9-9.3,8.1-13.5c-1.1,1.4-2.2,2.8-3.3,4.3c9.9-12.6,22.8-22.2,34.1-33.4c6.5-6.4,12.6-13.5,17.3-21.3
			c5.9-9.7,9-20.2,10-31.5c1.2-13.8-2.7-27.7-4.7-41.3c0.3,1.9,0.5,3.7,0.8,5.6c-0.7-5.5-1.1-11.1-0.5-16.6
			c-0.2,1.9-0.5,3.7-0.8,5.6c0.4-3.2,1.2-6.3,2.4-9.4c-0.7,1.7-1.4,3.3-2.1,5c1.1-2.6,2.5-4.9,4.1-7.2c-1.1,1.4-2.2,2.8-3.3,4.3
			c2.1-2.7,4.5-5,7.1-7.1c-1.4,1.1-2.8,2.2-4.3,3.3c3.2-2.4,6.7-4.4,10.5-6c-1.7,0.7-3.3,1.4-5,2.1c4.7-1.9,9.4-3.1,14.4-3.8
			c-1.9,0.3-3.7,0.5-5.6,0.8c14.7-1.9,29.5,0.4,44.1,2c15.1,1.7,30.2,3.4,45.2,5.1c5,0.6,11.4-2.7,14.8-6.2
			c3.6-3.6,6.4-9.6,6.2-14.8c-0.2-5.4-2-11.1-6.2-14.8c-4.4-4-9-5.5-14.8-6.2c-13.9-1.6-27.8-3.1-41.6-4.7
			c-13.5-1.5-27.1-3.7-40.7-3.1c-14.3,0.7-29.4,4-41.3,12.4c-12.5,8.9-22.2,21.4-24.4,37c-0.7,4.6-1.2,9.1-1,13.8
			c0.2,4.7,0.9,9.4,1.5,14c0.9,6.7,2.3,13.4,3.3,20.2c-0.2-1.9-0.5-3.7-0.8-5.6c0.8,6,1.1,12,0.4,18c0.2-1.9,0.5-3.7,0.8-5.6
			c-0.6,3.8-1.6,7.5-3.1,11c0.7-1.7,1.4-3.3,2.1-5c-2.1,4.9-4.9,9.4-8.2,13.7c1.1-1.4,2.2-2.8,3.3-4.3
			c-9.5,12.1-21.8,21.5-32.8,32.2c-12.4,12-24.2,26.9-27.2,44.3c-1.2,7-1.5,13.8-1.1,20.9c0.4,5.9,0.9,11.8,0.2,17.6
			c0.2-1.9,0.5-3.7,0.8-5.6c-0.3,2.5-0.9,4.9-1.8,7.2c0.7-1.7,1.4-3.3,2.1-5c-0.9,2-1.9,3.8-3.2,5.5c1.1-1.4,2.2-2.8,3.3-4.3
			c-1,1.2-2.1,2.3-3.4,3.3c1.4-1.1,2.8-2.2,4.3-3.3c-1.7,1.3-3.5,2.3-5.4,3.1c1.7-0.7,3.3-1.4,5-2.1c-2.3,0.9-4.6,1.4-6.9,1.8
			c1.9-0.3,3.7-0.5,5.6-0.8c-2.7,0.3-5.4,0.3-8.2-0.1c1.9,0.3,3.7,0.5,5.6,0.8c-3-0.4-5.9-1.2-8.7-2.4c1.7,0.7,3.3,1.4,5,2.1
			c-2.8-1.3-5.4-2.9-7.8-4.7c1.4,1.1,2.8,2.2,4.2,3.3c-3.6-2.8-6.8-6.1-9.6-9.7c1.1,1.4,2.2,2.8,3.3,4.3
			c-8.4-11-13.5-23.9-20.5-35.8c-4.2-7.1-9.2-14.1-15.1-19.9c-6.1-5.9-13.4-10.6-20.2-15.8c1.4,1.1,2.8,2.2,4.3,3.3
			c-3.7-2.9-7.2-6-10.1-9.7c1.1,1.4,2.2,2.8,3.3,4.3c-2.6-3.4-4.7-7.1-6.4-11.1c0.7,1.7,1.4,3.3,2.1,5c-2.6-6.4-4.2-13.1-5.1-19.9
			c0.2,1.9,0.5,3.7,0.8,5.6c-1.3-9.9-1.5-20-1.8-30c-0.4-12.7-1.2-25.4-2.4-38c-1.4-13.9-3.2-27.8-5.4-41.6
			c-2-12.5-4.9-24.8-6.7-37.3c0.2,1.9,0.5,3.7,0.8,5.6c-1.2-8.7-1.7-17.4-0.5-26.1c-0.2,1.9-0.5,3.7-0.8,5.6
			c0.8-5.3,2.1-10.4,4.2-15.3c-0.7,1.7-1.4,3.3-2.1,5c1.6-3.7,3.6-7.1,6-10.3c-1.1,1.4-2.2,2.8-3.3,4.3c2.1-2.6,4.4-5,7.1-7.1
			c-1.4,1.1-2.8,2.2-4.3,3.3c2.8-2,5.7-3.7,8.8-5c-1.7,0.7-3.3,1.4-5,2.1c8.3-3.3,17.2-4.7,26-5.9c-1.9,0.3-3.7,0.5-5.6,0.8
			c9.6-1.2,19.2-1.7,28.8-0.6c-1.9-0.3-3.7-0.5-5.6-0.8c5.9,0.8,11.7,2.2,17.2,4.6c-1.7-0.7-3.3-1.4-5-2.1
			c11.2,4.9,19.9,13.4,30.1,19.9c13.3,8.5,29.6,12.7,45.2,9.1c17.8-4.1,28.2-19.5,34.5-35.4c4.9-12.2,6.4-26,5.4-39.1
			c-2-27.2-11.9-52.9-22.9-77.6c-5.4-12.2-12.9-23.2-24-31c-12.6-9-28.4-9.1-43.2-8.5c-15,0.6-30.6,1.5-45,6
			c-7.7,2.4-15.3,5.7-22.1,10.1c-5.8,3.8-11.3,8.3-17.7,11.1c1.7-0.7,3.3-1.4,5-2.1c-2.4,0.9-4.7,1.6-7.2,2c1.9-0.3,3.7-0.5,5.6-0.8
			c-1.9,0.2-3.7,0.2-5.6,0.1c1.9,0.3,3.7,0.5,5.6,0.8c-1.5-0.2-2.9-0.6-4.4-1.1c1.7,0.7,3.3,1.4,5,2.1c-1.4-0.6-2.7-1.3-3.9-2.3
			c1.4,1.1,2.8,2.2,4.2,3.3c-0.9-0.8-1.6-1.5-2.4-2.4c1.1,1.4,2.2,2.8,3.3,4.3c-1-1.4-1.8-2.8-2.5-4.4c0.7,1.7,1.4,3.3,2.1,5
			c-0.8-2.2-1.3-4.4-1.7-6.7c0.2,1.9,0.5,3.7,0.8,5.6c-1.3-10.8,0.3-22.1,1.7-32.8c-0.2,1.9-0.5,3.7-0.8,5.6
			c3.1-22.6,9.1-44.8,18-65.8c-0.7,1.7-1.4,3.3-2.1,5c8.8-20.7,20.1-40.3,33.9-58.1c-1.1,1.4-2.2,2.8-3.3,4.3
			c6.8-8.7,14.2-17,22-24.8c7.8-7.7,8.3-22.1,0-29.7C2621,56.4,2608,55.9,2599.7,64.2L2599.7,64.2z"/>
	</g>
</g>
</svg>
