<?xml version="1.0" encoding="utf-8"?>
<!-- Generator: Adobe Illustrator 27.0.0, SVG Export Plug-In . SVG Version: 6.00 Build 0)  -->
<svg version="1.1" id="Capa_1" xmlns="http://www.w3.org/2000/svg" xmlns:xlink="http://www.w3.org/1999/xlink" x="0px" y="0px"
	 viewBox="0 0 1080 1080" style="enable-background:new 0 0 1080 1080;" xml:space="preserve">
<style type="text/css">
	.st0{fill:#FFFFFF;}
</style>
<g>
	<g>
		<g>
			<path d="M1786.9,400.8c-1.7,3.5-3.4,7-5.1,10.5c-1.1,2.2-1.6,4.5-0.9,6.9c0.6,2.1,2.2,4.4,4.1,5.4c4.1,2.2,10,1.2,12.3-3.2
				c9.8-19,20.3-37.7,31.5-56c11.2-18.4,23-36.3,35.5-53.9c7-9.8,14.2-19.6,21.6-29.1c-0.5,0.6-0.9,1.2-1.4,1.8
				c5.8-7.5,11.8-15,17.8-22.3c3-3.6,6-7.3,9.1-10.8c2.9-3.4,5.7-7.3,9.2-10.1c-0.6,0.5-1.2,0.9-1.8,1.4c0.7-0.5,1.4-1,2.2-1.3
				c-0.7,0.3-1.4,0.6-2.1,0.9c0.7-0.3,1.3-0.4,2-0.5c-0.8,0.1-1.6,0.2-2.4,0.3c0.6,0,1.1,0,1.7,0c-0.8-0.1-1.6-0.2-2.4-0.3
				c0.6,0.1,1.1,0.3,1.6,0.5c-0.7-0.3-1.4-0.6-2.1-0.9c1,0.4,1.8,1,2.7,1.6c-0.6-0.5-1.2-0.9-1.8-1.4c3.8,3,7,6.8,10.3,10.3
				c3.5,3.7,7,7.5,10.5,11.3c6.9,7.7,13.7,15.5,20.2,23.5c3.7,4.5,7.3,9.1,10.9,13.7c-0.5-0.6-0.9-1.2-1.4-1.8
				c13.5,17.5,26.1,35.6,38.1,54.2c12,18.6,23.4,37.5,34.7,56.5c6.3,10.7,12.5,21.5,18.8,32.2c4.1-4.1,8.2-8.2,12.3-12.3
				c-11.1-6.4-22.2-12.8-33.4-19.3c-3.9-2.3-8.9-1.2-11.6,2.3c-2.6,3.3-2.7,8.9,0.7,11.8c12.5,10.8,27.2,18.7,43.2,23
				c5.3,1.4,11.8-2.7,11.4-8.7c-0.8-11.4-1.5-22.9-2.3-34.3c-5.9,0.8-11.8,1.6-17.7,2.4c0.9,3.3,1.5,6.6,2,10
				c-0.1-0.8-0.2-1.6-0.3-2.4c0.9,6.9,0.9,13.9,0,20.9c0.1-0.8,0.2-1.6,0.3-2.4c-0.1,0.9-0.3,1.8-0.4,2.7c-0.4,2.5-0.4,4.7,0.9,6.9
				c1.1,1.9,3.2,3.6,5.4,4.1c2.3,0.5,4.9,0.4,6.9-0.9c1.9-1.2,3.8-3.1,4.1-5.4c2.1-12.8,1.7-25.7-1.6-38.3c-1.2-4.3-5.5-7-9.9-6.4
				c-4.2,0.6-8.1,4.4-7.8,8.8c0.8,11.4,1.5,22.9,2.3,34.3c3.8-2.9,7.6-5.8,11.4-8.7c-4.6-1.2-9-2.7-13.3-4.5
				c0.7,0.3,1.4,0.6,2.1,0.9c-7.8-3.3-15.1-7.6-21.8-12.7c0.6,0.5,1.2,0.9,1.8,1.4c-1.4-1.1-2.8-2.2-4.1-3.4
				c-3.6,4.7-7.3,9.4-10.9,14.1c11.1,6.4,22.2,12.8,33.4,19.3c3.3,1.9,8.2,1.5,10.9-1.4c2.7-3,3.5-7.3,1.4-10.9
				c-16.2-28-32.4-55.9-49.8-83.2c-17.7-27.8-36.8-54.7-57.9-80c-10.5-12.6-21.5-24.7-32.9-36.4c-3.3-3.4-6.9-6.7-11.6-8.1
				c-6-1.7-11.6,0.5-16.1,4.4c-2.7,2.3-5,5.4-7.3,8.1c-2.6,3-5.1,6-7.6,9c-20.3,24.4-39.4,49.9-57.2,76.3
				c-17.4,25.9-33.5,52.7-48.2,80.2c-1.8,3.3-3.5,6.7-5.3,10c5.2,3,10.4,6.1,15.5,9.1c1.7-3.5,3.4-7,5.1-10.5
				c1.1-2.2,1.6-4.5,0.9-6.9c-0.6-2.1-2.2-4.4-4.1-5.4C1795.2,395.4,1789.1,396.3,1786.9,400.8L1786.9,400.8z"/>
		</g>
	</g>
	<g>
		<g>
			<path d="M2099.8,492.3c11.4,15.8,22.1,32.1,32,48.8c9.9,16.7,19.2,33.9,27.6,51.4c4.8,9.9,9.3,19.9,13.5,30
				c-0.3-0.7-0.6-1.4-0.9-2.1c6.4,15.3,12.3,30.8,17.6,46.6c1.5,4.5,3,9,4.4,13.5c2.9-3.8,5.8-7.6,8.7-11.4
				c-32.6,0.3-65.3,0.7-97.8-3.1c-29.2-3.4-58.3-7-87.6-8.4c-17.4-0.8-34.8-0.8-52.2,0.1c-3.8,0.2-7.8,2.6-8.7,6.6
				c-0.9,3.8,0.5,8.2,4.1,10.2c7.3,3.9,14.2,8.4,20.7,13.4c-0.6-0.5-1.2-0.9-1.8-1.4c5.5,4.2,10.6,8.8,15.5,13.8
				c3.6-4.7,7.3-9.4,10.9-14.1c-16.8-8.6-32.8-18.7-47.7-30.2c0.6,0.5,1.2,0.9,1.8,1.4c-1.1-0.9-2.2-1.7-3.3-2.6
				c-0.6,4.7-1.2,9.4-1.8,14.1c7.2-3.6,14.5-7.1,21.9-10.2c-0.7,0.3-1.4,0.6-2.1,0.9c15.2-6.4,31.1-11.9,47.5-14.1
				c-0.8,0.1-1.6,0.2-2.4,0.3c2.8-0.4,5.5-0.6,8.3-0.8c2.4-0.1,4.7-0.9,6.4-2.6c1.6-1.6,2.7-4.1,2.6-6.4c-0.2-4.7-4-9.2-9-9
				c-23.2,1.1-45.6,9.4-66.6,18.7c-5.3,2.4-10.6,4.9-15.7,7.5c-2.5,1.3-3.9,3.9-4.3,6.6c-0.3,2.6,0.3,5.8,2.5,7.6
				c12.9,10.2,26.5,19.6,40.8,27.7c4,2.3,8,4.4,12,6.5c4,2.1,8.8,1.3,11.6-2.3c2.7-3.5,2.5-8.6-0.7-11.8c-11.1-11.4-24-21.1-38-28.6
				c-1.5,5.6-3,11.2-4.5,16.8c30.3-1.6,60.5-0.2,90.7,2.7c14.6,1.4,29.2,3.2,43.7,4.9c16.1,1.9,32.2,3.1,48.3,3.6
				c18.3,0.5,36.7,0.3,55,0.1c5.7-0.1,10.4-5.7,8.7-11.4c-8.5-27.3-18.8-54-30.7-80c-11.5-25.3-24.7-49.8-39.3-73.5
				c-8.2-13.3-16.9-26.3-26-39c-1.4-2-3-3.5-5.4-4.1c-2.2-0.6-5-0.3-6.9,0.9c-1.9,1.2-3.6,3.1-4.1,5.4
				C2098.4,487.6,2098.4,490.3,2099.8,492.3L2099.8,492.3z"/>
		</g>
	</g>
	<g>
		<g>
			<path d="M1915.2,665.1c-33.3-0.6-66.7-0.5-100,0.1c-33.2,0.6-66.3,1.8-99.4,3.6c-18.6,1-37.2,2.2-55.7,3.6
				c2.6,4.5,5.2,9,7.8,13.5c10.5-19,21-37.9,31.6-56.9c10.5-19,21-37.9,31.6-56.9c5.9-10.7,11.9-21.4,17.8-32.1
				c2.2-3.9,1.3-8.9-2.3-11.6c-1.5-1.2-3.5-2-5.5-1.9c-2.5,0.1-4.4,1.1-6.4,2.6c-0.7,0.6-1.4,1.1-2.1,1.7c0.6-0.5,1.2-0.9,1.8-1.4
				c-8.8,6.8-18.5,12.4-28.7,16.7c0.7-0.3,1.4-0.6,2.1-0.9c-1.8,0.8-3.6,1.5-5.4,2.1c2.9,5,5.8,10,8.8,15c5-4.4,10.1-8.6,15.3-12.7
				c-0.6,0.5-1.2,0.9-1.8,1.4c7.9-6.1,16-11.7,24.5-17c-4.5-2.6-9-5.2-13.5-7.8c1,20.2,0.2,40.5-2.5,60.5c0.1-0.8,0.2-1.6,0.3-2.4
				c-0.2,1.8-0.5,3.6-0.8,5.5c-0.4,2.5-0.4,4.7,0.9,6.9c1.1,1.9,3.2,3.6,5.4,4.1c2.3,0.5,4.9,0.4,6.9-0.9c1.8-1.2,3.8-3.1,4.1-5.4
				c2.7-17.7,4.1-35.6,4-53.6c0-4.9-0.2-9.9-0.4-14.8c-0.2-3.2-1.6-6.1-4.5-7.8c-2.7-1.6-6.4-1.7-9.1,0
				c-14.7,9.2-28.6,19.6-41.6,31.1c-2.9,2.5-3.5,7.7-1.4,10.9c0.8,1.3,1.9,2.4,3.2,3.2c1.8,1.1,4.9,1.6,6.9,0.9
				c7.3-2.7,14.4-5.9,21.1-9.7c6.8-3.8,13.1-8.3,19.1-13.1c-4.7-3.6-9.4-7.3-14.1-10.9c-10.5,19-21,37.9-31.6,56.9
				c-10.5,19-21,37.9-31.6,56.9c-5.9,10.7-11.9,21.4-17.8,32.1c-1.6,2.8-1.7,6.3,0,9.1c1.5,2.6,4.7,4.7,7.8,4.5
				c33.2-2.4,66.5-4.3,99.8-5.6c33.1-1.3,66.3-1.9,99.4-2c18.6-0.1,37.2,0.1,55.8,0.4c4.7,0.1,9.2-4.2,9-9
				C1924,669.2,1920.2,665.2,1915.2,665.1L1915.2,665.1z"/>
		</g>
	</g>
</g>
<g>
	<polygon points="2163,1208.2 2163,1224 2033.5,1224 2023.8,1222.9 2022.9,1225.7 2030.9,1231.1 2064.8,1265 2052.9,1277 
		1997.6,1221.7 1997.6,1209.5 2052.9,1154.2 2064.8,1166.2 2030.9,1200.1 2022.9,1205.5 2023.8,1208.3 2033.5,1207.2 2142.7,1207.2 
		2065.3,1075.6 2080.1,1067 2162.4,1207.2 	"/>
</g>
<g>
	<polygon points="1766,1225.6 1765.6,1217.6 1830.4,1105.4 1836.2,1097.7 1834.2,1095.5 1825.6,1099.7 1779.2,1112.1 1774.8,1095.8 
		1850.3,1075.5 1860.9,1081.6 1881.1,1157.2 1864.8,1161.5 1852.4,1115.1 1851.7,1105.5 1848.8,1104.9 1845,1113.8 1790.4,1208.5 
		1943.1,1207.2 1943.1,1224.3 1780.5,1225.6 	"/>
</g>
<g>
	<polygon points="1955,855 1964.4,854.6 2029.2,966.8 2033,975.7 2035.9,975.1 2036.6,965.5 2049,919.1 2065.4,923.5 2045.1,999 
		2034.6,1005.1 1959,984.9 1963.4,968.6 2009.8,981 2018.5,985.2 2020.4,983 2014.6,975.2 1960,880.6 1884.7,1013.5 1869.9,1004.9 
		1950.1,863.5 	"/>
</g>
<g>
	<g>
		<path d="M1200.4,694.8l-71.2-71.2v-15.7l71.2-71.2l15.4,15.4l-43.8,43.7l-10.3,6.9l1.2,3.6l12.4-1.5h166.9v21.7h-166.9l-12.4-1.5
			l-1.2,3.6l10.3,6.9l43.8,43.8L1200.4,694.8z"/>
	</g>
</g>
<polygon points="-592,174 -857,633 -327,633 "/>
<g>
	<g>
		<path class="st0" d="M1370.4,371.6c0-0.5,0-1,0-1.5c0-0.2,0-0.4-0.1-0.6c-0.1-0.2-0.2-0.3-0.3-0.5c-0.1-0.1-0.3-0.2-0.5-0.3
			c-0.2-0.1-0.4-0.1-0.6-0.1c-0.1,0-0.3,0-0.4,0.1c-0.3,0.1-0.5,0.2-0.7,0.4c-0.3,0.3-0.4,0.7-0.4,1.1c0,0.5,0,1,0,1.5
			c0,0.2,0,0.4,0.1,0.6c0.1,0.2,0.2,0.3,0.3,0.5c0.1,0.1,0.3,0.2,0.5,0.3c0.2,0.1,0.4,0.1,0.6,0.1c0.1,0,0.3,0,0.4-0.1
			c0.3-0.1,0.5-0.2,0.7-0.4C1370.2,372.4,1370.4,372,1370.4,371.6L1370.4,371.6z"/>
	</g>
</g>
<g>
	<g>
		<path d="M1560.8,655.6c1.4-10.8-1.2-21.8-1.3-32.6c-0.1-9.8,0.5-19.7,1.3-29.5c1.7-21.3,3.5-42.2,0.6-63.5
			c-3.3-24.7-13.6-46.6-30.5-64.9c-7.8-8.4-17-15.5-26.3-22.1c-9.9-7.1-20.7-13.1-32.4-16.9c-12.4-3.9-27-4.3-39.2,0.5
			c-13.9,5.5-23.9,14.1-32.5,26.3c-12.5,17.7-16.3,41.1-17.9,62.2c-1.6,21.8,1,43.6,2.6,65.3c1.7,22.7,1.8,45.5,1.6,68.2
			c-0.2,22.9-0.8,45.9-1,68.8c-0.1,22.6-0.3,45.4,2.4,67.9c2.7,22.3,7.2,43.9,15.2,64.8c7.8,20.2,17.2,39.7,28.8,58
			c44.2,69.6,110.2,125.8,187.2,155.4c78.1,30,171.4,26.4,243.8-17.1c70.7-42.5,115.2-116.3,139.7-193.2
			c13.1-41,20.7-83.4,26.8-125.9c6.7-47.1,12.2-94.4,16.3-141.8c7.9-91.5,10.7-183.4,8.3-275.1c-0.6-21.8-1.8-44.1-7.2-65.3
			c-5.4-21.6-16.1-44.1-33-59.2c-9.4-8.4-20.7-15.6-33.2-18.6c-12.1-2.8-25.8-2.8-37.4,1.8c-13.4,5.3-25.2,13.5-32.1,26.6
			c-6.2,11.7-7.7,24.7-10.1,37.5c-16.5,91-33.1,181.9-49.6,272.9c-4,22.2-8.1,44.4-12.1,66.6c-1.5,8.1-1.3,15.8,3,23.1
			c3.6,6.2,10.8,12.2,17.9,13.8c7.7,1.7,16.3,1.4,23.1-3c6.2-4,12.4-10.3,13.8-17.9c17.5-96.5,35.1-193,52.6-289.5
			c2.4-13.3,4.8-26.6,7.3-39.9c1.2-6.7,2.4-13.3,3.6-20c1.2-6.4,2.1-12.9,4.6-19c-1,2.4-2,4.8-3,7.2c0.9-1.9,1.9-3.7,3.2-5.4
			c-1.6,2-3.1,4-4.7,6.1c1.4-1.8,3-3.3,4.8-4.7c-2,1.6-4,3.1-6.1,4.7c2.1-1.6,4.4-2.9,6.8-3.9c-2.4,1-4.8,2-7.2,3
			c2.9-1.1,5.8-1.9,8.9-2.4c-2.7,0.4-5.3,0.7-8,1.1c3.1-0.4,6.1-0.4,9.2,0c-2.7-0.4-5.3-0.7-8-1.1c3.2,0.5,6.3,1.3,9.4,2.5
			c-2.4-1-4.8-2-7.2-3c4,1.7,7.6,3.8,11,6.4c-2-1.6-4-3.1-6.1-4.7c4.1,3.2,7.7,6.9,10.9,11c-1.6-2-3.1-4-4.7-6.1
			c4.7,6.2,8.5,13,11.6,20.1c-1-2.4-2-4.8-3-7.2c4.7,11.3,7.5,23.3,9.2,35.4c-0.4-2.7-0.7-5.3-1.1-8c3.4,25.9,3.1,52.4,3.3,78.5
			c0.3,28.5,0.1,57-0.7,85.4c-1.4,57.2-4.8,114.4-10.2,171.3c-3,32-6.7,63.9-11,95.7c0.4-2.7,0.7-5.3,1.1-8
			c-8.3,61.7-19,123.8-43.3,181.5c1-2.4,2-4.8,3-7.2c-11.3,26.7-25.7,52-43.4,75c1.6-2,3.1-4,4.7-6.1c-13.6,17.5-29.1,33.4-46.6,47
			c2-1.6,4-3.1,6.1-4.7c-15.2,11.7-31.8,21.5-49.5,29c2.4-1,4.8-2,7.2-3c-19.3,8-39.5,13.4-60.2,16.3c2.7-0.4,5.3-0.7,8-1.1
			c-23.2,3.1-46.6,3-69.8,0c2.7,0.4,5.3,0.7,8,1.1c-25.1-3.4-49.4-10.2-72.7-20c2.4,1,4.8,2,7.2,3c-26.2-11.2-50.6-25.9-73.2-43.2
			c2,1.6,4,3.1,6.1,4.7c-25.6-19.9-48.6-43.1-68.5-68.7c1.6,2,3.1,4,4.7,6.1c-16.3-21.2-30.3-44.1-40.7-68.7c1,2.4,2,4.8,3,7.2
			c-8.3-19.7-14.1-40.3-16.9-61.5c0.4,2.7,0.7,5.3,1.1,8c-4.7-36.8-2.9-74.4-2.3-111.4c0.6-37.1,0.8-74.1-2.3-111.2
			c-1.7-20.2-3.1-40.5-0.4-60.7c-0.4,2.7-0.7,5.3-1.1,8c1.3-9,3.3-17.8,6.8-26.2c-1,2.4-2,4.8-3,7.2c2-4.5,4.3-8.8,7.3-12.8
			c-1.6,2-3.1,4-4.7,6.1c2-2.6,4.3-4.9,6.8-6.9c-2,1.6-4,3.1-6.1,4.7c2-1.5,4.1-2.8,6.4-3.8c-2.4,1-4.8,2-7.2,3c2.5-1,5-1.7,7.7-2.2
			c-2.7,0.4-5.3,0.7-8,1.1c2.9-0.3,5.7-0.3,8.5,0c-2.7-0.4-5.3-0.7-8-1.1c3.9,0.6,7.5,1.7,11.1,3.1c-2.4-1-4.8-2-7.2-3
			c9.6,4.1,18.4,10.1,26.6,16.4c-2-1.6-4-3.1-6.1-4.7c7.6,5.9,14.5,12.5,20.4,20.1c-1.6-2-3.1-4-4.7-6.1c4.2,5.5,7.7,11.4,10.4,17.8
			c-1-2.4-2-4.8-3-7.2c3,7.4,5,15.2,6.1,23.1c-0.4-2.7-0.7-5.3-1.1-8c2.6,19.8,0.4,39.7-1.2,59.5c-0.8,9.8-1.4,19.6-1.3,29.5
			c0.2,10.8,2.7,21.8,1.3,32.6c-0.9,7.1,4,16.4,8.8,21.2c5.2,5.2,13.7,9.1,21.2,8.8c7.8-0.3,15.8-2.9,21.2-8.8c1.6-2,3.1-4,4.7-6.1
			C1559.4,666.1,1560.8,661,1560.8,655.6L1560.8,655.6z"/>
	</g>
</g>
<g>
	<g>
		<path d="M403.5,504.7c-1.5-9.1-2.9-18.2-4.1-27.3c0.4,2.7,0.7,5.3,1.1,8c-6.6-49.3-8.8-99.2-6.5-148.9c0.5-10.9,1.2-21.8,2.6-32.6
			c-0.4,2.7-0.7,5.3-1.1,8c1.9-13.9,4.9-27.6,10.4-40.5c-1,2.4-2,4.8-3,7.2c3.3-7.7,7.3-15,12.4-21.6c-1.6,2-3.1,4-4.7,6.1
			c4.3-5.6,9.4-10.7,15-15c-2,1.6-4,3.1-6.1,4.7c5.5-4.2,11.5-7.8,17.9-10.5c-2.4,1-4.8,2-7.2,3c5.8-2.4,11.9-4.1,18.1-5
			c-2.7,0.4-5.3,0.7-8,1.1c5.4-0.7,10.8-0.8,16.2,0c-2.7-0.4-5.3-0.7-8-1.1c4.8,0.7,9.5,2,14,3.9c-2.4-1-4.8-2-7.2-3
			c4.9,2.1,9.4,4.8,13.6,8c-2-1.6-4-3.1-6.1-4.7c4.8,3.8,9.2,8.1,12.9,12.9c-1.6-2-3.1-4-4.7-6.1c4.3,5.6,7.8,11.8,10.6,18.4
			c-1-2.4-2-4.8-3-7.2c4.1,9.7,6.5,19.9,7.9,30.2c-0.4-2.7-0.7-5.3-1.1-8c1.9,14.7,1.9,29.6,1.8,44.4c-0.1,16.8-0.5,33.6-1.2,50.3
			c-1.3,33.4-3.6,66.8-6.9,100.1c-1.9,18.8-4.1,37.5-6.6,56.2c0.4-2.7,0.7-5.3,1.1-8c-2.9,21.9-6.3,43.8-10.1,65.5
			c-1.3,4-1.4,8-0.5,12c0.2,4,1.4,7.7,3.6,11.2c1.9,3.5,4.5,6.3,7.7,8.4c2.9,2.7,6.3,4.4,10.2,5.4c7.7,1.7,16.3,1.4,23.1-3
			c6.2-4,12.5-10.4,13.8-17.9c5.3-30.5,9.8-61.1,13.6-91.9c3.5-28.1,6.2-56.4,8.2-84.6c2-28.4,3.3-56.8,3.9-85.2
			c0.5-27.9,1.5-56.5-4.9-84c-2-8.5-5.1-16.3-8.5-24.3c-2.3-5.4-5.1-10.6-8.4-15.4c-4.3-6.2-9.1-12.4-14.7-17.6
			c-3.6-3.4-7.6-6.4-11.6-9.4c-2.2-1.6-4.5-3.2-6.8-4.5c-6.8-3.9-14.2-7-21.8-8.9c-5.2-1.3-10.7-1.9-16.1-2.5
			c-3.1-0.3-6.3-0.3-9.5-0.1c-8.5,0.6-17.3,1.9-25.4,4.6c-7.9,2.7-15.9,6.1-23,10.5c-6.4,4-12.5,8.6-18,13.7c-3.7,3.3-7,7-10.1,10.9
			c-4.5,5.9-8.9,11.6-12.5,18.1c-3.5,6.4-6.3,13.2-8.9,20c-3.6,9.3-6,19-7.7,28.8c-2.1,12.2-3.6,24.5-4.3,36.9
			c-1.8,28-2.1,56.1-0.9,84.1c1.2,30.8,4.4,61.4,8.7,91.8c1,6.8,2,13.7,3.2,20.5c0.9,3.9,2.7,7.3,5.4,10.2c2.1,3.3,4.9,5.8,8.4,7.7
			c3.4,2.2,7.2,3.4,11.2,3.6c4,0.9,8,0.7,12-0.5c7.3-2.3,14.3-6.8,17.9-13.8c1-2.4,2-4.8,3-7.2C404.9,515.3,404.9,510,403.5,504.7
			L403.5,504.7z"/>
	</g>
</g>
<g>
	<g>
		<path d="M521,221c-1.2-13-1.7-25.9-0.8-39c1-13.7,2.2-27.5,4-41.1c-0.4,2.7-0.7,5.3-1.1,8c1.7-12.6,4.4-25.1,9.3-37
			c-1,2.4-2,4.8-3,7.2c3.1-7.4,7.1-14.4,11.9-20.8c-1.6,2-3.1,4-4.7,6.1c4.2-5.5,9-10.3,14.5-14.5c-2,1.6-4,3.1-6.1,4.7
			c6.2-4.7,12.9-8.6,20.1-11.7c-2.4,1-4.8,2-7.2,3c7.4-3.1,15.1-5.2,23-6.3c-2.7,0.4-5.3,0.7-8,1.1c6.6-0.8,13.2-0.9,19.7-0.1
			c-2.7-0.4-5.3-0.7-8-1.1c5.8,0.8,11.4,2.3,16.9,4.5c-2.4-1-4.8-2-7.2-3c5.2,2.2,10.1,5.1,14.6,8.5c-2-1.6-4-3.1-6.1-4.7
			c4.5,3.5,8.4,7.5,11.9,12c-1.6-2-3.1-4-4.7-6.1c3.5,4.6,6.3,9.5,8.6,14.8c-1-2.4-2-4.8-3-7.2c2.4,5.8,4,11.9,4.9,18.1
			c-0.4-2.7-0.7-5.3-1.1-8c1.4,10.8,0.8,21.5-0.6,32.3c0.4-2.7,0.7-5.3,1.1-8c-2,14.7-5.2,29.3-7.8,43.9
			c-2.6,14.7-5.1,29.5-7.4,44.3c-5,31.8-9.3,63.8-13.2,95.8c-7.2,58.9-12.6,118.1-17.4,177.2c-2.7,33.3-5.2,66.6-7.7,99.9
			c-0.5,7.3,3.7,16.2,8.8,21.2c5.2,5.2,13.7,9.1,21.2,8.8c7.8-0.3,15.8-2.9,21.2-8.8c1.6-2,3.1-4,4.7-6.1c2.7-4.7,4.1-9.7,4.1-15.1
			c3-40.6,6.1-81.1,9.5-121.7c3.4-40.7,7.2-81.4,11.7-122.1c2.5-22.8,5.3-45.6,8.3-68.3c-0.4,2.7-0.7,5.3-1.1,8
			c5.2-38.8,11.3-77.6,18.5-116.1c3.9-21,8.7-42.7,6.1-64.2c-0.8-6.5-1.5-13-3.3-19.3c-1.6-5.5-3.9-10.8-6.2-16
			c-3.7-8.4-9.3-15.8-15.2-22.8c-6-7-13.6-13-21.4-17.8c-5.2-3.2-11-5.5-16.6-7.8c-3.5-1.4-7.1-2.5-10.8-3.3
			c-19.5-4.1-40.2-3.2-59,3.5c-9.1,3.2-18.3,7.2-26.4,12.5c-7.8,5-15.4,10.9-21.7,17.8c-14.1,15.3-23.7,34-29.2,53.9
			c-4.9,18.1-6.2,37-8,55.5c-1.4,14-2.5,28-1.7,42.1c0.2,4.4,0.6,8.7,1,13c-0.2,4.1,0.7,8,2.6,11.6c1.2,3.7,3.3,6.9,6.2,9.7
			c5.2,5.2,13.7,9.1,21.2,8.8c7.8-0.3,15.8-2.9,21.2-8.8C517.3,236.7,521.7,228.8,521,221L521,221z"/>
	</g>
</g>
<g>
	<g>
		<path d="M667.9,240.7c1.8-5.6,3.2-11.2,4.3-17c0.8-4.2,1.6-8.4,3.3-12.3c-1,2.4-2,4.8-3,7.2c1.6-3.8,3.9-7.3,6.4-10.6
			c-1.6,2-3.1,4-4.7,6.1c2.4-3.1,4.9-6,8-8.4c-2,1.6-4,3.1-6.1,4.7c3-2.3,6.3-4.3,9.6-6.3c4.9-3,9.4-6.6,14-10.1
			c-2,1.6-4,3.1-6.1,4.7c2.1-1.6,4.5-2.9,7-4c-2.4,1-4.8,2-7.2,3c5.5-2.3,11.5-3.5,17.4-4.3c-2.7,0.4-5.3,0.7-8,1.1
			c4.7-0.6,9.5-1,14.3-1.2c5-0.2,10.1-0.5,15,0.2c-2.7-0.4-5.3-0.7-8-1.1c7.5,1,14.9,3.3,21.8,6.2c-2.4-1-4.8-2-7.2-3
			c4.2,1.8,8.2,3.9,11.8,6.6c-2-1.6-4-3.1-6.1-4.7c4.3,3.3,8.2,7.2,11.5,11.6c-1.6-2-3.1-4-4.7-6.1c6.5,8.4,11.4,18.2,15.6,27.9
			c-1-2.4-2-4.8-3-7.2c1.9,4.7,3.2,9.5,3.9,14.6c-0.4-2.7-0.7-5.3-1.1-8c1.2,9.2,0.4,18.5-0.8,27.7c0.4-2.7,0.7-5.3,1.1-8
			c0,0.2,0,0.3-0.1,0.5c-1.3,4-1.4,8-0.5,12c0.2,4,1.4,7.7,3.6,11.2c1.9,3.5,4.5,6.3,7.7,8.4c2.9,2.7,6.3,4.4,10.2,5.4
			c2.7,0.4,5.3,0.7,8,1.1c5.4,0,10.5-1.4,15.1-4.1c2-1.6,4-3.1,6.1-4.7c3.7-3.7,6.3-8.2,7.7-13.2c1.4-10.5,3.1-21.1,2.4-31.8
			c-0.3-4.5-1-9-1.7-13.4c-0.3-2-0.7-3.9-1.2-5.8c-1.6-6.3-4.4-12.3-7.1-18.2c-3-6.4-6.2-12.8-10-18.8c-3.2-4.9-6.8-9.6-10.6-14.1
			c-2.3-2.7-4.7-5.2-7.4-7.4c-4.2-3.6-8.5-7.2-13.4-9.9c-4.9-2.8-10.2-4.8-15.3-6.9c-6.1-2.5-12.4-4.4-18.9-5.4
			c-5.5-0.9-11-1.7-16.5-1.7c-3.9,0-7.8,0.1-11.7,0.4c-3.2,0.2-6.4,0.5-9.6,0.9c-5.2,0.6-10.4,1.2-15.5,2.3
			c-6.4,1.3-12.1,3.7-18.1,6.3c-2.3,1-4.4,2.1-6.4,3.6c-2.6,1.9-5.1,3.9-7.6,5.9c2-1.6,4-3.1,6.1-4.7c-4.7,3.6-10,6.3-14.8,9.7
			c-4.2,3-8.8,6.2-12.3,10.2c-3.5,3.9-6.7,8.1-9.7,12.4c-3.8,5.4-6.5,11.6-8.6,17.8c-1.2,3.4-1.8,7-2.5,10.6
			c-1.1,5.6-2.4,11.1-4.2,16.5c-1.3,4-1.4,8-0.5,12c0.2,4,1.4,7.7,3.6,11.2c1.9,3.5,4.5,6.3,7.7,8.4c2.9,2.7,6.3,4.4,10.2,5.4
			c2.7,0.4,5.3,0.7,8,1.1c5.4,0,10.5-1.4,15.1-4.1c2-1.6,4-3.1,6.1-4.7C663.9,250.2,666.5,245.7,667.9,240.7L667.9,240.7z"/>
	</g>
</g>
<g>
	<g>
		<path d="M594.2,746.2c-4.1-7.1-9.1-13.7-14.3-20.1c-3.7-4.5-7.8-8.7-12.4-12.4c-6.3-5.2-12.8-10.2-20.1-14
			c-4.8-2.4-9.8-4.5-14.8-6.4c-2.9-1.1-5.8-1.9-8.8-2.6c-5.4-1.2-11-1.9-16.5-2.4c-3-0.3-6-0.3-9-0.2c-5.5,0.3-11,1.1-16.4,2.1
			c-2.9,0.6-5.8,1.3-8.6,2.4c-5.1,1.8-10.2,3.9-14.9,6.5c-4.5,2.5-8.5,5.8-12.6,9c-6.1,4.8-10.9,11-15.4,17.4
			c-4.5,6.4-7.6,13.8-10.2,21c-0.9,2.5-1.6,5.1-2.1,7.7c-0.7,3.7-1.1,7.5-1.6,11.2c-0.2,1.4-0.3,2.9-0.4,4.3c-0.1,2.7-0.1,5.3,0.2,8
			c0.6,5.3,1.2,10.8,2.6,16c0.8,2.8,1.7,5.6,2.9,8.3c2.1,5,4.1,10,6.8,14.7c4.1,7.3,9.4,13.9,14.7,20.4c3.8,4.7,7.9,9.2,12.1,13.5
			c9.8,10.2,19.7,20.3,29.6,30.4c20.4,21,40.8,41.9,61.2,62.9c2.5,2.6,5.1,5.2,7.6,7.9c2.7,2.9,5.9,5,9.7,6.2
			c3.6,1.9,7.4,2.7,11.6,2.6c4.1,0.2,8-0.7,11.6-2.6c3.7-1.2,6.9-3.3,9.7-6.2c1.6-2,3.1-4,4.7-6.1c2.7-4.7,4.1-9.7,4.1-15.1
			c-0.4-2.7-0.7-5.3-1.1-8c-1.4-5.1-4-9.5-7.7-13.2c-15.3-15.7-30.6-31.5-45.9-47.2c-15.3-15.7-30.6-31.5-45.9-47.2
			c-7.2-7.4-14.4-14.8-20.7-23c1.6,2,3.1,4,4.7,6.1c-4.6-6-8.7-12.4-11.7-19.3c1,2.4,2,4.8,3,7.2c-2-4.8-3.5-9.7-4.2-14.8
			c0.4,2.7,0.7,5.3,1.1,8c-0.6-4.6-0.6-9.2,0-13.8c-0.4,2.7-0.7,5.3-1.1,8c0.7-4.9,2-9.7,4-14.3c-1,2.4-2,4.8-3,7.2
			c1.9-4.5,4.4-8.7,7.3-12.5c-1.6,2-3.1,4-4.7,6.1c2.8-3.5,5.9-6.7,9.5-9.5c-2,1.6-4,3.1-6.1,4.7c3.5-2.7,7.3-4.8,11.3-6.6
			c-2.4,1-4.8,2-7.2,3c4.8-2,9.7-3.3,14.8-4c-2.7,0.4-5.3,0.7-8,1.1c5.7-0.7,11.4-0.7,17.1,0.1c-2.7-0.4-5.3-0.7-8-1.1
			c5.8,0.8,11.5,2.4,16.9,4.6c-2.4-1-4.8-2-7.2-3c6,2.6,11.7,5.9,16.9,9.9c-2-1.6-4-3.1-6.1-4.7c6,4.7,11.4,10.1,16.1,16.2
			c-1.6-2-3.1-4-4.7-6.1c2.9,3.8,5.5,7.7,7.9,11.8c1.9,3.5,4.5,6.3,7.7,8.4c2.9,2.7,6.3,4.4,10.2,5.4c4,1.3,8,1.4,12,0.5
			c4-0.2,7.7-1.4,11.2-3.6c2-1.6,4-3.1,6.1-4.7c3.7-3.7,6.3-8.2,7.7-13.2c0.4-2.7,0.7-5.3,1.1-8C598.3,756,596.9,750.9,594.2,746.2
			L594.2,746.2z"/>
	</g>
</g>
<g>
	<g>
		<path d="M592.6,781.4c3.1-6.6,6.9-12.9,11.4-18.7c-1.6,2-3.1,4-4.7,6.1c4.4-5.7,9.4-10.8,15.1-15.2c-2,1.6-4,3.1-6.1,4.7
			c4.9-3.8,10.3-7,16-9.5c-2.4,1-4.8,2-7.2,3c5.4-2.3,11.1-3.8,16.9-4.6c-2.7,0.4-5.3,0.7-8,1.1c5.5-0.7,11.1-0.8,16.6-0.1
			c-2.7-0.4-5.3-0.7-8-1.1c4.9,0.7,9.8,1.9,14.4,3.9c-2.4-1-4.8-2-7.2-3c4,1.7,7.8,3.9,11.3,6.6c-2-1.6-4-3.1-6.1-4.7
			c3.6,2.8,6.7,6,9.5,9.5c-1.6-2-3.1-4-4.7-6.1c3,3.9,5.5,8.1,7.4,12.6c-1-2.4-2-4.8-3-7.2c1.9,4.5,3.2,9.2,3.9,14
			c-0.4-2.7-0.7-5.3-1.1-8c0.6,4.6,0.6,9.2,0,13.8c0.4-2.7,0.7-5.3,1.1-8c-0.8,5.6-2.4,11-4.6,16.2c1-2.4,2-4.8,3-7.2
			c-4.1,9.5-9.9,18.1-16.2,26.3c1.6-2,3.1-4,4.7-6.1c-5.5,7.1-11.3,13.9-17,20.8c-6.2,7.6-12.5,15.1-18.7,22.7
			c-12.5,15.2-25.1,30.4-37.6,45.6c-7,8.5-14.1,17.1-21.1,25.6c-2.9,2.7-5,5.9-6.2,9.7c-1.9,3.6-2.7,7.4-2.6,11.6
			c-0.2,4.1,0.7,8,2.6,11.6c1.2,3.7,3.3,6.9,6.2,9.7c2,1.6,4,3.1,6.1,4.7c4.7,2.7,9.7,4.1,15.1,4.1c2.7-0.4,5.3-0.7,8-1.1
			c5.1-1.4,9.5-4,13.2-7.7c18.5-22.4,37-44.9,55.5-67.3c9.3-11.3,18.6-22.6,27.9-33.8c5.5-6.7,10.9-13.4,16.1-20.3
			c3.8-4.9,7.3-10,10.5-15.3c1.5-2.6,3-5.3,4.2-8.1c2.3-4.9,4.5-10,6.2-15.2c0.9-2.9,1.7-5.8,2.2-8.8c0.9-5.2,1.7-10.6,1.8-15.9
			c0.1-5.2-0.8-10.3-1.5-15.4c-0.4-2.7-0.9-5.3-1.7-7.9c-1.4-4.9-3.6-9.7-5.7-14.4c-1.1-2.4-2.4-4.8-3.8-7.1
			c-2.7-4.3-5.9-8.4-9.2-12.3c-1.7-2-3.6-4-5.6-5.7c-5.7-5.1-12.1-10-19.1-13.1c-5-2.2-10.1-4.5-15.4-5.9c-5.4-1.4-11-2-16.5-2.6
			c-8.6-0.9-17.4,0.3-25.8,1.8c-8.3,1.5-16.2,4.8-23.8,8.4c-7.5,3.5-13.9,8.5-20.3,13.7c-4.5,3.6-8.6,7.6-12.2,12
			c-5.2,6.2-10.1,12.7-14.2,19.8c-1.4,2.4-2.7,4.9-3.9,7.5c-2.2,3.4-3.4,7.2-3.6,11.2c-0.9,4-0.7,8,0.5,12c0.9,3.9,2.7,7.3,5.4,10.2
			c2.1,3.3,4.9,5.8,8.4,7.7c2.4,1,4.8,2,7.2,3c5.3,1.4,10.6,1.4,16,0c2.4-1,4.8-2,7.2-3C586.4,789.5,590,785.9,592.6,781.4
			L592.6,781.4z"/>
	</g>
</g>
<g>
	<g>
		<path d="M336.9,506.7c-0.8,30.6-3.3,61.2-7.4,91.5c0.4-2.7,0.7-5.3,1.1-8c-4.6,34-11.2,67.7-19.8,101c18.3-2.4,36.6-4.8,54.8-7.2
			c-12.3-18.8-25-37.3-38.9-55.1c-13.9-17.7-29.6-33.2-47.5-46.8c-35.1-26.7-81.4-41-125.4-39.2c-42.4,1.7-84.4,18.8-109.1,54.4
			c-12.4,17.7-18.2,41.4-16.2,62.9c2.1,23,9.8,45,22.4,64.5c14.6,22.4,33.4,39.5,54.5,55.6c18.3,14,37.8,26.4,56,40.5
			c-2-1.6-4-3.1-6.1-4.7c23.6,18.3,42.3,40.7,61.6,63.4c19.4,22.8,40.7,43.5,64.2,62.1c48,37.8,100.8,71.1,156.7,95.9
			c55.5,24.6,115.6,41.8,176.8,39.4c53.8-2.1,109.3-17.5,153.1-49.6c24.1-17.7,44.4-38.6,60.2-64c15.5-24.8,26.1-53,33.4-81.2
			c7.5-29.2,11.6-59.2,15.3-89.2c3.9-32,7.4-64,10.8-96c7-65.9,13.3-131.8,19.4-197.8c1.6-16.8,3.1-33.5,4.6-50.3
			c1.5-16.1,3.3-32.3,3.3-48.6c0-34.3-9.8-68.2-29.7-96.3c-10.1-14.3-21.9-27.2-37.2-36.1c-16-9.2-34.5-13.2-52.7-10.8
			c-9.7,1.3-18.7,3.9-27.2,9c-9.2,5.5-16,12.7-22.2,21.3c-8.6,11.8-13,26.9-15.7,41.1c-6.2,31.8-11.1,63.9-16.7,95.8
			c-5.7,32.7-11.3,65.5-17,98.2c-2.8,16.1-5.6,32.2-8.4,48.3c-1.4,8.1-1.3,15.7,3,23.1c3.6,6.2,10.8,12.2,17.9,13.8
			c7.7,1.7,16.3,1.4,23.1-3c6.2-4,12.5-10.4,13.8-17.9c12.4-71.4,24.7-142.8,37.1-214.2c2.9-16.9,4.7-34.7,11.3-50.7
			c-1,2.4-2,4.8-3,7.2c1.9-4.4,4.2-8.5,7.1-12.4c-1.6,2-3.1,4-4.7,6.1c2-2.5,4.2-4.7,6.7-6.8c-2,1.6-4,3.1-6.1,4.7
			c2.6-2,5.4-3.6,8.4-5c-2.4,1-4.8,2-7.2,3c3.8-1.6,7.7-2.6,11.7-3.2c-2.7,0.4-5.3,0.7-8,1.1c4.6-0.5,9-0.4,13.6,0.2
			c-2.7-0.4-5.3-0.7-8-1.1c4.5,0.7,8.9,1.9,13.2,3.6c-2.4-1-4.8-2-7.2-3c5.1,2.2,9.9,5.1,14.3,8.5c-2-1.6-4-3.1-6.1-4.7
			c6.2,4.8,11.5,10.5,16.3,16.6c-1.6-2-3.1-4-4.7-6.1c7.3,9.6,13.2,20.1,18,31.1c-1-2.4-2-4.8-3-7.2c4.4,10.5,7.5,21.3,9,32.5
			c-0.4-2.7-0.7-5.3-1.1-8c3.5,27.7-0.8,56-3.3,83.6c-2.6,28.4-5.2,56.8-7.9,85.1c-5.4,56.8-11,113.5-17.1,170.2
			c-3.3,30-6.4,60-10.4,89.8c0.4-2.7,0.7-5.3,1.1-8c-5,37.1-11.9,74.3-26.5,109c1-2.4,2-4.8,3-7.2c-7.1,16.8-16.1,32.8-27.2,47.3
			c1.6-2,3.1-4,4.7-6.1c-9.9,12.8-21.4,24.2-34.1,34.1c2-1.6,4-3.1,6.1-4.7c-15,11.6-31.6,21.1-49.1,28.5c2.4-1,4.8-2,7.2-3
			c-21.2,8.9-43.4,14.8-66.2,17.9c2.7-0.4,5.3-0.7,8-1.1c-25.7,3.4-51.5,3.2-77.2-0.1c2.7,0.4,5.3,0.7,8,1.1
			c-35.3-4.8-69.5-15.1-102.3-28.8c2.4,1,4.8,2,7.2,3c-27.9-11.8-54.7-25.9-80.7-41.5c-25.9-15.5-51.3-32.2-75.2-50.6
			c2,1.6,4,3.1,6.1,4.7c-26.7-20.7-50.3-43.9-72-69.7c-10.9-12.9-21.6-26-33.6-37.9c-13-13-27.7-24.2-42.6-34.9
			c-14.9-10.7-30.2-20.9-44.7-32.1c2,1.6,4,3.1,6.1,4.7c-13.2-10.2-25.6-21.3-35.9-34.5c1.6,2,3.1,4,4.7,6.1
			c-7.1-9.2-13.1-19.2-17.6-29.9c1,2.4,2,4.8,3,7.2c-3.3-8.1-5.8-16.5-7-25.2c0.4,2.7,0.7,5.3,1.1,8c-0.9-6.9-1-13.8-0.1-20.7
			c-0.4,2.7-0.7,5.3-1.1,8c0.9-6.2,2.4-12.1,4.8-17.9c-1,2.4-2,4.8-3,7.2c2.4-5.6,5.4-10.7,9.1-15.6c-1.6,2-3.1,4-4.7,6.1
			c4.2-5.3,8.9-10,14.2-14.2c-2,1.6-4,3.1-6.1,4.7c7-5.4,14.6-9.6,22.7-13.1c-2.4,1-4.8,2-7.2,3c10.1-4.2,20.7-6.9,31.6-8.5
			c-2.7,0.4-5.3,0.7-8,1.1c13.8-1.8,27.7-1.5,41.5,0.3c-2.7-0.4-5.3-0.7-8-1.1c15.2,2.1,30.1,6.2,44.3,12.1c-2.4-1-4.8-2-7.2-3
			c13.7,5.9,26.5,13.4,38.3,22.5c-2-1.6-4-3.1-6.1-4.7c16,12.5,29.6,27.5,42,43.5c-1.6-2-3.1-4-4.7-6.1
			c11.6,15.1,22.1,30.9,32.5,46.8c6.7,10.2,17.5,16,29.9,14.3c11.5-1.5,21.9-9.9,24.9-21.5c16.9-65.4,26.4-132.9,28.3-200.5
			c0.4-15.7-14.1-30.7-30-30C350.3,477.5,337.4,489.9,336.9,506.7L336.9,506.7z"/>
	</g>
</g>
<g>
	<g>
		<path d="M994.5,1312.3c4,32.7,8,65.5,12.1,98.2c4,32.6,8,65.1,12,97.7c2.3,18.4,4.5,36.9,6.8,55.3c-0.1,3.7,0.6,7.2,2.3,10.4
			c1.1,3.3,2.9,6.2,5.6,8.7c2.4,2.6,5.3,4.5,8.7,5.6c3.2,1.7,6.7,2.5,10.4,2.3c2.4-0.3,4.8-0.6,7.2-1c4.6-1.3,8.5-3.6,11.9-6.9
			c1.4-1.8,2.8-3.6,4.2-5.5c2.4-4.2,3.7-8.8,3.7-13.6c-4-32.7-8-65.5-12.1-98.2c-4-32.6-8-65.1-12-97.7c-2.3-18.4-4.5-36.9-6.8-55.3
			c0.1-3.7-0.6-7.2-2.3-10.4c-1.1-3.3-2.9-6.2-5.6-8.7c-2.4-2.6-5.3-4.5-8.7-5.6c-3.2-1.7-6.7-2.5-10.4-2.3c-2.4,0.3-4.8,0.6-7.2,1
			c-4.6,1.3-8.5,3.6-11.9,6.9c-1.4,1.8-2.8,3.6-4.2,5.5C995.7,1302.9,994.5,1307.4,994.5,1312.3L994.5,1312.3z"/>
	</g>
</g>
<g>
	<g>
		<path d="M913.8,1355.4c19.1-6.1,38.2-12.1,57.4-18c19.1-5.9,38.3-11.8,57.5-17.6c19.2-5.8,38.4-11.5,57.6-17.2
			c19.2-5.6,38.5-11.2,57.8-16.7c19.3-5.5,38.6-10.9,57.9-16.3c2.4-0.7,4.9-1.4,7.3-2c3.5-0.8,6.6-2.4,9.2-4.8
			c2.9-1.9,5.3-4.4,7-7.6c2-3.1,3-6.4,3.2-10c0.8-3.6,0.6-7.2-0.5-10.8c-2.1-6.5-6.2-12.8-12.4-16.1c-6.4-3.4-13.7-4.7-20.8-2.7
			c-19.3,5.3-38.6,10.7-57.9,16.2c-19.3,5.5-38.5,11-57.8,16.7c-19.2,5.6-38.5,11.3-57.7,17.1c-19.2,5.8-38.4,11.6-57.5,17.5
			c-19.2,5.9-38.3,11.9-57.4,18c-2.4,0.8-4.8,1.5-7.2,2.3c-6.6,2.1-12.6,6.3-16.1,12.4c-2,3.1-3,6.4-3.2,10
			c-0.8,3.6-0.6,7.2,0.5,10.8c2.1,6.5,6.2,12.8,12.4,16.1C899.2,1356,906.8,1357.6,913.8,1355.4L913.8,1355.4z"/>
	</g>
</g>
<g>
	<g>
		<path d="M1204.9,1507.4c-4.4-19.8-11.6-38.8-19.2-57.6c-7.6-18.7-15.6-37.4-21.6-56.7c-3.3-10.6-5.9-21.4-7.4-32.4
			c0.3,2.4,0.6,4.8,1,7.2c-1.3-9.8-2.1-20.2-0.8-30c-0.3,2.4-0.6,4.8-1,7.2c0.3-2.3,0.8-4.6,1.7-6.7c-0.9,2.1-1.8,4.3-2.7,6.4
			c0.5-1.2,1.2-2.4,2-3.5c-1.4,1.8-2.8,3.6-4.2,5.5c0.9-1.1,1.9-2.1,3-3c-1.8,1.4-3.6,2.8-5.5,4.2c1.4-1,2.9-1.9,4.4-2.5
			c-2.1,0.9-4.3,1.8-6.4,2.7c2.6-1.1,5.3-1.7,8.1-2.1c-2.4,0.3-4.8,0.6-7.2,1c3.1-0.4,6.3-0.4,9.4,0c-2.4-0.3-4.8-0.6-7.2-1
			c4.1,0.6,8,1.7,11.8,3.3c-2.1-0.9-4.3-1.8-6.4-2.7c5.9,2.5,11.3,5.9,16.3,9.8c-1.8-1.4-3.6-2.8-5.5-4.2c7.3,5.7,14.3,12.2,20,19.6
			c-1.4-1.8-2.8-3.6-4.2-5.5c1.8,2.4,3.4,4.9,4.6,7.7c-0.9-2.1-1.8-4.3-2.7-6.4c0.8,1.9,1.3,3.8,1.6,5.7c-0.3-2.4-0.6-4.8-1-7.2
			c0.2,1.7,0.2,3.4,0,5.1c0.3-2.4,0.6-4.8,1-7.2c-0.4,3.1-1.5,6.1-2.7,9.1c0.9-2.1,1.8-4.3,2.7-6.4c-3.5,8.2-7.4,16.3-11.2,24.4
			c-3.8,8.3-7.6,16.5-11.4,24.8c-2.4,4.2-3.7,8.8-3.7,13.6c-0.1,3.7,0.6,7.2,2.3,10.4c1.1,3.3,2.9,6.2,5.6,8.7
			c3.4,3.3,7.3,5.7,11.9,6.9c9.5,2.7,18.8,6,27.8,9.8c-2.1-0.9-4.3-1.8-6.4-2.7c15,6.4,29.4,14.2,42.9,23.5
			c3.8,2.6,7.5,5.3,11.1,8.1c-1.8-1.4-3.6-2.8-5.5-4.2c11,8.5,21.3,18,30.7,28.3c2.7,2.9,5.3,5.9,7.8,9c2.4,2.6,5.3,4.5,8.7,5.6
			c3.2,1.7,6.7,2.5,10.4,2.3c3.7,0.1,7.2-0.6,10.4-2.3c3.3-1.1,6.2-2.9,8.7-5.6c1.4-1.8,2.8-3.6,4.2-5.5c2.4-4.2,3.7-8.8,3.7-13.6
			c-0.3-2.4-0.6-4.8-1-7.2c-1.3-4.6-3.6-8.5-6.9-11.9c-6.1-7.4-12.6-14.4-19.5-21c-8.5-8.1-17.7-15.5-27.1-22.5
			c-15.2-11.4-31.7-21.1-49.2-28.6c-11.9-5.2-24-9.9-36.5-13.5c5.4,13.2,10.8,26.4,16.1,39.7c6-13,12-26,18-39.1
			c1.4-3.1,2.9-6.1,4.2-9.3c2.1-4.8,4.8-10.1,5.7-15.5c0.6-3.6,1.4-7.5,1.3-11.2c-0.1-3.7-0.6-7.5-1.5-11.2
			c-0.3-1.3-0.7-2.5-1.2-3.8c-1.4-3.4-2.7-7-4.7-10.2c-0.7-1.2-1.6-2.4-2.4-3.6c-2.2-2.9-4.4-5.9-6.9-8.7c-1.9-2.2-3.9-4.3-6-6.3
			c-5.8-5.8-12.2-11-18.8-15.9c-2.4-1.8-4.9-3.5-7.5-5c-4.4-2.6-9.2-4.5-13.9-6.4c-2.6-1.1-5.2-1.9-8-2.5c-5-1.1-10.2-1.9-15.4-1.9
			c-1.3,0-2.6,0.1-4,0.2c-3.7,0.4-7.5,0.8-11.2,1.6c-1.3,0.3-2.6,0.7-3.8,1.1c-3.4,1.3-6.9,2.6-10,4.4c-6.4,3.7-11.4,8.8-15.4,15
			c-0.4,0.6-0.7,1.2-1,1.8c-1.2,2.6-2.3,5.3-3.4,7.9c-0.5,1.4-0.9,2.9-1.2,4.3c-3,16.3-1.5,32.6,0.9,48.9
			c3.6,23.5,12.1,45.8,21,67.7c9,22.3,18.7,44.4,24.8,67.7c0.7,2.8,1.4,5.7,2.1,8.5c0.8,3.5,2.4,6.6,4.8,9.2c1.9,2.9,4.4,5.3,7.6,7
			c3.1,2,6.4,3,10,3.2c3.6,0.8,7.2,0.6,10.8-0.5c2.1-0.9,4.3-1.8,6.4-2.7c4.1-2.4,7.3-5.6,9.7-9.7c0.9-2.1,1.8-4.3,2.7-6.4
			C1206.2,1516.9,1206.2,1512.1,1204.9,1507.4L1204.9,1507.4z"/>
	</g>
</g>
<g>
	<g>
		<path d="M1373.1,1490c0.3-23.2-1-46.4-2.3-69.5c-1.3-23-2.5-46.1-2-69.1c0.3-12.9,1.2-25.7,2.9-38.5c-0.3,2.4-0.6,4.8-1,7.2
			c1.2-8.9,2.8-17.8,5-26.6c-15,4-30.1,7.9-45.1,11.9c2.9,3.3,5.7,6.6,8.4,10.1c-1.4-1.8-2.8-3.6-4.2-5.5
			c8,10.3,14.9,21.4,21.1,32.9c6.3,11.6,11.9,23.5,17.4,35.5c5.5,12.1,10.9,24.2,16.8,36.1c5.7,11.7,11.8,23.3,18.8,34.3
			c3.4,5.4,7.1,10.7,11,15.8c5.3,6.9,10.7,13.7,16.7,20c1.1,1.2,2.3,2.3,3.4,3.4c2.4,2.6,5.3,4.5,8.7,5.6c3.2,1.7,6.7,2.5,10.4,2.3
			c3.7,0.1,7.2-0.6,10.4-2.3c3.3-1.1,6.2-2.9,8.7-5.6c1.4-1.8,2.8-3.6,4.2-5.5c2.4-4.2,3.7-8.8,3.7-13.6c-0.3-2.4-0.6-4.8-1-7.2
			c-1.3-4.6-3.6-8.5-6.9-11.9c-5.7-5.5-11-11.5-15.8-17.8c1.4,1.8,2.8,3.6,4.2,5.5c-15.1-19.6-26.2-41.9-36.6-64.3
			c-10.5-22.7-20.3-45.7-33-67.2c-8.1-13.8-17.6-26.9-28.2-38.8c-3.4-3.3-7.3-5.7-11.9-6.9c-4.8-1.3-9.6-1.3-14.4,0
			c-8.9,2.4-16.7,9.8-18.9,18.9c-3.7,15.1-5.9,30.6-7.3,46c-1.2,13.2-1.7,26.6-1.6,39.8c0.1,26.7,2.1,53.4,3.4,80
			c0.7,15,1.2,30,1,45c-0.1,3.7,0.6,7.2,2.3,10.4c1.1,3.3,2.9,6.2,5.6,8.7c2.4,2.6,5.3,4.5,8.7,5.6c3.2,1.7,6.7,2.5,10.4,2.3
			c2.4-0.3,4.8-0.6,7.2-1c4.6-1.3,8.5-3.6,11.9-6.9c1.4-1.8,2.8-3.6,4.2-5.5C1371.8,1499.4,1373.1,1494.9,1373.1,1490L1373.1,1490z"
			/>
	</g>
</g>
<g>
	<g>
		<path d="M1362.7,1480.1c7.3-1.6,14.5-3.8,21.4-6.6c9-3.6,17.8-7.5,26.1-12.6c3.1-1.7,5.7-4,7.6-7c2.4-2.6,4-5.7,4.8-9.2
			c1.1-3.6,1.3-7.2,0.5-10.8c-0.2-3.6-1.2-6.9-3.2-10c-1.4-1.8-2.8-3.6-4.2-5.5c-3.4-3.3-7.3-5.7-11.9-6.9c-2.4-0.3-4.8-0.6-7.2-1
			c-4.9,0-9.4,1.2-13.6,3.7c-5.6,3.4-11.5,6.4-17.5,9c2.1-0.9,4.3-1.8,6.4-2.7c-7.6,3.2-15.4,5.7-23.5,7.4c-3.5,0.8-6.6,2.4-9.2,4.8
			c-2.9,1.9-5.3,4.4-7,7.6c-2,3.1-3,6.4-3.2,10c-0.8,3.6-0.6,7.2,0.5,10.8c0.9,2.1,1.8,4.3,2.7,6.4c2.4,4.1,5.6,7.3,9.7,9.7
			c2.1,0.9,4.3,1.8,6.4,2.7C1353.2,1481.4,1357.9,1481.4,1362.7,1480.1L1362.7,1480.1z"/>
	</g>
</g>
<g>
	<g>
		<path d="M1452.8,1291.5c0.5,0.6,1,1.3,1.5,1.9c-1.4-1.8-2.8-3.6-4.2-5.5c5.7,7.5,10.2,15.8,13.9,24.5c-0.9-2.1-1.8-4.3-2.7-6.4
			c8,18.9,12.4,39.1,20.3,58c2.9,7,5.9,14,9.4,20.8c2.4,4.8,5,9.4,7.7,14.1c5.3,9.3,11,18.4,16.4,27.7c6.1,10.4,11.9,20.9,16.5,32
			c-0.9-2.1-1.8-4.3-2.7-6.4c1.7,3.9,3.2,7.9,4.5,12c1.3,4.6,3.6,8.5,6.9,11.9c2.4,2.6,5.3,4.5,8.7,5.6c3.2,1.7,6.7,2.5,10.4,2.3
			c4.9,0,9.4-1.2,13.6-3.7c24.3-12.5,48.5-25,72.8-37.5c6.8-3.5,13.6-7,20.4-10.5c3.1-1.7,5.7-4,7.6-7c2.4-2.6,4-5.7,4.8-9.2
			c1.1-3.6,1.3-7.2,0.5-10.8c-0.2-3.6-1.2-6.9-3.2-10c-1.4-1.8-2.8-3.6-4.2-5.5c-3.4-3.3-7.3-5.7-11.9-6.9c-2.4-0.3-4.8-0.6-7.2-1
			c-4.9,0-9.4,1.2-13.6,3.7c-24.3,12.5-48.5,25-72.8,37.5c-6.8,3.5-13.6,7-20.4,10.5c13.2,5.4,26.4,10.8,39.7,16.1
			c-3-9-6.7-17.8-10.8-26.3c-3.1-6.5-6.6-12.9-10.2-19.2c-7.3-12.7-15.1-25.1-22.2-37.9c-4-7.2-7.7-14.6-11-22.2
			c0.9,2.1,1.8,4.3,2.7,6.4c-4.8-11.4-8.3-23.2-12.1-35c-1.9-5.9-3.8-11.7-6-17.4c-2.9-7.6-6-15.1-9.7-22.4
			c-4.2-8.1-9.4-15.3-15.2-22.4c-2.4-2.6-5.3-4.5-8.7-5.6c-3.2-1.7-6.7-2.5-10.4-2.3c-3.7-0.1-7.2,0.6-10.4,2.3
			c-3.3,1.1-6.2,2.9-8.7,5.6c-1.4,1.8-2.8,3.6-4.2,5.5c-2.4,4.2-3.7,8.8-3.7,13.6c0.3,2.4,0.6,4.8,1,7.2
			C1447.2,1284.1,1449.5,1288.1,1452.8,1291.5L1452.8,1291.5z"/>
	</g>
</g>
<g>
	<g>
		<path d="M1541.2,1381.2c17.2-6.8,34.1-14,50.8-22c4.2-2,8.4-4.1,12.6-6.2c3.1-1.7,5.7-4,7.6-7c2.4-2.6,4-5.7,4.8-9.2
			c1.1-3.6,1.3-7.2,0.5-10.8c-0.2-3.6-1.2-6.9-3.2-10c-1.4-1.8-2.8-3.6-4.2-5.5c-3.4-3.3-7.3-5.7-11.9-6.9c-2.4-0.3-4.8-0.6-7.2-1
			c-4.9,0-9.4,1.2-13.6,3.7c-13.5,6.8-27.3,13.1-41.3,19c2.1-0.9,4.3-1.8,6.4-2.7c-5.2,2.2-10.4,4.3-15.7,6.4
			c-3.5,0.8-6.6,2.4-9.2,4.8c-2.9,1.9-5.3,4.4-7,7.6c-2,3.1-3,6.4-3.2,10c-0.8,3.6-0.6,7.2,0.5,10.8c0.9,2.1,1.8,4.3,2.7,6.4
			c2.4,4.1,5.6,7.3,9.7,9.7c2.1,0.9,4.3,1.8,6.4,2.7C1531.6,1382.5,1536.4,1382.5,1541.2,1381.2L1541.2,1381.2z"/>
	</g>
</g>
<g>
	<g>
		<path d="M1475.1,1283.4c25.1-8.4,50.1-16.7,75.2-25.1c7.1-2.4,14.2-4.7,21.3-7.1c3.5-0.8,6.6-2.4,9.2-4.8c2.9-1.9,5.3-4.4,7-7.6
			c2-3.1,3-6.4,3.2-10c0.8-3.6,0.6-7.2-0.5-10.8c-0.9-2.1-1.8-4.3-2.7-6.4c-2.4-4.1-5.6-7.3-9.7-9.7c-2.1-0.9-4.3-1.8-6.4-2.7
			c-4.8-1.3-9.6-1.3-14.4,0c-25.1,8.4-50.1,16.7-75.2,25.1c-7.1,2.4-14.2,4.7-21.3,7.1c-3.5,0.8-6.6,2.4-9.2,4.8
			c-2.9,1.9-5.3,4.4-7,7.6c-2,3.1-3,6.4-3.2,10c-0.8,3.6-0.6,7.2,0.5,10.8c0.9,2.1,1.8,4.3,2.7,6.4c2.4,4.1,5.6,7.3,9.7,9.7
			c2.1,0.9,4.3,1.8,6.4,2.7C1465.5,1284.7,1470.3,1284.7,1475.1,1283.4L1475.1,1283.4z"/>
	</g>
</g>
<g>
	<g>
		<path d="M1245.1,1656.5c10.1,25,18,50.9,23.6,77.2c1.6,7.4,3,14.8,4.2,22.3c0.8,3.5,2.4,6.6,4.8,9.2c1.9,2.9,4.4,5.3,7.6,7
			c3.1,2,6.4,3,10,3.2c3.6,0.8,7.2,0.6,10.8-0.5c2.1-0.9,4.3-1.8,6.4-2.7c4.1-2.4,7.3-5.6,9.7-9.7c0.9-2.1,1.8-4.3,2.7-6.4
			c1.3-4.8,1.3-9.6,0-14.4c-4.4-26.6-11-52.8-19.8-78.3c-2.5-7.1-5.1-14.2-8-21.3c-0.8-3.5-2.4-6.6-4.8-9.2c-1.9-2.9-4.4-5.3-7.6-7
			c-3.1-2-6.4-3-10-3.2c-3.6-0.8-7.2-0.6-10.8,0.5c-2.1,0.9-4.3,1.8-6.4,2.7c-4.1,2.4-7.3,5.6-9.7,9.7c-0.9,2.1-1.8,4.3-2.7,6.4
			C1243.8,1646.9,1243.8,1651.7,1245.1,1656.5L1245.1,1656.5z"/>
	</g>
</g>
<g>
	<g>
		<path d="M1175.5,1719.2c26.7-6.4,53.2-13.5,79.5-21.2c26.2-7.7,52.1-16.2,77.8-25.3c14.5-5.2,29-10.5,43.3-16.1
			c3.5-0.8,6.6-2.4,9.2-4.8c2.9-1.9,5.3-4.4,7-7.6c2-3.1,3-6.4,3.2-10c0.8-3.6,0.6-7.2-0.5-10.8c-0.9-2.1-1.8-4.3-2.7-6.4
			c-2.4-4.1-5.6-7.3-9.7-9.7c-2.2-0.9-4.3-1.8-6.4-2.7c-4.8-1.3-9.6-1.3-14.4,0c-25.6,10-51.4,19.2-77.5,27.8
			c-25.9,8.5-52.1,16.4-78.4,23.5c-14.9,4-29.8,7.8-44.8,11.4c-3.5,0.8-6.6,2.4-9.2,4.8c-2.9,1.9-5.3,4.4-7,7.6c-2,3.1-3,6.4-3.2,10
			c-0.8,3.6-0.6,7.2,0.5,10.8c0.9,2.1,1.8,4.3,2.7,6.4c2.4,4.1,5.6,7.3,9.7,9.7c2.1,0.9,4.3,1.8,6.4,2.7
			C1166,1720.5,1170.7,1720.5,1175.5,1719.2L1175.5,1719.2z"/>
	</g>
</g>
<g>
	<g>
		<path d="M1414.6,1634.6c4,10.9,8.8,21.6,15.1,31.4c3.7,5.8,7.9,11.3,12.2,16.6c3,3.7,6.1,7.2,9.4,10.6c3.4,3.4,6.9,6.6,10.6,9.5
			c5.5,4.4,11.1,8.7,17.2,12.3c6.1,3.5,12.7,6.4,19.3,8.7c6.7,2.3,13.6,3.3,20.6,4c6.8,0.7,13.4-0.2,20.1-1.3
			c6.6-1,12.7-3.6,18.8-6.4c2-0.9,3.8-2,5.6-3.2c2.7-1.8,5.2-3.9,7.8-5.9c0.9-0.7,1.8-1.5,2.6-2.3c3.1-3,5.6-6.5,8.1-9.9
			c1.2-1.6,2.3-3.3,3.2-5c2-3.7,3.6-7.6,5.1-11.5c0.7-1.9,1.4-3.9,1.9-5.9c1.6-6.2,2.4-12.8,2.7-19.2c0.6-10.8-0.9-21.9-2.8-32.5
			c-1.8-9.7-4.2-19.2-7.3-28.6c-2.3-6.9-5.1-13.6-8-20.3c-2-4.7-4.3-9.2-6.9-13.6c-1.3-2.2-2.6-4.3-4-6.4c-1.7-3.1-4-5.7-7-7.6
			c-2.6-2.4-5.7-4-9.2-4.8c-3.6-1.1-7.2-1.3-10.8-0.5c-3.6,0.2-6.9,1.2-10,3.2c-1.8,1.4-3.6,2.8-5.5,4.2c-3.3,3.4-5.7,7.3-6.9,11.9
			c-0.3,2.4-0.6,4.8-1,7.2c0,4.9,1.2,9.4,3.7,13.6c4.6,6.8,8.5,14.2,11.7,21.8c-0.9-2.1-1.8-4.3-2.7-6.4c3.3,7.8,5.9,15.9,8.1,24.2
			c2,7.5,3.7,15,4.7,22.7c-0.3-2.4-0.6-4.8-1-7.2c1.1,8.1,1.4,16.4,0.4,24.5c0.3-2.4,0.6-4.8,1-7.2c-0.6,4.7-1.8,9.3-3.6,13.7
			c0.9-2.1,1.8-4.3,2.7-6.4c-1.4,3.2-3.1,6.3-5.2,9.1c1.4-1.8,2.8-3.6,4.2-5.5c-2,2.5-4.2,4.8-6.7,6.8c1.8-1.4,3.6-2.8,5.5-4.2
			c-2.7,2.1-5.7,3.8-8.9,5.2c2.1-0.9,4.3-1.8,6.4-2.7c-3.8,1.6-7.8,2.6-11.9,3.2c2.4-0.3,4.8-0.6,7.2-1c-4.5,0.6-9,0.6-13.5,0
			c2.4,0.3,4.8,0.6,7.2,1c-5.4-0.7-10.6-2.3-15.7-4.3c2.1,0.9,4.3,1.8,6.4,2.7c-7.1-3-13.6-7-19.7-11.7c1.8,1.4,3.6,2.8,5.5,4.2
			c-8.5-6.6-16.1-14.3-22.7-22.8c1.4,1.8,2.8,3.6,4.2,5.5c-6.8-8.8-12.4-18.4-16.7-28.7c0.9,2.1,1.8,4.3,2.7,6.4
			c-0.8-1.9-1.5-3.8-2.3-5.7c-0.8-3.5-2.4-6.6-4.8-9.2c-1.9-2.9-4.4-5.3-7.6-7c-3.1-2-6.4-3-10-3.2c-3.6-0.8-7.2-0.6-10.8,0.5
			c-2.1,0.9-4.3,1.8-6.4,2.7c-4.1,2.4-7.3,5.6-9.7,9.7c-0.9,2.1-1.8,4.3-2.7,6.4C1413.4,1625,1413.4,1629.8,1414.6,1634.6
			L1414.6,1634.6z"/>
	</g>
</g>
<g>
	<g>
		<path d="M1086.7,2111.8c-7.7-18.5-15.4-36.9-22.3-55.7c-6.9-18.7-13.1-37.7-17.8-57.1c-2.6-10.8-4.7-21.7-6.2-32.7
			c0.3,2.4,0.6,4.8,1,7.2c-2.6-19.7-3.5-39.9-0.8-59.7c-0.3,2.4-0.6,4.8-1,7.2c1-7.6,2.8-15.2,5.7-22.3c-0.9,2.1-1.8,4.3-2.7,6.4
			c1.9-4.6,4.4-8.9,7.4-12.8c-1.4,1.8-2.8,3.6-4.2,5.5c2.5-3.3,5.5-6.2,8.7-8.8c-1.8,1.4-3.6,2.8-5.5,4.2c2.8-2.2,5.9-4,9.2-5.4
			c-2.1,0.9-4.3,1.8-6.4,2.7c2.8-1.2,5.8-2,8.8-2.4c-2.4,0.3-4.8,0.6-7.2,1c3.2-0.4,6.5-0.4,9.7,0c-2.4-0.3-4.8-0.6-7.2-1
			c3.6,0.5,7.1,1.5,10.4,2.9c-2.1-0.9-4.3-1.8-6.4-2.7c4.4,1.9,8.5,4.4,12.3,7.3c-1.8-1.4-3.6-2.8-5.5-4.2c5.3,4.1,9.9,8.9,14,14.1
			c-1.4-1.8-2.8-3.6-4.2-5.5c4.9,6.4,9.1,13.4,12.3,20.8c-0.9-2.1-1.8-4.3-2.7-6.4c2.3,5.6,4,11.4,4.9,17.5c-0.3-2.4-0.6-4.8-1-7.2
			c0.6,4.5,0.6,9.1,0,13.6c0.3-2.4,0.6-4.8,1-7.2c-0.6,4.3-1.8,8.5-3.5,12.6c0.9-2.1,1.8-4.3,2.7-6.4c-3,7.1-7.3,13.5-11.9,19.5
			c1.4-1.8,2.8-3.6,4.2-5.5c-14.2,18.4-30.6,35.2-48.1,50.4c-5,4.3-10.1,8.5-15.3,12.5c1.8-1.4,3.6-2.8,5.5-4.2
			c-1.1,0.8-2.2,1.7-3.3,2.5c-3.1,1.7-5.7,4-7.6,7c-2.4,2.6-4,5.7-4.8,9.2c-1.1,3.6-1.3,7.2-0.5,10.8c0.2,3.6,1.2,6.9,3.2,10
			c1.4,1.8,2.8,3.6,4.2,5.5c3.4,3.3,7.3,5.7,11.9,6.9c2.4,0.3,4.8,0.6,7.2,1c4.9,0,9.4-1.2,13.6-3.7c4.4-3.3,9.1-5.9,14.1-8.1
			c-2.1,0.9-4.3,1.8-6.4,2.7c6.1-2.5,12.5-4.2,19-5.1c-2.4,0.3-4.8,0.6-7.2,1c7.8-1,15.7-0.9,23.5,0.1c-2.4-0.3-4.8-0.6-7.2-1
			c8.7,1.2,17.1,3.5,25.2,6.9c-2.1-0.9-4.3-1.8-6.4-2.7c9.2,3.9,17.7,9.1,25.6,15.2c-1.8-1.4-3.6-2.8-5.5-4.2
			c11.5,8.9,21.4,19.6,30.3,31c-1.4-1.8-2.8-3.6-4.2-5.5c6.3,8.1,12,16.6,17.3,25.3c1.7,3.1,4,5.7,7,7.6c2.6,2.4,5.7,4,9.2,4.8
			c3.6,1.1,7.2,1.3,10.8,0.5c3.6-0.2,6.9-1.2,10-3.2c1.8-1.4,3.6-2.8,5.5-4.2c3.3-3.4,5.7-7.3,6.9-11.9c0.3-2.4,0.6-4.8,1-7.2
			c0-4.9-1.2-9.4-3.7-13.6c-8-12.9-16.8-25.3-26.6-37c-4.1-4.9-8.4-9.7-13.1-14.1c-6.2-6-13-11.5-20-16.6
			c-5.1-3.8-10.5-7.2-16.1-10.1c-7.3-3.8-15-7-22.9-9.4c-8.1-2.5-16.4-3.7-24.8-4.7c-6-0.7-12.2-0.8-18.2-0.3
			c-8.9,0.8-18,2.1-26.4,5.2c-8.4,3-16.6,6.7-23.8,12c9.1,15.5,18.2,31.1,27.3,46.6c16-12.1,31.2-24.9,45.3-39.1
			c6.3-6.3,12.3-12.9,18.1-19.7c2.8-3.3,5.6-6.7,8.3-10.2c4-5.1,8-10.1,11.4-15.6c3.4-5.5,6-11.4,8.4-17.4
			c2.5-6.1,3.3-12.4,4.1-18.9c0.5-4.1,0.6-8.2,0.1-12.3c-0.7-6.4-1.5-12.8-3.4-19c-0.6-2-1.3-4-2.1-5.9c-1.6-4-3.2-8-5.1-11.9
			c-1.9-3.8-4-7.5-6.4-11c-3.4-5.1-7.2-10-11.2-14.7c-2.6-3-5.4-5.8-8.4-8.3c-4.6-3.9-9.4-7.7-14.6-10.7c-5.2-3-10.8-5.4-16.5-7.1
			c-1.8-0.5-3.6-1-5.4-1.2c-4.1-0.6-8.2-1.4-12.4-1.4c-4.2,0-8.4,0.7-12.5,1.3c-1.8,0.3-3.6,0.7-5.4,1.2c-3.9,1.2-7.6,2.9-11.2,4.6
			c-1.7,0.8-3.3,1.7-4.8,2.7c-4.9,3.2-9.7,6.9-13.7,11.2c-4.1,4.3-7.7,9.1-10.8,14.1c-1.1,1.7-2,3.5-2.9,5.4
			c-1.9,3.9-3.6,8-5.1,12.1c-1.5,4.1-2.6,8.4-3.5,12.6c-1.3,6.5-2.1,13.2-2.7,19.8c-0.8,9.1-1,18.2-0.7,27.3
			c0.4,11.4,1.7,22.7,3.3,34.1c1.2,9.1,2.9,18.1,4.9,27.1c4.1,18.1,9.5,35.9,15.7,53.3c6.2,17.5,13.2,34.8,20.3,51.9
			c1.7,4.2,3.5,8.4,5.3,12.6c0.8,3.5,2.4,6.6,4.8,9.2c1.9,2.9,4.4,5.3,7.6,7c3.1,2,6.4,3,10,3.2c3.6,0.8,7.2,0.6,10.8-0.5
			c2.1-0.9,4.3-1.8,6.4-2.7c4.1-2.4,7.3-5.6,9.7-9.7c0.9-2.1,1.8-4.3,2.7-6.4C1088,2121.4,1088,2116.6,1086.7,2111.8L1086.7,2111.8z
			"/>
	</g>
</g>
<g>
	<g>
		<path d="M1222.9,2019.1c3.4,11.5,6.8,23,11.3,34.1c3.1,7.5,6.2,15,10.3,22c3.9,6.8,8.5,13.1,13.5,19c3.4,4.1,7.1,7.8,11.2,11.1
			c5.8,4.7,11.7,9.3,18.5,12.5c4.3,2.1,8.7,4,13.2,5.5c2.4,0.8,4.8,1.5,7.3,1.9c3.5,0.7,7,1.1,10.6,1.5c1.3,0.2,2.7,0.3,4,0.3
			c2.7,0.1,5.3-0.1,8-0.4c4.9-0.6,9.7-1.1,14.5-2.5c4.6-1.3,9.1-3.3,13.4-5.3c7-3.1,13-7.7,19-12.4c4.2-3.3,8.1-7.2,11.4-11.4
			c5-6.2,9.7-12.6,13.5-19.7c3.8-7.1,6.9-14.5,9.6-22.1c2-5.5,3.7-11.1,5.2-16.8c3.7-14,6-28.5,7.2-42.9c1.1-12.2,1-24.4-0.5-36.6
			c-1.7-14.3-4.2-28.4-9.4-41.9c-4.4-11.5-9.5-22.7-16.5-32.9c-4-6-8.5-11.7-13.2-17.2c-3.3-3.8-6.9-7.5-10.7-10.9
			c-5.3-4.7-10.9-9.1-16.8-13.1c-4.2-2.9-8.5-5.4-13-7.6c-6.4-3.1-13-5.9-19.8-8.1c-7.9-2.5-16-3.7-24.2-4.6
			c-8.3-0.8-16.4,0-24.6,1.5c-3,0.5-5.9,1.3-8.7,2.3c-4.4,1.6-8.9,3.4-13.1,5.7c-2.1,1.1-4.1,2.4-6,3.8c-3.7,2.7-7.4,5.5-10.8,8.6
			c-5.1,4.8-9.4,10.4-13.4,16.1c-7,9.9-11.9,21.3-16.2,32.7c-4.1,10.8-7.4,22.1-9.6,33.5c-1.6,8.6-2.9,17.4-3,26.1
			c0,3.2,0.1,6.3,0.5,9.5c0.5,4.8,1.1,9.8,2.2,14.5c0.6,2.5,1.3,5,2.2,7.5c1.6,4.4,3.4,8.8,5.6,13c1.1,2.2,2.4,4.4,3.8,6.5
			c2.7,3.9,5.5,7.7,8.7,11.1c1.6,1.8,3.4,3.4,5.3,4.9c3.7,2.9,7.3,5.8,11.4,8.1c3.1,2,6.4,3,10,3.2c3.6,0.8,7.2,0.6,10.8-0.5
			c3.5-0.8,6.6-2.4,9.2-4.8c2.9-1.9,5.3-4.4,7-7.6c0.9-2.1,1.8-4.3,2.7-6.4c1.3-4.8,1.3-9.6,0-14.4c-0.9-2.1-1.8-4.3-2.7-6.4
			c-2.4-4.1-5.6-7.3-9.7-9.7c-2.1-1.1-4.1-2.4-5.9-3.8c1.8,1.4,3.6,2.8,5.5,4.2c-3-2.4-5.7-5.1-8.1-8.1c1.4,1.8,2.8,3.6,4.2,5.5
			c-2.9-3.8-5.3-7.9-7.2-12.3c0.9,2.2,1.8,4.3,2.7,6.4c-2.2-5.2-3.7-10.7-4.5-16.4c0.3,2.4,0.6,4.8,1,7.2c-1-7.8-0.8-15.6,0.3-23.4
			c-0.3,2.4-0.6,4.8-1,7.2c1.2-8.8,3.4-17.4,5.9-25.9c2-6.7,4.3-13.3,7-19.8c-0.9,2.1-1.8,4.3-2.7,6.4c3.5-8.2,7.7-16.2,13.2-23.3
			c-1.4,1.8-2.8,3.6-4.2,5.5c3.3-4.3,7.1-8.2,11.5-11.6c-1.8,1.4-3.6,2.8-5.5,4.2c3.5-2.7,7.3-4.9,11.3-6.6
			c-2.1,0.9-4.3,1.8-6.4,2.7c4.2-1.8,8.6-2.9,13.1-3.5c-2.4,0.3-4.8,0.6-7.2,1c5.9-0.8,11.8-0.7,17.7,0.1c-2.4-0.3-4.8-0.6-7.2-1
			c7.8,1.1,15.5,3.3,22.7,6.3c-2.2-0.9-4.3-1.8-6.4-2.7c8.4,3.5,16.3,8.2,23.5,13.8c-1.8-1.4-3.6-2.8-5.5-4.2
			c7.9,6.2,15,13.3,21.2,21.3c-1.4-1.8-2.8-3.6-4.2-5.5c6.8,8.8,12.4,18.4,16.7,28.6c-0.9-2.1-1.8-4.3-2.7-6.4
			c4.9,11.8,8.1,24.2,9.8,36.8c-0.3-2.4-0.6-4.8-1-7.2c2.1,16,1.8,32.3-0.3,48.3c0.3-2.4,0.6-4.8,1-7.2
			c-2.3,16.8-6.3,33.7-12.9,49.3c0.9-2.2,1.8-4.3,2.7-6.4c-3.4,7.9-7.5,15.5-12.8,22.4c1.4-1.8,2.8-3.6,4.2-5.5
			c-3.8,4.9-8.1,9.3-13,13c1.8-1.4,3.6-2.8,5.5-4.2c-4.3,3.3-9,6.1-14,8.2c2.1-0.9,4.3-1.8,6.4-2.7c-4.2,1.8-8.6,3-13.2,3.6
			c2.4-0.3,4.8-0.6,7.2-1c-4.2,0.6-8.5,0.6-12.7,0c2.4,0.3,4.8,0.6,7.2,1c-4.8-0.7-9.4-2-13.9-3.8c2.1,0.9,4.3,1.8,6.4,2.7
			c-5.2-2.2-10.1-5.2-14.6-8.6c1.8,1.4,3.6,2.8,5.5,4.2c-5.4-4.1-10.1-9-14.3-14.3c1.4,1.8,2.8,3.6,4.2,5.5
			c-6.1-7.9-10.7-16.7-14.6-25.8c0.9,2.1,1.8,4.3,2.7,6.4c-4.8-11.4-8.3-23.2-11.8-35.1c-0.8-3.5-2.4-6.6-4.8-9.2
			c-1.9-2.9-4.4-5.3-7.6-7c-3.1-2-6.4-3-10-3.2c-3.6-0.8-7.2-0.6-10.8,0.5c-2.1,0.9-4.3,1.8-6.4,2.7c-4.1,2.4-7.3,5.6-9.7,9.7
			c-0.9,2.1-1.8,4.3-2.7,6.4C1221.6,2009.6,1221.6,2014.3,1222.9,2019.1L1222.9,2019.1z"/>
	</g>
</g>
<g>
	<g>
		<path d="M1534.5,2078.2c-6.4-15.6-12.1-31.6-16.9-47.7c-4.8-16.2-8.9-32.6-12-49.2c-1.8-9.4-3.3-18.8-4.6-28.3
			c0.3,2.4,0.6,4.8,1,7.2c-4.2-31.7-5.5-63.8-3.7-95.7c0.5-9,1.1-18.1,2.3-27c-0.3,2.4-0.6,4.8-1,7.2c0.6-4.3,1.5-8.6,3.2-12.7
			c-0.9,2.1-1.8,4.3-2.7,6.4c1-2.2,2.2-4.3,3.7-6.3c-1.4,1.8-2.8,3.6-4.2,5.5c1.5-1.9,3.3-3.7,5.2-5.2c-1.8,1.4-3.6,2.8-5.5,4.2
			c2.3-1.8,4.8-3.2,7.5-4.3c-2.1,0.9-4.3,1.8-6.4,2.7c3.2-1.3,6.6-2.2,10-2.7c-2.4,0.3-4.8,0.6-7.2,1c3.7-0.5,7.5-0.5,11.2,0
			c-2.4-0.3-4.8-0.6-7.2-1c3.6,0.5,7.2,1.4,10.6,2.8c-2.1-0.9-4.3-1.8-6.4-2.7c2.9,1.2,5.6,2.8,8,4.7c-1.8-1.4-3.6-2.8-5.5-4.2
			c2.6,2.1,5,4.5,7,7.1c-1.4-1.8-2.8-3.6-4.2-5.5c2.4,3.1,4.3,6.5,5.8,10c-0.9-2.2-1.8-4.3-2.7-6.4c1.8,4.3,3,8.9,3.6,13.5
			c-0.3-2.4-0.6-4.8-1-7.2c0.7,5.4,0.6,10.8-0.1,16.1c0.3-2.4,0.6-4.8,1-7.2c-0.8,5.5-2.2,10.9-4.4,16c0.9-2.1,1.8-4.3,2.7-6.4
			c-2.9,6.7-6.9,12.8-11.3,18.6c1.4-1.8,2.8-3.6,4.2-5.5c-7.9,10.1-17.1,19-25.6,28.5c-10.4,11.6-19.9,24.1-28.6,37
			c-4.2,6.3-8.2,12.9-11.9,19.5c-2,3.1-3,6.4-3.2,10c-0.8,3.6-0.6,7.2,0.5,10.8c0.8,3.5,2.4,6.6,4.8,9.2c1.9,2.9,4.4,5.3,7.6,7
			c2.1,0.9,4.3,1.8,6.4,2.7c4.8,1.3,9.6,1.3,14.4,0c6.6-2.1,12.7-6.2,16.1-12.4c7-12.6,15-24.7,23.8-36.1c-1.4,1.8-2.8,3.6-4.2,5.5
			c5.4-6.9,11.1-13.6,17-20c5.6-6.1,11.5-12,16.8-18.3c4.1-4.8,8-9.8,11.7-15c2.4-3.4,4.5-6.9,6.4-10.5c1.8-3.6,3.3-7.3,4.8-11
			c0.7-1.6,1.2-3.2,1.8-4.9c1.4-4.5,2.1-9.1,2.7-13.8c0.6-4.6,1.2-9.1,1-13.8c-0.2-5.7-1-11.5-2.1-17.1c-1.2-5.6-3.4-10.7-5.6-16
			c-1.3-3.1-2.9-6.1-4.9-8.8c-3.1-4.4-6.5-9-10.6-12.6c-2.7-2.4-5.6-4.6-8.6-6.7c-1.2-0.8-2.5-1.6-3.9-2.3c-3.3-1.7-6.7-3-10.1-4.4
			c-1.4-0.5-2.7-1-4.1-1.3c-1.4-0.4-2.8-0.7-4.3-0.9c-3.7-0.6-7.4-1.2-11.2-1.4c-5.3-0.3-10.5,0.5-15.7,1.3
			c-2.8,0.4-5.6,1.1-8.3,2.1c-4.6,1.7-9.5,3.6-13.6,6.4c-3,2-5.8,4.2-8.5,6.6c-1,0.9-2,1.9-2.9,2.9c-2.4,2.7-4.7,5.6-6.6,8.7
			c-0.8,1.3-1.5,2.6-2.1,4c-1.8,4-3.6,8-4.7,12.2c-0.5,2.1-0.9,4.3-1.2,6.5c-1.6,11.1-2.6,22.3-3.3,33.5
			c-1.1,17.9-1.2,35.8-0.3,53.6c1,20.1,3.2,40.1,6.2,60c2.7,17.8,6.4,35.4,11,52.7c4.6,17.3,10.1,34.3,16.4,51
			c1.6,4.1,3.2,8.1,4.8,12.2c0.8,3.5,2.4,6.6,4.8,9.2c1.9,2.9,4.4,5.3,7.6,7c3.1,2,6.4,3,10,3.2c3.6,0.8,7.2,0.6,10.8-0.5
			c2.1-0.9,4.3-1.8,6.4-2.7c4.1-2.4,7.3-5.6,9.7-9.7c0.9-2.1,1.8-4.3,2.7-6.4C1535.8,2087.8,1535.8,2083,1534.5,2078.2
			L1534.5,2078.2z"/>
	</g>
</g>
<g>
	<g>
		<path d="M1622.8,2043.4c-0.2-0.4-0.4-0.8-0.5-1.2c0.9,2.1,1.8,4.3,2.7,6.4c-1.8-4.4-3-9.1-3.7-13.8c0.3,2.4,0.6,4.8,1,7.2
			c-1.3-9.7-0.4-19.5,0.9-29.1c-0.3,2.4-0.6,4.8-1,7.2c1.7-12.5,3.7-24.9,5.7-37.4c2-12.7,4.1-25.5,6.2-38.2
			c4.2-24.8,8.3-49.8,13.3-74.5c2.5-12.6,5.6-25.1,10.6-36.9c-0.9,2.2-1.8,4.3-2.7,6.4c2.2-5.1,4.6-10,7.6-14.7
			c-12.3,3.2-24.6,6.5-36.9,9.7c1.8,1.2,3.5,2.4,5.2,3.7c-1.8-1.4-3.6-2.8-5.5-4.2c5.7,4.4,10.7,9.6,15.1,15.3
			c-1.4-1.8-2.8-3.6-4.2-5.5c7.7,10.1,13.5,21.4,18.4,33.1c-0.9-2.1-1.8-4.3-2.7-6.4c4,9.5,7.4,19.2,10.9,28.9
			c4.3,12.1,8.7,24.3,13,36.4c8.6,24.1,17.2,48.2,25.8,72.3c4.9,13.6,9.7,27.2,14.6,40.9c0.8,3.5,2.4,6.6,4.8,9.2
			c1.9,2.9,4.4,5.3,7.6,7c3.1,2,6.4,3,10,3.2c3.6,0.8,7.2,0.6,10.8-0.5c2.1-0.9,4.3-1.8,6.4-2.7c4.1-2.4,7.3-5.6,9.7-9.7
			c0.9-2.1,1.8-4.3,2.7-6.4c1.3-4.8,1.3-9.6,0-14.4c-6.3-17.5-12.5-35.1-18.8-52.6s-12.5-35.1-18.8-52.6
			c-6.2-17.3-12.3-34.6-18.5-51.8c-2.4-6.7-4.9-13.5-7.7-20.1c-3.6-8.6-7.2-17.3-11.7-25.5c-4.4-8.1-9.8-15.5-15.6-22.7
			c-5.8-7.2-12.7-12.9-20.1-18.4c-1.4-1-2.9-2-4.3-3c-3.1-2-6.4-3-10-3.2c-3.6-0.8-7.2-0.6-10.8,0.5c-2.1,0.9-4.3,1.8-6.4,2.7
			c-4.1,2.4-7.3,5.6-9.7,9.7c-5.2,8.4-9.1,17.6-12.5,26.8c-2.7,7.3-4.7,14.7-6.5,22.2c-3.7,16.2-6.4,32.7-9.3,49
			c-3,17.3-6,34.5-8.8,51.8c-2.8,17.3-5.5,34.5-8.1,51.8c-1.5,10-3.1,20.1-3.3,30.2c-0.1,3.9,0,7.8,0.5,11.6
			c0.7,6.1,1.4,12.3,3.3,18.2c1.3,3.9,3,7.6,4.6,11.3c1.7,3.1,4,5.7,7,7.6c2.6,2.4,5.7,4,9.2,4.8c3.6,1.1,7.2,1.3,10.8,0.5
			c3.6-0.2,6.9-1.2,10-3.2c1.8-1.4,3.6-2.8,5.5-4.2c3.3-3.4,5.7-7.3,6.9-11.9c0.3-2.4,0.6-4.8,1-7.2
			C1626.5,2052.2,1625.3,2047.6,1622.8,2043.4L1622.8,2043.4z"/>
	</g>
</g>
<g>
	<g>
		<path d="M1699.5,1947.8c-19.3,1.9-38.5,4.4-57.7,7.4c-17,2.7-33.9,6-50.7,9.7c-9.4,2.1-18.7,4.9-28.2,6.2c2.4-0.3,4.8-0.6,7.2-1
			c-4.3,0.6-8.6,0.7-12.9,0.2c2.4,0.3,4.8,0.6,7.2,1c-0.2,0-0.3,0-0.5-0.1c-2.4,17.7-4.8,35.4-7.2,53c1.7,0.1,3.4,0.1,5.2,0.2
			c3.7,0.1,7.2-0.6,10.4-2.3c3.3-1.1,6.2-2.9,8.7-5.6c2.6-2.4,4.5-5.3,5.6-8.7c1.7-3.2,2.5-6.7,2.3-10.4c-0.3-2.4-0.6-4.8-1-7.2
			c-1.3-4.6-3.6-8.5-6.9-11.9c-1.8-1.4-3.6-2.8-5.5-4.2c-4.2-2.4-8.8-3.7-13.6-3.7c-1.7-0.1-3.4-0.1-5.2-0.2
			c-3.7-0.1-7.2,0.6-10.4,2.3c-3.3,1.1-6.2,2.9-8.7,5.6c-1.4,1.8-2.8,3.6-4.2,5.5c-2,3.1-3,6.4-3.2,10c-0.6,2.4-0.6,4.8,0,7.2
			c0.2,3.6,1.2,6.9,3.2,10c1.4,1.8,2.8,3.6,4.2,5.5c3.4,3.3,7.3,5.7,11.9,6.9c6.1,0.9,11.8,1.7,17.9,1.1c5.9-0.6,11.8-1.4,17.6-2.7
			c7.4-1.6,14.6-3.5,22-5.1c14.6-3.3,29.3-6.1,44-8.6c8.3-1.4,16.7-2.6,25.1-3.8c-2.4,0.3-4.8,0.6-7.2,1c10.1-1.4,20.3-2.5,30.5-3.5
			c3.7,0.1,7.2-0.6,10.4-2.3c3.3-1.1,6.2-2.9,8.7-5.6c2.6-2.4,4.5-5.3,5.6-8.7c1.7-3.2,2.5-6.7,2.3-10.4c-0.3-2.4-0.6-4.8-1-7.2
			c-1.3-4.6-3.6-8.5-6.9-11.9c-1.8-1.4-3.6-2.8-5.5-4.2C1708.9,1949.1,1704.4,1947.8,1699.5,1947.8L1699.5,1947.8z"/>
	</g>
</g>
<g>
	<g>
		<path d="M1728,1764.9c6.8,32,13.9,63.9,21.2,95.7c7.3,31.7,14.8,63.3,22.6,94.9c4.4,17.8,8.8,35.6,13.4,53.3
			c0.8,3.5,2.4,6.6,4.8,9.2c1.9,2.9,4.4,5.3,7.6,7c3.1,2,6.4,3,10,3.2c3.6,0.8,7.2,0.6,10.8-0.5c2.2-0.9,4.3-1.8,6.4-2.7
			c4.1-2.4,7.3-5.6,9.7-9.7c0.9-2.1,1.8-4.3,2.7-6.4c1.3-4.8,1.3-9.6,0-14.4c-8.1-31.7-16-63.4-23.6-95.2
			c-7.6-31.6-14.9-63.3-21.9-95c-4-17.9-7.9-35.8-11.7-53.7c-0.8-3.5-2.4-6.6-4.8-9.2c-1.9-2.9-4.4-5.3-7.6-7c-3.1-2-6.4-3-10-3.2
			c-3.6-0.8-7.2-0.6-10.8,0.5c-2.1,0.9-4.3,1.8-6.4,2.7c-4.1,2.4-7.3,5.6-9.7,9.7c-0.9,2.2-1.8,4.3-2.7,6.4
			C1726.7,1755.4,1726.7,1760.1,1728,1764.9L1728,1764.9z"/>
	</g>
</g>
<g>
	<g>
		<path d="M1830.3,2111.4c3.7,0.1,7.2-0.6,10.4-2.3c3.3-1.1,6.2-2.9,8.7-5.6c2.6-2.4,4.5-5.3,5.6-8.7c1.7-3.2,2.5-6.7,2.3-10.4
			c-0.3-2.4-0.6-4.8-1-7.2c-1.3-4.6-3.6-8.5-6.9-11.9c-1.8-1.4-3.6-2.8-5.5-4.2c-4.2-2.4-8.8-3.7-13.6-3.7
			c-3.7-0.1-7.2,0.6-10.4,2.3c-3.3,1.1-6.2,2.9-8.7,5.6c-2.6,2.4-4.5,5.3-5.6,8.7c-1.7,3.2-2.5,6.7-2.3,10.4c0.3,2.4,0.6,4.8,1,7.2
			c1.3,4.6,3.6,8.5,6.9,11.9c1.8,1.4,3.6,2.8,5.5,4.2C1820.8,2110.2,1825.4,2111.4,1830.3,2111.4L1830.3,2111.4z"/>
	</g>
</g>
</svg>
