<?xml version="1.0" encoding="utf-8"?>
<!-- Generator: Adobe Illustrator 27.0.0, SVG Export Plug-In . SVG Version: 6.00 Build 0)  -->
<svg version="1.1" id="Capa_1" xmlns="http://www.w3.org/2000/svg" xmlns:xlink="http://www.w3.org/1999/xlink" x="0px" y="0px"
	 viewBox="0 0 87.5 84.4" style="enable-background:new 0 0 87.5 84.4;" xml:space="preserve">
<path d="M58,39.1H29.5v-7.9c0-2.2,0.5-4.3,1.4-6.2c1.5-3,4-5.5,7-6.9c-2.5-1.8-4.2-4.8-4.2-8.1c0-5.5,4.5-10,10-10s10,4.5,10,10
	c0,3.4-1.7,6.3-4.2,8.1c3.1,1.4,5.6,3.8,7,6.8c0.9,1.9,1.4,4,1.4,6.2L58,39.1z M59.4,23.6c1.1,2.4,1.7,4.9,1.7,7.5v7.9h20.1v-7.5
	c0-5.3-3.1-9.8-7.6-11.9c2.3-1.7,3.7-4.4,3.7-7.5c0-5.1-4.2-9.3-9.3-9.3c-1.4,0-2.8,0.3-4,0.9c-1.2,0.6-2.3,1.4-3.1,2.4
	c-1.4,1.6-2.2,3.7-2.2,6c0,3,1.5,5.8,3.7,7.5c-1.4,0.7-2.7,1.6-3.8,2.7C59,22.7,59.2,23.2,59.4,23.6L59.4,23.6z M26.4,31.2
	c0-2.6,0.6-5.1,1.7-7.5c0.2-0.5,0.5-0.9,0.8-1.4c-1.1-1.1-2.4-2-3.8-2.7c2.3-1.7,3.7-4.4,3.7-7.5c0-2.3-0.8-4.4-2.2-6
	c-0.8-1-1.9-1.8-3.1-2.4c-1.2-0.6-2.6-0.9-4-0.9c-5.1,0-9.3,4.2-9.3,9.3c0,3,1.5,5.8,3.7,7.5c-1.4,0.6-2.6,1.5-3.7,2.6
	c-2.5,2.5-3.9,5.8-3.9,9.3v7.5h20.1V31.2z M63.8,42.2c-0.8,1.1-1.5,2.2-1.8,3.3c-0.9,2.7,0,6.2,2.4,8.9c2.4,2.7,6,4.4,8.9,5.5
	c2.8,1.1,5.6,2,8.4,2.7c3.5-6,5.6-13,5.9-20.3L63.8,42.2z M62,56.5c-3.1-3.5-4.3-8.2-3-12c0.3-0.8,0.7-1.6,1.1-2.3H0
	C0.3,52,3.9,61,9.8,68.2c3.4-2.3,7.2-3.8,10.9-5.3l0.2-0.1c4.1-1.6,8.3-3.2,12.8-3.2h0c6.4,0,12.9,3.3,18,9c3.5,4,6,8.6,7.9,12.7
	c8.2-3.2,15.2-8.9,20.1-16c-2.6-0.7-5.2-1.5-7.8-2.5C68.9,61.5,64.9,59.7,62,56.5L62,56.5z M33.8,62.7L33.8,62.7
	c-4,0-7.9,1.5-11.7,3l-0.2,0.1c-3.4,1.3-7,2.7-10,4.7c8,8.5,19.3,13.8,31.9,13.8c4.6,0,8.9-0.7,13.1-2c-1.8-3.8-4.1-8.1-7.3-11.7
	C45.1,65.7,39.3,62.7,33.8,62.7L33.8,62.7z"/>
</svg>
