<?xml version="1.0" encoding="utf-8"?>
<!-- Generator: Adobe Illustrator 27.0.0, SVG Export Plug-In . SVG Version: 6.00 Build 0)  -->
<svg version="1.1" id="Capa_1" xmlns="http://www.w3.org/2000/svg" xmlns:xlink="http://www.w3.org/1999/xlink" x="0px" y="0px"
	 viewBox="0 0 1080 1080" style="enable-background:new 0 0 1080 1080;" xml:space="preserve">
<g>
	<g>
		<g>
			<path d="M1786.9,400.8c-1.7,3.5-3.4,7-5.1,10.5c-1.1,2.2-1.6,4.5-0.9,6.9c0.6,2.1,2.2,4.4,4.1,5.4c4.1,2.2,10,1.2,12.3-3.2
				c9.8-19,20.3-37.7,31.5-56c11.2-18.4,23-36.3,35.5-53.9c7-9.8,14.2-19.6,21.6-29.1c-0.5,0.6-0.9,1.2-1.4,1.8
				c5.8-7.5,11.8-15,17.8-22.3c3-3.6,6-7.3,9.1-10.8c2.9-3.4,5.7-7.3,9.2-10.1c-0.6,0.5-1.2,0.9-1.8,1.4c0.7-0.5,1.4-1,2.2-1.3
				c-0.7,0.3-1.4,0.6-2.1,0.9c0.7-0.3,1.3-0.4,2-0.5c-0.8,0.1-1.6,0.2-2.4,0.3c0.6,0,1.1,0,1.7,0c-0.8-0.1-1.6-0.2-2.4-0.3
				c0.6,0.1,1.1,0.3,1.6,0.5c-0.7-0.3-1.4-0.6-2.1-0.9c1,0.4,1.8,1,2.7,1.6c-0.6-0.5-1.2-0.9-1.8-1.4c3.8,3,7,6.8,10.3,10.3
				c3.5,3.7,7,7.5,10.5,11.3c6.9,7.7,13.7,15.5,20.2,23.5c3.7,4.5,7.3,9.1,10.9,13.7c-0.5-0.6-0.9-1.2-1.4-1.8
				c13.5,17.5,26.1,35.6,38.1,54.2c12,18.6,23.4,37.5,34.7,56.5c6.3,10.7,12.5,21.5,18.8,32.2c4.1-4.1,8.2-8.2,12.3-12.3
				c-11.1-6.4-22.2-12.8-33.4-19.3c-3.9-2.3-8.9-1.2-11.6,2.3c-2.6,3.3-2.7,8.9,0.7,11.8c12.5,10.8,27.2,18.7,43.2,23
				c5.3,1.4,11.8-2.7,11.4-8.7c-0.8-11.4-1.5-22.9-2.3-34.3c-5.9,0.8-11.8,1.6-17.7,2.4c0.9,3.3,1.5,6.6,2,10
				c-0.1-0.8-0.2-1.6-0.3-2.4c0.9,6.9,0.9,13.9,0,20.9c0.1-0.8,0.2-1.6,0.3-2.4c-0.1,0.9-0.3,1.8-0.4,2.7c-0.4,2.5-0.4,4.7,0.9,6.9
				c1.1,1.9,3.2,3.6,5.4,4.1c2.3,0.5,4.9,0.4,6.9-0.9c1.9-1.2,3.8-3.1,4.1-5.4c2.1-12.8,1.7-25.7-1.6-38.3c-1.2-4.3-5.5-7-9.9-6.4
				c-4.2,0.6-8.1,4.4-7.8,8.8c0.8,11.4,1.5,22.9,2.3,34.3c3.8-2.9,7.6-5.8,11.4-8.7c-4.6-1.2-9-2.7-13.3-4.5
				c0.7,0.3,1.4,0.6,2.1,0.9c-7.8-3.3-15.1-7.6-21.8-12.7c0.6,0.5,1.2,0.9,1.8,1.4c-1.4-1.1-2.8-2.2-4.1-3.4
				c-3.6,4.7-7.3,9.4-10.9,14.1c11.1,6.4,22.2,12.8,33.4,19.3c3.3,1.9,8.2,1.5,10.9-1.4c2.7-3,3.5-7.3,1.4-10.9
				c-16.2-28-32.4-55.9-49.8-83.2c-17.7-27.8-36.8-54.7-57.9-80c-10.5-12.6-21.5-24.7-32.9-36.4c-3.3-3.4-6.9-6.7-11.6-8.1
				c-6-1.7-11.6,0.5-16.1,4.4c-2.7,2.3-5,5.4-7.3,8.1c-2.6,3-5.1,6-7.6,9c-20.3,24.4-39.4,49.9-57.2,76.3
				c-17.4,25.9-33.5,52.7-48.2,80.2c-1.8,3.3-3.5,6.7-5.3,10c5.2,3,10.4,6.1,15.5,9.1c1.7-3.5,3.4-7,5.1-10.5
				c1.1-2.2,1.6-4.5,0.9-6.9c-0.6-2.1-2.2-4.4-4.1-5.4C1795.2,395.4,1789.1,396.3,1786.9,400.8L1786.9,400.8z"/>
		</g>
	</g>
	<g>
		<g>
			<path d="M2099.8,492.3c11.4,15.8,22.1,32.1,32,48.8c9.9,16.7,19.2,33.9,27.6,51.4c4.8,9.9,9.3,19.9,13.5,30
				c-0.3-0.7-0.6-1.4-0.9-2.1c6.4,15.3,12.3,30.8,17.6,46.6c1.5,4.5,3,9,4.4,13.5c2.9-3.8,5.8-7.6,8.7-11.4
				c-32.6,0.3-65.3,0.7-97.8-3.1c-29.2-3.4-58.3-7-87.6-8.4c-17.4-0.8-34.8-0.8-52.2,0.1c-3.8,0.2-7.8,2.6-8.7,6.6
				c-0.9,3.8,0.5,8.2,4.1,10.2c7.3,3.9,14.2,8.4,20.7,13.4c-0.6-0.5-1.2-0.9-1.8-1.4c5.5,4.2,10.6,8.8,15.5,13.8
				c3.6-4.7,7.3-9.4,10.9-14.1c-16.8-8.6-32.8-18.7-47.7-30.2c0.6,0.5,1.2,0.9,1.8,1.4c-1.1-0.9-2.2-1.7-3.3-2.6
				c-0.6,4.7-1.2,9.4-1.8,14.1c7.2-3.6,14.5-7.1,21.9-10.2c-0.7,0.3-1.4,0.6-2.1,0.9c15.2-6.4,31.1-11.9,47.5-14.1
				c-0.8,0.1-1.6,0.2-2.4,0.3c2.8-0.4,5.5-0.6,8.3-0.8c2.4-0.1,4.7-0.9,6.4-2.6c1.6-1.6,2.7-4.1,2.6-6.4c-0.2-4.7-4-9.2-9-9
				c-23.2,1.1-45.6,9.4-66.6,18.7c-5.3,2.4-10.6,4.9-15.7,7.5c-2.5,1.3-3.9,3.9-4.3,6.6c-0.3,2.6,0.3,5.8,2.5,7.6
				c12.9,10.2,26.5,19.6,40.8,27.7c4,2.3,8,4.4,12,6.5c4,2.1,8.8,1.3,11.6-2.3c2.7-3.5,2.5-8.6-0.7-11.8c-11.1-11.4-24-21.1-38-28.6
				c-1.5,5.6-3,11.2-4.5,16.8c30.3-1.6,60.5-0.2,90.7,2.7c14.6,1.4,29.2,3.2,43.7,4.9c16.1,1.9,32.2,3.1,48.3,3.6
				c18.3,0.5,36.7,0.3,55,0.1c5.7-0.1,10.4-5.7,8.7-11.4c-8.5-27.3-18.8-54-30.7-80c-11.5-25.3-24.7-49.8-39.3-73.5
				c-8.2-13.3-16.9-26.3-26-39c-1.4-2-3-3.5-5.4-4.1c-2.2-0.6-5-0.3-6.9,0.9c-1.9,1.2-3.6,3.1-4.1,5.4
				C2098.4,487.6,2098.4,490.3,2099.8,492.3L2099.8,492.3z"/>
		</g>
	</g>
	<g>
		<g>
			<path d="M1915.2,665.1c-33.3-0.6-66.7-0.5-100,0.1c-33.2,0.6-66.3,1.8-99.4,3.6c-18.6,1-37.2,2.2-55.7,3.6
				c2.6,4.5,5.2,9,7.8,13.5c10.5-19,21-37.9,31.6-56.9c10.5-19,21-37.9,31.6-56.9c5.9-10.7,11.9-21.4,17.8-32.1
				c2.2-3.9,1.3-8.9-2.3-11.6c-1.5-1.2-3.5-2-5.5-1.9c-2.5,0.1-4.4,1.1-6.4,2.6c-0.7,0.6-1.4,1.1-2.1,1.7c0.6-0.5,1.2-0.9,1.8-1.4
				c-8.8,6.8-18.5,12.4-28.7,16.7c0.7-0.3,1.4-0.6,2.1-0.9c-1.8,0.8-3.6,1.5-5.4,2.1c2.9,5,5.8,10,8.8,15c5-4.4,10.1-8.6,15.3-12.7
				c-0.6,0.5-1.2,0.9-1.8,1.4c7.9-6.1,16-11.7,24.5-17c-4.5-2.6-9-5.2-13.5-7.8c1,20.2,0.2,40.5-2.5,60.5c0.1-0.8,0.2-1.6,0.3-2.4
				c-0.2,1.8-0.5,3.6-0.8,5.5c-0.4,2.5-0.4,4.7,0.9,6.9c1.1,1.9,3.2,3.6,5.4,4.1c2.3,0.5,4.9,0.4,6.9-0.9c1.8-1.2,3.8-3.1,4.1-5.4
				c2.7-17.7,4.1-35.6,4-53.6c0-4.9-0.2-9.9-0.4-14.8c-0.2-3.2-1.6-6.1-4.5-7.8c-2.7-1.6-6.4-1.7-9.1,0
				c-14.7,9.2-28.6,19.6-41.6,31.1c-2.9,2.5-3.5,7.7-1.4,10.9c0.8,1.3,1.9,2.4,3.2,3.2c1.8,1.1,4.9,1.6,6.9,0.9
				c7.3-2.7,14.4-5.9,21.1-9.7c6.8-3.8,13.1-8.3,19.1-13.1c-4.7-3.6-9.4-7.3-14.1-10.9c-10.5,19-21,37.9-31.6,56.9
				c-10.5,19-21,37.9-31.6,56.9c-5.9,10.7-11.9,21.4-17.8,32.1c-1.6,2.8-1.7,6.3,0,9.1c1.5,2.6,4.7,4.7,7.8,4.5
				c33.2-2.4,66.5-4.3,99.8-5.6c33.1-1.3,66.3-1.9,99.4-2c18.6-0.1,37.2,0.1,55.8,0.4c4.7,0.1,9.2-4.2,9-9
				C1924,669.2,1920.2,665.2,1915.2,665.1L1915.2,665.1z"/>
		</g>
	</g>
</g>
<g>
	<polygon points="2163,1208.2 2163,1224 2033.5,1224 2023.8,1222.9 2022.9,1225.7 2030.9,1231.1 2064.8,1265 2052.9,1277 
		1997.6,1221.7 1997.6,1209.5 2052.9,1154.2 2064.8,1166.2 2030.9,1200.1 2022.9,1205.5 2023.8,1208.3 2033.5,1207.2 2142.7,1207.2 
		2065.3,1075.6 2080.1,1067 2162.4,1207.2 	"/>
</g>
<g>
	<polygon points="1766,1225.6 1765.6,1217.6 1830.4,1105.4 1836.2,1097.7 1834.2,1095.5 1825.6,1099.7 1779.2,1112.1 1774.8,1095.8 
		1850.3,1075.5 1860.9,1081.6 1881.1,1157.2 1864.8,1161.5 1852.4,1115.1 1851.7,1105.5 1848.8,1104.9 1845,1113.8 1790.4,1208.5 
		1943.1,1207.2 1943.1,1224.3 1780.5,1225.6 	"/>
</g>
<g>
	<polygon points="1955,855 1964.4,854.6 2029.2,966.8 2033,975.7 2035.9,975.1 2036.6,965.5 2049,919.1 2065.4,923.5 2045.1,999 
		2034.6,1005.1 1959,984.9 1963.4,968.6 2009.8,981 2018.5,985.2 2020.4,983 2014.6,975.2 1960,880.6 1884.7,1013.5 1869.9,1004.9 
		1950.1,863.5 	"/>
</g>
<g>
	<g>
		<path d="M1387.4,694.8l-71.2-71.2v-15.7l71.2-71.2l15.4,15.4l-43.8,43.7l-10.3,6.9l1.2,3.6l12.4-1.5h166.9v21.7h-166.9l-12.4-1.5
			l-1.2,3.6l10.3,6.9l43.8,43.8L1387.4,694.8z"/>
	</g>
</g>
<polygon points="-592,174 -857,633 -327,633 "/>
<g>
	<g>
		<path d="M4,478.8c1.9,0,1.9-3,0-3C2,475.8,2,478.8,4,478.8L4,478.8z"/>
	</g>
</g>
<g>
	<g>
		<path d="M880.9,1906.1c7.4-85.2,11.3-170.6,11.7-256.1c0.2-43-0.4-85.9-2-128.9c-0.8-21.1-2.7-44.1-20.2-58.5
			c-17.8-14.6-42.1-19-64.5-20.5c-22.5-1.6-45,1-67.5,1.9c-23.5,0.9-46.8-1.1-70-4.2c1.9,0.3,3.7,0.5,5.6,0.8
			c-30.1-4.1-60.1-8.6-90.4-11.2c-29-2.5-58.1-4.1-87.1-5.3c-58.4-2.5-116.9-4.7-175.3-7c-28.2-1.1-56.6-3-84.8-3.1
			c-27.5-0.1-58.4,4.9-78.3,25.9c-6,6.3-10.2,13.4-13.1,21.6c-2.6,7.6-2.9,16.2-2.5,24.1c0.9,14,1.9,28,2.3,42.1
			c0.8,28.4,0,56.9-1.4,85.2c-2.8,56.5-8.3,113-9.5,169.6c-0.6,28.4-0.2,56.8,2.2,85.1c1.2,14.2,3,28.9,10.6,41.3
			c8.4,13.8,22.2,22.1,37.6,26.1c9.7,2.5,19.9,3.8,29.8,5.2c12,1.7,24.1,3.2,36.1,4.5c23.1,2.5,46.3,4.3,69.5,5.7
			c46.5,2.9,92.9,3.5,139.4,3.7c58.9,0.2,117.8,0.4,176.6,0.6c29.4,0.1,58.8,0.2,88.2,0.3c29,0.1,58.1,0,87.1-1.9
			c14-0.9,28-2.2,41.9-4c5.8-0.8,10.5-1.8,14.8-6.2c3.6-3.6,6.4-9.6,6.2-14.8c-0.2-5.4-2-11.1-6.2-14.8c-3.8-3.5-9.5-6.9-14.8-6.2
			c-44.6,5.9-89.7,6-134.6,5.9c-45.1-0.1-90.2-0.3-135.3-0.4c-45.1-0.1-90.2-0.3-135.3-0.4c-34.9-0.1-69.8-0.6-104.7-2.3
			c-39.4-2-78.8-4.8-117.9-10.1c1.9,0.2,3.7,0.5,5.6,0.8c-13.3-1.8-27.3-3.1-40-7.4c-0.3-0.1-2.6-0.7-2.6-0.9c0,0.3,5.2,2.4,1.5,0.6
			c-1.7-0.8-3.1-1.8-4.7-2.7c-1.9-1,3.9,3.6,1.2,0.9c-0.7-0.6-1.4-1.2-2-1.9c-0.2-0.2-1.9-2-1.8-2c0.1-0.1,3.3,4.7,1.1,1.2
			c-0.5-0.8-0.9-1.5-1.3-2.3c-0.4-0.8-1.8-3.8-0.3-0.4c1.4,3.5,0.2,0.3-0.1-0.5c-0.3-0.9-0.6-1.7-0.8-2.6c-1.1-3.7-1.8-7.6-2.3-11.4
			c0.3,1.9,0.5,3.7,0.8,5.6c-3.4-25.5-3.5-51.8-3.4-77.5c0.1-26.3,1.4-52.6,2.9-78.8c3.2-52.6,7.9-105.2,8.5-158
			c0.2-14.7,0-29.5-0.6-44.2c-0.3-7.6-0.7-15.3-1.3-22.9c-0.5-7.3-1.4-14.6-0.5-21.9c-0.3,1.9-0.5,3.7-0.8,5.6
			c0.3-1.7,0.6-3.4,1.1-5.1c0.2-0.5,0.3-1,0.5-1.5c0.6-1.5,0.2-0.7-1.1,2.5c0.7-0.9,1.2-2.3,1.8-3.3c0.3-0.5,0.6-0.9,0.9-1.4
			c1.3-1.7,0.8-1.2-1.3,1.7c1.9-1.6,3.6-3.7,5.4-5.4c2.7-2.5-4.1,2.8-0.8,0.6c1.1-0.7,2.1-1.5,3.2-2.1c2.2-1.3,4.4-2.5,6.7-3.6
			c2-0.9,1.4-0.6-1.8,0.7c0.7-0.3,1.4-0.6,2.2-0.8c1.1-0.4,2.2-0.8,3.3-1.1c5.2-1.6,10.5-2.7,15.9-3.4c-1.9,0.2-3.7,0.5-5.6,0.8
			c11.6-1.5,23.3-1.4,35-0.9c13.5,0.5,26.9,1.1,40.4,1.6c27.7,1.1,55.5,2.2,83.2,3.3c55.2,2.2,110.5,3.8,165.6,7
			c30.9,1.8,61.8,4.4,92.5,8.5c-1.9-0.3-3.7-0.5-5.6-0.8c26.2,3.5,52.4,8.1,78.9,9.8c24.1,1.6,47.9-0.6,71.9-1.6
			c13.4-0.5,26.7-0.5,40,1.2c-1.9-0.2-3.7-0.5-5.6-0.8c6,0.8,12,2,17.9,3.6c2.8,0.8,5.5,1.8,8.3,2.7c2,0.8,1.4,0.5-1.8-0.8
			c0.7,0.3,1.4,0.6,2.1,1c1.2,0.6,2.4,1.2,3.5,1.9c1.1,0.7,2.2,1.7,3.3,2.2c-2.7-2.2-3.3-2.5-1.6-1.1c0.4,0.4,0.8,0.8,1.2,1.2
			c0.4,0.4,0.8,0.8,1.2,1.2c1.4,1.7,1,1.1-1.2-1.6c0.4,1.1,1.4,2.2,2,3.2c2.3,4.3-1.3-4.3-0.1-0.6c0.4,1.2,0.8,2.4,1.2,3.6
			c0.7,2.7,1.2,5.4,1.6,8.2c-0.2-1.9-0.5-3.7-0.8-5.6c1.5,11.9,1.4,24.1,1.7,36.1c0.4,13.2,0.7,26.4,0.9,39.7
			c0.5,26.4,0.6,52.9,0.4,79.3c-0.4,52.9-2.2,105.8-5.2,158.6c-1.7,29.7-3.9,59.4-6.4,89c-0.4,5.1,2.7,11.4,6.2,14.8
			c3.6,3.6,9.6,6.4,14.8,6.2C872.1,1926.5,879.9,1917.8,880.9,1906.1L880.9,1906.1z"/>
	</g>
</g>
<g>
	<g>
		<path d="M241.8,1681.1c-2.7,15.6-5.3,31.1-8,46.7c-1.3,7.8-2.8,15.6-4,23.4c-1,6.7-2.1,13.7,0.4,20.3c1.8,4.7,3.5,8.1,7.1,11.9
			c2,2.1,4.5,4,7.1,5.4c4.1,2.1,8.2,3.6,12.7,4.3c5.3,0.8,10.6,1.3,16,1.8c7.8,0.8,15.6,1.6,23.4,2.3c15.7,1.6,31.5,3.1,47.2,4.7
			c4,0.4,7.9,0.8,11.9,1.2c3.4,0.3,6.8,0.8,10.2,0.8c3.2,0,6.3-0.5,9.5-1c1.5-0.2,3-0.6,4.4-1.1c5.5-2.1,7.9-3.5,12.5-7.3
			c2.4-2,4.2-4.6,5.9-7.2c1.7-2.5,2.7-5.6,3.8-8.4c0.5-1.4,0.9-2.9,1.2-4.4c0.9-4.9,1.3-9.7,1.6-14.6c0.4-7.8,0.9-15.6,1.3-23.5
			c0.9-15.8,1.8-31.6,2.7-47.4c0.3-5.2,0.3-10.6-1.3-15.5c-1.8-5.5-4.8-11.1-9.3-14.7c-2.3-1.9-4.5-3.8-7.2-5
			c-2.6-1.2-5.5-2.5-8.4-3.3c-2.1-0.5-4.3-0.8-6.4-1.1c-2.3-0.3-4.6-0.6-6.9-0.7c-7.2-0.3-14.4,0-21.6,0c-8,0-15.9,0-23.9,0.1
			c-15.8,0-31.5,0.1-47.3,0.1c-3.8,0-7.6,0-11.4,0c-5.4,0-11,2.3-14.8,6.2c-2,1.9-3.5,4.2-4.3,6.8c-1.3,2.5-1.9,5.2-1.8,8.1
			c0.2,5.4,2,11.1,6.2,14.8c4.1,3.8,9.2,6.2,14.8,6.2c29.1-0.1,58.2-0.2,87.4-0.3c6.9,0,14-0.5,20.9,0.4c-1.9-0.3-3.7-0.5-5.6-0.8
			c2.3,0.3,4.6,0.8,6.7,1.7c-1.7-0.7-3.3-1.4-5-2.1c1.1,0.5,2.2,1.1,3.2,1.8c-1.4-1.1-2.8-2.2-4.3-3.3c0.8,0.6,1.5,1.3,2.2,2.1
			c-1.1-1.4-2.2-2.8-3.3-4.3c0.6,0.8,1.1,1.6,1.5,2.5c-0.7-1.7-1.4-3.3-2.1-5c0.4,1.1,0.7,2.2,0.9,3.3c-0.3-1.9-0.5-3.7-0.8-5.6
			c0.3,2.6,0.1,5.1,0,7.7c-0.2,2.9-0.3,5.8-0.5,8.7c-0.3,5.7-0.6,11.5-1,17.2c-0.6,11.6-1.3,23.1-1.9,34.7
			c-0.3,5.8-0.4,11.8-1.2,17.5c0.3-1.9,0.5-3.7,0.8-5.6c-0.3,2.3-0.8,4.6-1.7,6.8c0.7-1.7,1.4-3.3,2.1-5c-0.5,1.2-1.2,2.3-2,3.4
			c1.1-1.4,2.2-2.8,3.3-4.3c-0.7,0.9-1.5,1.6-2.3,2.3c1.4-1.1,2.8-2.2,4.3-3.3c-0.8,0.6-1.7,1.1-2.6,1.5c1.7-0.7,3.3-1.4,5-2.1
			c-1.5,0.6-3.1,1-4.7,1.2c1.9-0.2,3.7-0.5,5.6-0.8c-6.3,0.8-12.8-0.4-19.1-1.1c-7.1-0.7-14.2-1.4-21.4-2.1
			c-14.4-1.4-28.8-2.9-43.2-4.3c-7.8-0.8-15.6-1.3-23.3-2.4c1.9,0.2,3.7,0.5,5.6,0.8c-2.3-0.3-4.6-0.8-6.8-1.7
			c1.7,0.7,3.3,1.4,5,2.1c-0.9-0.4-1.8-0.9-2.6-1.5c1.4,1.1,2.8,2.2,4.3,3.3c-0.7-0.5-1.3-1.1-1.9-1.8c1.1,1.4,2.2,2.8,3.3,4.3
			c-0.4-0.6-0.8-1.2-1.1-1.9c0.7,1.7,1.4,3.3,2.1,5c-0.4-0.9-0.6-1.8-0.7-2.8c0.3,1.9,0.5,3.7,0.8,5.6c-0.2-1.7-0.1-3.4,0.1-5.1
			c-0.3,1.9-0.5,3.7-0.8,5.6c1.2-9.2,3.1-18.4,4.7-27.6c1.6-9.3,3.2-18.5,4.7-27.8c0.9-5.3,1.8-10.7,2.7-16c0.9-2.8,1-5.6,0.4-8.4
			c-0.1-2.8-1-5.4-2.5-7.8c-1.3-2.4-3.1-4.4-5.4-5.9c-2-1.9-4.4-3.1-7.1-3.8c-5.4-1.2-11.4-1-16.2,2.1c-1.4,1.1-2.8,2.2-4.3,3.3
			C244.6,1674.5,242.8,1677.5,241.8,1681.1L241.8,1681.1z"/>
	</g>
</g>
<g>
	<g>
		<path d="M628,1772.5c19.1,6.8,39.4,9.8,59.5,11.6c18.7,1.6,37.5,1.7,56.2,2.2c10.6,0.3,21.2,0.6,31.8,1.5c2.9,0.1,5.6-0.5,8.1-1.8
			c2.6-0.8,4.9-2.3,6.8-4.3c2-1.9,3.5-4.2,4.3-6.8c1.3-2.5,1.9-5.2,1.8-8.1c-0.2-5.4-2-11.1-6.2-14.8c-1.4-1.1-2.8-2.2-4.3-3.3
			c-3.3-1.9-6.8-2.9-10.6-2.9c-26.5-2-53.2-1.3-79.7-3c-7.5-0.5-14.9-1.2-22.3-2.1c1.9,0.3,3.7,0.5,5.6,0.8
			c-13.5-1.8-27-4.7-39.9-9.3c-2.8-0.9-5.6-1-8.4-0.4c-2.8,0.1-5.4,1-7.8,2.5c-2.4,1.3-4.4,3.1-5.9,5.4c-1.9,2-3.1,4.4-3.8,7.1
			c-1.2,5.4-1,11.4,2.1,16.2c1.1,1.4,2.2,2.8,3.3,4.3C621.4,1769.7,624.5,1771.5,628,1772.5L628,1772.5z"/>
	</g>
</g>
<g>
	<g>
		<path d="M435.4,1857c45,1.1,90,2.3,135,3.4c44.8,1.1,89.6,2.3,134.3,3.4c25.3,0.6,50.5,1.3,75.8,1.9c5.3,0.1,11.1-2.4,14.8-6.2
			c3.6-3.6,6.4-9.6,6.2-14.8c-0.2-5.4-2-11.1-6.2-14.8c-4.2-3.8-9.1-6-14.8-6.2c-45-1.1-90-2.3-135-3.4
			c-44.8-1.1-89.6-2.3-134.3-3.4c-25.3-0.6-50.5-1.3-75.8-1.9c-5.3-0.1-11.1,2.4-14.8,6.2c-3.6,3.6-6.4,9.6-6.2,14.8
			c0.2,5.4,2,11.1,6.2,14.8C424.8,1854.7,429.7,1856.9,435.4,1857L435.4,1857z"/>
	</g>
</g>
<g>
	<g>
		<path d="M149,1788c-29.4,2.6-59.6,5.2-89,1.4c1.9,0.2,3.7,0.5,5.6,0.8c-4.4-0.6-8.7-1.4-13-2.4c5.1,6.8,10.3,13.5,15.4,20.2
			c-0.5-52.8-2-105.5-2.9-158.3c-1-60.9-1.5-121.8,0.2-182.7c0.4-16.1,1.1-32.2,1.9-48.3c0.8-15.2,1.2-30.6,3.2-45.7
			c-0.3,1.9-0.5,3.7-0.8,5.6c0.7-4.7,1.7-9.4,3.5-13.8c-0.7,1.7-1.4,3.3-2.1,5c1-2.2,2.1-4.3,3.5-6.2c-1.1,1.4-2.2,2.8-3.3,4.3
			c1.1-1.4,2.3-2.8,3.8-3.9c-1.4,1.1-2.8,2.2-4.3,3.3c0.4-0.3,0.8-0.5,1.2-0.7c-1.7,0.7-3.3,1.4-5,2.1c1.7-0.7,3.6-1,5.4-1.3
			c-1.9,0.3-3.7,0.5-5.6,0.8c12.7-1.7,25.9-0.5,38.6,0.3c14.3,0.9,28.5,2.3,42.8,3.6c15.2,1.4,30.5,1.7,45.7,2.5
			c21.4,1.1,42.9,2.6,64.2,4.4c37.7,3.1,75.3,6.6,113.1,7.7c51.2,1.5,102.2-1.5,153.3-3c27.4-0.8,54.8-0.7,82.2-0.2
			c27.1,0.4,54.4,0.5,81.5,2.3c6.6,0.4,13.3,1.1,19.9,1.9c-1.9-0.3-3.7-0.5-5.6-0.8c6.3,0.9,13.2,1.4,19.2,3.8
			c-1.7-0.7-3.3-1.4-5-2.1c0.6,0.3,1.2,0.6,1.7,0.9c-1.4-1.1-2.8-2.2-4.3-3.3c0.5,0.4,1,0.8,1.4,1.3c-1.1-1.4-2.2-2.8-3.3-4.3
			c0.5,0.5,0.8,1.1,1.1,1.8c-0.7-1.7-1.4-3.3-2.1-5c0.1,0.3,0.2,0.7,0.3,1c-0.3-1.9-0.5-3.7-0.8-5.6c0.1,1.1,0.1,2.1,0,3.3
			c0.3-1.9,0.5-3.7,0.8-5.6c-4.1,29-4.4,58.8-4.5,88c0,11,9.7,21.5,21,21c11.4-0.5,21-9.2,21-21c0-26.2,0.3-52.9,3.2-79
			c-0.2,1.9-0.5,3.7-0.8,5.6c0.6-3.9,1.5-7.8,1.3-11.7c-0.4-7.1-3.1-13.8-8.2-18.8c-5.8-5.6-13.3-7.8-21-9.2
			c-13.4-2.4-27-3.8-40.6-4.5c-24.7-1.3-49.5-1.5-74.2-1.9c-24.9-0.4-49.8-0.6-74.7,0c-24.9,0.5-49.7,1.9-74.5,2.8
			c-41.8,1.5-83.7,1.3-125.5-1.3c-34.3-2.1-68.5-5.6-102.7-8.1c-31.1-2.2-62.3-2.9-93.3-5.8c-13.6-1.3-27.2-2.5-40.8-3.2
			c-12.5-0.6-25.3-1.1-37.7,1.2c-9.3,1.7-15.8,7.9-21.2,15.3c-6.9,9.6-8.8,21.7-10.1,33.1c-2.1,18.5-2.7,37.3-3.6,55.9
			c-1.8,40.8-2.4,81.6-2.4,122.4c0,41.1,0.6,82.2,1.4,123.3c0.7,36.2,1.6,72.3,2.1,108.5c0.1,7.5,0.2,15,0.3,22.6
			c0.1,9,6.4,18,15.4,20.2c17.6,4.3,36.1,5.1,54.2,4.9c17.8-0.2,35.7-1.6,53.4-3.1c5.7-0.5,10.7-2,14.8-6.2
			c3.6-3.6,6.4-9.6,6.2-14.8C169.5,1798.4,160.7,1787,149,1788L149,1788z"/>
	</g>
</g>
</svg>
