<?xml version="1.0" encoding="utf-8"?>
<!-- Generator: Adobe Illustrator 27.0.0, SVG Export Plug-In . SVG Version: 6.00 Build 0)  -->
<svg version="1.1" id="Capa_1" xmlns="http://www.w3.org/2000/svg" xmlns:xlink="http://www.w3.org/1999/xlink" x="0px" y="0px"
	 viewBox="0 0 1080 1080" style="enable-background:new 0 0 1080 1080;" xml:space="preserve">
<style type="text/css">
	.st0{fill:#EDEDED;}
</style>
<g>
	<g>
		<path class="st0" d="M142.7,926.4c-0.7-1.6-1.4-3.2-2.1-4.8c-0.3-0.7-0.5-1.4-0.9-2c2.2,4.1,0.9,2.1,0.4,0.9
			c-1.3-3.2-2.6-6.4-3.8-9.6c-2.5-6.7-4.9-13.5-7.1-20.3c-4.2-13.2-7.7-26.6-10.5-40.1c-1.5-7-2.8-14.1-3.9-21.2
			c-0.5-3.2-1-6.4-1.4-9.5c-0.4-2.9,0.5,4.1,0.2,1.2c-0.1-0.7-0.2-1.5-0.3-2.2c-0.2-2-0.5-3.9-0.7-5.9c-1.5-13.8-2.5-27.7-2.9-41.6
			c-0.8-28.9,0.7-57.8,4-86.5c0.4-3.4,0.8-6.7,1.3-10.1c0.4-3-0.6,3.9-0.1,0.9c0.1-0.8,0.2-1.6,0.3-2.3c0.3-2.1,0.6-4.1,0.9-6.2
			c1.1-7.2,2.3-14.5,3.6-21.7c2.6-14.7,5.6-29.3,9-43.8c13.2-57.5,32.3-113.2,49-169.7c16.1-54.4,29.2-111.3,26.4-168.4
			c-2.5-50.7-16.3-102.7-47.6-143.4c-4.5-5.8-9.1-11.5-14.1-16.9c-7.5-8.1-22.2-8.2-29.7,0c-7.9,8.6-8,21.1,0,29.7
			c2,2.2,4,4.4,6,6.7c0.8,1,1.6,2,2.4,3c0.4,0.5,1.1,1.6,1.6,2c-0.7-0.5-2.7-3.5-1-1.2c3.5,4.8,6.9,9.6,10,14.7
			c3.2,5.2,6.2,10.6,8.9,16.1c1.2,2.5,2.4,5,3.5,7.5c0.3,0.8,0.6,1.6,1,2.3c0.1,0.1-1.7-4.2-0.9-2.1c0.6,1.6,1.3,3.2,1.9,4.7
			c4.3,11.2,7.7,22.7,10.3,34.4c1.4,6.1,2.5,12.3,3.4,18.4c0.2,1.3,0.4,2.6,0.6,3.8c-0.1-0.4-0.7-5.3-0.2-1.7
			c0.1,0.6,0.2,1.3,0.2,1.9c0.4,3.2,0.7,6.5,1,9.7c1,12.1,1.3,24.2,0.9,36.3c-0.2,6-0.6,12-1.1,18c-0.3,3.6-0.7,7.2-1.1,10.8
			c-0.2,1.8-0.4,3.6-0.6,5.4c-0.1,0.8-0.2,1.5-0.3,2.3c0.1-1.4,0.5-3.7,0.1-1c-4.3,28.9-11.1,57.2-19.1,85.3
			c-16.2,56.6-35.8,112.1-49.6,169.4c-13.9,57.7-23.3,117.1-23.2,176.6c0.1,57.1,8.7,115.1,29.4,168.4c3,7.7,6.2,15.3,9.6,22.8
			c2,4.5,8,8.4,12.6,9.7c5,1.4,11.7,0.8,16.2-2.1c4.5-2.9,8.4-7.2,9.7-12.6C146.2,936.7,145.2,931.8,142.7,926.4L142.7,926.4z"/>
	</g>
</g>
<g>
	<g>
		<path class="st0" d="M126.9,107.3c3.1-0.9,6.3-1.7,9.5-2.4c1.7-0.4,3.4-0.7,5.2-1c0.7-0.1,1.5-0.2,2.2-0.3
			c2.9-0.5-5.4,0.5-0.4,0.1c6.7-0.6,13.5-1,20.3-0.8c3.3,0.1,6.5,0.3,9.8,0.6c1.8,0.2,3.5,0.3,5.3,0.5c0.7,0.1,1.5,0.3,2.3,0.3
			c-2.4,0-3.3-0.5-0.3,0c6.7,1,13.4,2.4,20.1,4.1c27.7,6.9,53.9,18.5,80.2,29.2c52,21.1,105.8,35,161.4,41.8
			c55.2,6.8,110.8,5.6,165.8-2.3c26.7-3.8,53.2-9.5,79.2-16.9c27-7.7,53.2-17.9,79.4-27.9c26.4-10.1,53.2-19.9,81-25.6
			c3.4-0.7,6.9-1.3,10.3-1.9c1.5-0.2,3-0.5,4.4-0.7c1.2-0.2,3.9-0.2-1.1,0.1c1-0.1,2-0.3,3-0.4c6.9-0.8,13.9-1.3,20.8-1.5
			c6.7-0.2,13.3,0,20,0.6c1.7,0.1,3.4,0.3,5.1,0.5c4.1,0.4-3.8-0.6,0.3,0c3.6,0.6,7.3,1.2,10.9,2c6.5,1.4,12.9,3.3,19.1,5.6
			c10.3,3.8,23.5-4.2,25.8-14.7c2.7-11.9-3.6-21.8-14.7-25.8C896,50.1,834.7,63.2,780.6,82.4c-27.1,9.7-53.7,20.9-81.1,30
			c-25.6,8.5-51.9,15.2-78.4,20.2c-6.8,1.3-13.5,2.4-20.3,3.4c-1.7,0.3-3.4,0.5-5.1,0.7c-0.7,0.1-1.5,0.2-2.2,0.3
			c-2.4,0.3,1.9-0.3,1.9-0.3c-3.7,0.3-7.3,0.9-11,1.3c-13.4,1.5-26.9,2.6-40.4,3.2c-27.2,1.2-54.6,0.6-81.7-1.8
			c-6.9-0.6-13.7-1.3-20.5-2.2c-1.5-0.2-2.9-0.4-4.4-0.6c-2.9-0.4,4.1,0.6,1.2,0.2c-0.7-0.1-1.5-0.2-2.2-0.3
			c-3.4-0.5-6.8-1-10.2-1.5c-13.6-2.2-27.1-4.8-40.5-7.9c-26.6-6.2-52.8-14.2-78.3-24c-53.6-20.6-107.9-48.5-167-41.1
			c-8.4,1-16.6,2.4-24.7,4.8c-10.5,3.1-18.2,14.9-14.7,25.8C104.5,103.3,115.6,110.6,126.9,107.3L126.9,107.3z"/>
	</g>
</g>
<g>
	<g>
		<path class="st0" d="M921.1,110.5c2.9,5.5,5.8,11,8.5,16.6c1.3,2.7,2.6,5.4,3.8,8.1c0.7,1.5,1.3,2.9,2,4.4
			c0.3,0.6,0.6,1.3,0.8,1.9c0.3,0.7,1.9,4.4,0.6,1.3c-1.3-3,0.5,1.2,0.8,2c0.6,1.5,1.2,3,1.8,4.5c1.2,3,2.3,6,3.4,9
			c2.1,5.8,4.1,11.7,6,17.6c7.7,24.1,13.3,48.9,17.1,74c0.2,1.4,0.4,2.7,0.6,4.1c0.1,0.7,0.2,1.4,0.3,2.1c-0.9-5.5-0.4-2.7-0.2-1.5
			c0.4,3.2,0.8,6.4,1.2,9.6c0.7,6.2,1.3,12.4,1.7,18.6c1,12.7,1.5,25.4,1.6,38.1c0.2,26.3-1.4,52.6-4.5,78.8
			c-0.4,3.2-0.9,6.3-1.2,9.5c0.1-0.5,0.7-5,0.2-1.2c-0.1,0.7-0.2,1.5-0.3,2.2c-0.2,1.7-0.5,3.4-0.7,5.1c-1,6.8-2.1,13.6-3.3,20.4
			c-2.3,13.1-5,26.2-7.9,39.2c-6,26.5-13.2,52.7-21.3,78.6c-8,25.8-17.8,51.1-25.3,77c-8,27.6-10.9,56-12.1,84.6
			c-2.1,51.2-4.9,105.5,12.7,154.6c2.5,7.1,5.5,14,8.7,20.8c4.7,10,19.8,13.3,28.7,7.5c10.2-6.6,12.6-18.1,7.5-28.7
			c-0.7-1.4-1.4-2.9-2-4.4c-0.3-0.6-0.5-1.3-0.8-1.9c0,0,1.6,4,0.8,1.9c-1.1-3-2.3-5.9-3.3-8.9c-2.1-6-3.8-12.1-5.2-18.3
			c-1.4-6-2.6-12-3.5-18.1c-0.1-0.8-0.9-6.2-0.4-2.6c0.5,3.4-0.1-1.2-0.2-2c-0.4-3.2-0.7-6.4-1-9.6c-2.1-25.3-1.4-50.8-0.5-76.1
			c0.5-13.5,0.9-26.9,2.1-40.4c0.3-3.2,0.6-6.5,1-9.7c0.1-0.8,0.1-2.2,0.4-3c0,0-0.6,4.3-0.3,1.9c0.3-2,0.6-3.9,0.9-5.9
			c1.1-6.6,2.5-13.2,4.1-19.7c6.6-26.2,16.6-51.5,24.9-77.2c16.6-51.4,29.8-104,37.1-157.6c7.2-52.8,9.4-106.1,3-159
			c-6.4-53.1-20.1-104.5-43.2-152.8c-2.7-5.6-5.5-11.1-8.5-16.6c-5.2-9.7-19.4-13.5-28.7-7.5C918.8,88.2,915.6,100.2,921.1,110.5
			L921.1,110.5z"/>
	</g>
</g>
<g>
	<g>
		<path class="st0" d="M144.4,957.8c6.4-1.4,12.8-2.7,19.2-3.8c3.1-0.5,6.2-1,9.3-1.4c0.6-0.1,3.1-0.4,0.1,0c-3.2,0.4,0,0,0.8-0.1
			c1.7-0.2,3.4-0.4,5-0.6c13-1.4,26-2.2,39.1-2.3c13-0.1,26.1,0.5,39.1,1.7c3.1,0.3,6.2,0.6,9.4,1c0.7,0.1,1.4,0.2,2.2,0.3
			c3.8,0.5-0.8-0.1-1.3-0.2c1.7,0.3,3.4,0.5,5,0.7c6.4,1,12.9,2.1,19.3,3.4c52.3,10.7,100.6,34.6,152.1,48.4
			c27.1,7.3,54.9,12.4,82.8,14.4c28.1,2,55.9-0.2,83.7-5c25.7-4.5,51.3-10.4,76.8-16.1c24.8-5.6,49.5-11.5,74-18.2
			c50-13.7,99.3-30.8,145.8-54c5.7-2.8,11.3-5.7,16.8-8.7c9.7-5.2,13.5-19.4,7.5-28.7c-6.3-9.8-18.4-13.1-28.7-7.5
			c-11.1,6-22.4,11.6-33.9,16.9c-2.8,1.3-5.5,2.5-8.3,3.7c-1.3,0.6-2.6,1.1-3.9,1.7c-0.9,0.4-1.7,0.7-2.6,1.1
			c-0.6,0.2-3.6,1.5-0.7,0.3c2.9-1.3-1.3,0.5-2,0.8c-1.5,0.6-3,1.2-4.5,1.9c-3,1.2-6.1,2.4-9.1,3.6c-23.6,9.1-47.6,17-71.9,24.1
			c-48.9,14.1-98.7,25.3-148.6,35.4c-6.6,1.3-13.3,2.6-20,3.7c-3.2,0.5-6.4,1.1-9.7,1.5c-0.7,0.1-1.5,0.2-2.2,0.3
			c0,0,4.3-0.5,1.9-0.3c-2,0.2-4,0.5-6,0.7c-13.2,1.4-26.4,1.9-39.7,1.6c-6.6-0.2-13.2-0.6-19.7-1.1c-2.9-0.3-5.8-0.5-8.7-0.9
			c-1.7-0.2-3.4-0.4-5.1-0.6c-2.4-0.3,2,0.3,1.9,0.3c-1-0.2-1.9-0.3-2.9-0.4c-13.1-1.9-26.1-4.5-38.9-7.6
			c-25.9-6.2-51.1-14.8-76.1-24c-25.1-9.2-50.1-18.6-76.1-24.9c-53.4-12.9-108.8-14.4-163-5.3c-6.4,1.1-12.8,2.3-19.2,3.8
			c-10.7,2.4-18,15.4-14.7,25.8C122.3,954.4,132.9,960.3,144.4,957.8L144.4,957.8z"/>
	</g>
</g>
<g>
	<g>
		<path class="st0" d="M273.3,809.6c-4.5-13.6-7.6-27.5-9.5-41.7c0.3,1.9,0.5,3.7,0.8,5.6c-3.4-26.2-2.7-52.6,0.8-78.8
			c-0.3,1.9-0.5,3.7-0.8,5.6c7.8-57.8,29.1-112.3,49.9-166.5c10.5-27.3,21-54.7,29.6-82.6c9-29.2,15.6-59,19-89.5
			c3.8-33.4,2.4-67.5-5.4-100.2c-2.5-10.7-15.3-18.1-25.8-14.7c-11.1,3.6-17.4,14.4-14.7,25.8c1.9,7.9,3.4,15.9,4.4,23.9
			c-0.3-1.9-0.5-3.7-0.8-5.6c3.4,26.2,2.7,52.7-0.8,78.8c0.3-1.9,0.5-3.7,0.8-5.6c-8.3,60.7-31.2,117.7-53,174.5
			c-11,28.8-21.8,57.7-30.3,87.4c-8.5,29.9-14.4,60.6-16.5,91.6c-2.3,34.5,0.9,70.1,11.8,103c1.7,5.2,4.9,9.7,9.7,12.6
			c4.5,2.6,11.1,3.8,16.2,2.1C269.1,832.1,277,820.8,273.3,809.6L273.3,809.6z"/>
	</g>
</g>
<g>
	<g>
		<path class="st0" d="M424.3,825c-3.6-12.3-6.2-24.9-7.9-37.6c0.3,1.9,0.5,3.7,0.8,5.6c-3.5-26.5-3-53.3,0.5-79.7
			c-0.3,1.9-0.5,3.7-0.8,5.6c4.7-34.6,14.6-68.3,28.1-100.5c-0.7,1.7-1.4,3.3-2.1,5c19.9-46.8,47.5-90.2,63.8-138.6
			c15.9-47.4,17.7-98.9,5.9-147.4c-6.5-26.7-17.4-52.7-32-76c-2.9-4.6-7.3-8.2-12.6-9.7c-5-1.4-11.7-0.8-16.2,2.1
			c-9.3,6-13.8,18.8-7.5,28.7c6.8,10.8,12.7,22.1,17.6,33.8c-0.7-1.7-1.4-3.3-2.1-5c8.4,20.1,14.2,41.2,17.1,62.8
			c-0.3-1.9-0.5-3.7-0.8-5.6c2.9,21.6,2.9,43.5,0.1,65c0.3-1.9,0.5-3.7,0.8-5.6c-3.3,24.1-10.5,47.2-19.9,69.6
			c0.7-1.7,1.4-3.3,2.1-5c-18.2,43.1-42.7,83.3-59.7,127c-16.8,43.4-26.9,90.3-26.7,137c0.1,26.8,3.7,53.8,11.1,79.5
			c1.5,5.1,5,9.8,9.7,12.6c4.5,2.6,11.1,3.8,16.2,2.1C420.3,847.4,427.5,836.3,424.3,825L424.3,825z"/>
	</g>
</g>
<g>
	<g>
		<path class="st0" d="M579.5,847.1c-2.2-3.9-4.1-7.9-5.9-12.1c0.7,1.7,1.4,3.3,2.1,5c-4.8-11.4-7.9-23.3-9.6-35.5
			c0.3,1.9,0.5,3.7,0.8,5.6c-2.1-15.9-1.7-32,0.4-47.8c-0.3,1.9-0.5,3.7-0.8,5.6c3.4-25.1,10.9-49.5,20.7-72.8
			c-0.7,1.7-1.4,3.3-2.1,5c26.1-61.5,66.8-116.8,82.5-182.6c8.7-36.3,9.7-74,7.6-111.2c-1.6-30-5.1-61-15.8-89.3
			c-6.7-17.6-15.5-33.6-27.8-47.9c-2.5-2.9-5.1-5.6-7.9-8.2c-8.7-8.1-20.5-12.9-31.9-6.6c-11.2,6.2-14.9,20.6-8.2,31.6
			c4.1,6.7,11.3,11.1,19.2,11.1c7.7,0,15.3-4.2,19-11c5.2-9.7,2.7-23.3-7.5-28.7c-9.8-5.2-23.2-2.8-28.7,7.5
			c-0.1,0.1-0.1,0.3-0.2,0.4c2.5-2.5,5-5,7.5-7.5c-0.1,0.1-0.2,0.1-0.3,0.2c3.5-1,7.1-1.9,10.6-2.9c-0.1,0-0.2,0-0.3,0
			c1.9,0.3,3.7,0.5,5.6,0.8c-0.1,0-0.2-0.1-0.4-0.1c1.7,0.7,3.3,1.4,5,2.1c-0.1-0.1-0.2-0.2-0.4-0.3c1.4,1.1,2.8,2.2,4.3,3.3
			c-0.1-0.1-0.2-0.2-0.3-0.3c1.1,1.4,2.2,2.8,3.3,4.3c-0.2-0.3-0.4-0.6-0.5-0.9c0.7,1.7,1.4,3.3,2.1,5c0-0.2-0.1-0.3-0.1-0.5
			c0.2,1.9,0.5,3.7,0.8,5.6c0-0.2,0-0.3,0-0.5c-1,3.5-1.9,7.1-2.9,10.6c0.1-0.1,0.1-0.3,0.2-0.4c-1.1,1.4-2.2,2.8-3.3,4.3
			c0.1-0.1,0.2-0.2,0.4-0.3c-1.4,1.1-2.8,2.2-4.3,3.3c0.2-0.1,0.5-0.2,0.7-0.3c-1.7,0.7-3.3,1.4-5,2.1c0.2,0,0.5-0.1,0.7-0.1
			c-1.9,0.3-3.7,0.5-5.6,0.8c0.3,0,0.5,0.1,0.8,0.1c-1.9-0.3-3.7-0.5-5.6-0.8c0.3,0.1,0.5,0.2,0.8,0.2c-1.7-0.7-3.3-1.4-5-2.1
			c0.8,0.4,1.5,0.8,2.2,1.3c-1.4-1.1-2.8-2.2-4.3-3.3c5.1,4.3,9.6,9.4,13.7,14.7c-1.1-1.4-2.2-2.8-3.3-4.3
			c6.7,8.8,12.1,18.5,16.4,28.6c-0.7-1.7-1.4-3.3-2.1-5c7.4,17.7,11.6,36.5,14.2,55.4c-0.3-1.9-0.5-3.7-0.8-5.6
			c2.3,17.5,3.4,35.1,3.8,52.7c0.5,20.2-0.2,40.5-2.9,60.6c0.3-1.9,0.5-3.7,0.8-5.6c-3.5,25.2-10.7,49.4-20.6,72.9
			c0.7-1.7,1.4-3.3,2.1-5c-17,40.2-40.1,77.5-58.6,117c-18.7,40.2-32.9,84.3-31.3,129.2c0.9,25.8,7.1,51.1,19.7,73.8
			c5.3,9.6,19.4,13.6,28.7,7.5C581.7,869.6,585.2,857.4,579.5,847.1L579.5,847.1z"/>
	</g>
</g>
<g>
	<g>
		<path class="st0" d="M773.8,839.5c-3.2-11.1-5.5-22.4-7.1-33.8c0.3,1.9,0.5,3.7,0.8,5.6c-3.8-28.3-2.9-57,0.9-85.3
			c-0.3,1.9-0.5,3.7-0.8,5.6c2.8-20.6,7-41,12.2-61.1c4.8-18.7,10.6-36.8,18.1-54.6c-0.7,1.7-1.4,3.3-2.1,5
			c19.8-46.7,47.2-90.6,60.4-140c3.5-13.2,5.5-26.6,7.3-40.1c1.5-11.8,2.5-23.6,2.9-35.5c0.8-25.4-1.3-51.1-6.8-75.9
			c-6-27.1-16.7-53.7-32.4-76.7c-3.1-4.6-7.1-8.1-12.6-9.7c-5-1.4-11.7-0.8-16.2,2.1c-9,5.8-14.1,19-7.5,28.7
			c7.3,10.7,13.4,22.1,18.4,34c-0.7-1.7-1.4-3.3-2.1-5c7.8,18.7,12.7,38.3,15.5,58.3c-0.3-1.9-0.5-3.7-0.8-5.6
			c3.9,28.9,3.1,58.3-0.7,87.1c0.3-1.9,0.5-3.7,0.8-5.6c-1.7,12.6-4,25-7.5,37.3c-3.6,12.4-8.1,24.5-13.1,36.4
			c0.7-1.7,1.4-3.3,2.1-5c-17.3,40.8-40,79.3-54.6,121.3c-7.5,21.5-12.8,44-17.2,66.4c-4.8,24.6-8.1,49.7-8.5,74.8
			c-0.5,27.7,2.7,55.8,10.2,82.4c3,10.6,15,18.2,25.8,14.7C769.9,861.9,777,850.9,773.8,839.5L773.8,839.5z"/>
	</g>
</g>
<g>
	<g>
		<path class="st0" d="M186.7,773.9c35.3-10.2,71.3-18.2,107.8-23.1c-1.9,0.2-3.7,0.5-5.6,0.8c48.1-6.4,97-7.5,145.2-1.1
			c-1.9-0.2-3.7-0.5-5.6-0.8c54.6,7.4,106.2,27.3,160,38.6c55.4,11.6,112.2,17.2,168.8,16.1c31.5-0.6,64.7-7.2,92.2-23.2
			c9.5-5.5,13.7-19.2,7.5-28.7c-6.2-9.6-18.6-13.4-28.7-7.5c-4.2,2.5-8.6,4.6-13.1,6.5c1.7-0.7,3.3-1.4,5-2.1
			c-14.4,6-30.2,10.3-45.6,12.5c1.9-0.3,3.7-0.5,5.6-0.8c-11.3,1.5-22.9,1.5-34.3,1.5c-11,0-21.9-0.2-32.9-0.6
			c-22.3-0.9-44.6-2.9-66.7-5.9c1.9,0.3,3.7,0.5,5.6,0.8c-31.3-4.3-62.3-10.5-92.9-18.8c-30.1-8.1-59.7-17.8-90.3-23.9
			c-63.4-12.7-127.9-12.1-191.7-2.9c-34.4,4.9-68.3,12.6-101.6,22.3c-10.5,3.1-18.2,14.9-14.7,25.8
			C164.3,769.9,175.4,777.2,186.7,773.9L186.7,773.9z"/>
	</g>
</g>
<g>
	<g>
		<path class="st0" d="M212.4,532.5c34.5-2.5,69.3-1.4,103.6,3.2c-1.9-0.3-3.7-0.5-5.6-0.8c38.4,5.2,76.1,14.8,112.3,28.7
			c18.3,7,36.3,14.7,54.7,21.2c18.1,6.4,36.5,12,55.1,17c18.7,5,37.6,9.8,56.7,12.7c21.4,3.2,43,4.5,64.6,4.6
			c39.5,0.2,79-2.9,117.9-9.8c43.1-7.7,85-20.9,124.4-40c4.5-2.2,8.4-7.9,9.7-12.6c1.4-5,0.8-11.7-2.1-16.2
			c-6.6-10.2-18.1-12.7-28.7-7.5c-6.5,3.2-13.1,6.1-19.8,9c1.7-0.7,3.3-1.4,5-2.1c-39.1,16.4-80.4,26.8-122.3,32.5
			c1.9-0.3,3.7-0.5,5.6-0.8c-23.5,3.1-47.1,4.9-70.8,5.4c-24.7,0.5-49.5,0.1-74-3.1c1.9,0.3,3.7,0.5,5.6,0.8
			c-26-3.6-51.9-10.5-77.1-17.9c-24.7-7.2-49.1-15.7-73-25.3c-24.2-9.8-48.5-18.7-73.8-25.3c-26.4-6.8-53.3-11.4-80.3-14.2
			c-29.1-3-58.5-3.4-87.6-1.3c-5.6,0.4-10.8,2.1-14.8,6.2c-3.6,3.6-6.4,9.6-6.2,14.8C191.9,522.2,200.7,533.4,212.4,532.5
			L212.4,532.5z"/>
	</g>
</g>
<g>
	<g>
		<path class="st0" d="M231.5,359.7c15.8-4,31.9-7.1,48.1-9.3c-1.9,0.3-3.7,0.5-5.6,0.8c48.8-6.5,98.2-4.9,146.9,1.5
			c-1.9-0.3-3.7-0.5-5.6-0.8c32.7,4.4,65.1,11,97.1,19c31.8,8,63.2,17.5,94.9,25.8c33,8.6,66.4,15.7,100.4,18.5
			c34.6,2.9,69.3-0.3,103.4-6.6c36.9-6.8,72.9-17.7,108.8-28.6c10.5-3.2,18.2-14.8,14.7-25.8c-3.4-10.6-14.6-18.1-25.8-14.7
			c-43,13.1-86.2,26-130.8,32.1c1.9-0.3,3.7-0.5,5.6-0.8c-31.7,4.2-63.3,4.3-95,0.2c1.9,0.3,3.7,0.5,5.6,0.8
			c-61.3-8.3-119.9-29.4-179.9-43.8c-61.2-14.7-124.4-24.5-187.5-23c-35.7,0.8-71.6,5.3-106.3,14.1c-10.6,2.7-18.1,15.2-14.7,25.8
			C209.2,356.1,220,362.6,231.5,359.7L231.5,359.7z"/>
	</g>
</g>
</svg>
