<?xml version="1.0" encoding="utf-8"?>
<!-- Generator: Adobe Illustrator 27.0.0, SVG Export Plug-In . SVG Version: 6.00 Build 0)  -->
<svg version="1.1" id="Capa_1" xmlns="http://www.w3.org/2000/svg" xmlns:xlink="http://www.w3.org/1999/xlink" x="0px" y="0px"
	 viewBox="0 0 1080 1080" style="enable-background:new 0 0 1080 1080;" xml:space="preserve">
<g>
	<g>
		<g>
			<path d="M1786.9,400.8c-1.7,3.5-3.4,7-5.1,10.5c-1.1,2.2-1.6,4.5-0.9,6.9c0.6,2.1,2.2,4.4,4.1,5.4c4.1,2.2,10,1.2,12.3-3.2
				c9.8-19,20.3-37.7,31.5-56c11.2-18.4,23-36.3,35.5-53.9c7-9.8,14.2-19.6,21.6-29.1c-0.5,0.6-0.9,1.2-1.4,1.8
				c5.8-7.5,11.8-15,17.8-22.3c3-3.6,6-7.3,9.1-10.8c2.9-3.4,5.7-7.3,9.2-10.1c-0.6,0.5-1.2,0.9-1.8,1.4c0.7-0.5,1.4-1,2.2-1.3
				c-0.7,0.3-1.4,0.6-2.1,0.9c0.7-0.3,1.3-0.4,2-0.5c-0.8,0.1-1.6,0.2-2.4,0.3c0.6,0,1.1,0,1.7,0c-0.8-0.1-1.6-0.2-2.4-0.3
				c0.6,0.1,1.1,0.3,1.6,0.5c-0.7-0.3-1.4-0.6-2.1-0.9c1,0.4,1.8,1,2.7,1.6c-0.6-0.5-1.2-0.9-1.8-1.4c3.8,3,7,6.8,10.3,10.3
				c3.5,3.7,7,7.5,10.5,11.3c6.9,7.7,13.7,15.5,20.2,23.5c3.7,4.5,7.3,9.1,10.9,13.7c-0.5-0.6-0.9-1.2-1.4-1.8
				c13.5,17.5,26.1,35.6,38.1,54.2c12,18.6,23.4,37.5,34.7,56.5c6.3,10.7,12.5,21.5,18.8,32.2c4.1-4.1,8.2-8.2,12.3-12.3
				c-11.1-6.4-22.2-12.8-33.4-19.3c-3.9-2.3-8.9-1.2-11.6,2.3c-2.6,3.3-2.7,8.9,0.7,11.8c12.5,10.8,27.2,18.7,43.2,23
				c5.3,1.4,11.8-2.7,11.4-8.7c-0.8-11.4-1.5-22.9-2.3-34.3c-5.9,0.8-11.8,1.6-17.7,2.4c0.9,3.3,1.5,6.6,2,10
				c-0.1-0.8-0.2-1.6-0.3-2.4c0.9,6.9,0.9,13.9,0,20.9c0.1-0.8,0.2-1.6,0.3-2.4c-0.1,0.9-0.3,1.8-0.4,2.7c-0.4,2.5-0.4,4.7,0.9,6.9
				c1.1,1.9,3.2,3.6,5.4,4.1c2.3,0.5,4.9,0.4,6.9-0.9c1.9-1.2,3.8-3.1,4.1-5.4c2.1-12.8,1.7-25.7-1.6-38.3c-1.2-4.3-5.5-7-9.9-6.4
				c-4.2,0.6-8.1,4.4-7.8,8.8c0.8,11.4,1.5,22.9,2.3,34.3c3.8-2.9,7.6-5.8,11.4-8.7c-4.6-1.2-9-2.7-13.3-4.5
				c0.7,0.3,1.4,0.6,2.1,0.9c-7.8-3.3-15.1-7.6-21.8-12.7c0.6,0.5,1.2,0.9,1.8,1.4c-1.4-1.1-2.8-2.2-4.1-3.4
				c-3.6,4.7-7.3,9.4-10.9,14.1c11.1,6.4,22.2,12.8,33.4,19.3c3.3,1.9,8.2,1.5,10.9-1.4c2.7-3,3.5-7.3,1.4-10.9
				c-16.2-28-32.4-55.9-49.8-83.2c-17.7-27.8-36.8-54.7-57.9-80c-10.5-12.6-21.5-24.7-32.9-36.4c-3.3-3.4-6.9-6.7-11.6-8.1
				c-6-1.7-11.6,0.5-16.1,4.4c-2.7,2.3-5,5.4-7.3,8.1c-2.6,3-5.1,6-7.6,9c-20.3,24.4-39.4,49.9-57.2,76.3
				c-17.4,25.9-33.5,52.7-48.2,80.2c-1.8,3.3-3.5,6.7-5.3,10c5.2,3,10.4,6.1,15.5,9.1c1.7-3.5,3.4-7,5.1-10.5
				c1.1-2.2,1.6-4.5,0.9-6.9c-0.6-2.1-2.2-4.4-4.1-5.4C1795.2,395.4,1789.1,396.3,1786.9,400.8L1786.9,400.8z"/>
		</g>
	</g>
	<g>
		<g>
			<path d="M2099.8,492.3c11.4,15.8,22.1,32.1,32,48.8c9.9,16.7,19.2,33.9,27.6,51.4c4.8,9.9,9.3,19.9,13.5,30
				c-0.3-0.7-0.6-1.4-0.9-2.1c6.4,15.3,12.3,30.8,17.6,46.6c1.5,4.5,3,9,4.4,13.5c2.9-3.8,5.8-7.6,8.7-11.4
				c-32.6,0.3-65.3,0.7-97.8-3.1c-29.2-3.4-58.3-7-87.6-8.4c-17.4-0.8-34.8-0.8-52.2,0.1c-3.8,0.2-7.8,2.6-8.7,6.6
				c-0.9,3.8,0.5,8.2,4.1,10.2c7.3,3.9,14.2,8.4,20.7,13.4c-0.6-0.5-1.2-0.9-1.8-1.4c5.5,4.2,10.6,8.8,15.5,13.8
				c3.6-4.7,7.3-9.4,10.9-14.1c-16.8-8.6-32.8-18.7-47.7-30.2c0.6,0.5,1.2,0.9,1.8,1.4c-1.1-0.9-2.2-1.7-3.3-2.6
				c-0.6,4.7-1.2,9.4-1.8,14.1c7.2-3.6,14.5-7.1,21.9-10.2c-0.7,0.3-1.4,0.6-2.1,0.9c15.2-6.4,31.1-11.9,47.5-14.1
				c-0.8,0.1-1.6,0.2-2.4,0.3c2.8-0.4,5.5-0.6,8.3-0.8c2.4-0.1,4.7-0.9,6.4-2.6c1.6-1.6,2.7-4.1,2.6-6.4c-0.2-4.7-4-9.2-9-9
				c-23.2,1.1-45.6,9.4-66.6,18.7c-5.3,2.4-10.6,4.9-15.7,7.5c-2.5,1.3-3.9,3.9-4.3,6.6c-0.3,2.6,0.3,5.8,2.5,7.6
				c12.9,10.2,26.5,19.6,40.8,27.7c4,2.3,8,4.4,12,6.5c4,2.1,8.8,1.3,11.6-2.3c2.7-3.5,2.5-8.6-0.7-11.8c-11.1-11.4-24-21.1-38-28.6
				c-1.5,5.6-3,11.2-4.5,16.8c30.3-1.6,60.5-0.2,90.7,2.7c14.6,1.4,29.2,3.2,43.7,4.9c16.1,1.9,32.2,3.1,48.3,3.6
				c18.3,0.5,36.7,0.3,55,0.1c5.7-0.1,10.4-5.7,8.7-11.4c-8.5-27.3-18.8-54-30.7-80c-11.5-25.3-24.7-49.8-39.3-73.5
				c-8.2-13.3-16.9-26.3-26-39c-1.4-2-3-3.5-5.4-4.1c-2.2-0.6-5-0.3-6.9,0.9c-1.9,1.2-3.6,3.1-4.1,5.4
				C2098.4,487.6,2098.4,490.3,2099.8,492.3L2099.8,492.3z"/>
		</g>
	</g>
	<g>
		<g>
			<path d="M1915.2,665.1c-33.3-0.6-66.7-0.5-100,0.1c-33.2,0.6-66.3,1.8-99.4,3.6c-18.6,1-37.2,2.2-55.7,3.6
				c2.6,4.5,5.2,9,7.8,13.5c10.5-19,21-37.9,31.6-56.9c10.5-19,21-37.9,31.6-56.9c5.9-10.7,11.9-21.4,17.8-32.1
				c2.2-3.9,1.3-8.9-2.3-11.6c-1.5-1.2-3.5-2-5.5-1.9c-2.5,0.1-4.4,1.1-6.4,2.6c-0.7,0.6-1.4,1.1-2.1,1.7c0.6-0.5,1.2-0.9,1.8-1.4
				c-8.8,6.8-18.5,12.4-28.7,16.7c0.7-0.3,1.4-0.6,2.1-0.9c-1.8,0.8-3.6,1.5-5.4,2.1c2.9,5,5.8,10,8.8,15c5-4.4,10.1-8.6,15.3-12.7
				c-0.6,0.5-1.2,0.9-1.8,1.4c7.9-6.1,16-11.7,24.5-17c-4.5-2.6-9-5.2-13.5-7.8c1,20.2,0.2,40.5-2.5,60.5c0.1-0.8,0.2-1.6,0.3-2.4
				c-0.2,1.8-0.5,3.6-0.8,5.5c-0.4,2.5-0.4,4.7,0.9,6.9c1.1,1.9,3.2,3.6,5.4,4.1c2.3,0.5,4.9,0.4,6.9-0.9c1.8-1.2,3.8-3.1,4.1-5.4
				c2.7-17.7,4.1-35.6,4-53.6c0-4.9-0.2-9.9-0.4-14.8c-0.2-3.2-1.6-6.1-4.5-7.8c-2.7-1.6-6.4-1.7-9.1,0
				c-14.7,9.2-28.6,19.6-41.6,31.1c-2.9,2.5-3.5,7.7-1.4,10.9c0.8,1.3,1.9,2.4,3.2,3.2c1.8,1.1,4.9,1.6,6.9,0.9
				c7.3-2.7,14.4-5.9,21.1-9.7c6.8-3.8,13.1-8.3,19.1-13.1c-4.7-3.6-9.4-7.3-14.1-10.9c-10.5,19-21,37.9-31.6,56.9
				c-10.5,19-21,37.9-31.6,56.9c-5.9,10.7-11.9,21.4-17.8,32.1c-1.6,2.8-1.7,6.3,0,9.1c1.5,2.6,4.7,4.7,7.8,4.5
				c33.2-2.4,66.5-4.3,99.8-5.6c33.1-1.3,66.3-1.9,99.4-2c18.6-0.1,37.2,0.1,55.8,0.4c4.7,0.1,9.2-4.2,9-9
				C1924,669.2,1920.2,665.2,1915.2,665.1L1915.2,665.1z"/>
		</g>
	</g>
</g>
<g>
	<polygon points="2163,1208.2 2163,1224 2033.5,1224 2023.8,1222.9 2022.9,1225.7 2030.9,1231.1 2064.8,1265 2052.9,1277 
		1997.6,1221.7 1997.6,1209.5 2052.9,1154.2 2064.8,1166.2 2030.9,1200.1 2022.9,1205.5 2023.8,1208.3 2033.5,1207.2 2142.7,1207.2 
		2065.3,1075.6 2080.1,1067 2162.4,1207.2 	"/>
</g>
<g>
	<polygon points="1766,1225.6 1765.6,1217.6 1830.4,1105.4 1836.2,1097.7 1834.2,1095.5 1825.6,1099.7 1779.2,1112.1 1774.8,1095.8 
		1850.3,1075.5 1860.9,1081.6 1881.1,1157.2 1864.8,1161.5 1852.4,1115.1 1851.7,1105.5 1848.8,1104.9 1845,1113.8 1790.4,1208.5 
		1943.1,1207.2 1943.1,1224.3 1780.5,1225.6 	"/>
</g>
<g>
	<polygon points="1955,855 1964.4,854.6 2029.2,966.8 2033,975.7 2035.9,975.1 2036.6,965.5 2049,919.1 2065.4,923.5 2045.1,999 
		2034.6,1005.1 1959,984.9 1963.4,968.6 2009.8,981 2018.5,985.2 2020.4,983 2014.6,975.2 1960,880.6 1884.7,1013.5 1869.9,1004.9 
		1950.1,863.5 	"/>
</g>
<g>
	<g>
		<path d="M1200.4,694.8l-71.2-71.2v-15.7l71.2-71.2l15.4,15.4l-43.8,43.7l-10.3,6.9l1.2,3.6l12.4-1.5h166.9v21.7h-166.9l-12.4-1.5
			l-1.2,3.6l10.3,6.9l43.8,43.8L1200.4,694.8z"/>
	</g>
</g>
<polygon points="-592,174 -857,633 -327,633 "/>
<g>
	<g>
		<path d="M-1098.4,843.1c2.3,33,4.6,66,5.2,99.1c0.6,32.7-0.9,65.3-4.4,97.8c-1.8,16.5-3.7,33-4.9,49.6
			c-1.1,16.2-1.4,32.5-1.2,48.8c0.3,32.9,1.3,65.7,2.1,98.6c0.8,37.4,1.7,74.7,2.5,112.1c0.1,5.5,2.3,11,6.2,14.8
			c3.6,3.6,9.6,6.4,14.8,6.2c11.2-0.5,21.3-9.2,21-21c-1.5-66.2-3.3-132.5-4.5-198.7c-0.3-16.6-0.3-33.2,0.5-49.8
			c0.8-16.3,2.5-32.4,4.2-48.6c1.8-16.2,3.6-32.4,4.6-48.6c1-16.3,1.4-32.7,1.3-49c-0.2-37.1-2.8-74.1-5.3-111.1
			c-0.4-5.6-2.1-10.8-6.2-14.8c-3.6-3.6-9.6-6.4-14.8-6.2c-5.4,0.2-11.1,2-14.8,6.2C-1095.8,832.1-1098.8,837.5-1098.4,843.1
			L-1098.4,843.1z"/>
	</g>
</g>
<g>
	<g>
		<path d="M-1077.6,838.4c7.4-1.3,14.8-2.6,22.2-3.7c3.7-0.6,7.4-1.1,11.1-1.6c0.9-0.1,1.7-0.3,2.6-0.4c-0.2,0-3.8,0.5-1.3,0.2
			c2-0.3,4-0.5,6-0.8c15.2-1.9,30.4-3.3,45.7-4.3c30.3-2,60.7-2.3,91-0.9c30.1,1.4,60.3,4.1,90.1,8.3c-0.7-0.1-4.4-0.6-0.4,0
			c0.9,0.1,1.7,0.2,2.6,0.4c1.7,0.2,3.5,0.5,5.2,0.7c4,0.6,8,1.2,12.1,1.8c7.5,1.1,14.9,2.3,22.4,3.6c14.9,2.5,29.8,5.1,44.7,7.9
			c60.1,11.3,119.8,25.1,180.1,35.3c60.9,10.3,123.1,18,185,19c58.9,1,118.9-9.2,166.2-46.5c5-3.9,9.7-8.1,14.1-12.7
			c7.7-7.8,8.4-22,0-29.7c-8.3-7.6-21.5-8.4-29.7,0c-2.2,2.3-4.5,4.5-6.8,6.6c-2.3,2-5.3,3.8-7.3,6.1c0-0.1,3.3-2.4,1.4-1.1
			c-0.6,0.4-1.2,0.9-1.8,1.3c-1.4,1-2.8,2-4.2,2.9c-2.6,1.8-5.3,3.5-8,5.1c-5.5,3.2-11.1,6.1-16.9,8.8c-1.3,0.6-2.7,1.1-4,1.8
			c0,0,3.8-1.5,1.6-0.7c-0.9,0.3-1.8,0.7-2.7,1.1c-3,1.1-6,2.2-9,3.2c-12.6,4.2-25.5,7.2-38.6,9.1c-0.8,0.1-1.7,0.2-2.5,0.4
			c-2.5,0.4,1.2-0.1,1.3-0.2c-1.8,0.5-4.1,0.5-6,0.7c-3.7,0.4-7.4,0.7-11.1,1c-7.4,0.5-14.9,0.8-22.3,0.9c-30,0.4-60.1-2-90-4.8
			c-15.1-1.4-30.2-3.1-45.2-5c-1.7-0.2-3.5-0.4-5.2-0.7c-0.9-0.1-1.7-0.2-2.6-0.3c-3.2-0.4,3.6,0.5,0.4,0.1c-3.8-0.5-7.5-1-11.3-1.6
			c-7.5-1.1-15-2.2-22.5-3.4c-59.9-9.7-119-23.3-178.5-34.7c-60.5-11.7-121.6-21.6-183.2-25.6c-61.4-4-122.8-1-183.6,8.3
			c-7.4,1.1-14.8,2.4-22.2,3.7c-10.8,2-17.9,15.7-14.7,25.8C-1099.7,835.4-1089.2,840.5-1077.6,838.4L-1077.6,838.4z"/>
	</g>
</g>
<g>
	<g>
		<path d="M-1077.6,1374.7c7.4-1.3,14.8-2.6,22.2-3.7c3.7-0.6,7.4-1.1,11.1-1.6c0.9-0.1,1.7-0.3,2.6-0.4c-0.2,0-3.8,0.5-1.3,0.2
			c2-0.3,4-0.5,6-0.8c15.2-1.9,30.4-3.3,45.7-4.3c30.3-2,60.7-2.3,91-0.9c30.1,1.4,60.3,4.1,90.1,8.3c-0.7-0.1-4.4-0.6-0.4,0
			c0.9,0.1,1.7,0.2,2.6,0.4c1.7,0.2,3.5,0.5,5.2,0.7c4,0.6,8,1.2,12.1,1.8c7.5,1.1,14.9,2.3,22.4,3.6c14.9,2.5,29.8,5.1,44.7,7.9
			c60.1,11.3,119.8,25.1,180.1,35.3c60.9,10.3,123.1,18,185,19c58.9,1,118.9-9.2,166.2-46.5c5-3.9,9.7-8.1,14.1-12.7
			c7.7-7.8,8.4-22,0-29.7c-8.3-7.6-21.5-8.4-29.7,0c-2.2,2.3-4.5,4.5-6.8,6.6c-2.3,2-5.3,3.8-7.3,6.1c0-0.1,3.3-2.4,1.4-1.1
			c-0.6,0.4-1.2,0.9-1.8,1.3c-1.4,1-2.8,2-4.2,2.9c-2.6,1.8-5.3,3.5-8,5.1c-5.5,3.2-11.1,6.1-16.9,8.8c-1.3,0.6-2.7,1.1-4,1.8
			c0,0,3.8-1.5,1.6-0.7c-0.9,0.3-1.8,0.7-2.7,1.1c-3,1.1-6,2.2-9,3.2c-12.6,4.2-25.5,7.2-38.6,9.1c-0.8,0.1-1.7,0.2-2.5,0.4
			c-2.5,0.4,1.2-0.1,1.3-0.2c-1.8,0.5-4.1,0.5-6,0.7c-3.7,0.4-7.4,0.7-11.1,1c-7.4,0.5-14.9,0.8-22.3,0.9c-30,0.4-60.1-2-90-4.8
			c-15.1-1.4-30.2-3.1-45.2-5c-1.7-0.2-3.5-0.4-5.2-0.7c-0.9-0.1-1.7-0.2-2.6-0.3c-3.2-0.4,3.6,0.5,0.4,0.1c-3.8-0.5-7.5-1-11.3-1.6
			c-7.5-1.1-15-2.2-22.5-3.4c-59.9-9.7-119-23.3-178.5-34.7c-60.5-11.7-121.6-21.6-183.2-25.6c-61.4-4-122.8-1-183.6,8.3
			c-7.4,1.1-14.8,2.4-22.2,3.7c-10.8,2-17.9,15.7-14.7,25.8C-1099.7,1371.6-1089.2,1376.8-1077.6,1374.7L-1077.6,1374.7z"/>
	</g>
</g>
<g>
	<g>
		<path d="M-200.7,823.4c4.9,70.4,8.4,140.9,10.5,211.4c2,70.2,2.7,140.4,1.9,210.5c-0.5,39.4-1.4,78.8-2.7,118.1
			c-0.4,11,9.9,21.5,21,21c11.7-0.5,20.6-9.2,21-21c2.4-70.5,3.4-141.1,2.9-211.6c-0.5-70.2-2.3-140.4-5.7-210.5
			c-1.9-39.3-4.2-78.7-6.9-118c-0.4-5.6-2.1-10.8-6.2-14.8c-3.6-3.6-9.6-6.4-14.8-6.2c-5.4,0.2-11.1,2-14.8,6.2
			C-198.1,812.5-201.1,817.9-200.7,823.4L-200.7,823.4z"/>
	</g>
</g>
<g>
	<g>
		<path d="M-565.3,982.6c-4.6-3.8-9.3-7.2-14.8-9.6c-5.4-2.3-10.7-4.5-16.5-5.6c-9.8-1.9-19.8-2.7-29.7-1.6
			c-9.3,1-18.5,2.6-27.3,6.2c-5,2.1-10,4.2-14.7,7c-1.6,1-3.2,2.1-4.6,3.2c-2.8,2.1-5.7,4.3-8.3,6.7c-3.9,3.6-7.3,7.9-10.3,12.3
			c-2.9,4.2-4.9,8.9-6.8,13.6c-1.5,3.8-2.1,7.7-2.7,11.8c-0.5,4.1-1,8-0.7,12.1c0.8,10,3.1,19.2,7.9,28c2.3,4.1,5.2,7.9,8.4,11.4
			c1,1.1,2.1,2.1,3.2,3c2.5,2,5,4.1,7.8,5.7c2.8,1.6,5.9,2.8,8.9,4c1.7,0.7,3.4,1.2,5.2,1.5c6.5,1.3,13,1.8,19.6,1.3
			c4.8-0.3,9.5-0.9,14.3-1.1c4-0.2,8-0.1,12,0.2c1.9,0.1,3.9,0.4,5.8,0.6c-1.9-0.2-3.7-0.5-5.6-0.8c8.8,1.2,17.5,3.6,25.7,7
			c-1.7-0.7-3.3-1.4-5-2.1c7.7,3.3,15,7.4,21.6,12.5c-1.4-1.1-2.8-2.2-4.3-3.3c5.9,4.6,11.2,9.8,15.8,15.7c-1.1-1.4-2.2-2.8-3.3-4.3
			c4.3,5.7,7.9,11.8,10.7,18.4c-0.7-1.7-1.4-3.3-2.1-5c2.9,7.1,4.9,14.5,6,22.1c-0.3-1.9-0.5-3.7-0.8-5.6c1,7.4,1,15,0,22.4
			c0.2-1.9,0.5-3.7,0.8-5.6c-0.9,6.8-2.7,13.4-5.3,19.7c0.7-1.7,1.4-3.3,2.1-5c-2.5,5.8-5.7,11.3-9.6,16.3c1.1-1.4,2.2-2.8,3.3-4.3
			c-4.3,5.5-9.2,10.3-14.7,14.6c1.4-1.1,2.8-2.2,4.3-3.3c-6.6,5-13.8,9.2-21.4,12.4c1.7-0.7,3.3-1.4,5-2.1
			c-8.4,3.5-17.3,5.9-26.4,7.2c1.9-0.3,3.7-0.5,5.6-0.8c-9,1.2-18.2,1.1-27.2-0.1c1.9,0.2,3.7,0.5,5.6,0.8
			c-10.1-1.4-19.9-4.1-29.3-8c1.7,0.7,3.3,1.4,5,2.1c-9.5-4-18.4-9.2-26.6-15.5c1.4,1.1,2.8,2.2,4.3,3.3
			c-7.6-5.9-14.6-12.7-20.5-20.4c1.1,1.4,2.2,2.8,3.3,4.3c-5.4-7.1-10-14.8-13.5-23c0.7,1.7,1.4,3.3,2.1,5c-2.3-5.5-4.1-11.2-5.3-17
			c-0.6-2.7-1.9-5.1-3.8-7.1c-1.5-2.3-3.4-4.1-5.9-5.4c-2.4-1.5-5-2.4-7.8-2.5c-2.8-0.6-5.6-0.5-8.4,0.4c-5.1,1.6-10,4.8-12.6,9.7
			c-0.7,1.7-1.4,3.3-2.1,5c-1,3.7-1,7.4,0,11.2c1.8,8.6,5,16.7,8.6,24.7c2.9,6.4,6.5,12.4,10.6,18.1c5.1,7,10.6,13.7,16.9,19.6
			c6.4,6,13.3,11.4,20.6,16.1c5.9,3.9,12.2,7.2,18.7,10c8.1,3.5,16.2,6.6,24.9,8.5c8.6,1.9,17.4,3.1,26.2,3.3
			c8.9,0.2,17.8-0.8,26.5-2.3c9.5-1.7,18.3-5,27.1-8.7c7.2-3.1,14-7,20.2-11.7c4.4-3.3,8.7-6.7,12.7-10.6c3.9-3.9,7.3-8.2,10.6-12.6
			c5.7-7.6,9.8-16.2,12.9-25.2c1.3-3.7,2.3-7.5,3-11.3c1-5.5,1.8-11.1,2-16.7c0.4-9.4-0.7-19.1-2.8-28.3c-0.9-3.9-2-7.7-3.4-11.4
			c-1.9-5.2-4.1-10.4-6.8-15.3c-1.9-3.5-4-6.8-6.3-10c-3.3-4.4-6.7-8.8-10.5-12.8c-2.7-2.8-5.5-5.3-8.6-7.7
			c-4.4-3.5-8.8-6.9-13.6-9.8c-3.3-2-6.7-3.8-10.2-5.4c-5.1-2.3-10.3-4.5-15.6-6.3c-9-3-18.5-4.5-27.9-5.4
			c-8.5-0.8-16.9-0.1-25.4,0.6c-4.7,0.4-9.4,0.6-14,0c1.9,0.2,3.7,0.5,5.6,0.8c-2.8-0.4-5.5-1.1-8.1-2.1c1.7,0.7,3.3,1.4,5,2.1
			c-2.3-1-4.4-2.2-6.4-3.7c1.4,1.1,2.8,2.2,4.3,3.3c-2.2-1.7-4.1-3.7-5.8-5.8c1.1,1.4,2.2,2.8,3.3,4.3c-1.9-2.6-3.5-5.3-4.8-8.3
			c0.7,1.7,1.4,3.3,2.1,5c-1.5-3.6-2.5-7.4-3-11.3c0.2,1.9,0.5,3.7,0.8,5.6c-0.5-3.9-0.5-7.9,0-11.8c-0.3,1.9-0.5,3.7-0.8,5.6
			c0.5-3.5,1.4-6.9,2.8-10.1c-0.7,1.7-1.4,3.3-2.1,5c1.4-3.4,3.4-6.5,5.6-9.4c-1.1,1.4-2.2,2.8-3.3,4.3c2.7-3.4,5.8-6.5,9.2-9.2
			c-1.4,1.1-2.8,2.2-4.3,3.3c4.4-3.4,9.2-6.1,14.2-8.2c-1.7,0.7-3.3,1.4-5,2.1c6.4-2.7,13.2-4.5,20.1-5.4c-1.9,0.3-3.7,0.5-5.6,0.8
			c7.3-1,14.7-1,22-0.1c-1.9-0.3-3.7-0.5-5.6-0.8c5.2,0.7,10.3,2,15.2,4c-1.7-0.7-3.3-1.4-5-2.1c3.5,1.5,6.9,3.4,9.9,5.7
			c-1.4-1.1-2.8-2.2-4.3-3.3c0.3,0.3,0.6,0.5,1,0.8c1.9,2,4.2,3.5,6.8,4.3c2.5,1.3,5.2,1.9,8.1,1.8c2.9,0.1,5.6-0.5,8.1-1.8
			c2.6-0.8,4.9-2.3,6.8-4.3c3.7-4,6.4-9.3,6.2-14.8c-0.3-1.9-0.5-3.7-0.8-5.6C-560.9,988.3-562.7,985.3-565.3,982.6L-565.3,982.6z"
			/>
	</g>
</g>
<g>
	<g>
		<path d="M-627.4,947.2c-0.1,43.6-1.2,87.2-3.5,130.7c-2.2,43.3-5.4,86.6-9.7,129.7c-2.4,24.3-5.2,48.6-8.2,72.8
			c-0.1,2.9,0.5,5.6,1.8,8.1c0.8,2.6,2.3,4.9,4.3,6.8c3.6,3.6,9.6,6.4,14.8,6.2c5.4-0.2,11.1-2,14.8-6.2c1.1-1.4,2.2-2.8,3.3-4.3
			c1.9-3.3,2.9-6.8,2.9-10.6c5.5-43.2,9.9-86.6,13.3-130.1c3.4-43.2,5.7-86.5,7-129.9c0.7-24.4,1.1-48.9,1.2-73.3
			c0-5.4-2.4-11-6.2-14.8c-3.6-3.6-9.6-6.4-14.8-6.2c-5.4,0.2-11.1,2-14.8,6.2C-625,936.5-627.4,941.5-627.4,947.2L-627.4,947.2z"/>
	</g>
</g>
<g>
	<g>
		<path d="M430.3,1134c-45.3-10.7-85.6,24.2-99.7,65c-7.3,21.1-8.5,44.2-8.4,66.4c0,22.7,0.2,45.2-1,67.9
			c-1.3,23.2-2.6,46.3-1.7,69.6c0.9,23.1,3.3,46,5.4,69c2.1,23.3,3.7,46.7,3.3,70.1c-0.4,23.4-2.2,46.7-3,70.1
			c-1.5,47.1,4.8,93.5,8.4,140.3c3.6,46.5,3.9,93.2,3.1,139.9c-0.4,22.6-1.8,45.3-1.6,67.8c0.2,22.3,4.8,46,21.8,61.9
			c15.7,14.7,36.5,20.3,57.2,23.1c22.2,3,44.5,3.9,66.9,3.5c21.4-0.4,42.7-1.9,64-3.2c21-1.3,42-2,63-2.6
			c43.4-1.1,86.7-5.1,129.9-9.8c21.8-2.4,44.1-3.8,65.6-8.2c20.9-4.3,41.1-14.5,52.4-33.4c11.2-18.7,11-41.2,10.9-62.3
			c-0.1-19.5-0.2-39.1-0.5-58.6c-1-83.1-3-166.3-5.4-249.4c-2.6-88.4-5.9-176.7-9.1-265.1c-0.9-23.6-1.7-47.3-2.6-70.9
			c-0.8-21.2-0.8-42.6-3.6-63.6c-2.8-20.6-9.2-40.8-23.9-56.1c-16-16.7-38.5-22.6-60.7-25c-21.4-2.3-43.1-1.9-64.6-2.6
			c-23.5-0.7-47.1-1.4-70.6-2.1c-47.4-1.4-94.7-2.8-142.1-4.2c-23-0.7-45.9-1.4-68.9-2.1c-11-0.3-21.5,9.9-21,21
			c0.5,11.7,9.2,20.6,21,21c91.8,2.7,183.6,5.5,275.4,8.2c21.5,0.6,43.1,0.6,64.5,2.2c2.1,0.2,4.1,0.3,6.2,0.5
			c0.5,0.1,5,0.7,1.3,0.1c-3.7-0.6,0.8,0.1,1.3,0.2c4.4,0.7,8.8,1.7,13.1,3.1c1.1,0.3,2.1,0.7,3.1,1.1c1.6,0.6,3.6,2.2-0.7-0.4
			c1.9,1.1,4,1.9,5.9,3c0.6,0.3,4.2,3,4.4,2.9c-0.7-0.6-1.4-1.1-2.1-1.7c0.7,0.6,1.4,1.1,2,1.7c1,0.9,1.9,1.7,2.8,2.7
			c0.6,0.6,1.1,1.3,1.7,1.9c3.1,3.2-2.6-4-0.2-0.3c0.9,1.4,1.9,2.7,2.7,4.2c1.1,1.8,2,3.7,2.9,5.5c1.9,3.9-1.4-3.7-0.4-1
			c0.5,1.4,1,2.8,1.5,4.2c1.2,3.7,2.2,7.4,2.9,11.2c0.4,2.1,0.8,4.3,1.1,6.5c0.3,1.7-0.4,2.8-0.2-1.7c-0.1,1.3,0.3,2.7,0.4,3.9
			c2.1,20.7,2.1,41.7,2.9,62.5c3.3,89.7,6.8,179.5,9.7,269.2c2.5,79.4,4.7,158.8,6.1,238.2c0.7,39,1.3,78.1,1.5,117.1
			c0.1,9.3,0.2,18.6,0,27.9c0,1-0.4,12.8-0.8,12.7c0.1-0.9,0.3-1.9,0.4-2.8c-0.1,0.9-0.3,1.8-0.5,2.8c-0.2,0.9-0.3,1.8-0.5,2.7
			c-0.6,2.5-1.4,4.8-2.1,7.3c-0.8,2.9,2.4-4.7,0.3-0.6c-0.4,0.8-0.8,1.6-1.3,2.4c-0.7,1.2-1.5,2.3-2.2,3.5c-1,1.7-2.1,1.2,0.9-1.2
			c-1.5,1.2-2.9,3-4.3,4.4c-1.4,1.4-2,0.4,1.4-1c-1,0.4-2,1.5-3,2.1c-1.7,1.1-3.5,2.1-5.4,3c-0.6,0.3-1.7,0.6-2.3,1
			c3.8-2.8,2.6-1.1,0.4-0.3c-4,1.4-8.1,2.5-12.3,3.4c-4,0.9-8.1,1.5-12.2,2.1c-3,0.4,5.6-0.7,1.1-0.2c-0.8,0.1-1.7,0.2-2.5,0.3
			c-3,0.3-5.9,0.7-8.9,1c-10.8,1.2-21.6,2.4-32.3,3.6c-20.9,2.3-41.7,4.4-62.6,6.1c-41.8,3.4-83.7,3.4-125.6,6
			c-40.7,2.5-81.9,6-122.6,1.8c-2.1-0.2-4.7-0.1-6.7-0.8c5.2,1.7,1.3,0.2-0.3-0.1c-1-0.1-1.9-0.3-2.9-0.5c-4.4-0.7-8.9-1.6-13.2-2.8
			c-2.2-0.6-4.3-1.2-6.4-1.9c-0.8-0.3-1.7-0.6-2.5-0.9c-4.4-1.5,4.3,2.2,0.1,0c-1.8-0.9-3.5-1.8-5.2-2.8c-0.9-0.6-1.8-1.2-2.8-1.8
			c-3.8-2.3,3.4,3.1,0.1,0.1c-1.6-1.5-3.1-3-4.6-4.6c-2.2-2.3,1.1,0.9,0.8,1.1c-0.1,0.1-1.7-2.5-1.8-2.8c-0.6-1-1.1-2-1.6-2.9
			c-1.9-3.3,0.7,1.1,0.5,1.3c0.2-0.2-2.3-7.2-2.4-7.7c-0.5-2-0.8-4-1.2-6c-0.6-3,0.5,5.5,0.1,0.8c-0.1-0.9-0.2-1.8-0.2-2.8
			c-0.4-4.9-0.4-9.8-0.4-14.7c0.6-44.6,2.5-89.2,1.7-133.8c-0.4-23-1.4-46.1-3.2-69c-1.7-22.4-4.2-44.7-6.1-67
			c-1.9-23-3.1-45.9-2.4-69c0.6-22.5,2.3-45,3-67.5c1.3-45.2-5.4-89.9-8.1-135c-2.6-44.8,3-89.4,2.4-134.2
			c-0.1-10.4-0.3-20.7,0.1-31.1c0.2-5,0.6-10,1.1-15c0.1-1,0.2-2.1,0.4-3.1c-1,5.7,0,0.4,0.2-0.6c0.4-2.6,0.9-5.1,1.5-7.7
			c1.2-5,2.8-9.9,4.4-14.8c0.7-2.2,1.3-0.6-0.6,1.4c0.6-0.6,1-2.1,1.4-3c1.1-2.2,2.2-4.3,3.4-6.3c1.1-1.9,2.3-3.7,3.6-5.5
			c0.5-0.7,1.1-1.4,1.6-2.1c-2.6,4.2-1.7,2.2-0.8,1.1c3.2-3.6,6.4-7.1,10.1-10.2c0.7-0.6,1.4-1.1,2-1.6c-3.8,3.4-2.3,1.7-1.2,1
			c1.8-1.2,3.5-2.4,5.4-3.4c1.5-0.8,4.4-1.7,5.6-2.9c-2,1.9-3.8,1.4-1.6,0.7c1-0.3,1.9-0.7,2.9-1c1.8-0.6,3.6-1,5.4-1.4
			c0.4-0.1,0.8-0.2,1.2-0.2c2.3-0.4,1.6-0.3-1.9,0.2c0.6,0.1,1.9-0.2,2.5-0.2c2.1-0.1,4.1,0,6.2,0.1c2.4,0.1,0.8,1.2-1.8-0.3
			c0.9,0.5,2.7,0.5,3.7,0.8c10.7,2.5,23.2-3.3,25.8-14.7C447.4,1149.1,441.7,1136.7,430.3,1134L430.3,1134z"/>
	</g>
</g>
<g>
	<g>
		<path d="M530.1,1234c8.8,2.1,18,1.9,26.9,2.1c7.6,0.2,15.2,0.3,22.7,0.5c15,0.3,30,0.6,45,0.9c8.5,0.2,17,0.3,25.5,0.5
			c2.9,0.1,5.6-0.5,8.1-1.8c2.6-0.8,4.9-2.3,6.8-4.3c2-1.9,3.5-4.2,4.3-6.8c1.3-2.5,1.9-5.2,1.8-8.1c-0.2-5.4-2-11.1-6.2-14.8
			c-4.2-3.8-9.1-6-14.8-6.2c-29.1-0.6-58.3-1.2-87.4-1.8c-4-0.1-8-0.2-12-0.2c-4-0.1-8,0-11.9-0.6c1.9,0.2,3.7,0.5,5.6,0.8
			c-1.1-0.2-2.1-0.4-3.2-0.6c-5.4-1.3-11.3-0.7-16.2,2.1c-2.4,1.3-4.4,3.1-5.9,5.4c-1.9,2-3.1,4.4-3.8,7.1c-1.2,5.4-1,11.4,2.1,16.2
			C520.5,1228.9,524.7,1232.7,530.1,1234L530.1,1234z"/>
	</g>
</g>
<g>
	<g>
		<path d="M583.5,1868.4c-3.2,0.8-6.3,2.2-9.4,3.6c-1.5,0.7-2.9,1.5-4.2,2.5c-2.7,2-5.5,4-7.8,6.4c-2.3,2.4-4.3,5.1-6.2,7.8
			c-2.9,4.1-4.9,9-6.4,13.7c-0.5,1.6-0.9,3.3-1.2,4.9c-0.6,3.4-1.1,6.9-1.2,10.4c0,1.8,0.1,3.5,0.3,5.3c0.4,3.5,0.8,7.1,1.7,10.5
			c0.5,1.7,1,3.5,1.7,5.1c1.3,3.2,2.6,6.5,4.4,9.5c1.3,2.3,2.9,4.4,4.5,6.5c1.6,2.1,3.2,4.2,5.1,6c2.5,2.5,5.4,4.6,8.2,6.6
			c1.5,1.1,3,2,4.6,2.8c4.6,2.3,9.7,4.4,14.8,5.2c3.5,0.5,7,1.1,10.6,1.2c3.6,0,7.2-0.6,10.7-1.1c5.3-0.8,10.1-2.7,14.9-5
			c1.6-0.8,3.2-1.6,4.6-2.7c2.8-1.9,5.6-4,8-6.4c2.4-2.4,4.5-5.3,6.5-8c1-1.4,1.9-2.9,2.6-4.4c2.2-4.6,4.3-9.4,5.1-14.5
			c0.5-3.4,1.1-6.9,1.1-10.4c0-3.4-0.6-7-1.2-10.3c-0.3-1.7-0.7-3.3-1.3-4.9c-1.2-3.3-2.5-6.6-4.3-9.6c-1.8-3-4-5.7-6.3-8.4
			c-1.2-1.4-2.5-2.7-3.9-3.8c-4.2-3.4-8.4-6.6-13.3-8.7c-3.4-1.4-6.7-3-10.3-3.9c-3.8-1-7.8-1.4-11.7-1.8
			c-6.2-0.6-12.4,0.2-18.5,1.2c-2.2,0.4-4.4,0.9-6.5,1.5c-5.1,1.4-9.9,5.1-12.6,9.7c-1.5,2.4-2.4,5-2.5,7.8
			c-0.6,2.8-0.5,5.6,0.4,8.4c1.6,5.1,4.8,10,9.7,12.6c5,2.6,10.6,3.7,16.2,2.1c2.7-0.7,5.4-1.3,8.2-1.7c-1.9,0.3-3.7,0.5-5.6,0.8
			c4.3-0.6,8.6-0.6,12.9,0c-1.9-0.2-3.7-0.5-5.6-0.8c3.4,0.5,6.6,1.3,9.8,2.6c-1.7-0.7-3.3-1.4-5-2.1c2.9,1.2,5.7,2.8,8.2,4.7
			c-1.4-1.1-2.8-2.2-4.3-3.3c2.2,1.7,4.1,3.7,5.9,5.8c-1.1-1.4-2.2-2.8-3.3-4.3c1.4,1.9,2.6,3.9,3.6,6.1c-0.7-1.7-1.4-3.3-2.1-5
			c1,2.3,1.6,4.7,2,7.1c-0.3-1.9-0.5-3.7-0.8-5.6c0.4,2.7,0.3,5.4,0,8.1c0.3-1.9,0.5-3.7,0.8-5.6c-0.4,3-1.2,5.8-2.3,8.6
			c0.7-1.7,1.4-3.3,2.1-5c-1,2.4-2.4,4.7-3.9,6.7c1.1-1.4,2.2-2.8,3.3-4.3c-1.6,2-3.3,3.8-5.3,5.3c1.4-1.1,2.8-2.2,4.3-3.3
			c-2.1,1.6-4.3,2.8-6.7,3.9c1.7-0.7,3.3-1.4,5-2.1c-2.8,1.2-5.8,2-8.9,2.4c1.9-0.3,3.7-0.5,5.6-0.8c-3.2,0.4-6.4,0.4-9.6,0
			c1.9,0.3,3.7,0.5,5.6,0.8c-2.9-0.4-5.8-1.2-8.5-2.3c1.7,0.7,3.3,1.4,5,2.1c-2.6-1.1-5.1-2.6-7.3-4.3c1.4,1.1,2.8,2.2,4.3,3.3
			c-2.4-1.9-4.6-4.1-6.5-6.6c1.1,1.4,2.2,2.8,3.3,4.3c-2-2.7-3.7-5.6-5.1-8.7c0.7,1.7,1.4,3.3,2.1,5c-1.3-3.2-2.3-6.6-2.7-10.1
			c0.3,1.9,0.5,3.7,0.8,5.6c-0.4-3-0.4-6,0-8.9c-0.3,1.9-0.5,3.7-0.8,5.6c0.4-3.1,1.3-6.2,2.5-9.1c-0.7,1.7-1.4,3.3-2.1,5
			c1.1-2.6,2.5-5,4.2-7.2c-1.1,1.4-2.2,2.8-3.3,4.3c1.5-1.9,3.1-3.6,5-5c-1.4,1.1-2.8,2.2-4.3,3.3c1.7-1.3,3.5-2.4,5.5-3.2
			c-1.7,0.7-3.3,1.4-5,2.1c1.2-0.5,2.3-0.9,3.6-1.1c2.7-0.6,5.1-1.9,7.1-3.8c2.3-1.5,4.1-3.4,5.4-5.9c1.5-2.4,2.4-5,2.5-7.8
			c0.6-2.8,0.5-5.6-0.4-8.4c-1.6-5.1-4.8-10-9.7-12.6c-1.7-0.7-3.3-1.4-5-2.1C591,1867.4,587.2,1867.4,583.5,1868.4L583.5,1868.4z"
			/>
	</g>
</g>
<g>
	<g>
		<path d="M375,1859c31.6-0.9,63.2-1.8,94.8-2.8c30.7-0.9,61.4-1.8,92.1-2.7c30.2-0.9,60.4-1.7,90.5-2.6c30.6-0.9,61.2-1.8,91.9-2.7
			c31.4-0.9,62.9-1.8,94.3-2.7c4.1-0.1,8.2-0.2,12.3-0.4c5.5-0.2,10.9-2.2,14.8-6.2c3.6-3.6,6.4-9.6,6.2-14.8
			c-0.5-11.1-9.2-21.3-21-21c-31.6,0.9-63.2,1.8-94.8,2.8c-30.7,0.9-61.4,1.8-92.1,2.7c-30.2,0.9-60.4,1.7-90.5,2.6
			c-30.6,0.9-61.2,1.8-91.9,2.7c-31.4,0.9-62.9,1.8-94.3,2.7c-4.1,0.1-8.2,0.2-12.3,0.4c-5.5,0.2-10.9,2.2-14.8,6.2
			c-3.6,3.6-6.4,9.6-6.2,14.8C354.5,1849.1,363.2,1859.3,375,1859L375,1859z"/>
	</g>
</g>
<g>
	<g>
		<path d="M142.7,926.4c-0.7-1.6-1.4-3.2-2.1-4.8c-0.3-0.7-0.5-1.4-0.9-2c2.2,4.1,0.9,2.1,0.4,0.9c-1.3-3.2-2.6-6.4-3.8-9.6
			c-2.5-6.7-4.9-13.5-7.1-20.3c-4.2-13.2-7.7-26.6-10.5-40.1c-1.5-7-2.8-14.1-3.9-21.2c-0.5-3.2-1-6.4-1.4-9.5
			c-0.4-2.9,0.5,4.1,0.2,1.2c-0.1-0.7-0.2-1.5-0.3-2.2c-0.2-2-0.5-3.9-0.7-5.9c-1.5-13.8-2.5-27.7-2.9-41.6
			c-0.8-28.9,0.7-57.8,4-86.5c0.4-3.4,0.8-6.7,1.3-10.1c0.4-3-0.6,3.9-0.1,0.9c0.1-0.8,0.2-1.6,0.3-2.3c0.3-2.1,0.6-4.1,0.9-6.2
			c1.1-7.2,2.3-14.5,3.6-21.7c2.6-14.7,5.6-29.3,9-43.8c13.2-57.5,32.3-113.2,49-169.7c16.1-54.4,29.2-111.3,26.4-168.4
			c-2.5-50.7-16.3-102.7-47.6-143.4c-4.5-5.8-9.1-11.5-14.1-16.9c-7.5-8.1-22.2-8.2-29.7,0c-7.9,8.6-8,21.1,0,29.7
			c2,2.2,4,4.4,6,6.7c0.8,1,1.6,2,2.4,3c0.4,0.5,1.1,1.6,1.6,2c-0.7-0.5-2.7-3.5-1-1.2c3.5,4.8,6.9,9.6,10,14.7
			c3.2,5.2,6.2,10.6,8.9,16.1c1.2,2.5,2.4,5,3.5,7.5c0.3,0.8,0.6,1.6,1,2.3c0.1,0.1-1.7-4.2-0.9-2.1c0.6,1.6,1.3,3.2,1.9,4.7
			c4.3,11.2,7.7,22.7,10.3,34.4c1.4,6.1,2.5,12.3,3.4,18.4c0.2,1.3,0.4,2.6,0.6,3.8c-0.1-0.4-0.7-5.3-0.2-1.7
			c0.1,0.6,0.2,1.3,0.2,1.9c0.4,3.2,0.7,6.5,1,9.7c1,12.1,1.3,24.2,0.9,36.3c-0.2,6-0.6,12-1.1,18c-0.3,3.6-0.7,7.2-1.1,10.8
			c-0.2,1.8-0.4,3.6-0.6,5.4c-0.1,0.8-0.2,1.5-0.3,2.3c0.1-1.4,0.5-3.7,0.1-1c-4.3,28.9-11.1,57.2-19.1,85.3
			c-16.2,56.6-35.8,112.1-49.6,169.4c-13.9,57.7-23.3,117.1-23.2,176.6c0.1,57.1,8.7,115.1,29.4,168.4c3,7.7,6.2,15.3,9.6,22.8
			c2,4.5,8,8.4,12.6,9.7c5,1.4,11.7,0.8,16.2-2.1c4.5-2.9,8.4-7.2,9.7-12.6C146.2,936.7,145.2,931.8,142.7,926.4L142.7,926.4z"/>
	</g>
</g>
<g>
	<g>
		<path d="M126.9,107.3c3.1-0.9,6.3-1.7,9.5-2.4c1.7-0.4,3.4-0.7,5.2-1c0.7-0.1,1.5-0.2,2.2-0.3c2.9-0.5-5.4,0.5-0.4,0.1
			c6.7-0.6,13.5-1,20.3-0.8c3.3,0.1,6.5,0.3,9.8,0.6c1.8,0.2,3.5,0.3,5.3,0.5c0.7,0.1,1.5,0.3,2.3,0.3c-2.4,0-3.3-0.5-0.3,0
			c6.7,1,13.4,2.4,20.1,4.1c27.7,6.9,53.9,18.5,80.2,29.2c52,21.1,105.8,35,161.4,41.8c55.2,6.8,110.8,5.6,165.8-2.3
			c26.7-3.8,53.2-9.5,79.2-16.9c27-7.7,53.2-17.9,79.4-27.9c26.4-10.1,53.2-19.9,81-25.6c3.4-0.7,6.9-1.3,10.3-1.9
			c1.5-0.2,3-0.5,4.4-0.7c1.2-0.2,3.9-0.2-1.1,0.1c1-0.1,2-0.3,3-0.4c6.9-0.8,13.9-1.3,20.8-1.5c6.7-0.2,13.3,0,20,0.6
			c1.7,0.1,3.4,0.3,5.1,0.5c4.1,0.4-3.8-0.6,0.3,0c3.6,0.6,7.3,1.2,10.9,2c6.5,1.4,12.9,3.3,19.1,5.6c10.3,3.8,23.5-4.2,25.8-14.7
			c2.7-11.9-3.6-21.8-14.7-25.8c-55.8-20.4-117.1-7.3-171.2,11.9c-27.1,9.7-53.7,20.9-81.1,30c-25.6,8.5-51.9,15.2-78.4,20.2
			c-6.8,1.3-13.5,2.4-20.3,3.4c-1.7,0.3-3.4,0.5-5.1,0.7c-0.7,0.1-1.5,0.2-2.2,0.3c-2.4,0.3,1.9-0.3,1.9-0.3
			c-3.7,0.3-7.3,0.9-11,1.3c-13.4,1.5-26.9,2.6-40.4,3.2c-27.2,1.2-54.6,0.6-81.7-1.8c-6.9-0.6-13.7-1.3-20.5-2.2
			c-1.5-0.2-2.9-0.4-4.4-0.6c-2.9-0.4,4.1,0.6,1.2,0.2c-0.7-0.1-1.5-0.2-2.2-0.3c-3.4-0.5-6.8-1-10.2-1.5
			c-13.6-2.2-27.1-4.8-40.5-7.9c-26.6-6.2-52.8-14.2-78.3-24C253.8,82.5,199.5,54.6,140.4,62c-8.4,1-16.6,2.4-24.7,4.8
			c-10.5,3.1-18.2,14.9-14.7,25.8C104.5,103.3,115.6,110.6,126.9,107.3L126.9,107.3z"/>
	</g>
</g>
<g>
	<g>
		<path d="M921.1,110.5c2.9,5.5,5.8,11,8.5,16.6c1.3,2.7,2.6,5.4,3.8,8.1c0.7,1.5,1.3,2.9,2,4.4c0.3,0.6,0.6,1.3,0.8,1.9
			c0.3,0.7,1.9,4.4,0.6,1.3c-1.3-3,0.5,1.2,0.8,2c0.6,1.5,1.2,3,1.8,4.5c1.2,3,2.3,6,3.4,9c2.1,5.8,4.1,11.7,6,17.6
			c7.7,24.1,13.3,48.9,17.1,74c0.2,1.4,0.4,2.7,0.6,4.1c0.1,0.7,0.2,1.4,0.3,2.1c-0.9-5.5-0.4-2.7-0.2-1.5c0.4,3.2,0.8,6.4,1.2,9.6
			c0.7,6.2,1.3,12.4,1.7,18.6c1,12.7,1.5,25.4,1.6,38.1c0.2,26.3-1.4,52.6-4.5,78.8c-0.4,3.2-0.9,6.3-1.2,9.5c0.1-0.5,0.7-5,0.2-1.2
			c-0.1,0.7-0.2,1.5-0.3,2.2c-0.2,1.7-0.5,3.4-0.7,5.1c-1,6.8-2.1,13.6-3.3,20.4c-2.3,13.1-5,26.2-7.9,39.2
			c-6,26.5-13.2,52.7-21.3,78.6c-8,25.8-17.8,51.1-25.3,77c-8,27.6-10.9,56-12.1,84.6c-2.1,51.2-4.9,105.5,12.7,154.6
			c2.5,7.1,5.5,14,8.7,20.8c4.7,10,19.8,13.3,28.7,7.5c10.2-6.6,12.6-18.1,7.5-28.7c-0.7-1.4-1.4-2.9-2-4.4
			c-0.3-0.6-0.5-1.3-0.8-1.9c0,0,1.6,4,0.8,1.9c-1.1-3-2.3-5.9-3.3-8.9c-2.1-6-3.8-12.1-5.2-18.3c-1.4-6-2.6-12-3.5-18.1
			c-0.1-0.8-0.9-6.2-0.4-2.6c0.5,3.4-0.1-1.2-0.2-2c-0.4-3.2-0.7-6.4-1-9.6c-2.1-25.3-1.4-50.8-0.5-76.1c0.5-13.5,0.9-26.9,2.1-40.4
			c0.3-3.2,0.6-6.5,1-9.7c0.1-0.8,0.1-2.2,0.4-3c0,0-0.6,4.3-0.3,1.9c0.3-2,0.6-3.9,0.9-5.9c1.1-6.6,2.5-13.2,4.1-19.7
			c6.6-26.2,16.6-51.5,24.9-77.2c16.6-51.4,29.8-104,37.1-157.6c7.2-52.8,9.4-106.1,3-159c-6.4-53.1-20.1-104.5-43.2-152.8
			c-2.7-5.6-5.5-11.1-8.5-16.6c-5.2-9.7-19.4-13.5-28.7-7.5C918.8,88.2,915.6,100.2,921.1,110.5L921.1,110.5z"/>
	</g>
</g>
<g>
	<g>
		<path d="M144.4,957.8c6.4-1.4,12.8-2.7,19.2-3.8c3.1-0.5,6.2-1,9.3-1.4c0.6-0.1,3.1-0.4,0.1,0c-3.2,0.4,0,0,0.8-0.1
			c1.7-0.2,3.4-0.4,5-0.6c13-1.4,26-2.2,39.1-2.3c13-0.1,26.1,0.5,39.1,1.7c3.1,0.3,6.2,0.6,9.4,1c0.7,0.1,1.4,0.2,2.2,0.3
			c3.8,0.5-0.8-0.1-1.3-0.2c1.7,0.3,3.4,0.5,5,0.7c6.4,1,12.9,2.1,19.3,3.4c52.3,10.7,100.6,34.6,152.1,48.4
			c27.1,7.3,54.9,12.4,82.8,14.4c28.1,2,55.9-0.2,83.7-5c25.7-4.5,51.3-10.4,76.8-16.1c24.8-5.6,49.5-11.5,74-18.2
			c50-13.7,99.3-30.8,145.8-54c5.7-2.8,11.3-5.7,16.8-8.7c9.7-5.2,13.5-19.4,7.5-28.7c-6.3-9.8-18.4-13.1-28.7-7.5
			c-11.1,6-22.4,11.6-33.9,16.9c-2.8,1.3-5.5,2.5-8.3,3.7c-1.3,0.6-2.6,1.1-3.9,1.7c-0.9,0.4-1.7,0.7-2.6,1.1
			c-0.6,0.2-3.6,1.5-0.7,0.3c2.9-1.3-1.3,0.5-2,0.8c-1.5,0.6-3,1.2-4.5,1.9c-3,1.2-6.1,2.4-9.1,3.6c-23.6,9.1-47.6,17-71.9,24.1
			c-48.9,14.1-98.7,25.3-148.6,35.4c-6.6,1.3-13.3,2.6-20,3.7c-3.2,0.5-6.4,1.1-9.7,1.5c-0.7,0.1-1.5,0.2-2.2,0.3
			c0,0,4.3-0.5,1.9-0.3c-2,0.2-4,0.5-6,0.7c-13.2,1.4-26.4,1.9-39.7,1.6c-6.6-0.2-13.2-0.6-19.7-1.1c-2.9-0.3-5.8-0.5-8.7-0.9
			c-1.7-0.2-3.4-0.4-5.1-0.6c-2.4-0.3,2,0.3,1.9,0.3c-1-0.2-1.9-0.3-2.9-0.4c-13.1-1.9-26.1-4.5-38.9-7.6
			c-25.9-6.2-51.1-14.8-76.1-24c-25.1-9.2-50.1-18.6-76.1-24.9c-53.4-12.9-108.8-14.4-163-5.3c-6.4,1.1-12.8,2.3-19.2,3.8
			c-10.7,2.4-18,15.4-14.7,25.8C122.3,954.4,132.9,960.3,144.4,957.8L144.4,957.8z"/>
	</g>
</g>
<g>
	<g>
		<path d="M273.3,809.6c-4.5-13.6-7.6-27.5-9.5-41.7c0.3,1.9,0.5,3.7,0.8,5.6c-3.4-26.2-2.7-52.6,0.8-78.8c-0.3,1.9-0.5,3.7-0.8,5.6
			c7.8-57.8,29.1-112.3,49.9-166.5c10.5-27.3,21-54.7,29.6-82.6c9-29.2,15.6-59,19-89.5c3.8-33.4,2.4-67.5-5.4-100.2
			c-2.5-10.7-15.3-18.1-25.8-14.7c-11.1,3.6-17.4,14.4-14.7,25.8c1.9,7.9,3.4,15.9,4.4,23.9c-0.3-1.9-0.5-3.7-0.8-5.6
			c3.4,26.2,2.7,52.7-0.8,78.8c0.3-1.9,0.5-3.7,0.8-5.6c-8.3,60.7-31.2,117.7-53,174.5c-11,28.8-21.8,57.7-30.3,87.4
			c-8.5,29.9-14.4,60.6-16.5,91.6c-2.3,34.5,0.9,70.1,11.8,103c1.7,5.2,4.9,9.7,9.7,12.6c4.5,2.6,11.1,3.8,16.2,2.1
			C269.1,832.1,277,820.8,273.3,809.6L273.3,809.6z"/>
	</g>
</g>
<g>
	<g>
		<path d="M424.3,825c-3.6-12.3-6.2-24.9-7.9-37.6c0.3,1.9,0.5,3.7,0.8,5.6c-3.5-26.5-3-53.3,0.5-79.7c-0.3,1.9-0.5,3.7-0.8,5.6
			c4.7-34.6,14.6-68.3,28.1-100.5c-0.7,1.7-1.4,3.3-2.1,5c19.9-46.8,47.5-90.2,63.8-138.6c15.9-47.4,17.7-98.9,5.9-147.4
			c-6.5-26.7-17.4-52.7-32-76c-2.9-4.6-7.3-8.2-12.6-9.7c-5-1.4-11.7-0.8-16.2,2.1c-9.3,6-13.8,18.8-7.5,28.7
			c6.8,10.8,12.7,22.1,17.6,33.8c-0.7-1.7-1.4-3.3-2.1-5c8.4,20.1,14.2,41.2,17.1,62.8c-0.3-1.9-0.5-3.7-0.8-5.6
			c2.9,21.6,2.9,43.5,0.1,65c0.3-1.9,0.5-3.7,0.8-5.6c-3.3,24.1-10.5,47.2-19.9,69.6c0.7-1.7,1.4-3.3,2.1-5
			c-18.2,43.1-42.7,83.3-59.7,127c-16.8,43.4-26.9,90.3-26.7,137c0.1,26.8,3.7,53.8,11.1,79.5c1.5,5.1,5,9.8,9.7,12.6
			c4.5,2.6,11.1,3.8,16.2,2.1C420.3,847.4,427.5,836.3,424.3,825L424.3,825z"/>
	</g>
</g>
<g>
	<g>
		<path d="M579.5,847.1c-2.2-3.9-4.1-7.9-5.9-12.1c0.7,1.7,1.4,3.3,2.1,5c-4.8-11.4-7.9-23.3-9.6-35.5c0.3,1.9,0.5,3.7,0.8,5.6
			c-2.1-15.9-1.7-32,0.4-47.8c-0.3,1.9-0.5,3.7-0.8,5.6c3.4-25.1,10.9-49.5,20.7-72.8c-0.7,1.7-1.4,3.3-2.1,5
			c26.1-61.5,66.8-116.8,82.5-182.6c8.7-36.3,9.7-74,7.6-111.2c-1.6-30-5.1-61-15.8-89.3c-6.7-17.6-15.5-33.6-27.8-47.9
			c-2.5-2.9-5.1-5.6-7.9-8.2c-8.7-8.1-20.5-12.9-31.9-6.6c-11.2,6.2-14.9,20.6-8.2,31.6c4.1,6.7,11.3,11.1,19.2,11.1
			c7.7,0,15.3-4.2,19-11c5.2-9.7,2.7-23.3-7.5-28.7c-9.8-5.2-23.2-2.8-28.7,7.5c-0.1,0.1-0.1,0.3-0.2,0.4c2.5-2.5,5-5,7.5-7.5
			c-0.1,0.1-0.2,0.1-0.3,0.2c3.5-1,7.1-1.9,10.6-2.9c-0.1,0-0.2,0-0.3,0c1.9,0.3,3.7,0.5,5.6,0.8c-0.1,0-0.2-0.1-0.4-0.1
			c1.7,0.7,3.3,1.4,5,2.1c-0.1-0.1-0.2-0.2-0.4-0.3c1.4,1.1,2.8,2.2,4.3,3.3c-0.1-0.1-0.2-0.2-0.3-0.3c1.1,1.4,2.2,2.8,3.3,4.3
			c-0.2-0.3-0.4-0.6-0.5-0.9c0.7,1.7,1.4,3.3,2.1,5c0-0.2-0.1-0.3-0.1-0.5c0.2,1.9,0.5,3.7,0.8,5.6c0-0.2,0-0.3,0-0.5
			c-1,3.5-1.9,7.1-2.9,10.6c0.1-0.1,0.1-0.3,0.2-0.4c-1.1,1.4-2.2,2.8-3.3,4.3c0.1-0.1,0.2-0.2,0.4-0.3c-1.4,1.1-2.8,2.2-4.3,3.3
			c0.2-0.1,0.5-0.2,0.7-0.3c-1.7,0.7-3.3,1.4-5,2.1c0.2,0,0.5-0.1,0.7-0.1c-1.9,0.3-3.7,0.5-5.6,0.8c0.3,0,0.5,0.1,0.8,0.1
			c-1.9-0.3-3.7-0.5-5.6-0.8c0.3,0.1,0.5,0.2,0.8,0.2c-1.7-0.7-3.3-1.4-5-2.1c0.8,0.4,1.5,0.8,2.2,1.3c-1.4-1.1-2.8-2.2-4.3-3.3
			c5.1,4.3,9.6,9.4,13.7,14.7c-1.1-1.4-2.2-2.8-3.3-4.3c6.7,8.8,12.1,18.5,16.4,28.6c-0.7-1.7-1.4-3.3-2.1-5
			c7.4,17.7,11.6,36.5,14.2,55.4c-0.3-1.9-0.5-3.7-0.8-5.6c2.3,17.5,3.4,35.1,3.8,52.7c0.5,20.2-0.2,40.5-2.9,60.6
			c0.3-1.9,0.5-3.7,0.8-5.6c-3.5,25.2-10.7,49.4-20.6,72.9c0.7-1.7,1.4-3.3,2.1-5c-17,40.2-40.1,77.5-58.6,117
			c-18.7,40.2-32.9,84.3-31.3,129.2c0.9,25.8,7.1,51.1,19.7,73.8c5.3,9.6,19.4,13.6,28.7,7.5C581.7,869.6,585.2,857.4,579.5,847.1
			L579.5,847.1z"/>
	</g>
</g>
<g>
	<g>
		<path d="M773.8,839.5c-3.2-11.1-5.5-22.4-7.1-33.8c0.3,1.9,0.5,3.7,0.8,5.6c-3.8-28.3-2.9-57,0.9-85.3c-0.3,1.9-0.5,3.7-0.8,5.6
			c2.8-20.6,7-41,12.2-61.1c4.8-18.7,10.6-36.8,18.1-54.6c-0.7,1.7-1.4,3.3-2.1,5c19.8-46.7,47.2-90.6,60.4-140
			c3.5-13.2,5.5-26.6,7.3-40.1c1.5-11.8,2.5-23.6,2.9-35.5c0.8-25.4-1.3-51.1-6.8-75.9c-6-27.1-16.7-53.7-32.4-76.7
			c-3.1-4.6-7.1-8.1-12.6-9.7c-5-1.4-11.7-0.8-16.2,2.1c-9,5.8-14.1,19-7.5,28.7c7.3,10.7,13.4,22.1,18.4,34c-0.7-1.7-1.4-3.3-2.1-5
			c7.8,18.7,12.7,38.3,15.5,58.3c-0.3-1.9-0.5-3.7-0.8-5.6c3.9,28.9,3.1,58.3-0.7,87.1c0.3-1.9,0.5-3.7,0.8-5.6
			c-1.7,12.6-4,25-7.5,37.3c-3.6,12.4-8.1,24.5-13.1,36.4c0.7-1.7,1.4-3.3,2.1-5c-17.3,40.8-40,79.3-54.6,121.3
			c-7.5,21.5-12.8,44-17.2,66.4c-4.8,24.6-8.1,49.7-8.5,74.8c-0.5,27.7,2.7,55.8,10.2,82.4c3,10.6,15,18.2,25.8,14.7
			C769.9,861.9,777,850.9,773.8,839.5L773.8,839.5z"/>
	</g>
</g>
<g>
	<g>
		<path d="M186.7,773.9c35.3-10.2,71.3-18.2,107.8-23.1c-1.9,0.2-3.7,0.5-5.6,0.8c48.1-6.4,97-7.5,145.2-1.1
			c-1.9-0.2-3.7-0.5-5.6-0.8c54.6,7.4,106.2,27.3,160,38.6c55.4,11.6,112.2,17.2,168.8,16.1c31.5-0.6,64.7-7.2,92.2-23.2
			c9.5-5.5,13.7-19.2,7.5-28.7c-6.2-9.6-18.6-13.4-28.7-7.5c-4.2,2.5-8.6,4.6-13.1,6.5c1.7-0.7,3.3-1.4,5-2.1
			c-14.4,6-30.2,10.3-45.6,12.5c1.9-0.3,3.7-0.5,5.6-0.8c-11.3,1.5-22.9,1.5-34.3,1.5c-11,0-21.9-0.2-32.9-0.6
			c-22.3-0.9-44.6-2.9-66.7-5.9c1.9,0.3,3.7,0.5,5.6,0.8c-31.3-4.3-62.3-10.5-92.9-18.8c-30.1-8.1-59.7-17.8-90.3-23.9
			c-63.4-12.7-127.9-12.1-191.7-2.9c-34.4,4.9-68.3,12.6-101.6,22.3c-10.5,3.1-18.2,14.9-14.7,25.8
			C164.3,769.9,175.4,777.2,186.7,773.9L186.7,773.9z"/>
	</g>
</g>
<g>
	<g>
		<path d="M212.4,532.5c34.5-2.5,69.3-1.4,103.6,3.2c-1.9-0.3-3.7-0.5-5.6-0.8c38.4,5.2,76.1,14.8,112.3,28.7
			c18.3,7,36.3,14.7,54.7,21.2c18.1,6.4,36.5,12,55.1,17c18.7,5,37.6,9.8,56.7,12.7c21.4,3.2,43,4.5,64.6,4.6
			c39.5,0.2,79-2.9,117.9-9.8c43.1-7.7,85-20.9,124.4-40c4.5-2.2,8.4-7.9,9.7-12.6c1.4-5,0.8-11.7-2.1-16.2
			c-6.6-10.2-18.1-12.7-28.7-7.5c-6.5,3.2-13.1,6.1-19.8,9c1.7-0.7,3.3-1.4,5-2.1c-39.1,16.4-80.4,26.8-122.3,32.5
			c1.9-0.3,3.7-0.5,5.6-0.8c-23.5,3.1-47.1,4.9-70.8,5.4c-24.7,0.5-49.5,0.1-74-3.1c1.9,0.3,3.7,0.5,5.6,0.8
			c-26-3.6-51.9-10.5-77.1-17.9c-24.7-7.2-49.1-15.7-73-25.3c-24.2-9.8-48.5-18.7-73.8-25.3c-26.4-6.8-53.3-11.4-80.3-14.2
			c-29.1-3-58.5-3.4-87.6-1.3c-5.6,0.4-10.8,2.1-14.8,6.2c-3.6,3.6-6.4,9.6-6.2,14.8C191.9,522.2,200.7,533.4,212.4,532.5
			L212.4,532.5z"/>
	</g>
</g>
<g>
	<g>
		<path d="M231.5,359.7c15.8-4,31.9-7.1,48.1-9.3c-1.9,0.3-3.7,0.5-5.6,0.8c48.8-6.5,98.2-4.9,146.9,1.5c-1.9-0.3-3.7-0.5-5.6-0.8
			c32.7,4.4,65.1,11,97.1,19c31.8,8,63.2,17.5,94.9,25.8c33,8.6,66.4,15.7,100.4,18.5c34.6,2.9,69.3-0.3,103.4-6.6
			c36.9-6.8,72.9-17.7,108.8-28.6c10.5-3.2,18.2-14.8,14.7-25.8c-3.4-10.6-14.6-18.1-25.8-14.7c-43,13.1-86.2,26-130.8,32.1
			c1.9-0.3,3.7-0.5,5.6-0.8c-31.7,4.2-63.3,4.3-95,0.2c1.9,0.3,3.7,0.5,5.6,0.8c-61.3-8.3-119.9-29.4-179.9-43.8
			c-61.2-14.7-124.4-24.5-187.5-23c-35.7,0.8-71.6,5.3-106.3,14.1c-10.6,2.7-18.1,15.2-14.7,25.8C209.2,356.1,220,362.6,231.5,359.7
			L231.5,359.7z"/>
	</g>
</g>
</svg>
