<?xml version="1.0" encoding="utf-8"?>
<!-- Generator: Adobe Illustrator 27.0.0, SVG Export Plug-In . SVG Version: 6.00 Build 0)  -->
<svg version="1.1" id="Capa_1" xmlns="http://www.w3.org/2000/svg" xmlns:xlink="http://www.w3.org/1999/xlink" x="0px" y="0px"
	 viewBox="0 0 1080 1080" style="enable-background:new 0 0 1080 1080;" xml:space="preserve">
<g>
	<g>
		<g>
			<path d="M286.4,1572.9c-3.2,6.4-6.3,12.9-9.5,19.3c-2.5,5.1-3.7,10.5-2.1,16.2c1.3,4.9,5.1,10.2,9.7,12.6
				c4.9,2.6,10.8,3.9,16.2,2.1c5.1-1.6,10-4.8,12.6-9.7c16-31.1,32.2-62.1,49.4-92.5c14.6-25.8,30.1-51.1,46.9-75.5
				c9.9-14.4,20.2-28.4,30.9-42.2c-1.1,1.4-2.2,2.8-3.3,4.3c9-11.7,18.3-23.2,27.7-34.5c5.1-6.1,10.2-12.2,15.4-18.3
				c5.1-6,10-12.9,16.3-17.8c-1.4,1.1-2.8,2.2-4.3,3.3c1.1-0.8,2.3-1.6,3.6-2.2c-1.7,0.7-3.3,1.4-5,2.1c1.1-0.5,2.1-0.8,3.3-1
				c-1.9,0.2-3.7,0.5-5.6,0.8c1.2-0.2,2.4-0.2,3.6,0c-1.9-0.2-3.7-0.5-5.6-0.8c1.2,0.2,2.3,0.5,3.5,1c-1.7-0.7-3.3-1.4-5-2.1
				c1.6,0.7,3.1,1.6,4.5,2.7c-1.4-1.1-2.8-2.2-4.3-3.3c4.1,3.2,7.7,7.2,11.3,10.9c3.7,3.9,7.5,7.7,11.2,11.7
				c7.6,8,15.1,16.2,22.4,24.5c14.8,16.6,29.1,33.7,42.9,51.2c23.8,30.1,48.8,59.3,73.5,88.6c12.5,14.9,24.9,29.8,36.8,45.2
				c-1.1-1.4-2.2-2.8-3.3-4.3c16.3,21.1,31.6,43,45.7,65.7c4.5,7.3,8.9,14.6,13.2,22.1c9.6-9.6,19.2-19.2,28.7-28.7
				c-20.5-11.9-41-23.7-61.5-35.6c-9.1-5.3-20.7-2.8-27.1,5.4c-6,7.7-6.3,20.7,1.6,27.6c23.7,20.4,51.4,35.5,81.7,43.5
				c6.5,1.7,13,0.3,18.3-3.8c4.9-3.8,8.7-10,8.3-16.5c-1.4-21.1-2.9-42.2-4.3-63.3c-13.7,1.9-27.5,3.7-41.2,5.6
				c1.6,6,2.8,12.1,3.7,18.3c-0.2-1.9-0.5-3.7-0.8-5.6c1.7,13,1.7,26.1,0,39.1c0.3-1.9,0.5-3.7,0.8-5.6c-0.2,1.5-0.4,2.9-0.7,4.4
				c-1,5.7-0.9,11,2.1,16.2c2.5,4.4,7.5,8.5,12.6,9.7c5.4,1.2,11.4,1,16.2-2.1c4.3-2.8,8.8-7.3,9.7-12.6c2-12.1,3.2-24.4,2.6-36.7
				c-0.6-12.2-2.4-24.5-5.6-36.3c-2.7-10.1-12.9-16.4-23-15c-9.7,1.3-18.9,10.2-18.2,20.6c1.4,21.1,2.9,42.2,4.3,63.3
				c8.9-6.7,17.7-13.5,26.6-20.2c-8.4-2.2-16.5-5-24.5-8.3c1.7,0.7,3.3,1.4,5,2.1c-14.4-6.1-28-14.1-40.4-23.6
				c1.4,1.1,2.8,2.2,4.3,3.3c-2.6-2-5.1-4-7.5-6.1c-8.5,11-17,22-25.4,33c20.5,11.9,41,23.7,61.5,35.6c7.8,4.5,19.2,3.6,25.4-3.3
				c6.3-6.9,8.1-17.1,3.3-25.4c-13.4-23.2-28-45.7-43.7-67.4c-14.8-20.5-30.6-40.3-46.8-59.7c-15.6-18.7-31.6-37.2-47.2-55.9
				c-18.3-21.9-35.8-44.6-54.1-66.6c-19.3-23.1-39.4-45.4-60.4-66.8c-6.8-7-14.1-13.6-23.7-16.4c-5.7-1.7-12.9-1.8-18.6,0.1
				c-6.1,2-10.7,5-15.6,9.2c-5,4.3-9,9.8-13.3,14.7c-4.5,5.2-8.9,10.4-13.3,15.7c-16.4,19.7-32.4,39.7-47.7,60.3
				c-12.8,17.3-25,35-36.5,53.1c-11.6,18.3-22.6,37.1-33.2,56c-12.1,21.7-23.7,43.8-35.2,65.8c-3.1,6-6.3,12.1-9.4,18.2
				c12.1,7.1,24.2,14.1,36.3,21.2c3.2-6.4,6.3-12.9,9.5-19.3c2.5-5.1,3.7-10.5,2.1-16.2c-1.3-4.9-5.1-10.2-9.7-12.6
				c-4.9-2.6-10.8-3.9-16.2-2.1C294,1564.9,288.8,1568.1,286.4,1572.9L286.4,1572.9z"/>
		</g>
	</g>
	<g>
		<g>
			<path d="M810.2,1763.7c15,20.8,29.5,42.1,42.8,64c11.5,18.9,22.2,38.3,31.9,58.2c5.3,10.9,10.2,21.9,14.9,33
				c-0.7-1.7-1.4-3.3-2.1-5c14.5,34.5,26.4,69.9,37.8,105.5c3.8,11.9,7.5,23.8,11.2,35.7c6.8-8.9,13.5-17.7,20.2-26.6
				c-30.1,0.3-60.3,0.6-90.4,0c-30.1-0.6-60.2-2.2-90.1-5.7c-24.2-2.8-48.4-5.3-72.7-6.6c-21.5-1.2-42.9-1.5-64.4-1.1
				c-25.1,0.4-50.1,1.6-75.2,2.9c-3.6,0.2-7.3,0.4-10.9,0.6c-4.8,0.2-8.9,1.6-12.7,4.5c-3.5,2.7-6.5,6.5-7.5,10.9
				c-0.8,3.7-0.8,7.5,0,11.2c1.1,4.8,5.3,10.2,9.7,12.6c13.4,7.1,26.1,15.3,38.1,24.5c-1.4-1.1-2.8-2.2-4.3-3.3
				c10.2,7.9,19.8,16.4,28.7,25.6c8.5-11,17-22,25.4-33c-24-12.3-47.2-26.3-69.2-41.8c-6.3-4.5-12.6-9.1-18.7-13.8
				c1.4,1.1,2.8,2.2,4.3,3.3c-2.1-1.6-4.2-3.2-6.2-4.9c-1.4,11-2.8,22-4.3,33c13.1-6.6,26.4-12.9,39.9-18.6c-1.7,0.7-3.3,1.4-5,2.1
				c28.2-11.9,57.7-22.1,88.1-26.2c-1.9,0.3-3.7,0.5-5.6,0.8c5.2-0.7,10.3-1.2,15.5-1.4c5.5-0.3,10.9-2.2,14.8-6.2
				c3.6-3.6,6.4-9.6,6.2-14.8c-0.2-5.4-2-11.1-6.2-14.8c-4-3.7-9.3-6.4-14.8-6.2c-43.8,2.1-85.8,17.7-125.4,35.4
				c-9.7,4.3-19.2,8.9-28.7,13.7c-5.8,2.9-9.2,9.2-10,15.3c-0.6,2.8-0.5,5.6,0.4,8.4c1,3.6,2.8,6.6,5.4,9.3
				c24.2,19.2,49.6,36.8,76.5,52c7.2,4.1,14.5,8,21.9,11.8c9.4,4.8,20.5,3.1,27.1-5.4c6.4-8.3,5.7-20-1.6-27.6
				c-20.7-21.3-44.9-39.5-71.1-53.5c-3.5,13-7.1,26.1-10.6,39.1c25.9-1.4,51.8-2.7,77.8-3.3c21.6-0.5,43.2-0.4,64.7,0.6
				c23.6,1.1,47.1,3.2,70.6,5.8c29.6,3.3,59.3,5.7,89.1,6.6c30.1,0.9,60.3,0.7,90.4,0.4c3.7,0,7.4-0.1,11.1-0.1
				c13.2-0.1,24.4-13.4,20.2-26.6c-7-22.6-14.1-45.1-21.6-67.5c-6.5-19.4-13.4-38.8-20.9-57.8c-7.8-19.6-16.1-38.9-25.5-57.8
				c-8.9-18.1-18.7-35.7-29.1-52.9c-12-19.7-24.8-38.9-38.1-57.7c-1.8-2.6-3.7-5.2-5.5-7.7c-3.3-4.6-7-8.1-12.6-9.7
				c-5-1.4-11.7-0.8-16.2,2.1c-4.5,2.9-8.4,7.2-9.7,12.6C806.9,1752.7,807,1759.2,810.2,1763.7L810.2,1763.7z"/>
		</g>
	</g>
	<g>
		<g>
			<path d="M449.5,2022.5c-27.9-0.5-55.8-1-83.7-1.4c-23.9-0.4-47.8-0.6-71.7-0.7c-22.6,0-45.2,0.1-67.8,0.6
				c-23.6,0.5-47.2,1.4-70.7,2.5c-27.1,1.3-54.3,3-81.4,4.9c-3.8,0.3-7.6,0.5-11.4,0.8c6,10.5,12.1,21.1,18.1,31.6
				c19.5-35.1,38.9-70.2,58.4-105.2c19.4-35,38.8-69.9,58.2-104.9c10.9-19.7,21.8-39.4,32.8-59c5.1-9.2,2.9-20.7-5.4-27.1
				c-3.5-2.7-8.1-4.7-12.7-4.5c-1.9,0.2-3.7,0.5-5.6,0.8c-3.6,1-6.6,2.8-9.3,5.4c-1.2,1-2.5,2-3.8,3c1.4-1.1,2.8-2.2,4.3-3.3
				c-16.3,12.5-34.1,22.9-53,30.9c1.7-0.7,3.3-1.4,5-2.1c-3.4,1.4-6.8,2.8-10.2,4c6.8,11.7,13.6,23.4,20.4,35.1
				c9.1-8.1,18.5-15.8,28.1-23.3c-1.4,1.1-2.8,2.2-4.3,3.3c14.6-11.2,29.7-21.7,45.3-31.5c-10.5-6-21.1-12.1-31.6-18.1
				c1.5,29,0.9,58.1-1.8,87.1c-0.8,8.3-1.7,16.6-2.8,24.9c0.3-1.9,0.5-3.7,0.8-5.6c-0.4,3.3-0.9,6.5-1.4,9.8c-0.9,2.8-1,5.6-0.4,8.4
				c0.1,2.8,1,5.4,2.5,7.8c2.5,4.4,7.5,8.5,12.6,9.7c5.4,1.2,11.4,1,16.2-2.1c4.3-2.8,8.9-7.3,9.7-12.6c5-33.1,7.8-66.5,7.6-100
				c-0.1-9.1-0.3-18.2-0.8-27.3c-0.4-7.5-3.8-14.2-10.4-18.1c-6.3-3.7-14.9-3.9-21.2,0c-21.7,13.5-42.4,28.6-62.1,44.8
				c-5.3,4.3-10.4,8.7-15.5,13.2c-1.1,1.4-2.2,2.8-3.3,4.3c-1.5,2.4-2.4,5-2.5,7.8c-0.6,4.5,0,9.5,2.5,13.4c2,3,4.5,5.6,7.5,7.5
				c2.4,1.5,5,2.4,7.8,2.5c2.8,0.6,5.6,0.5,8.4-0.4c13.8-5.1,27.2-11.1,40-18.4c12.8-7.2,24.7-15.8,36.2-25c-11-8.5-22-17-33-25.4
				c-19.5,35.1-38.9,70.2-58.4,105.2c-19.4,35-38.8,69.9-58.2,104.9c-10.9,19.7-21.8,39.4-32.8,59c-3.7,6.6-3.9,14.6,0,21.2
				c3.5,6,10.9,10.9,18.1,10.4c27.8-2,55.7-3.9,83.6-5.3c23.9-1.2,47.7-2.2,71.6-2.8c22.6-0.6,45.2-0.8,67.8-0.8
				c23.6,0,47.2,0.2,70.8,0.5c27.2,0.4,54.4,0.9,81.5,1.3c3.8,0.1,7.6,0.1,11.4,0.2c5.3,0.1,11.1-2.4,14.8-6.2
				c3.6-3.6,6.4-9.6,6.2-14.8c-0.2-5.4-2-11.1-6.2-14.8C460.2,2024.9,455.2,2022.6,449.5,2022.5L449.5,2022.5z"/>
		</g>
	</g>
</g>
<g>
	<polygon points="-1085,487.2 -1085,503 -1214.5,503 -1224.2,501.9 -1225.1,504.7 -1217.1,510.1 -1183.2,544 -1195.1,556 
		-1250.4,500.7 -1250.4,488.5 -1195.1,433.2 -1183.2,445.2 -1217.1,479.1 -1225.1,484.5 -1224.2,487.3 -1214.5,486.2 -1105.3,486.2 
		-1182.7,354.6 -1167.9,346 -1085.6,486.2 	"/>
</g>
<g>
	<polygon points="-1482,504.6 -1482.4,496.6 -1417.6,384.4 -1411.8,376.7 -1413.8,374.5 -1422.4,378.7 -1468.8,391.1 -1473.2,374.8 
		-1397.7,354.5 -1387.1,360.6 -1366.9,436.2 -1383.2,440.5 -1395.6,394.1 -1396.3,384.5 -1399.2,383.9 -1403,392.8 -1457.6,487.5 
		-1304.9,486.2 -1304.9,503.3 -1467.5,504.6 	"/>
</g>
<g>
	<polygon points="-1293,134 -1283.6,133.6 -1218.8,245.8 -1215,254.7 -1212.1,254.1 -1211.4,244.5 -1199,198.1 -1182.6,202.5 
		-1202.9,278 -1213.4,284.1 -1289,263.9 -1284.6,247.6 -1238.2,260 -1229.5,264.2 -1227.6,262 -1233.4,254.2 -1288,159.6 
		-1363.3,292.5 -1378.1,283.9 -1297.9,142.5 	"/>
</g>
<g>
	<g>
		<path d="M-1749.6,529.8l-71.2-71.2v-15.7l71.2-71.2l15.4,15.4l-43.8,43.7l-10.3,6.9l1.2,3.6l12.4-1.5h166.9v21.7h-166.9l-12.4-1.5
			l-1.2,3.6l10.3,6.9l43.8,43.8L-1749.6,529.8z"/>
	</g>
</g>
<g>
	<g>
		<path d="M1530.5,386.6c-30.6,38.7-53,82.9-66.3,130.5c-13,46.6-17.6,96.1-12.9,144.3c4.8,49,18.3,96.2,39.7,140.5
			c20.2,42,47.9,80.7,80.7,113.8c33.9,34.1,73.9,62.2,117.4,82.5c45.9,21.5,94.4,34.7,144.7,41c48.6,6.1,97.8,4.4,146.2-3.2
			c47.1-7.5,92.8-21.8,136-42c43.3-20.3,83.6-47.5,118.3-80.4c34.4-32.5,63.2-71.2,84.2-113.6c21.9-44.1,35.8-91.1,41.2-140
			c5.3-48.4,0.6-97.9-14-144.4c-16-51.1-41.8-99-69.8-144.4c-27.6-44.6-59.8-86.9-99.9-121c-40.4-34.3-86.3-60.7-136-79
			c-49.9-18.3-103.7-27.4-156.9-26c-48.6,1.4-97.1,11.2-142.3,29c-47.2,18.6-90.7,44.6-129.2,77.8c-35.9,31-66.5,68.3-91.1,108.8
			c-24.8,41-43.7,86-55.6,132.4c-6,23.5-10.1,47.4-12.7,71.5c-1.2,11,10.5,21.5,21,21c12.4-0.6,19.7-9.3,21-21
			c0.3-2.8,0.6-5.6,1-8.3c0.1-0.5,0.1-0.9,0.2-1.4c0.3-2.3,0.2-1.8-0.2,1.4c0.5-0.6,0.5-3.3,0.6-4.2c0.9-6,1.9-12,3-17.9
			c2.1-11.4,4.7-22.8,7.7-34c2.9-10.8,6.1-21.4,9.7-32c1.8-5.3,3.7-10.5,5.7-15.7c1-2.6,2-5.2,3-7.8c0.5-1.3,1.1-2.6,1.6-3.9
			c0.9-2.1,0.7-1.7-0.5,1.2c0.4-0.9,0.7-1.7,1.1-2.5c8.9-20.7,19.3-40.8,31.1-60c5.9-9.6,12.1-18.9,18.7-28c1.5-2,3-4.1,4.5-6.1
			c0.8-1.1,1.7-2.2,2.5-3.3c2.9-3.9-2.9,3.7,0.1-0.1c3.7-4.6,7.4-9.2,11.2-13.8c14.5-17.1,30.3-33.1,47.3-47.7
			c4.4-3.7,8.8-7.4,13.3-10.9c1-0.8,4.4-4,0.3-0.2c1-1,2.3-1.8,3.4-2.6c2.7-2,5.4-4,8.1-5.9c9.3-6.6,18.8-12.8,28.6-18.7
			c10.1-6,20.6-11.7,31.2-16.8c5.1-2.5,10.2-4.8,15.4-7.1c1.3-0.6,2.6-1.3,3.9-1.7c-5.5,1.7-1,0.4,0.2-0.1c2.8-1.2,5.7-2.3,8.5-3.4
			c21.7-8.3,44-14.8,66.8-19.4c5-1,10.1-1.9,15.2-2.7c1.2-0.2,7.7-0.4,8.3-1.2c-0.9,0.1-1.9,0.2-2.8,0.4c0.9-0.1,1.9-0.2,2.8-0.4
			c1.9-0.2,3.7-0.4,5.6-0.7c11.6-1.3,23.2-2.1,34.9-2.3c11.6-0.2,23.3,0,34.8,0.8c6.3,0.4,12.6,1,18.9,1.8c1.6,0.2,3.2,0.3,4.7,0.6
			c-5.6-1.1-0.4,0,0.7,0.1c3.7,0.5,7.3,1.1,11,1.7c25.6,4.4,50.7,11.3,75,20.3c3,1.1,6,2.3,8.9,3.4c1.5,0.6,3,1.2,4.4,1.8
			c5.1,2-4.1-1.8,0.9,0.4c5.9,2.6,11.7,5.2,17.5,8c10.5,5.1,20.9,10.6,30.9,16.6c10.5,6.2,20.8,12.9,30.7,20
			c2.4,1.7,4.8,3.5,7.1,5.2c1.2,0.9,2.4,1.7,3.5,2.7c-4.3-3.6-0.4-0.3,0.4,0.3c4.6,3.7,9.2,7.4,13.6,11.3c19,16.4,36.3,34.7,52,54.3
			c0.9,1.1,5.9,7.4,2.4,3c1.9,2.4,3.7,4.9,5.6,7.4c4,5.4,7.8,10.8,11.6,16.3c7.3,10.6,14.3,21.4,21,32.4
			c13.2,21.6,25.7,43.7,37,66.3c2.8,5.6,5.5,11.2,8.1,16.8c1.3,2.8,2.6,5.7,3.8,8.5c0.4,1,0.8,1.9,1.2,2.9c0.9,2.1,0.8,1.9-0.3-0.7
			c0.4,1,0.8,1.9,1.2,2.9c4.9,12,9.4,24.2,13.2,36.6c3.7,12,6.7,24.1,9,36.4c0.4,2.2,0.8,4.5,1.2,6.8c0.4,2.4,0.3,5.9,1.2,8.1
			c-0.1-1-0.3-1.9-0.4-2.9c0.1,0.9,0.2,1.8,0.3,2.7c0.2,1.4,0.3,2.7,0.5,4.1c0.4,3.2,0.7,6.4,0.9,9.5c1.8,22.3,1.4,44.7-1.1,66.9
			c-0.2,1.4-0.3,2.7-0.5,4.1c-0.1,0.5-0.1,0.9-0.2,1.4c-0.3,2.3-0.2,1.8,0.2-1.5c-0.8,2.4-0.8,5.6-1.2,8.1c-0.9,5.9-2,11.7-3.3,17.5
			c-2.3,10.7-5,21.4-8.2,31.9c-3.3,10.9-7.1,21.7-11.3,32.4c-0.5,1.3-1,2.5-1.5,3.8c-0.2,0.4-0.3,0.8-0.5,1.3
			c-0.9,2.1-0.7,1.7,0.5-1.2c0.4,1.1-2.8,6.4-3.3,7.5c-2.4,5.4-5,10.7-7.7,16c-10.1,19.8-21.8,38.8-35.1,56.6
			c-0.8,1.1-1.6,2.2-2.4,3.2c-2.9,3.8,3-3.7,0,0c-1.4,1.8-2.8,3.5-4.2,5.3c-3.7,4.5-7.5,9-11.4,13.4c-7.8,8.7-16,17-24.5,25
			c-8.1,7.6-16.5,14.9-25.2,21.8c-1,0.8-2.1,2-3.3,2.6c4.7-2.6,1.1-0.8-0.1,0.1c-2.2,1.7-4.4,3.3-6.7,4.9
			c-4.8,3.5-9.8,6.9-14.7,10.3c-18.7,12.5-38.5,23.5-58.9,33c-2.5,1.2-5,2.3-7.5,3.4c-2.3,1-5.1,2.8-7.6,3.3c0.8-0.3,1.7-0.7,2.5-1
			c-0.8,0.4-1.7,0.7-2.5,1.1c-1.3,0.5-2.5,1-3.8,1.6c-3,1.2-6,2.4-9,3.5c-10.3,3.9-20.7,7.4-31.2,10.6c-21.4,6.5-43.3,11.5-65.4,15
			c-2.7,0.4-5.4,0.8-8.1,1.2c-1.4,0.2-6,0.4,0.2,0c-1.3,0.1-2.7,0.4-4.1,0.5c-6,0.7-12,1.4-18.1,1.9c-11.8,1-23.6,1.7-35.4,1.9
			c-23.2,0.4-46.4-0.8-69.5-3.6c-1.3-0.2-3-0.1-4.2-0.5c0.9,0.1,1.8,0.2,2.8,0.4c-0.9-0.1-1.9-0.3-2.8-0.4c-2.8-0.4-5.6-0.8-8.4-1.3
			c-5.6-0.9-11.2-1.9-16.8-3.1c-11.6-2.3-23.1-5.1-34.5-8.3c-10.9-3.1-21.7-6.6-32.4-10.5c-5.3-2-10.6-4.1-15.9-6.2
			c-4.6-1.9,4.3,1.9-0.2-0.1c-1.3-0.6-2.6-1.1-3.9-1.7c-3-1.3-6.1-2.7-9.1-4.1c-21.1-10-41.4-21.7-60.5-35.2c-2.4-1.7-4.7-3.4-7-5.1
			c-1.1-0.8-2.3-1.7-3.4-2.5c-0.4-0.3-0.7-0.5-1.1-0.8c-1.8-1.4-1.4-1.1,1.1,0.9c-1.1-1.8-4.5-3.6-6.2-5c-2.4-2-4.8-3.9-7.1-5.9
			c-8.1-6.9-15.9-14.2-23.4-21.7c-7.9-7.9-15.4-16.2-22.6-24.7c-1.7-2.1-3.4-4.1-5.1-6.2c-0.8-1-1.7-2.1-2.5-3.2
			c-0.3-0.4-0.6-0.7-0.8-1.1c-1.4-1.8-1.1-1.4,0.8,1.1c-0.9,0-4.2-5.6-4.9-6.4c-1.6-2.2-3.2-4.4-4.7-6.6
			c-13-18.4-24.5-37.9-34.3-58.2c-2.2-4.5-4.2-9-6.2-13.6c-0.1-0.3-1.5-3.8-1.6-3.7c0.4,0.8,0.7,1.7,1.1,2.5c-0.3-0.8-0.7-1.7-1-2.5
			c-1.2-2.9-2.4-5.9-3.5-8.9c-4-10.6-7.6-21.4-10.7-32.3c-3-10.5-5.5-21.2-7.6-31.9c-1.1-5.4-2-10.9-2.8-16.4
			c-0.1-0.5-0.1-0.9-0.2-1.4c-0.3-2.3-0.3-1.8,0.2,1.4c0.3-0.8-0.4-3.3-0.5-4.2c-0.4-3.2-0.7-6.5-1-9.7c-2.1-22.8-2.2-45.8-0.2-68.6
			c0.2-2.8,0.5-5.6,0.8-8.4c0.2-1.8,1.7-6.7,1-8.3c-0.1,0.9-0.2,1.9-0.4,2.8c0.1-0.9,0.3-1.8,0.4-2.8c0.2-1.4,0.4-2.8,0.6-4.2
			c0.5-3.2,1.1-6.4,1.7-9.7c2-11,4.5-21.9,7.5-32.6c3.1-11.2,6.7-22.2,10.9-33c1-2.6,2-5.2,3.1-7.7c1.8-4.5-1.9,4.4,0-0.1
			c0.6-1.3,1.1-2.5,1.7-3.8c2.2-5,4.6-10,7.1-15c4.9-9.8,10.3-19.4,16.2-28.7c2.9-4.6,6-9.2,9.1-13.7c1.6-2.2,3.2-4.5,4.8-6.6
			c0.7-1,1.5-2.5,2.5-3.3c-0.5,0.7-1.1,1.4-1.6,2.1c0.6-0.7,1.1-1.4,1.7-2.1c3.6-4.5,6.2-8.8,6.2-14.8c0-5.2-2.3-11.3-6.2-14.8
			C1552.7,379.6,1537.8,377.4,1530.5,386.6L1530.5,386.6z"/>
	</g>
</g>
<g>
	<g>
		<path d="M2152.5-534.4c-30.6,38.7-53,82.9-66.3,130.5c-13,46.6-17.6,96.1-12.9,144.3c4.8,49,18.3,96.2,39.7,140.5
			c20.2,42,47.9,80.7,80.7,113.8c33.9,34.1,73.9,62.2,117.4,82.5c45.9,21.5,94.4,34.7,144.7,41c48.6,6.1,97.8,4.4,146.2-3.2
			c47.1-7.5,92.8-21.8,136-42c43.3-20.3,83.6-47.5,118.3-80.4c34.4-32.5,63.2-71.2,84.2-113.6c21.9-44.1,35.8-91.1,41.2-140
			c5.3-48.4,0.6-97.9-14-144.4c-16-51.1-41.8-99-69.8-144.4c-27.6-44.6-59.8-86.9-99.9-121c-40.4-34.3-86.3-60.7-136-79
			c-49.9-18.3-103.7-27.4-156.9-26c-48.6,1.4-97.1,11.2-142.3,29c-47.2,18.6-90.7,44.6-129.2,77.8c-35.9,31-66.5,68.3-91.1,108.8
			c-24.8,41-43.7,86-55.6,132.4c-6,23.5-10.1,47.4-12.7,71.5c-1.2,11,10.5,21.5,21,21c12.4-0.6,19.7-9.3,21-21
			c0.3-2.8,0.6-5.6,1-8.3c0.1-0.5,0.1-0.9,0.2-1.4c0.3-2.3,0.2-1.8-0.2,1.4c0.5-0.6,0.5-3.3,0.6-4.2c0.9-6,1.9-12,3-17.9
			c2.1-11.4,4.7-22.8,7.7-34c2.9-10.8,6.1-21.4,9.7-32c1.8-5.3,3.7-10.5,5.7-15.7c1-2.6,2-5.2,3-7.8c0.5-1.3,1.1-2.6,1.6-3.9
			c0.9-2.1,0.7-1.7-0.5,1.2c0.4-0.9,0.7-1.7,1.1-2.5c8.9-20.7,19.3-40.8,31.1-60c5.9-9.6,12.1-18.9,18.7-28c1.5-2,3-4.1,4.5-6.1
			c0.8-1.1,1.7-2.2,2.5-3.3c2.9-3.9-2.9,3.7,0.1-0.1c3.7-4.6,7.4-9.2,11.2-13.8c14.5-17.1,30.3-33.1,47.3-47.7
			c4.4-3.7,8.8-7.4,13.3-10.9c1-0.8,4.4-4,0.3-0.2c1-1,2.3-1.8,3.4-2.6c2.7-2,5.4-4,8.1-5.9c9.3-6.6,18.8-12.8,28.6-18.7
			c10.1-6,20.6-11.7,31.2-16.8c5.1-2.5,10.2-4.8,15.4-7.1c1.3-0.6,2.6-1.3,3.9-1.7c-5.5,1.7-1,0.4,0.2-0.1c2.8-1.2,5.7-2.3,8.5-3.4
			c21.7-8.3,44-14.8,66.8-19.4c5-1,10.1-1.9,15.2-2.7c1.2-0.2,7.7-0.4,8.3-1.2c-0.9,0.1-1.9,0.2-2.8,0.4c0.9-0.1,1.9-0.2,2.8-0.4
			c1.9-0.2,3.7-0.4,5.6-0.7c11.6-1.3,23.2-2.1,34.9-2.3c11.6-0.2,23.3,0,34.8,0.8c6.3,0.4,12.6,1,18.9,1.8c1.6,0.2,3.2,0.3,4.7,0.6
			c-5.6-1.1-0.4,0,0.7,0.1c3.7,0.5,7.3,1.1,11,1.7c25.6,4.4,50.7,11.3,75,20.3c3,1.1,6,2.3,8.9,3.4c1.5,0.6,3,1.2,4.4,1.8
			c5.1,2-4.1-1.8,0.9,0.4c5.9,2.6,11.7,5.2,17.5,8c10.5,5.1,20.9,10.6,30.9,16.6c10.5,6.2,20.8,12.9,30.7,20
			c2.4,1.7,4.8,3.5,7.1,5.2c1.2,0.9,2.4,1.7,3.5,2.7c-4.3-3.6-0.4-0.3,0.4,0.3c4.6,3.7,9.2,7.4,13.6,11.3c19,16.4,36.3,34.7,52,54.3
			c0.9,1.1,5.9,7.4,2.4,3c1.9,2.4,3.7,4.9,5.6,7.4c4,5.4,7.8,10.8,11.6,16.3c7.3,10.6,14.3,21.4,21,32.4
			c13.2,21.6,25.7,43.7,37,66.3c2.8,5.6,5.5,11.2,8.1,16.8c1.3,2.8,2.6,5.7,3.8,8.5c0.4,1,0.8,1.9,1.2,2.9c0.9,2.1,0.8,1.9-0.3-0.7
			c0.4,1,0.8,1.9,1.2,2.9c4.9,12,9.4,24.2,13.2,36.6c3.7,12,6.7,24.1,9,36.4c0.4,2.2,0.8,4.5,1.2,6.8c0.4,2.4,0.3,5.9,1.2,8.1
			c-0.1-1-0.3-1.9-0.4-2.9c0.1,0.9,0.2,1.8,0.3,2.7c0.2,1.4,0.3,2.7,0.5,4.1c0.4,3.2,0.7,6.4,0.9,9.5c1.8,22.3,1.4,44.7-1.1,66.9
			c-0.2,1.4-0.3,2.7-0.5,4.1c-0.1,0.5-0.1,0.9-0.2,1.4c-0.3,2.3-0.2,1.8,0.2-1.5c-0.8,2.4-0.8,5.6-1.2,8.1c-0.9,5.9-2,11.7-3.3,17.5
			c-2.3,10.7-5,21.4-8.2,31.9c-3.3,10.9-7.1,21.7-11.3,32.4c-0.5,1.3-1,2.5-1.5,3.8c-0.2,0.4-0.3,0.8-0.5,1.3
			c-0.9,2.1-0.7,1.7,0.5-1.2c0.4,1.1-2.8,6.4-3.3,7.5c-2.4,5.4-5,10.7-7.7,16c-10.1,19.8-21.8,38.8-35.1,56.6
			c-0.8,1.1-1.6,2.2-2.4,3.2c-2.9,3.8,3-3.7,0,0c-1.4,1.8-2.8,3.5-4.2,5.3c-3.7,4.5-7.5,9-11.4,13.4c-7.8,8.7-16,17-24.5,25
			c-8.1,7.6-16.5,14.9-25.2,21.8c-1,0.8-2.1,2-3.3,2.6c4.7-2.6,1.1-0.8-0.1,0.1c-2.2,1.7-4.4,3.3-6.7,4.9
			c-4.8,3.5-9.8,6.9-14.7,10.3c-18.7,12.5-38.5,23.5-58.9,33c-2.5,1.2-5,2.3-7.5,3.4c-2.3,1-5.1,2.8-7.6,3.3c0.8-0.3,1.7-0.7,2.5-1
			c-0.8,0.4-1.7,0.7-2.5,1.1c-1.3,0.5-2.5,1-3.8,1.6c-3,1.2-6,2.4-9,3.5c-10.3,3.9-20.7,7.4-31.2,10.6c-21.4,6.5-43.3,11.5-65.4,15
			c-2.7,0.4-5.4,0.8-8.1,1.2c-1.4,0.2-6,0.4,0.2,0c-1.3,0.1-2.7,0.4-4.1,0.5c-6,0.7-12,1.4-18.1,1.9c-11.8,1-23.6,1.7-35.4,1.9
			c-23.2,0.4-46.4-0.8-69.5-3.6c-1.3-0.2-3-0.1-4.2-0.5c0.9,0.1,1.8,0.2,2.8,0.4c-0.9-0.1-1.9-0.3-2.8-0.4c-2.8-0.4-5.6-0.8-8.4-1.3
			c-5.6-0.9-11.2-1.9-16.8-3.1c-11.6-2.3-23.1-5.1-34.5-8.3c-10.9-3.1-21.7-6.6-32.4-10.5c-5.3-2-10.6-4.1-15.9-6.2
			c-4.6-1.9,4.3,1.9-0.2-0.1c-1.3-0.6-2.6-1.1-3.9-1.7c-3-1.3-6.1-2.7-9.1-4.1c-21.1-10-41.4-21.7-60.5-35.2c-2.4-1.7-4.7-3.4-7-5.1
			c-1.1-0.8-2.3-1.7-3.4-2.5c-0.4-0.3-0.7-0.5-1.1-0.8c-1.8-1.4-1.4-1.1,1.1,0.9c-1.1-1.8-4.5-3.6-6.2-5c-2.4-2-4.8-3.9-7.1-5.9
			c-8.1-6.9-15.9-14.2-23.4-21.7c-7.9-7.9-15.4-16.2-22.6-24.7c-1.7-2.1-3.4-4.1-5.1-6.2c-0.8-1-1.7-2.1-2.5-3.2
			c-0.3-0.4-0.6-0.7-0.8-1.1c-1.4-1.8-1.1-1.4,0.8,1.1c-0.9,0-4.2-5.6-4.9-6.4c-1.6-2.2-3.2-4.4-4.7-6.6
			c-13-18.4-24.5-37.9-34.3-58.2c-2.2-4.5-4.2-9-6.2-13.6c-0.1-0.3-1.5-3.8-1.6-3.7c0.4,0.8,0.7,1.7,1.1,2.5c-0.3-0.8-0.7-1.7-1-2.5
			c-1.2-2.9-2.4-5.9-3.5-8.9c-4-10.6-7.6-21.4-10.7-32.3c-3-10.5-5.5-21.2-7.6-31.9c-1.1-5.4-2-10.9-2.8-16.4
			c-0.1-0.5-0.1-0.9-0.2-1.4c-0.3-2.3-0.3-1.8,0.2,1.4c0.3-0.8-0.4-3.3-0.5-4.2c-0.4-3.2-0.7-6.5-1-9.7c-2.1-22.8-2.2-45.8-0.2-68.6
			c0.2-2.8,0.5-5.6,0.8-8.4c0.2-1.8,1.7-6.7,1-8.3c-0.1,0.9-0.2,1.9-0.4,2.8c0.1-0.9,0.3-1.8,0.4-2.8c0.2-1.4,0.4-2.8,0.6-4.2
			c0.5-3.2,1.1-6.4,1.7-9.7c2-11,4.5-21.9,7.5-32.6c3.1-11.2,6.7-22.2,10.9-33c1-2.6,2-5.2,3.1-7.7c1.8-4.5-1.9,4.4,0-0.1
			c0.6-1.3,1.1-2.5,1.7-3.8c2.2-5,4.6-10,7.1-15c4.9-9.8,10.3-19.4,16.2-28.7c2.9-4.6,6-9.2,9.1-13.7c1.6-2.2,3.2-4.5,4.8-6.6
			c0.7-1,1.5-2.5,2.5-3.3c-0.5,0.7-1.1,1.4-1.6,2.1c0.6-0.7,1.1-1.4,1.7-2.1c3.6-4.5,6.2-8.8,6.2-14.8c0-5.2-2.3-11.3-6.2-14.8
			C2174.7-541.4,2159.8-543.6,2152.5-534.4L2152.5-534.4z"/>
	</g>
</g>
<g>
	<g>
		<path d="M1968.7,430.9c-7.7-4.3-15.9-7.9-24.3-10.6c-8.3-2.7-16.8-4.1-25.4-5.2c-16.1-2.1-32.2-0.9-48.2,1.6
			c-14.5,2.3-28.7,6.3-42.4,11.4c-14.1,5.3-28.1,11.5-40.5,20c-13,9-25.1,19.8-33.1,33.6c-8.7,15.1-11.6,32.8-7.5,49.7
			c1.1,4.6,3,9,5,13.2c1.3,2.8,2.8,5.4,4.6,7.9c2.8,3.9,5.8,7.8,9.1,11.2c3.4,3.5,7.3,6.4,11.2,9.4c6.5,4.9,13.6,8.3,21.1,11.4
			c7.1,2.9,14.6,4.8,22.3,5.9c9.8,1.5,19.5,2.3,29.3,2.4c8.2,0.1,16.4-0.2,24.6-0.4c15.9-0.4,31.8-0.5,47.7,0.9
			c3.9,0.3,7.8,0.8,11.7,1.3c-1.9-0.3-3.7-0.5-5.6-0.8c14.8,2,29.5,5.6,43.3,11.3c-1.7-0.7-3.3-1.4-5-2.1c9.4,4,18.2,9.1,26.3,15.3
			c-1.4-1.1-2.8-2.2-4.3-3.3c7.2,5.6,13.7,12,19.3,19.2c-1.1-1.4-2.2-2.8-3.3-4.3c4.7,6.1,8.7,12.7,11.7,19.8
			c-0.7-1.7-1.4-3.3-2.1-5c2.6,6.2,4.4,12.7,5.4,19.4c-0.3-1.9-0.5-3.7-0.8-5.6c1,7.2,0.8,14.5-0.1,21.7c0.2-1.9,0.5-3.7,0.8-5.6
			c-1.8,13.2-6.2,26-11.4,38.3c0.7-1.7,1.4-3.3,2.1-5c-4.9,11.6-10.8,22.9-18.5,32.9c1.1-1.4,2.2-2.8,3.3-4.3
			c-4.6,6-9.9,11.4-15.8,16.1c1.4-1.1,2.8-2.2,4.3-3.3c-5,3.8-10.3,6.9-16.1,9.3c1.7-0.7,3.3-1.4,5-2.1c-6.2,2.6-12.8,4.3-19.5,5.2
			c1.9-0.3,3.7-0.5,5.6-0.8c-9.1,1.2-18.2,0.9-27.3-0.3c1.9,0.3,3.7,0.5,5.6,0.8c-18.9-2.6-37-9-54.5-16.3c1.7,0.7,3.3,1.4,5,2.1
			c-13-5.5-25.7-11.4-38.4-17.5c-12.4-6-24.6-12.4-36.3-19.7c-6.6-4.1-13-8.5-19.2-13.3c1.4,1.1,2.8,2.2,4.3,3.3
			c-9.9-7.7-19.1-16.2-27.1-25.9c-1.9-2-4.2-3.5-6.8-4.3c-2.5-1.3-5.2-1.9-8.1-1.8c-5.2,0-11.3,2.3-14.8,6.2
			c-3.7,4-6.4,9.3-6.2,14.8c0.2,1.9,0.5,3.7,0.8,5.6c1,3.6,2.8,6.6,5.4,9.3c6.6,8,14.1,15.3,22.1,22c9.3,7.7,19.1,14.7,29.3,21.1
			c17.9,11,37,20,56.1,28.8c21.1,9.7,42.7,19.2,65.5,24.2c11.8,2.6,24.2,4.3,36.3,3.8c6.8-0.3,13.6-1.1,20.2-2.6
			c6.7-1.4,12.9-3.9,19.1-6.6c4.7-2,9.1-4.6,13.3-7.6c5.3-3.8,10.5-7.9,15-12.7c8-8.3,14.8-17.9,20.3-27.9
			c5.9-10.6,10.7-21.9,14.8-33.3c4.6-12.8,7.7-26.2,8.5-39.8c0.4-7.2-0.4-14.2-1.4-21.3c-0.7-4.5-1.8-8.9-3.2-13.2
			c-3.5-10.3-8.4-20.2-14.9-28.9c-6.7-8.9-13.9-17.1-22.7-24c-8.8-6.9-17.8-13.1-28-17.8c-11.7-5.3-23.8-9.6-36.3-12.2
			c-12.9-2.8-26.1-4.4-39.2-5.2c-11.6-0.7-23.2-0.8-34.7-0.6c-11.8,0.2-23.6,0.8-35.3,0.5c-5.8-0.2-11.7-0.6-17.4-1.3
			c1.9,0.3,3.7,0.5,5.6,0.8c-8.2-1.1-16.4-3-24-6.2c1.7,0.7,3.3,1.4,5,2.1c-5.9-2.5-11.4-5.7-16.4-9.6c1.4,1.1,2.8,2.2,4.3,3.3
			c-4.1-3.2-7.8-6.8-11-10.9c1.1,1.4,2.2,2.8,3.3,4.3c-2.7-3.5-5-7.3-6.7-11.5c0.7,1.7,1.4,3.3,2.1,5c-1.5-3.6-2.5-7.3-3-11.1
			c0.2,1.9,0.5,3.7,0.8,5.6c-0.5-3.8-0.5-7.6,0-11.3c-0.3,1.9-0.5,3.7-0.8,5.6c0.6-4.1,1.7-8,3.2-11.8c-0.7,1.7-1.4,3.3-2.1,5
			c2-4.7,4.6-9,7.7-13c-1.1,1.4-2.2,2.8-3.3,4.3c4.5-5.8,9.9-10.9,15.7-15.4c-1.4,1.1-2.8,2.2-4.3,3.3c9.7-7.5,20.6-13.3,31.8-18.1
			c-1.7,0.7-3.3,1.4-5,2.1c17.6-7.4,36.1-13,55.1-15.5c-1.9,0.3-3.7,0.5-5.6,0.8c12.8-1.7,25.8-2,38.7-0.3c-1.9-0.3-3.7-0.5-5.6-0.8
			c9.7,1.3,19.2,3.8,28.2,7.5c-1.7-0.7-3.3-1.4-5-2.1c3.7,1.6,7.4,3.4,10.9,5.4c4.8,2.7,10.9,3.6,16.2,2.1
			c4.9-1.3,10.2-5.1,12.6-9.7c2.6-4.9,3.9-10.8,2.1-16.2C1976.7,438.3,1973.6,433.7,1968.7,430.9L1968.7,430.9z"/>
	</g>
</g>
<g>
	<g>
		<path d="M1848,362.6c6,57.6,11.9,115.2,17.9,172.8c5.9,57.3,11.9,114.6,17.8,171.9c3.3,32.2,6.7,64.3,10,96.5
			c0.6,5.7,1.9,10.6,6.2,14.8c3.6,3.6,9.6,6.4,14.8,6.2c5.4-0.2,11.1-2,14.8-6.2c3.5-3.9,6.7-9.4,6.2-14.8
			c-6-57.6-11.9-115.2-17.9-172.8c-5.9-57.3-11.9-114.6-17.8-171.9c-3.3-32.2-6.7-64.3-10-96.5c-0.6-5.7-1.9-10.6-6.2-14.8
			c-3.6-3.6-9.6-6.4-14.8-6.2c-5.4,0.2-11.1,2-14.8,6.2C1850.6,351.6,1847.4,357.1,1848,362.6L1848,362.6z"/>
	</g>
</g>
<g>
	<g>
		<path d="M-404.3,465.9c-7.7-4.3-15.9-7.9-24.3-10.6c-8.3-2.7-16.8-4.1-25.4-5.2c-16.1-2.1-32.2-0.9-48.2,1.6
			c-14.5,2.3-28.7,6.3-42.4,11.4c-14.1,5.3-28.1,11.5-40.5,20c-13,9-25.1,19.8-33.1,33.6c-8.7,15.1-11.6,32.8-7.5,49.7
			c1.1,4.6,3,9,5,13.2c1.3,2.8,2.8,5.4,4.6,7.9c2.8,3.9,5.8,7.8,9.1,11.2c3.4,3.5,7.3,6.4,11.2,9.4c6.5,4.9,13.6,8.3,21.1,11.4
			c7.1,2.9,14.6,4.8,22.3,5.9c9.8,1.5,19.5,2.3,29.3,2.4c8.2,0.1,16.4-0.2,24.6-0.4c15.9-0.4,31.8-0.5,47.7,0.9
			c3.9,0.3,7.8,0.8,11.7,1.3c-1.9-0.3-3.7-0.5-5.6-0.8c14.8,2,29.5,5.6,43.3,11.3c-1.7-0.7-3.3-1.4-5-2.1c9.4,4,18.2,9.1,26.3,15.3
			c-1.4-1.1-2.8-2.2-4.3-3.3c7.2,5.6,13.7,12,19.3,19.2c-1.1-1.4-2.2-2.8-3.3-4.3c4.7,6.1,8.7,12.7,11.7,19.8
			c-0.7-1.7-1.4-3.3-2.1-5c2.6,6.2,4.4,12.7,5.4,19.4c-0.3-1.9-0.5-3.7-0.8-5.6c1,7.2,0.8,14.5-0.1,21.7c0.3-1.9,0.5-3.7,0.8-5.6
			c-1.8,13.2-6.2,26-11.4,38.3c0.7-1.7,1.4-3.3,2.1-5c-4.9,11.6-10.8,22.9-18.5,32.9c1.1-1.4,2.2-2.8,3.3-4.3
			c-4.6,6-9.9,11.4-15.8,16.1c1.4-1.1,2.8-2.2,4.3-3.3c-5,3.8-10.3,6.9-16.1,9.3c1.7-0.7,3.3-1.4,5-2.1c-6.2,2.6-12.8,4.3-19.5,5.2
			c1.9-0.3,3.7-0.5,5.6-0.8c-9.1,1.2-18.2,0.9-27.3-0.3c1.9,0.3,3.7,0.5,5.6,0.8c-18.9-2.6-37-9-54.5-16.3c1.7,0.7,3.3,1.4,5,2.1
			c-13-5.5-25.7-11.4-38.4-17.5c-12.4-6-24.6-12.4-36.3-19.7c-6.6-4.1-13-8.5-19.2-13.3c1.4,1.1,2.8,2.2,4.3,3.3
			c-9.9-7.7-19.1-16.2-27.1-25.9c-1.9-2-4.2-3.5-6.8-4.3c-2.5-1.3-5.2-1.9-8.1-1.8c-5.2,0-11.3,2.3-14.8,6.2
			c-3.7,4-6.4,9.3-6.2,14.8c0.3,1.9,0.5,3.7,0.8,5.6c1,3.6,2.8,6.6,5.4,9.3c6.6,8,14.1,15.3,22.1,22c9.3,7.7,19.1,14.7,29.3,21.1
			c17.9,11,37,20,56.1,28.8c21.1,9.7,42.7,19.2,65.5,24.2c11.8,2.6,24.2,4.3,36.3,3.8c6.8-0.3,13.6-1.1,20.2-2.6
			c6.7-1.4,12.9-3.9,19.1-6.6c4.7-2,9.1-4.6,13.3-7.6c5.3-3.8,10.5-7.9,15-12.7c8-8.3,14.8-17.9,20.3-27.9
			c5.9-10.6,10.7-21.9,14.8-33.3c4.6-12.8,7.7-26.2,8.5-39.8c0.4-7.2-0.4-14.2-1.4-21.3c-0.7-4.5-1.8-8.9-3.2-13.2
			c-3.5-10.3-8.4-20.2-14.9-28.9c-6.7-8.9-13.9-17.1-22.7-24c-8.8-6.9-17.8-13.1-28-17.8c-11.7-5.3-23.8-9.6-36.3-12.2
			c-12.9-2.8-26.1-4.4-39.2-5.2c-11.6-0.7-23.2-0.8-34.7-0.6c-11.8,0.2-23.6,0.8-35.3,0.5c-5.8-0.2-11.7-0.6-17.4-1.3
			c1.9,0.3,3.7,0.5,5.6,0.8c-8.2-1.1-16.4-3-24-6.2c1.7,0.7,3.3,1.4,5,2.1c-5.9-2.5-11.4-5.7-16.4-9.6c1.4,1.1,2.8,2.2,4.3,3.3
			c-4.1-3.2-7.8-6.8-11-10.9c1.1,1.4,2.2,2.8,3.3,4.3c-2.7-3.5-5-7.3-6.7-11.5c0.7,1.7,1.4,3.3,2.1,5c-1.5-3.6-2.5-7.3-3-11.1
			c0.2,1.9,0.5,3.7,0.8,5.6c-0.5-3.8-0.5-7.6,0-11.3c-0.2,1.9-0.5,3.7-0.8,5.6c0.6-4.1,1.7-8,3.2-11.8c-0.7,1.7-1.4,3.3-2.1,5
			c2-4.7,4.6-9,7.7-13c-1.1,1.4-2.2,2.8-3.3,4.3c4.5-5.8,9.9-10.9,15.7-15.4c-1.4,1.1-2.8,2.2-4.3,3.3c9.7-7.5,20.6-13.3,31.8-18.1
			c-1.7,0.7-3.3,1.4-5,2.1c17.6-7.4,36.1-13,55.1-15.5c-1.9,0.3-3.7,0.5-5.6,0.8c12.8-1.7,25.8-2,38.7-0.3c-1.9-0.3-3.7-0.5-5.6-0.8
			c9.7,1.3,19.2,3.8,28.2,7.5c-1.7-0.7-3.3-1.4-5-2.1c3.7,1.6,7.4,3.4,10.9,5.4c4.8,2.7,10.9,3.6,16.2,2.1
			c4.9-1.3,10.1-5.1,12.6-9.7c2.6-4.9,3.9-10.8,2.1-16.2C-396.3,473.3-399.4,468.7-404.3,465.9L-404.3,465.9z"/>
	</g>
</g>
<g>
	<g>
		<path d="M-525,397.6c6,57.6,11.9,115.2,17.9,172.8c5.9,57.3,11.9,114.6,17.8,171.9c3.3,32.2,6.7,64.3,10,96.5
			c0.6,5.7,1.9,10.6,6.2,14.8c3.6,3.6,9.6,6.4,14.8,6.2c5.4-0.2,11.1-2,14.8-6.2c3.5-3.9,6.7-9.4,6.2-14.8
			c-6-57.6-11.9-115.2-17.9-172.8c-5.9-57.3-11.9-114.6-17.8-171.9c-3.3-32.2-6.7-64.3-10-96.5c-0.6-5.7-1.9-10.6-6.2-14.8
			c-3.6-3.6-9.6-6.4-14.8-6.2c-5.4,0.2-11.1,2-14.8,6.2C-522.4,386.6-525.6,392.1-525,397.6L-525,397.6z"/>
	</g>
</g>
<g>
	<g>
		<path d="M2115.5-435.7c4.1,9.9,9.1,18.4,16.6,26.2c6.1,6.3,13.3,11.6,20.8,16.1c13.3,8.1,27.8,13.8,41.7,20.8
			c7.7,3.9,15.3,8.2,22.2,13.5c-1.4-1.1-2.8-2.2-4.2-3.3c4.5,3.5,8.6,7.5,12.2,12c-1.1-1.4-2.2-2.8-3.3-4.3
			c2.9,3.8,5.3,7.9,7.2,12.3c-0.7-1.7-1.4-3.3-2.1-5c2.8,7,4.4,14.3,5.4,21.7c-0.2-1.9-0.5-3.7-0.8-5.6
			c7.1,54.3-3.2,109.2,2.7,163.6c2.8,26.3,8.5,51.4,19.4,75.5c5.3,11.8,12.2,22.5,20.2,32.7c4.4,5.7,9.2,11.2,15.6,14.6
			c5.8,3.1,11.8,4.4,18.3,3.5c6-0.8,10.9-3.2,14.6-8.1c1.5-2,2.7-3.9,3.9-6.1c7.6-13.8,13.6-28.8,17.6-44
			c3.2-12.3,4.6-25.1,9.4-36.9c-0.7,1.7-1.4,3.3-2.1,5c1.6-3.8,3.6-7.4,6.2-10.7c-1.1,1.4-2.2,2.8-3.3,4.3c1.9-2.4,4.1-4.5,6.5-6.4
			c-1.4,1.1-2.8,2.2-4.2,3.3c2.8-2.1,5.8-3.8,8.9-5.2c-1.7,0.7-3.3,1.4-5,2.1c6.3-2.7,13-4,19.8-4.9c-1.9,0.3-3.7,0.5-5.6,0.8
			c16.6-2.2,34.2-1.8,50.1-7.6c19-6.9,35.4-19.9,45.5-37.5c10.6-18.5,13.2-40.5,8.4-61.2c-4.2-17.8-15-33.6-28.7-45.5
			c-13.3-11.5-28.5-20.4-42.4-31.1c1.4,1.1,2.8,2.2,4.3,3.3c-6.3-4.9-12.2-10.3-17.2-16.6c1.1,1.4,2.2,2.8,3.3,4.3
			c-7.4-9.5-10.7-21.3-19.5-29.9c-8.7-8.5-19.9-12.7-29.5-19.9c1.4,1.1,2.8,2.2,4.2,3.3c-2.6-2-4.9-4.2-7-6.8
			c1.1,1.4,2.2,2.8,3.3,4.3c-1.3-1.8-2.4-3.6-3.3-5.7c0.7,1.7,1.4,3.3,2.1,5c-0.5-1.5-0.9-2.9-1.2-4.5c0.2,1.9,0.5,3.7,0.8,5.6
			c-0.2-1.6-0.2-3.1,0-4.7c-0.2,1.9-0.5,3.7-0.8,5.6c0.3-1.5,0.6-3,1.2-4.4c-0.7,1.7-1.4,3.3-2.1,5c0.9-2,1.9-3.8,3.3-5.6
			c-1.1,1.4-2.2,2.8-3.3,4.3c2-2.6,4.3-4.8,6.9-6.8c-1.4,1.1-2.8,2.2-4.3,3.3c6.4-4.8,13.7-8.3,21-11.4c-1.7,0.7-3.3,1.4-5,2.1
			c14.3-6,29.3-10.8,42.9-18.5c11.6-6.5,22.6-14.9,32-24.4c19.6-19.6,34.1-45,40-72.1c6.9-31.7,3.4-64.1-9.5-93.9
			c-11-25.3-29.8-47-50.5-64.9c-12.2-10.5-25.1-20.6-38.7-29.2c-15.2-9.6-33.3-17.1-51.6-15.7c-5.6,0.4-10.8,2.1-14.8,6.2
			c-3.6,3.6-6.4,9.6-6.2,14.8c0.5,10.7,9.3,21.9,21,21c3.6-0.3,7.1-0.2,10.7,0.3c-1.9-0.2-3.7-0.5-5.6-0.8
			c5.3,0.8,10.4,2.4,15.4,4.5c-1.7-0.7-3.3-1.4-5-2.1c13.2,5.8,25,14.6,36.4,23.3c-1.4-1.1-2.8-2.2-4.2-3.3
			c15.5,12,30.1,25.3,42.1,40.8c-1.1-1.4-2.2-2.8-3.3-4.3c7.5,9.7,13.8,20.2,18.6,31.5c-0.7-1.7-1.4-3.3-2.1-5
			c4.2,10.2,7.1,20.9,8.6,31.8c-0.2-1.9-0.5-3.7-0.8-5.6c1.5,11.7,1.6,23.4,0,35.1c0.2-1.9,0.5-3.7,0.8-5.6
			c-1.5,11-4.4,21.6-8.7,31.8c0.7-1.7,1.4-3.3,2.1-5c-4.3,10.1-9.9,19.7-16.7,28.4c1.1-1.4,2.2-2.8,3.3-4.3
			c-6.8,8.7-14.6,16.5-23.3,23.3c1.4-1.1,2.8-2.2,4.2-3.3c-9.2,7-19.1,12.6-29.7,17.1c1.7-0.7,3.3-1.4,5-2.1
			c-12.6,5.3-25.6,9.7-37.8,15.8c-11.7,6-23.8,14.7-29.3,27.1c-4,8.9-5.5,18.4-2.8,28c2.2,7.7,6.8,14.8,12.6,20.3
			c8.9,8.6,20.2,12.9,29.9,20.2c-1.4-1.1-2.8-2.2-4.2-3.3c2.3,1.8,4.4,3.9,6.3,6.2c-1.1-1.4-2.2-2.8-3.3-4.3
			c5,6.8,7.7,14.9,12.7,21.7c5.3,7.1,11.1,13.4,17.9,19.1c12.6,10.3,26.5,18.7,39.4,28.6c-1.4-1.1-2.8-2.2-4.3-3.3
			c6.6,5.1,12.8,10.7,17.9,17.3c-1.1-1.4-2.2-2.8-3.3-4.3c3.3,4.3,6.1,9,8.3,14c-0.7-1.7-1.4-3.3-2.1-5c2.1,5.1,3.5,10.4,4.3,15.9
			c-0.2-1.9-0.5-3.7-0.8-5.6c0.7,5.8,0.7,11.7,0,17.5c0.3-1.9,0.5-3.7,0.8-5.6c-0.8,5-2.1,9.9-4,14.7c0.7-1.7,1.4-3.3,2.1-5
			c-2.1,5-4.8,9.6-8.1,13.9c1.1-1.4,2.2-2.8,3.3-4.3c-3.3,4.2-7.1,8-11.3,11.4c1.4-1.1,2.8-2.2,4.3-3.3c-4.3,3.3-8.9,6-13.8,8.2
			c1.7-0.7,3.3-1.4,5-2.1c-6.6,2.8-13.6,4.3-20.6,5.3c1.9-0.3,3.7-0.5,5.6-0.8c-20.7,2.8-42.4,2.2-61.3,12.6
			c-10.5,5.8-19.5,15.3-24.5,26.2c-4.8,10.3-7.4,20.8-9.6,31.9c-2.5,12.1-5.9,24-10.7,35.4c0.7-1.7,1.4-3.3,2.1-5
			c-2.8,6.6-6.1,13.1-9.7,19.3c4.2-3.2,8.4-6.4,12.6-9.7c-0.3,0.1-0.6,0.1-0.9,0.2c1.9-0.3,3.7-0.5,5.6-0.8c-0.6,0.1-1.2,0.1-1.8,0
			c1.9,0.3,3.7,0.5,5.6,0.8c-1-0.2-1.8-0.4-2.7-0.8c1.7,0.7,3.3,1.4,5,2.1c-1.2-0.6-2.2-1.3-3.3-2.1c1.4,1.1,2.8,2.2,4.3,3.3
			c-3.4-2.8-6.1-6.4-8.8-9.9c1.1,1.4,2.2,2.8,3.3,4.3c-7.4-9.8-13.4-20.5-18.2-31.8c0.7,1.7,1.4,3.3,2.1,5
			c-7.2-17.2-11.5-35.5-14-53.9c0.2,1.9,0.5,3.7,0.8,5.6c-6.5-49.8,0.9-100-1.7-149.9c-0.7-13.4-1.7-27.4-5.3-40.4
			c-3.4-12-9.2-22.5-17.3-32c-11-12.8-26.4-21.4-41.3-28.7c-15.7-7.6-32.2-14-46.1-24.7c1.4,1.1,2.8,2.2,4.3,3.3
			c-4.2-3.3-8.1-7-11.4-11.2c1.1,1.4,2.2,2.8,3.3,4.3c-2.8-3.6-5-7.4-6.8-11.5c0.7,1.7,1.4,3.3,2.1,5c-0.1-0.2-0.2-0.4-0.3-0.7
			c-2.2-5.3-4.5-9.5-9.7-12.6c-4.5-2.6-11.1-3.8-16.2-2.1c-5.1,1.6-10,4.8-12.6,9.7C2115.2-447.2,2113.4-440.7,2115.5-435.7
			L2115.5-435.7z"/>
	</g>
</g>
<g>
	<g>
		<path d="M2695.7-713.8c-28.8,28.5-50.6,63.2-64.9,101c-6.7,17.6-11.4,35.9-14.1,54.5c-3.1,21.9-8.3,49.5,8,67.5
			c11.6,12.8,30.8,13.8,45.9,7.4c10.9-4.6,19.6-12.9,30.4-17.6c-1.7,0.7-3.3,1.4-5,2.1c7.5-3.1,15.3-4.9,23.4-6.1
			c-1.9,0.3-3.7,0.5-5.6,0.8c6.7-0.9,13.5-1.3,20.2-1.6c6.8-0.3,13.7-0.7,20.6,0c-1.9-0.3-3.7-0.5-5.6-0.8c3.2,0.4,6.3,1.2,9.4,2.4
			c-1.7-0.7-3.3-1.4-5-2.1c2.2,1,4.2,2.2,6.1,3.6c-1.4-1.1-2.8-2.2-4.2-3.3c2.6,2,4.8,4.4,6.8,6.9c-1.1-1.4-2.2-2.8-3.3-4.3
			c4.6,6.2,7.8,13.1,10.8,20.2c-0.7-1.7-1.4-3.3-2.1-5c7.6,18,14.7,36.5,17.5,56c-0.2-1.9-0.5-3.7-0.8-5.6
			c1.1,8.2,1.3,16.4,0.2,24.6c0.2-1.9,0.5-3.7,0.8-5.6c-0.8,5.7-2.3,11.3-4.6,16.6c0.7-1.7,1.4-3.3,2.1-5c-1.6,3.8-3.6,7.4-6,10.7
			c1.1-1.4,2.2-2.8,3.3-4.3c-1.5,1.9-3.1,3.5-4.9,5c1.4-1.1,2.8-2.2,4.3-3.3c-1.6,1.2-3.2,2.1-5,2.9c1.7-0.7,3.3-1.4,5-2.1
			c-1.8,0.7-3.5,1.2-5.4,1.5c1.9-0.3,3.7-0.5,5.6-0.8c-2.9,0.4-5.7,0.3-8.5,0c1.9,0.3,3.7,0.5,5.6,0.8c-3.6-0.5-7-1.5-10.3-2.9
			c1.7,0.7,3.3,1.4,5,2.1c-7.6-3.3-14.1-8.4-20.7-13.3c-7.8-5.8-15.6-10.4-24.7-13.9c-18.6-7.1-39.2-5.6-58.4-2.7
			c-10,1.5-19.5,3.8-28.8,8c-9.6,4.3-17,11.6-23.1,19.9c-10.9,15-14.3,35.1-12.9,53.3c0.9,11.8,3.2,23.5,5.4,35.2
			c2.1,10.7,3.8,21.4,5.3,32.2c-0.3-1.9-0.5-3.7-0.8-5.6c2.9,22,4.3,44,4.9,66.2c0.6,20.4,2.2,42.6,13.8,60.2
			c3.6,5.4,7.8,10.5,12.7,14.7c5.5,4.6,11.4,8.6,17.1,13c-1.4-1.1-2.8-2.2-4.3-3.3c4.4,3.4,8.3,7.2,11.7,11.6
			c-1.1-1.4-2.2-2.8-3.3-4.3c7.2,9.6,11.9,20.6,17.6,31c6.9,12.6,15.7,24,27.6,32.3c12,8.4,27.1,10.5,41.3,7.8
			c15.7-3,28.2-15.5,32.5-30.6c4-14-0.2-28,1.6-42.1c-0.2,1.9-0.5,3.7-0.8,5.6c0.6-3.7,1.5-7.2,2.9-10.6c-0.7,1.7-1.4,3.3-2.1,5
			c2.1-4.9,4.9-9.3,8.1-13.5c-1.1,1.4-2.2,2.8-3.3,4.3c9.9-12.6,22.8-22.2,34.1-33.4c6.5-6.4,12.6-13.5,17.3-21.3
			c5.9-9.7,9-20.2,10-31.5c1.2-13.8-2.7-27.7-4.7-41.3c0.3,1.9,0.5,3.7,0.8,5.6c-0.7-5.5-1.1-11.1-0.5-16.6
			c-0.2,1.9-0.5,3.7-0.8,5.6c0.4-3.2,1.2-6.3,2.4-9.4c-0.7,1.7-1.4,3.3-2.1,5c1.1-2.6,2.5-4.9,4.1-7.2c-1.1,1.4-2.2,2.8-3.3,4.3
			c2.1-2.7,4.5-5,7.1-7.1c-1.4,1.1-2.8,2.2-4.3,3.3c3.2-2.4,6.7-4.4,10.5-6c-1.7,0.7-3.3,1.4-5,2.1c4.7-1.9,9.4-3.1,14.4-3.8
			c-1.9,0.3-3.7,0.5-5.6,0.8c14.7-1.9,29.5,0.4,44.1,2c15.1,1.7,30.2,3.4,45.2,5.1c5,0.6,11.4-2.7,14.8-6.2
			c3.6-3.6,6.4-9.6,6.2-14.8c-0.2-5.4-2-11.1-6.2-14.8c-4.4-4-9-5.5-14.8-6.2c-13.9-1.6-27.8-3.1-41.6-4.7
			c-13.5-1.5-27.1-3.7-40.7-3.1c-14.3,0.7-29.4,4-41.3,12.4c-12.5,8.9-22.2,21.4-24.4,37c-0.7,4.6-1.2,9.1-1,13.8
			c0.2,4.7,0.9,9.4,1.5,14c0.9,6.7,2.3,13.4,3.3,20.2c-0.2-1.9-0.5-3.7-0.8-5.6c0.8,6,1.1,12,0.4,18c0.2-1.9,0.5-3.7,0.8-5.6
			c-0.6,3.8-1.6,7.5-3.1,11c0.7-1.7,1.4-3.3,2.1-5c-2.1,4.9-4.9,9.4-8.2,13.7c1.1-1.4,2.2-2.8,3.3-4.3
			c-9.5,12.1-21.8,21.5-32.8,32.2c-12.4,12-24.2,26.9-27.2,44.3c-1.2,7-1.5,13.8-1.1,20.9c0.4,5.9,0.9,11.8,0.2,17.6
			c0.2-1.9,0.5-3.7,0.8-5.6c-0.3,2.5-0.9,4.9-1.8,7.2c0.7-1.7,1.4-3.3,2.1-5c-0.9,2-1.9,3.8-3.2,5.5c1.1-1.4,2.2-2.8,3.3-4.3
			c-1,1.2-2.1,2.3-3.4,3.3c1.4-1.1,2.8-2.2,4.3-3.3c-1.7,1.3-3.5,2.3-5.4,3.1c1.7-0.7,3.3-1.4,5-2.1c-2.3,0.9-4.6,1.4-6.9,1.8
			c1.9-0.3,3.7-0.5,5.6-0.8c-2.7,0.3-5.4,0.3-8.2-0.1c1.9,0.3,3.7,0.5,5.6,0.8c-3-0.4-5.9-1.2-8.7-2.4c1.7,0.7,3.3,1.4,5,2.1
			c-2.8-1.3-5.4-2.9-7.8-4.7c1.4,1.1,2.8,2.2,4.2,3.3c-3.6-2.8-6.8-6.1-9.6-9.7c1.1,1.4,2.2,2.8,3.3,4.3
			c-8.4-11-13.5-23.9-20.5-35.8c-4.2-7.1-9.2-14.1-15.1-19.9c-6.1-5.9-13.4-10.6-20.2-15.8c1.4,1.1,2.8,2.2,4.3,3.3
			c-3.7-2.9-7.2-6-10.1-9.7c1.1,1.4,2.2,2.8,3.3,4.3c-2.6-3.4-4.7-7.1-6.4-11.1c0.7,1.7,1.4,3.3,2.1,5c-2.6-6.4-4.2-13.1-5.1-19.9
			c0.2,1.9,0.5,3.7,0.8,5.6c-1.3-9.9-1.5-20-1.8-30c-0.4-12.7-1.2-25.4-2.4-38c-1.4-13.9-3.2-27.8-5.4-41.6
			c-2-12.5-4.9-24.8-6.7-37.3c0.2,1.9,0.5,3.7,0.8,5.6c-1.2-8.7-1.7-17.4-0.5-26.1c-0.2,1.9-0.5,3.7-0.8,5.6
			c0.8-5.3,2.1-10.4,4.2-15.3c-0.7,1.7-1.4,3.3-2.1,5c1.6-3.7,3.6-7.1,6-10.3c-1.1,1.4-2.2,2.8-3.3,4.3c2.1-2.6,4.4-5,7.1-7.1
			c-1.4,1.1-2.8,2.2-4.3,3.3c2.8-2,5.7-3.7,8.8-5c-1.7,0.7-3.3,1.4-5,2.1c8.3-3.3,17.2-4.7,26-5.9c-1.9,0.3-3.7,0.5-5.6,0.8
			c9.6-1.2,19.2-1.7,28.8-0.6c-1.9-0.3-3.7-0.5-5.6-0.8c5.9,0.8,11.7,2.2,17.2,4.6c-1.7-0.7-3.3-1.4-5-2.1
			c11.2,4.9,19.9,13.4,30.1,19.9c13.3,8.5,29.6,12.7,45.2,9.1c17.8-4.1,28.2-19.5,34.5-35.4c4.9-12.2,6.4-26,5.4-39.1
			c-2-27.2-11.9-52.9-22.9-77.6c-5.4-12.2-12.9-23.2-24-31c-12.6-9-28.4-9.1-43.2-8.5c-15,0.6-30.6,1.5-45,6
			c-7.7,2.4-15.3,5.7-22.1,10.1c-5.8,3.8-11.3,8.3-17.7,11.1c1.7-0.7,3.3-1.4,5-2.1c-2.4,0.9-4.7,1.6-7.2,2c1.9-0.2,3.7-0.5,5.6-0.8
			c-1.9,0.2-3.7,0.2-5.6,0.1c1.9,0.3,3.7,0.5,5.6,0.8c-1.5-0.2-2.9-0.6-4.4-1.1c1.7,0.7,3.3,1.4,5,2.1c-1.4-0.6-2.7-1.3-3.9-2.3
			c1.4,1.1,2.8,2.2,4.2,3.3c-0.9-0.8-1.6-1.5-2.4-2.4c1.1,1.4,2.2,2.8,3.3,4.3c-1-1.4-1.8-2.8-2.5-4.4c0.7,1.7,1.4,3.3,2.1,5
			c-0.8-2.2-1.3-4.4-1.7-6.7c0.2,1.9,0.5,3.7,0.8,5.6c-1.3-10.8,0.3-22.1,1.7-32.8c-0.2,1.9-0.5,3.7-0.8,5.6
			c3.1-22.6,9.1-44.8,18-65.8c-0.7,1.7-1.4,3.3-2.1,5c8.8-20.7,20.1-40.3,33.9-58.1c-1.1,1.4-2.2,2.8-3.3,4.3
			c6.8-8.7,14.2-17,22-24.8c7.8-7.7,8.3-22.1,0-29.7C2717-721.6,2704-722.1,2695.7-713.8L2695.7-713.8z"/>
	</g>
</g>
<g>
	<g>
		<path d="M-796.1,270.4c-5.5,85.9-14.1,171.6-22.7,257.2c-9.4,93.9-19.4,187.7-28.1,281.6c-3.8,41.2-7.4,82.4-10.4,123.7
			c-0.7,10-2.1,20.4-1.8,30.4c0.6,16.7,8.7,31.4,23.8,39.2c13.4,6.9,28.1,8.5,42.9,10c14.4,1.4,28.9,1.9,43.4,1.6
			c27.7-0.4,55.2-3.4,82.8-5.5c24.6-1.8,49.2-3.2,73.8-4.2c52.3-2.1,104.7-2.7,157-2.6c51.4,0.1,102.9,0.9,154.3,2
			c11.8,0.3,23.6,0.5,35.4,0.8c5.7,0.1,11.4,0.3,17.2,0.4c7.4,0.2,14.8,0.8,22.1-0.8c9.1-2,17.1-7.9,21.2-16.3
			c3.4-7,4-14.3,4.8-21.9c0.9-8.1,1.6-16.1,2.3-24.2c6.8-81,8-162.5,9.5-243.8c1.5-85.5,2-171.1,4.9-256.6
			c0.6-17.2,1.3-34.5,2.3-51.7c1.4-24.6,4.9-50.4-3.3-74.2c-9.5-27.4-30.4-48.9-49.6-70c-18-19.8-36.7-39-56.1-57.6
			c-39.6-37.9-82-73-126.4-105.1c-10.6-7.7-21.4-15.2-32.3-22.5c-5.3-3.5-10.5-7.4-16.2-10.2c-10.1-4.9-20-7.1-31.2-5.3
			c-14.5,2.3-27.9,11.8-40.5,19c-10.8,6.1-21.5,12.3-32.2,18.5c-36.6,21.4-72.5,44.1-107.1,68.7c-34.9,24.8-68.6,51.5-101.9,78.5
			c-19.3,15.7-38.5,31.5-57.6,47.4c-8.5,7-7.8,22.5,0,29.7c9,8.3,20.6,7.5,29.7,0c19.4-16,38.7-32,58.2-47.8c8.7-7,17.3-14,26.1-21
			c3.7-3,7.5-5.9,11.2-8.9c2-1.6,4-3.1,6-4.7c1-0.8,2-1.6,3-2.3c1.1-0.8,5.9-4.5,0.7-0.6c31.2-23.6,62.8-46.6,95.7-67.7
			c18.4-11.8,37.1-23.2,55.9-34.2c10.6-6.3,21.4-12.4,32.1-18.5c5.3-3,10.6-6,15.9-8.9c2.9-1.6,5.9-3.1,8.8-4.7c4.5-2.5-4,0.8,1-0.4
			c1.2-0.3,8.1-1.6,2.3-0.8c4.8-0.6-3.8-1.5,0.6-0.2c0.3,0.1,5.1,1.1,1.9,0.4c-3-0.7,1.2,0.6,1.7,0.9c1.4,0.7,2.7,1.5,4.1,2.4
			c6,3.7,11.8,7.7,17.6,11.7c10.8,7.4,21.6,15,32.1,22.7c4.8,3.6,9.7,7.2,14.5,10.8c1.3,1,2.6,2,3.9,3c0.7,0.5,5.1,3.9,1,0.7
			c3,2.3,6,4.7,9,7.1c10.3,8.1,20.5,16.4,30.5,24.9c40.1,33.9,77.8,70.6,112.9,109.6c4,4.5,8,9,12,13.5c2.1,2.4,4.2,4.8,6.2,7.3
			c1,1.2,2,2.5,3,3.7c1.4,1.8,1.3,1.7-0.3-0.5c0.6,0.8,1.3,1.7,1.9,2.6c3.6,4.9,6.9,10.1,9.6,15.5c0.6,1.1,1.4,2.4,1.7,3.6
			c-1.4-5.1-0.1-0.1,0.2,0.9c1.3,3.8,2.1,7.6,2.9,11.5c1.2,5.5-0.2-4.5,0.2,1.2c0.1,1.7,0.3,3.4,0.4,5.1c0.2,3.1,0.2,6.3,0.2,9.5
			c-0.1,6.9-0.5,13.8-1,20.7c-0.5,7.7-0.9,15.3-1.3,23c-4.1,79-4.6,158.1-5.8,237.1c-1.3,84.2-2.3,168.4-6.8,252.5
			c-0.9,17.5-2.1,35-3.5,52.5c-0.7,8-1.4,16-2.2,23.9c-0.2,1.7-0.4,3.4-0.5,5.1c-0.3,3.6,1.3-5.2,0.1-0.8c-0.5,1.8-2,4.7,0.6-0.1
			c-0.2,0.4-0.4,0.7-0.6,1.1c1.8-3.1,4.3-5.1,7.6-5.8c-4.4,1.2,5.1,0.2,0.4,0.1c-3,0-5.9,0-8.9-0.1c-48.7-1.2-97.3-2.3-146-2.9
			c-100.3-1.2-200.9-1.1-300.9,6.6c-27.4,2.1-54.7,5-82.1,5.2c-14.5,0.1-29-0.4-43.4-2.1c-1.8-0.2-3.6-0.4-5.4-0.7
			c4.7,0.6,0.3,0-0.5-0.1c-2.1-0.4-4.2-0.8-6.3-1.3c-2.3-0.6-5.1-2.2-7.4-2.4c0.9,0.4,1.8,0.7,2.7,1.1c-0.8-0.4-1.5-0.7-2.2-1.1
			c-0.7-0.4-1.4-0.8-2.1-1.3c-1.8-1.3-1.3-0.9,1.4,1.1c-0.3-0.3-0.6-0.5-0.9-0.8c-1.5-1.6-1.2-1.1,0.9,1.5c0-0.2-1.8-3.1-1.9-3.1
			c0.4,0.8,0.7,1.6,1.1,2.4c-0.3-1-0.6-2-0.7-3c0,0.1,0.1,5.3,0.3,0.9c0.2-5.6,0.5-11.2,0.8-16.8c0.6-9.2,1.3-18.4,2-27.6
			c1.5-19.8,3.1-39.6,4.8-59.4c7.8-90.4,17.3-180.6,26.4-270.8c8.9-87.9,18-175.8,25-263.9c1.4-18.1,2.8-36.3,3.9-54.4
			c0.7-11-10.2-21.5-21-21C-787,250-795.3,258.7-796.1,270.4L-796.1,270.4z"/>
	</g>
</g>
<g>
	<g>
		<path d="M-518.9,189.8c-7.2,2.2-13.7,6-19,11.3c-0.7,0.7-1.4,1.5-2.1,2.3c-1.7,2.1-3.4,4.2-4.9,6.5c-2.1,3.1-3.4,6.7-4.8,10.2
			c-0.8,1.9-1.4,3.9-1.7,5.9c-0.7,4.1-1.4,8.4-1.3,12.5c0.1,4.2,0.7,8.4,1.5,12.5c0.5,2.4,1.2,4.9,2.1,7.2c2.2,6,4.8,12,8.4,17.3
			c2.2,3.2,4.6,6.3,7.1,9.2c1.5,1.7,3.1,3.2,4.8,4.6c3,2.4,6,4.9,9.4,6.7c3.5,1.9,7.3,3.5,11.2,4.6c4,1.2,8.3,1.6,12.5,2
			c2.5,0.2,5,0.2,7.5,0c6.4-0.5,13.1-1.4,19.2-3.6c7.6-2.7,14.4-6.3,20.3-12c4.6-4.4,8.2-10,11-15.8c1.8-3.8,3.5-7.6,5-11.5
			c0.9-2.4,1.7-4.9,2.1-7.4c0.7-4.2,1.3-8.3,0.8-12.6c-0.5-4.2-1-8.3-2.5-12.2c-2.4-6.3-5.3-12.1-9.1-17.6c-6.5-9.4-14-18.7-23-25.9
			c-3.1-2.5-6.3-5-9.7-7.1c-3.4-2.1-7.1-3.6-10.8-5.1c-2.2-0.9-4.4-1.6-6.8-2.1c-4.2-0.8-8.6-1.4-12.9-1.3
			c-4.3,0.1-8.7,0.7-12.9,1.6c-2.6,0.5-5.1,1.3-7.5,2.2c-6.4,2.3-12.5,5.2-18.3,8.7c-2.2,1.3-4.4,2.7-6.5,4.1
			c-4.6,3-8.2,7.2-9.7,12.6c-0.9,2.8-1,5.6-0.4,8.4c0.1,2.8,1,5.4,2.5,7.8c2.9,4.5,7.2,8.4,12.6,9.7c5.4,1.2,11.4,1,16.2-2.1
			c5.5-3.6,11.2-7,17.3-9.6c-1.7,0.7-3.3,1.4-5,2.1c4.1-1.7,8.4-3,12.8-3.6c-1.9,0.3-3.7,0.5-5.6,0.8c3.3-0.4,6.7-0.5,10.1-0.1
			c-1.9-0.3-3.7-0.5-5.6-0.8c3,0.4,5.8,1.2,8.6,2.3c-1.7-0.7-3.3-1.4-5-2.1c3.8,1.6,7.3,3.8,10.6,6.3c-1.4-1.1-2.8-2.2-4.3-3.3
			c6.4,5,12,11,17,17.4c-1.1-1.4-2.2-2.8-3.3-4.3c3.8,5,7.5,10.3,9.9,16.1c-0.7-1.7-1.4-3.3-2.1-5c1,2.5,1.8,5.1,2.2,7.8
			c-0.3-1.9-0.5-3.7-0.8-5.6c0.3,2.2,0.3,4.4,0,6.5c0.3-1.9,0.5-3.7,0.8-5.6c-0.5,3.2-1.5,6.2-2.7,9.1c0.7-1.7,1.4-3.3,2.1-5
			c-2.1,4.9-4.4,9.8-7.6,14c1.1-1.4,2.2-2.8,3.3-4.3c-1.4,1.7-2.9,3.3-4.7,4.7c1.4-1.1,2.8-2.2,4.3-3.3c-2.2,1.6-4.5,2.9-7,4
			c1.7-0.7,3.3-1.4,5-2.1c-4,1.6-8.2,2.6-12.4,3.2c1.9-0.3,3.7-0.5,5.6-0.8c-4.1,0.5-8.2,0.6-12.3,0.1c1.9,0.3,3.7,0.5,5.6,0.8
			c-3.1-0.4-6-1.2-8.9-2.4c1.7,0.7,3.3,1.4,5,2.1c-2.5-1.1-4.8-2.5-7-4.2c1.4,1.1,2.8,2.2,4.3,3.3c-2.8-2.2-5.2-4.7-7.4-7.5
			c1.1,1.4,2.2,2.8,3.3,4.3c-2.9-3.8-5.3-8-7.2-12.4c0.7,1.7,1.4,3.3,2.1,5c-1.7-3.9-2.9-8-3.5-12.2c0.3,1.9,0.5,3.7,0.8,5.6
			c-0.4-3.3-0.5-6.7-0.1-10c-0.3,1.9-0.5,3.7-0.8,5.6c0.4-2.6,1.1-5.1,2.1-7.6c-0.7,1.7-1.4,3.3-2.1,5c1-2.4,2.3-4.6,3.8-6.6
			c-1.1,1.4-2.2,2.8-3.3,4.3c1.4-1.8,3-3.4,4.8-4.8c-1.4,1.1-2.8,2.2-4.3,3.3c1.5-1.2,3.2-2.1,4.9-2.9c-1.7,0.7-3.3,1.4-5,2.1
			c0.8-0.3,1.6-0.6,2.4-0.9c5.1-1.6,9.8-5,12.6-9.7c1.5-2.4,2.4-5,2.5-7.8c0.6-2.8,0.5-5.6-0.4-8.4c-1.6-5.1-4.8-10-9.7-12.6
			C-507.7,189.3-513.4,188.1-518.9,189.8L-518.9,189.8z"/>
	</g>
</g>
<g>
	<g>
		<path d="M1549-375.1c-13.8-2.2-27.6-3.4-41.5-2.7c-13.7,0.6-27.4,2.5-40.7,5.7c-13.5,3.3-26.5,8.1-39,13.9
			c-10.9,5-21.4,11.2-31.1,18.4c-6,4.5-12,9.1-17.3,14.5c-5.2,5.2-9.9,11.1-13.9,17.3c-4,6.2-7.2,13.2-9.2,20.4
			c-1.3,4.4-1.8,8.9-2.4,13.5c-0.4,2.8-0.5,5.7-0.4,8.5c0.7,16.1,6.9,32.3,19.3,43c3.3,2.9,6.9,5.6,10.6,7.9
			c3.8,2.3,7.8,3.9,11.9,5.6c6.9,2.8,13.9,4,21.3,4.9c14.1,1.8,28.2-0.1,42.3-1.5c13.7-1.4,27.5-2.3,41.3-1.5
			c3.4,0.2,6.8,0.5,10.2,1c-1.9-0.3-3.7-0.5-5.6-0.8c10.1,1.4,20,3.9,29.4,7.9c-1.7-0.7-3.3-1.4-5-2.1c9.1,3.8,17.6,8.8,25.4,14.8
			c-1.4-1.1-2.8-2.2-4.3-3.3c7.6,5.9,14.5,12.8,20.5,20.4c-1.1-1.4-2.2-2.8-3.3-4.3c5.6,7.3,10.3,15.2,13.8,23.7
			c-0.7-1.7-1.4-3.3-2.1-5c3.5,8.4,5.8,17.2,7.1,26.2c-0.3-1.9-0.5-3.7-0.8-5.6c1.3,9.5,1.3,19.2,0,28.7c0.3-1.9,0.5-3.7,0.8-5.6
			c-1.3,9.3-3.7,18.5-7.4,27.1c0.7-1.7,1.4-3.3,2.1-5c-3.2,7.6-7.4,14.8-12.4,21.4c1.1-1.4,2.2-2.8,3.3-4.3
			c-5.1,6.6-11,12.5-17.6,17.6c1.4-1.1,2.8-2.2,4.3-3.3c-7,5.4-14.7,9.9-22.8,13.4c1.7-0.7,3.3-1.4,5-2.1c-8.1,3.4-16.7,5.8-25.4,7
			c1.9-0.3,3.7-0.5,5.6-0.8c-8.3,1.1-16.7,1.1-25,0c1.9,0.3,3.7,0.5,5.6,0.8c-10.3-1.4-20.3-4.4-29.9-8.5c1.7,0.7,3.3,1.4,5,2.1
			c-23.3-9.9-43.8-25.1-65-38.7c-6.1-3.9-12.3-7.7-18.6-11.2c-4.8-2.7-10.8-3.6-16.2-2.1c-4.9,1.3-10.2,5.1-12.6,9.7
			c-2.6,4.9-3.9,10.8-2.1,16.2c1.7,5.1,4.8,9.9,9.7,12.6c16.1,8.9,31.1,19.5,46.5,29.4c16.4,10.6,33.6,20.2,52.2,26.4
			c10,3.3,20.6,5.2,31.1,6c10.2,0.8,20.6-0.3,30.6-2.3c20.2-4,38.6-13.9,54.3-26.9c7.8-6.5,14.4-14.2,20.3-22.4
			c6.2-8.6,10.7-18.3,14.3-28.2c3.7-10.1,5.6-20.5,6.7-31.2c1.1-10.7,0.3-21.3-1.2-31.9c-1.4-9.8-4.2-19.1-8.1-28.2
			c-3.6-8.6-7.9-16.7-13.4-24.2c-5.9-8-12.3-15.6-19.8-22.2c-7.5-6.6-15.7-12.6-24.5-17.4c-8.8-4.8-18.2-8.8-27.8-11.6
			c-11.4-3.3-23.3-4.8-35.1-5.4c-10.8-0.5-21.6,0-32.4,1c-11,1-21.9,2.6-32.9,2.9c-5.4,0.2-10.7,0-16-0.7c1.9,0.3,3.7,0.5,5.6,0.8
			c-5.5-0.8-10.8-2.1-15.9-4.3c1.7,0.7,3.3,1.4,5,2.1c-3.9-1.7-7.7-3.8-11.1-6.3c1.4,1.1,2.8,2.2,4.3,3.3c-2.7-2.1-5.1-4.4-7.2-7.1
			c1.1,1.4,2.2,2.8,3.3,4.3c-1.9-2.5-3.5-5.2-4.8-8.1c0.7,1.7,1.4,3.3,2.1,5c-1.4-3.4-2.4-7-2.9-10.6c0.2,1.9,0.5,3.7,0.8,5.6
			c-0.5-4.2-0.5-8.5,0.1-12.7c-0.2,1.9-0.5,3.7-0.8,5.6c0.7-4.6,1.9-9.1,3.7-13.4c-0.7,1.7-1.4,3.3-2.1,5c2.2-5.2,5.1-9.9,8.5-14.4
			c-1.1,1.4-2.2,2.8-3.3,4.3c5.2-6.8,11.5-12.6,18.3-17.9c-1.4,1.1-2.8,2.2-4.3,3.3c11.9-9.1,25-16.5,38.7-22.3
			c-1.7,0.7-3.3,1.4-5,2.1c15.1-6.3,31-10.6,47.2-12.8c-1.9,0.3-3.7,0.5-5.6,0.8c16-2.1,32.3-2.2,48.3-0.1c-1.9-0.3-3.7-0.5-5.6-0.8
			c1.3,0.2,2.6,0.4,3.9,0.6c2.8,0.9,5.6,1,8.4,0.4c2.8-0.1,5.4-1,7.8-2.5c4.4-2.5,8.5-7.5,9.7-12.6c1.2-5.4,1-11.4-2.1-16.2
			C1558.8-369.8,1554.3-374.3,1549-375.1L1549-375.1z"/>
	</g>
</g>
<g>
	<g>
		<path d="M1450.2-408.9c-1.3,61.3,6.5,122.2,10,183.3c1.8,31,1.8,61.9,1,92.9c-0.7,30.8-1.5,61.6-0.8,92.5
			c0.8,34.9,3,69.7,5.2,104.6c0.3,5.6,2.1,10.8,6.2,14.8c3.6,3.6,9.6,6.4,14.8,6.2c5.4-0.2,11.1-2,14.8-6.2c3.6-4,6.5-9.3,6.2-14.8
			c-1.9-31.1-3.9-62.1-4.9-93.2c-1-30.8-0.6-61.6,0.2-92.5c0.8-31,1.3-62.1-0.2-93.1c-1.4-30.4-4.1-60.8-6.5-91.2
			c-2.6-34.4-4.8-68.8-4.1-103.3c0.1-5.3-2.4-11.1-6.2-14.8c-3.6-3.6-9.6-6.4-14.8-6.2C1459.6-429.4,1450.5-420.7,1450.2-408.9
			L1450.2-408.9z"/>
	</g>
</g>
<image style="overflow:visible;" width="121" height="152" xlink:href="3922B628.jpg"  transform="matrix(4.3779 0 0 4.3779 121 -1754)">
</image>
<g>
	<g>
		<g>
			<path d="M3027.1,702.6c-8.6-1.9-17-4.6-25.1-8c1.7,0.7,3.3,1.4,5,2.1c-12.3-5.2-23.9-12.1-34.5-20.3c1.4,1.1,2.8,2.2,4.3,3.3
				c-11.3-8.8-21.5-19-30.2-30.3c1.1,1.4,2.2,2.8,3.3,4.3c-9-11.7-16.5-24.5-22.3-38.1c0.7,1.7,1.4,3.3,2.1,5
				c-5.7-13.6-9.5-27.8-11.5-42.4c0.2,1.9,0.5,3.7,0.8,5.6c-2.2-16.6-2.1-33.3,0.1-49.9c-0.2,1.9-0.5,3.7-0.8,5.6
				c2.4-17.8,7.3-35.2,14.2-51.7c-0.7,1.7-1.4,3.3-2.1,5c6.9-16.3,15.9-31.6,26.7-45.7c-1.1,1.4-2.2,2.8-3.3,4.3
				c11.7-15.1,25.5-28.6,40.6-40.4c-1.4,1.1-2.8,2.2-4.3,3.3c17.1-13.1,35.8-23.9,55.6-32.3c-1.7,0.7-3.3,1.4-5,2.1
				c21.9-9.2,44.9-15.5,68.4-18.6c-1.9,0.3-3.7,0.5-5.6,0.8c22-2.9,44.3-3.1,66.4-0.2c-1.9-0.3-3.7-0.5-5.6-0.8
				c19.4,2.6,38.4,7.6,56.4,15.2c-1.7-0.7-3.3-1.4-5-2.1c16.4,7,31.9,16.1,46,27c-1.4-1.1-2.8-2.2-4.3-3.3
				c14.6,11.3,27.8,24.5,39.1,39.2c-1.1-1.4-2.2-2.8-3.3-4.3c11.1,14.4,20.3,30.2,27.4,46.9c-0.7-1.7-1.4-3.3-2.1-5
				c7.4,17.7,12.4,36.4,15,55.5c-0.2-1.9-0.5-3.7-0.8-5.6c2.6,19.6,2.6,39.4,0,59c0.2-1.9,0.5-3.7,0.8-5.6
				c-2.5,18.8-7.5,37.2-14.8,54.8c0.7-1.7,1.4-3.3,2.1-5c-7.1,16.8-16.4,32.6-27.5,47c1.1-1.4,2.2-2.8,3.3-4.3
				c-11.6,14.9-25,28.4-39.9,40c1.4-1.1,2.8-2.2,4.2-3.3c-15.1,11.7-31.7,21.4-49.3,28.9c1.7-0.7,3.3-1.4,5-2.1
				c-9.4,3.9-19.1,7.2-29,9.8c-5.1,1.3-9.9,5.2-12.6,9.7c-2.6,4.5-3.8,11.1-2.1,16.2c3.5,11,14.4,17.6,25.8,14.7
				c39.6-10.3,76.3-31.4,105.8-59.8c30.2-29.1,52.6-66.2,63.7-106.7c6-21.9,8.8-45,8.4-67.7c-0.4-22.7-3.9-45.7-10.7-67.3
				c-12.8-41-37-78.6-69.5-106.8c-16-13.9-33.6-26-52.8-34.9c-21.5-10.1-44.1-17-67.6-20.3c-23.7-3.3-47.4-3.9-71.2-0.9
				c-22.3,2.8-44.2,7.6-65.3,15.5c-40,15-77.2,38.3-105.8,70.3c-29.2,32.6-49.7,73.6-55.9,117.1c-1.7,11.7-2.8,23.3-2.7,35.1
				c0.2,12,1.5,23.9,3.7,35.7c3.7,19.8,11,39.1,20.9,56.6c9.7,17.2,22.4,33.2,37,46.5c7.9,7.2,16.4,13.8,25.4,19.6
				c9,5.8,18.6,10.4,28.5,14.6c8.1,3.4,16.5,6.1,25.1,8c5.5,1.2,11.2,0.8,16.2-2.1c4.4-2.5,8.5-7.5,9.7-12.6
				c1.2-5.4,1-11.4-2.1-16.2C3036.7,707.8,3032.4,703.8,3027.1,702.6L3027.1,702.6z"/>
		</g>
	</g>
	<g>
		<g>
			<path d="M3000.5,727.3c-4.1,27.7-7.3,55.5-9.4,83.4c-2,26.3-3.1,52.6-3.2,79c0,6.6,0,13.1,0.1,19.7c0.1,8.1,0.2,16.1,1.5,24.2
				c0.2,1.4,0.6,2.8,1.1,4.1c1,2.6,2.1,5.6,3.6,8.1c1.4,2.3,3.2,4.5,5,6.5c1.9,2.1,4.4,3.8,6.5,5.4c3.1,2.3,6.8,3.7,10.4,5.1
				c2,0.8,4.2,1.4,6.3,1.9c5.6,1.2,11.3,1.9,16.9,2.7c6.6,1,13.1,2,19.7,3c13.1,2,26.3,3.9,39.4,5.9c26.3,3.9,52.6,7.9,78.9,11.8
				c3.3,0.5,6.6,1,9.9,1.5c2.8,0.9,5.6,1,8.4,0.4c2.8-0.1,5.4-1,7.8-2.5c1.4-1.1,2.8-2.2,4.3-3.3c2.6-2.6,4.4-5.7,5.4-9.3
				c3.8-27.1,7.2-54.4,10.1-81.6c2.7-25.5,4.9-51.1,6.7-76.7c1-14.4,1.9-28.8,2.6-43.3c0.1-2.9-0.5-5.6-1.8-8.1
				c-0.8-2.6-2.3-4.9-4.3-6.8c-1.9-2-4.2-3.5-6.8-4.3c-2.5-1.3-5.2-1.9-8.1-1.8c-5.4,0.2-11.1,2-14.8,6.2c-1.1,1.4-2.2,2.8-3.3,4.3
				c-1.9,3.3-2.9,6.8-2.9,10.6c-1.2,23.8-2.8,47.6-4.7,71.4c-2,23.8-4.3,47.5-7.1,71.1c-1.5,13.3-3.2,26.5-5,39.7
				c0.2-1.9,0.5-3.7,0.8-5.6c-0.6,4.6-1.2,9.1-1.9,13.7c8.6-4.9,17.2-9.8,25.8-14.7c-23.2-3.5-46.3-6.9-69.5-10.4
				c-23.2-3.5-46.3-6.9-69.5-10.4c-6.4-1-12.8-1.9-19.2-2.9c-4.5-0.7-9-1.4-13.2-3.2c1.7,0.7,3.3,1.4,5,2.1c-1.8-0.8-3.5-1.7-5-2.9
				c1.4,1.1,2.8,2.2,4.3,3.3c-1.1-0.9-2.1-1.9-3-3c1.1,1.4,2.2,2.8,3.3,4.3c-0.9-1.2-1.7-2.5-2.2-3.9c0.7,1.7,1.4,3.3,2.1,5
				c-0.7-1.8-1.1-3.6-1.4-5.6c0.2,1.9,0.5,3.7,0.8,5.6c-0.7-5.7-0.5-11.5-0.6-17.2c-0.1-5.9-0.1-11.8-0.1-17.7
				c0-11.8,0.3-23.6,0.7-35.5c0.8-23.4,2.4-46.9,4.6-70.2c1.3-13.2,2.8-26.4,4.6-39.5c-0.2,1.9-0.5,3.7-0.8,5.6
				c0.6-4.7,1.3-9.4,2-14.1c0.9-2.8,1-5.6,0.4-8.4c-0.1-2.8-1-5.4-2.5-7.8c-1.3-2.4-3.1-4.4-5.4-5.9c-2-1.9-4.4-3.1-7.1-3.8
				c-5.4-1.2-11.4-1-16.2,2.1c-1.4,1.1-2.8,2.2-4.2,3.3C3003.3,720.7,3001.5,723.7,3000.5,727.3L3000.5,727.3z"/>
		</g>
	</g>
	<g>
		<g>
			<path d="M3044.6,866c16.9,1.7,33.8,3.4,50.7,5c17,1.7,34,3.4,51,5.1c9.5,0.9,19.1,1.9,28.6,2.8c2.9,0.1,5.6-0.5,8.1-1.8
				c2.6-0.8,4.9-2.3,6.8-4.3c2-1.9,3.5-4.2,4.3-6.8c1.3-2.5,1.9-5.2,1.8-8.1c-0.2-5.4-2-11.1-6.2-14.8c-1.4-1.1-2.8-2.2-4.3-3.3
				c-3.3-1.9-6.8-2.9-10.6-2.9c-16.9-1.7-33.8-3.4-50.7-5c-17-1.7-34-3.4-51-5.1c-9.5-0.9-19.1-1.9-28.6-2.8
				c-2.9-0.1-5.6,0.5-8.1,1.8c-2.6,0.8-4.9,2.3-6.8,4.3c-2,1.9-3.5,4.2-4.3,6.8c-1.3,2.5-1.9,5.2-1.8,8.1c0.2,5.4,2,11.1,6.2,14.8
				c1.4,1.1,2.8,2.2,4.2,3.3C3037.3,865,3040.8,866,3044.6,866L3044.6,866z"/>
		</g>
	</g>
	<g>
		<g>
			<path d="M3013.8,778.3c18.5,2.9,37,5.9,55.5,8.8c18.4,2.9,36.9,5.8,55.3,8.8c10.5,1.7,20.9,3.3,31.4,5c2.8,0.9,5.6,1,8.4,0.4
				c2.8-0.1,5.4-1,7.8-2.5c2.4-1.3,4.4-3.1,5.9-5.4c1.9-2,3.1-4.4,3.8-7.1c1.2-5.4,1-11.4-2.1-16.2c-2.8-4.4-7.2-8.6-12.6-9.7
				c-26-5.3-51.8-11.3-77.4-18.1c-7.3-1.9-14.5-3.9-21.8-6c-1.9,13.7-3.7,27.5-5.6,41.2c16.6,1.5,33.2,3,49.9,4.5
				c16.6,1.5,33.2,3,49.9,4.5c9.4,0.9,18.9,1.7,28.3,2.6c2.9,0.1,5.6-0.5,8.1-1.8c2.6-0.8,4.9-2.3,6.8-4.3c2-1.9,3.5-4.2,4.3-6.8
				c1.3-2.5,1.9-5.2,1.8-8.1c-0.2-5.4-2-11.1-6.2-14.8c-1.4-1.1-2.8-2.2-4.3-3.3c-3.3-1.9-6.8-2.9-10.6-2.9
				c-16.6-1.5-33.2-3-49.9-4.5s-33.2-3-49.9-4.5c-9.4-0.9-18.9-1.7-28.3-2.6c-2.9-0.1-5.6,0.5-8.1,1.8c-2.6,0.8-4.9,2.3-6.8,4.3
				c-1.1,1.4-2.2,2.8-3.3,4.3c-1.5,2.4-2.4,5-2.5,7.8c-0.5,1.9-0.5,3.7,0,5.6c0.1,2.8,1,5.4,2.5,7.8c3,4.6,7.2,8.1,12.6,9.7
				c25.5,7.2,51.2,13.7,77,19.4c7.3,1.6,14.7,3.2,22.1,4.7c3.7-13.5,7.4-27,11.2-40.5c-18.5-2.9-37-5.9-55.5-8.8
				c-18.4-2.9-36.9-5.8-55.3-8.8c-10.5-1.7-20.9-3.3-31.4-5c-2.8-0.9-5.6-1-8.4-0.4c-2.8,0.1-5.4,1-7.8,2.5
				c-2.4,1.3-4.4,3.1-5.9,5.4c-1.9,2-3.1,4.4-3.8,7.1c-1.2,5.4-1,11.4,2.1,16.2c1.1,1.4,2.2,2.8,3.3,4.3
				C3007.2,775.5,3010.3,777.3,3013.8,778.3L3013.8,778.3z"/>
		</g>
	</g>
	<g>
		<g>
			<path d="M3158.2,441.9c3.5,1.1,6.9,2.4,10.2,3.8c-1.7-0.7-3.3-1.4-5-2.1c11.2,4.7,21.6,10.9,31.2,18.3c-1.4-1.1-2.8-2.2-4.3-3.3
				c10.2,7.9,19.3,17,27.2,27.2c-1.1-1.4-2.2-2.8-3.3-4.3c7.8,10.1,14.2,21.1,19.2,32.8c-0.7-1.7-1.4-3.3-2.1-5
				c4.6,10.9,7.9,22.4,9.5,34.2c0.6,2.7,1.9,5.1,3.8,7.1c1.5,2.3,3.4,4.1,5.9,5.4c2.4,1.5,5,2.4,7.8,2.5c2.8,0.6,5.6,0.5,8.4-0.4
				c5.1-1.6,10-4.8,12.6-9.7c0.7-1.7,1.4-3.3,2.1-5c1-3.7,1-7.4,0-11.2c-1.5-10.4-4.2-20.7-8-30.5c-4.4-11.3-9.6-22.2-16.3-32.4
				c-13.4-20.4-30.8-37.8-51.3-51c-11.3-7.2-23.7-12.9-36.4-17.1c-2.8-0.9-5.6-1-8.4-0.4c-2.8,0.1-5.4,1-7.8,2.5
				c-2.4,1.3-4.4,3.1-5.9,5.4c-1.9,2-3.1,4.4-3.8,7.1c-1.2,5.4-1,11.4,2.1,16.2c1.1,1.4,2.2,2.8,3.3,4.3
				C3151.6,439.1,3154.7,440.9,3158.2,441.9L3158.2,441.9z"/>
		</g>
	</g>
	<g>
		<g>
			<path d="M3189,226.9c0.9-26.4,2.4-52.7,4.5-79c0.6-7.4,1.3-14.9,2-22.3c0.1-2.9-0.5-5.6-1.8-8.1c-0.8-2.6-2.3-4.9-4.3-6.8
				c-1.9-2-4.2-3.5-6.8-4.3c-2.5-1.3-5.2-1.9-8.1-1.8c-5.4,0.2-11.1,2-14.8,6.2c-1.1,1.4-2.2,2.8-3.3,4.3c-1.9,3.3-2.9,6.8-2.9,10.6
				c-2.5,26.3-4.4,52.6-5.6,78.9c-0.3,7.5-0.6,14.9-0.9,22.4c-0.1,2.9,0.5,5.6,1.8,8.1c0.8,2.6,2.3,4.9,4.3,6.8
				c1.9,2,4.2,3.5,6.8,4.3c2.5,1.3,5.2,1.9,8.1,1.8c5.4-0.2,11.1-2,14.8-6.2C3186.7,237.5,3188.8,232.6,3189,226.9L3189,226.9z"/>
		</g>
	</g>
	<g>
		<g>
			<path d="M2863.9,206.1c10.8,12.1,21.2,24.4,31.3,37c2.9,3.6,5.8,7.3,8.6,11c-1.1-1.4-2.2-2.8-3.3-4.3c6.8,8.9,13.5,17.9,20,27
				c1.3,2.4,3.1,4.4,5.4,5.9c2,1.9,4.4,3.1,7.1,3.8c2.8,0.9,5.6,1,8.4,0.4c2.8-0.1,5.4-1,7.8-2.5c4.5-2.9,8.4-7.2,9.7-12.6
				c0.2-1.9,0.5-3.7,0.8-5.6c0-3.8-1-7.3-2.9-10.6c-15.5-21.7-31.9-42.9-49.2-63.2c-4.6-5.4-9.3-10.8-14-16c-1.9-2-4.2-3.5-6.8-4.3
				c-2.5-1.3-5.2-1.9-8.1-1.8c-2.9-0.1-5.6,0.5-8.1,1.8c-2.6,0.8-4.9,2.3-6.8,4.3c-3.7,4-6.4,9.3-6.2,14.8c0.2,1.9,0.5,3.7,0.8,5.6
				C2859.5,200.4,2861.3,203.5,2863.9,206.1L2863.9,206.1z"/>
		</g>
	</g>
	<g>
		<g>
			<path d="M2749,478.9c19.3-1,38.6-0.2,57.7,2.4c-1.9-0.3-3.7-0.5-5.6-0.8c6.6,0.9,13.1,2,19.6,3.3c2.8,0.9,5.6,1,8.4,0.4
				c2.8-0.1,5.4-1,7.8-2.5c2.4-1.3,4.4-3.1,5.9-5.4c1.9-2,3.1-4.4,3.8-7.1c1.2-5.4,1-11.4-2.1-16.2c-2.8-4.4-7.2-8.6-12.6-9.7
				c-21.6-4.3-43.7-6.7-65.7-6.8c-5.7,0-11.5,0.1-17.2,0.4c-2.9-0.1-5.6,0.5-8.1,1.8c-2.6,0.8-4.9,2.3-6.8,4.3
				c-2,1.9-3.5,4.2-4.3,6.8c-1.3,2.5-1.9,5.2-1.8,8.1c0.2,5.4,2,11.1,6.2,14.8C2738.2,476.4,2743.4,479.2,2749,478.9L2749,478.9z"/>
		</g>
	</g>
	<g>
		<g>
			<path d="M2804.5,769c16.1-11.9,32.3-23.9,48.4-35.8c2.4-1.3,4.4-3.1,5.9-5.4c1.9-2,3.1-4.4,3.8-7.1c0.9-2.8,1-5.6,0.4-8.4
				c-0.1-2.8-1-5.4-2.5-7.8c-2.9-4.5-7.2-8.4-12.6-9.7c-1.9-0.3-3.7-0.5-5.6-0.8c-3.8,0-7.3,1-10.6,2.9
				c-16.1,11.9-32.3,23.9-48.4,35.8c-2.4,1.3-4.4,3.1-5.9,5.4c-1.9,2-3.1,4.4-3.8,7.1c-0.9,2.8-1,5.6-0.4,8.4c0.1,2.8,1,5.4,2.5,7.8
				c2.9,4.5,7.2,8.4,12.6,9.7c1.9,0.3,3.7,0.5,5.6,0.8C2797.7,771.8,2801.2,770.9,2804.5,769L2804.5,769z"/>
		</g>
	</g>
	<g>
		<g>
			<path d="M3417.9,373.5c0.9-0.7,1.7-1.4,2.6-2c-1.4,1.1-2.8,2.2-4.2,3.3c16.5-12.7,33.5-24.7,51.1-35.9c4.9-3.1,9.9-6.2,14.9-9.2
				c4.6-2.7,8.2-7.4,9.7-12.6c0.9-2.8,1-5.6,0.4-8.4c-0.1-2.8-1-5.4-2.5-7.8c-2.9-4.5-7.2-8.4-12.6-9.7c-5.5-1.2-11.3-0.8-16.2,2.1
				c-18.7,11.2-36.8,23.3-54.3,36.2c-6.3,4.6-12.4,9.4-18.6,14.2c-2,1.9-3.5,4.2-4.3,6.8c-1.3,2.5-1.9,5.2-1.8,8.1
				c-0.1,2.9,0.5,5.6,1.8,8.1c0.8,2.6,2.3,4.9,4.3,6.8c4,3.7,9.3,6.4,14.8,6.2c1.9-0.3,3.7-0.5,5.6-0.8
				C3412.2,377.9,3415.3,376.1,3417.9,373.5L3417.9,373.5z"/>
		</g>
	</g>
	<g>
		<g>
			<path d="M3445.8,594.2c21.5,5.2,43.3,8.9,65.2,11.6c2.9,0.1,5.6-0.5,8.1-1.8c2.6-0.8,4.9-2.3,6.8-4.3c2-1.9,3.5-4.2,4.3-6.8
				c1.3-2.5,1.9-5.2,1.8-8.1c-0.2-5.4-2-11.1-6.2-14.8c-1.4-1.1-2.8-2.2-4.2-3.3c-3.3-1.9-6.8-2.9-10.6-2.9
				c-1.9-0.2-3.9-0.5-5.8-0.7c1.9,0.2,3.7,0.5,5.6,0.8c-18.1-2.4-36.1-5.8-53.8-10.1c-5.4-1.3-11.3-0.7-16.2,2.1
				c-2.4,1.3-4.4,3.1-5.9,5.4c-1.9,2-3.1,4.4-3.8,7.1c-1.2,5.4-1,11.4,2.1,16.2C3436.1,589,3440.4,592.9,3445.8,594.2L3445.8,594.2z
				"/>
		</g>
	</g>
	<g>
		<g>
			<path d="M3366.6,785.7c3.5,2.4,6.9,4.9,10.2,7.4c-1.4-1.1-2.8-2.2-4.3-3.3c12.8,9.9,24.6,21,35.2,33.3c3,3.5,5.9,7,8.7,10.6
				c-1.1-1.4-2.2-2.8-3.3-4.3c0.4,0.6,0.9,1.2,1.3,1.7c1.3,2.4,3.1,4.4,5.4,5.9c2,1.9,4.4,3.1,7.1,3.8c2.8,0.9,5.6,1,8.4,0.4
				c2.8-0.1,5.4-1,7.8-2.5c4.5-2.9,8.4-7.2,9.7-12.6c0.2-1.9,0.5-3.7,0.8-5.6c0-3.8-1-7.3-2.9-10.6c-7.2-9.4-14.6-18.5-22.9-27
				c-7-7.2-14.5-14-22.4-20.3c-5.8-4.6-11.6-9.1-17.7-13.3c-2.4-1.5-5-2.4-7.8-2.5c-2.8-0.6-5.6-0.5-8.4,0.4
				c-2.7,0.6-5.1,1.9-7.1,3.8c-2.3,1.5-4.1,3.4-5.4,5.9c-2.6,4.9-3.9,10.8-2.1,16.2c0.7,1.7,1.4,3.3,2.1,5
				C3360.9,781.3,3363.4,783.8,3366.6,785.7L3366.6,785.7z"/>
		</g>
	</g>
</g>
<image style="overflow:visible;" width="271" height="259" xlink:href="3922B629.jpg"  transform="matrix(2.8229 0 0 2.8229 185 -1159)">
</image>
<g>
	<g>
		<path d="M1763.2,1395.3c0.9,63.3,2.1,126.6,3.7,189.8c1.6,62.9,3.5,125.9,5.7,188.8c1.3,35.5,2.6,71,4.1,106.5
			c0.2,5.5,2.2,10.9,6.2,14.8c3.6,3.6,9.6,6.4,14.8,6.2c5.4-0.2,11.1-2,14.8-6.2c3.7-4,6.4-9.2,6.2-14.8
			c-2.6-63.2-4.9-126.5-6.9-189.7c-1.9-62.9-3.5-125.9-4.8-188.8c-0.7-35.5-1.3-71-1.8-106.5c-0.1-5.4-2.3-11-6.2-14.8
			c-3.6-3.6-9.6-6.4-14.8-6.2c-5.4,0.2-11.1,2-14.8,6.2C1765.6,1384.6,1763.1,1389.7,1763.2,1395.3L1763.2,1395.3z"/>
	</g>
</g>
<g>
	<g>
		<path d="M1782.4,1363.5c-24.3-12-50-21-76.5-27c-26.7-6.1-54.1-9.4-81.5-11c-26.1-1.5-52.2-1.4-78.2-0.6
			c-13.1,0.4-26.1,1.1-39.1,1.8c-6.4,0.3-12.8,0.7-19.2,1.1c-10.5,0.6-21.3,1.3-29.3,9.1c-7.9,7.7-9.5,17.6-9.7,28.1
			c-0.2,7.3-0.3,14.6-0.5,21.8c-0.4,14.9-0.7,29.9-1.1,44.8c-0.7,29.5-1.4,59-2.1,88.5c-1.4,59-2.8,118-4.2,176.9
			c-1.4,59-2.8,118-4.2,176.9c-0.2,7.3-0.3,14.6-0.5,21.8c-0.3,10.6,9.9,22,21,21c59.9-5.1,116.9-24.3,175.2-37.5
			c15.3-3.4,30.7-6.4,46.2-8.5c-1.9,0.2-3.7,0.5-5.6,0.8c26.6-3.5,53.5-4.6,80.2-1.1c-1.9-0.2-3.7-0.5-5.6-0.8
			c14.7,2,29.1,5.4,43,10.5c4.9,1.8,11.8,0.4,16.2-2.1c4.4-2.5,8.5-7.5,9.7-12.6c1.2-5.4,1-11.4-2.1-16.2c-3.1-4.8-7.2-7.7-12.6-9.7
			c-40.8-14.8-85.6-15.8-128.3-10.2c-22.6,3-44.8,7.3-66.9,12.7c-21.4,5.2-42.7,11.1-64.1,16.5c-23.8,6-47.9,11.4-72.3,14.8
			c1.9-0.3,3.7-0.5,5.6-0.8c-6.2,0.8-12.4,1.5-18.6,2c7,7,14,14,21,21c1.7-70.3,3.4-140.5,5.1-210.8c1.7-69.9,3.4-139.8,5-209.7
			c0.5-19.7,0.9-39.3,1.4-59c0.2-9.8,0.5-19.7,0.7-29.5c0.2-9.3-0.2-18.9,0.8-28.1c-0.3,1.9-0.5,3.7-0.8,5.6c0.2-1.3,0.5-2.6,1-3.9
			c-0.7,1.7-1.4,3.3-2.1,5c0.3-0.7,0.7-1.3,1.2-2c-1.1,1.4-2.2,2.8-3.3,4.3c0.3-0.4,0.7-0.8,1.1-1.1c-1.4,1.1-2.8,2.2-4.3,3.3
			c0.6-0.5,1.2-0.9,1.9-1.2c-1.7,0.7-3.3,1.4-5,2.1c1.5-0.6,3-1,4.6-1.2c-1.9,0.3-3.7,0.5-5.6,0.8c11.7-1.3,23.6-1.5,35.4-2.1
			c12.1-0.6,24.2-1.2,36.3-1.5c24.1-0.7,48.3-0.7,72.4,0.7c13.4,0.8,26.7,2,40,3.8c-1.9-0.3-3.7-0.5-5.6-0.8
			c31.6,4.3,62.8,11.9,92.2,24.3c-1.7-0.7-3.3-1.4-5-2.1c5.3,2.2,10.5,4.6,15.6,7.1c5.1,2.5,10.5,3.7,16.2,2.1
			c4.9-1.3,10.2-5.1,12.6-9.7c2.6-4.9,3.9-10.8,2.1-16.2C1790.5,1371,1787.3,1365.9,1782.4,1363.5L1782.4,1363.5z"/>
	</g>
</g>
<g>
	<g>
		<path d="M1433.6,1366.6c-10.3-0.3-20.7-0.7-31-1c-12.3-0.4-24.5-1.5-35.9,4.1c-5.9,2.9-11.3,8.4-14.2,14.3
			c-3.3,6.6-4.5,12.8-5.4,20c-1.2,9.9-1.7,19.9-2.4,29.9c-3.2,41.6-5.8,83.3-8,125c-2.2,41.9-3.8,83.8-5,125.7
			c-1.1,41.7-1.8,83.5-1.9,125.3c-0.1,41.9,0.3,83.9,1.1,125.8c0.1,5.2,0.2,10.5,0.4,15.7c0.3,13.9,13.1,23.6,26.6,20.2
			c29.6-7.4,59.6-12.9,89.7-17c-1.9,0.2-3.7,0.5-5.6,0.8c37.2-5,74.6-7.8,112.1-8.6c37.9-0.9,75.8,0.2,113.6,3.2
			c20.8,1.6,41.6,3.8,62.4,6.6c-1.9-0.2-3.7-0.5-5.6-0.8c20.4,2.7,40.7,6,60.8,9.9c5.6,1.1,11.1,0.9,16.2-2.1
			c4.4-2.5,8.5-7.5,9.7-12.6c1.2-5.4,1-11.4-2.1-16.2c-2.8-4.4-7.2-8.6-12.6-9.7c-58-11.2-117-17.8-176-20
			c-58.6-2.2-117.4,0.1-175.5,7.7c-33.1,4.3-65.9,10.1-98.3,18.1c8.9,6.8,17.7,13.5,26.6,20.2c-1.7-71.5-2-143.1-0.8-214.6
			c1.2-71.5,4-143,8.2-214.4c1.2-19.8,2.4-39.6,3.8-59.4c0.7-10.1,1.5-20.2,2.2-30.3c0.7-9.6,1.2-19.2,2.4-28.7
			c-0.3,1.9-0.5,3.7-0.8,5.6c0.4-3,1-5.9,2.2-8.7c-0.7,1.7-1.4,3.3-2.1,5c0.6-1.2,1.2-2.3,1.9-3.4c-1.1,1.4-2.2,2.8-3.3,4.3
			c0.7-0.8,1.4-1.6,2.2-2.3c-1.4,1.1-2.8,2.2-4.3,3.3c0.9-0.7,1.9-1.3,2.9-1.8c-1.7,0.7-3.3,1.4-5,2.1c1.6-0.7,3.3-1.1,5.1-1.4
			c-1.9,0.2-3.7,0.5-5.6,0.8c8.1-0.9,16.6,0.1,24.7,0.3c8.9,0.3,17.7,0.6,26.6,0.9c11,0.4,21.5-9.9,21-21
			C1454.1,1375.9,1445.4,1367,1433.6,1366.6L1433.6,1366.6z"/>
	</g>
</g>
<g>
	<g>
		<path d="M1824.6,1399.8c5.1-2.5,10.3-4.9,15.6-7.1c-1.7,0.7-3.3,1.4-5,2.1c29.5-12.4,60.6-20,92.2-24.3c-1.9,0.2-3.7,0.5-5.6,0.8
			c47.8-6.4,96.3-5.6,144.4-3.2c6.6,0.3,13.2,0.7,19.8,1.1c6.6,0.4,13.4,0.5,20,1.3c-1.9-0.2-3.7-0.5-5.6-0.8
			c1.6,0.2,3.1,0.6,4.6,1.2c-1.7-0.7-3.3-1.4-5-2.1c0.7,0.4,1.3,0.7,1.9,1.2c-1.4-1.1-2.8-2.2-4.3-3.3c0.4,0.3,0.8,0.7,1.1,1.1
			c-1.1-1.4-2.2-2.8-3.3-4.3c0.5,0.7,0.8,1.3,1.2,2c-0.7-1.7-1.4-3.3-2.1-5c0.5,1.3,0.8,2.5,1,3.9c-0.2-1.9-0.5-3.7-0.8-5.6
			c0.9,8.3,0.6,17,0.8,25.4c0.2,8.7,0.4,17.5,0.6,26.2c0.4,17.7,0.8,35.3,1.3,53c0.8,35,1.7,69.9,2.5,104.9
			c1.7,69.9,3.4,139.8,5,209.7c0.9,39.3,1.9,78.6,2.8,118c7-7,14-14,21-21c-6.2-0.5-12.4-1.2-18.6-2c1.9,0.2,3.7,0.5,5.6,0.8
			c-43.6-5.9-85.8-18.6-128.3-29.2c-42.4-10.6-86.2-19.3-130.2-17.8c-24.8,0.8-49.8,4.8-73.1,13.2c-5.2,1.9-9.7,4.7-12.6,9.7
			c-2.6,4.5-3.8,11.1-2.1,16.2c1.6,5.1,4.8,10,9.7,12.6c4.8,2.5,10.9,4,16.2,2.1c13.9-5.1,28.3-8.5,43-10.5
			c-1.9,0.3-3.7,0.5-5.6,0.8c26.6-3.5,53.6-2.4,80.2,1.1c-1.9-0.3-3.7-0.5-5.6-0.8c57.3,7.8,112,27.2,168.6,38.4
			c17.5,3.4,35.1,6.1,52.8,7.6c4.9,0.4,11.6-2.6,14.8-6.2c3.7-4.1,6.3-9.2,6.2-14.8c-1.4-59.2-2.8-118.3-4.3-177.5
			c-1.4-59.2-2.8-118.3-4.3-177.5c-1.4-59-2.8-118-4.2-176.9c-0.1-4.2-0.4-8.6-1.4-12.7c-1.8-7.4-6.4-13.2-12.5-17.6
			c-7.3-5.1-16.5-5.3-25.1-5.8c-13.2-0.8-26.3-1.5-39.5-2.1c-26.1-1.2-52.2-1.8-78.4-1c-52.7,1.6-106.3,8.9-155.2,29.3
			c-7.3,3-14.4,6.2-21.5,9.6c-4.5,2.2-8.4,7.8-9.7,12.6c-1.4,5-0.8,11.7,2.1,16.2c2.9,4.5,7.2,8.4,12.6,9.7
			C1814.1,1403.2,1819.3,1402.4,1824.6,1399.8L1824.6,1399.8z"/>
	</g>
</g>
<g>
	<g>
		<path d="M2152.2,1408.6c8.9-0.3,17.7-0.6,26.6-0.9c8.1-0.3,16.6-1.3,24.7-0.3c-1.9-0.2-3.7-0.5-5.6-0.8c1.8,0.3,3.4,0.7,5.1,1.4
			c-1.7-0.7-3.3-1.4-5-2.1c1,0.5,2,1.1,2.9,1.8c-1.4-1.1-2.8-2.2-4.3-3.3c0.8,0.7,1.5,1.4,2.2,2.3c-1.1-1.4-2.2-2.8-3.3-4.3
			c0.8,1.1,1.4,2.2,1.9,3.4c-0.7-1.7-1.4-3.3-2.1-5c1.2,2.8,1.8,5.7,2.2,8.7c-0.2-1.9-0.5-3.7-0.8-5.6c2.1,17.3,2.8,34.9,4.1,52.3
			c1.3,17.9,2.5,35.9,3.6,53.8c2.2,35.5,4,71.1,5.4,106.6c2.9,71.5,4.3,143,4.2,214.6c0,40.1-0.6,80.2-1.5,120.2
			c8.9-6.8,17.7-13.5,26.6-20.2c-56.9-14.2-115.6-22-174.1-25.1c-58.3-3.1-116.8-1.4-174.8,4.7c-33.2,3.5-66.2,8.3-99,14.6
			c-4.9,1-10.1,5.4-12.6,9.7c-2.6,4.5-3.8,11.1-2.1,16.2c1.6,5.1,4.8,10,9.7,12.6c5.2,2.8,10.4,3.2,16.2,2.1
			c20-3.9,40.2-7.1,60.4-9.9c-1.9,0.2-3.7,0.5-5.6,0.8c36.8-4.9,73.7-8.1,110.8-9.4c37.4-1.3,74.9-0.8,112.3,1.7
			c20.9,1.4,41.8,3.5,62.6,6.3c-1.9-0.3-3.7-0.5-5.6-0.8c30.5,4.1,60.7,9.7,90.6,17.1c13.5,3.3,26.2-6.4,26.6-20.2
			c1-41.9,1.5-83.9,1.5-125.8c0-41.8-0.5-83.5-1.5-125.3c-1-41.9-2.6-83.9-4.6-125.8c-2-41.7-4.6-83.4-7.6-125.1
			c-0.8-10.5-1.6-20.9-2.4-31.4c-0.9-11.7-1.2-23.5-6.6-34.2c-6.6-13.3-21.1-18.9-35.3-18.8c-10.1,0.1-20.2,0.6-30.3,1
			c-5.2,0.2-10.3,0.3-15.5,0.5c-5.5,0.2-10.9,2.2-14.8,6.2c-3.6,3.6-6.4,9.6-6.2,14.8C2131.7,1398.7,2140.4,1409,2152.2,1408.6
			L2152.2,1408.6z"/>
	</g>
</g>
<g>
	<g>
		<path d="M1572.1,1481.9c23.4,1.3,46.8,2.6,70.2,3.9c6.6,0.4,13.3,0.7,19.9,1.1c2.9,0.1,5.6-0.5,8.1-1.8c2.6-0.8,4.9-2.3,6.8-4.3
			c2-1.9,3.5-4.2,4.3-6.8c1.3-2.5,1.9-5.2,1.8-8.1c-0.2-5.4-2-11.1-6.2-14.8c-1.4-1.1-2.8-2.2-4.3-3.3c-3.3-1.9-6.8-2.9-10.6-2.9
			c-23.4-1.3-46.8-2.6-70.2-3.9c-6.6-0.4-13.3-0.7-19.9-1.1c-2.9-0.1-5.6,0.5-8.1,1.8c-2.6,0.8-4.9,2.3-6.8,4.3
			c-2,1.9-3.5,4.2-4.3,6.8c-1.3,2.5-1.9,5.2-1.8,8.1c0.2,5.4,2,11.1,6.2,14.8c1.4,1.1,2.8,2.2,4.3,3.3
			C1564.8,1480.9,1568.3,1481.8,1572.1,1481.9L1572.1,1481.9z"/>
	</g>
</g>
<g>
	<g>
		<path d="M1542.2,1512.9c-2.9,1.7-5.8,3.3-8.8,5c-1.4,1.1-2.8,2.2-4.3,3.3c-1.1,1.4-2.2,2.8-3.3,4.3c-0.7,1.7-1.4,3.3-2.1,5
			c-0.9,2.8-1,5.6-0.4,8.4c0,1.9,0.5,3.7,1.4,5.3c0.5,1.8,1.4,3.3,2.7,4.6c0.9,1.6,2.2,2.8,3.8,3.8c2,1.9,4.4,3.1,7.1,3.8
			c18.6,5.4,37.4,9.8,56.5,13c20.7,3.6,41.7,6.1,62.7,7.3c10.9,0.6,21.8,0.9,32.7,0.8c5.4,0,11-2.3,14.8-6.2c2-1.9,3.5-4.2,4.3-6.8
			c1.3-2.5,1.9-5.2,1.8-8.1c-0.2-5.4-2-11.1-6.2-14.8c-4.1-3.8-9.2-6.2-14.8-6.2c-18.6,0.1-37.2-0.8-55.7-2.7
			c-5.3-0.5-10.5-1.2-15.8-1.9c1.9,0.2,3.7,0.5,5.6,0.8c-19.7-2.7-39.3-6.4-58.5-11.4c-5.4-1.4-10.9-2.9-16.2-4.4
			c1.7,12.8,3.3,25.6,5,38.4c2.9-1.7,5.8-3.3,8.8-5c2.4-1.3,4.4-3.1,5.9-5.4c1.9-2,3.1-4.4,3.8-7.1c0.9-2.8,1-5.6,0.4-8.4
			c-0.1-2.8-1-5.4-2.5-7.8c-2.9-4.5-7.2-8.4-12.6-9.7C1552.9,1509.5,1547.3,1510,1542.2,1512.9L1542.2,1512.9z"/>
	</g>
</g>
<g>
	<g>
		<path d="M1535.2,1666.2c13.5-0.4,27,0,40.4,1.2c2.9,0.1,5.6-0.5,8.1-1.8c2.6-0.8,4.9-2.3,6.8-4.3c2-1.9,3.5-4.2,4.3-6.8
			c1.3-2.5,1.9-5.2,1.8-8.1c-0.2-5.4-2-11.1-6.2-14.8c-1.4-1.1-2.8-2.2-4.3-3.3c-3.3-1.9-6.8-2.9-10.6-2.9
			c-13.4-1.2-26.9-1.6-40.4-1.2c-5.5,0.2-10.9,2.2-14.8,6.2c-2,1.9-3.5,4.2-4.3,6.8c-1.3,2.5-1.9,5.2-1.8,8.1
			c0.2,5.4,2,11.1,6.2,14.8C1524.4,1663.8,1529.5,1666.4,1535.2,1666.2L1535.2,1666.2z"/>
	</g>
</g>
<g>
	<g>
		<path d="M1549,1770.5c20.9-0.1,41.8,0.1,62.7,0.6c20.9,0.5,41.8,1.4,62.6,2.7c11.8,0.7,23.5,1.5,35.3,2.4c2.9,0.1,5.6-0.5,8.1-1.8
			c2.6-0.8,4.9-2.3,6.8-4.3c2-1.9,3.5-4.2,4.3-6.8c1.3-2.5,1.9-5.2,1.8-8.1c-0.2-5.4-2-11.1-6.2-14.8c-1.4-1.1-2.8-2.2-4.3-3.3
			c-3.3-1.9-6.8-2.9-10.6-2.9c-20.8-1.6-41.7-2.9-62.6-3.8c-20.9-0.9-41.8-1.5-62.7-1.8c-11.8-0.1-23.6-0.2-35.3-0.1
			c-5.4,0-11,2.3-14.8,6.2c-2,1.9-3.5,4.2-4.3,6.8c-1.3,2.5-1.9,5.2-1.8,8.1c0.2,5.4,2,11.1,6.2,14.8
			C1538.3,1768.1,1543.4,1770.5,1549,1770.5L1549,1770.5z"/>
	</g>
</g>
<g>
	<g>
		<path d="M1642.6,1675.7c21.4-1.8,42.9-3,64.4-3.7c6.1-0.2,12.2-0.3,18.4-0.4c2.9,0.1,5.6-0.5,8.1-1.8c2.6-0.8,4.9-2.3,6.8-4.3
			c1.1-1.4,2.2-2.8,3.3-4.3c1.5-2.4,2.4-5,2.5-7.8c0.5-1.9,0.5-3.7,0-5.6c-0.1-2.8-1-5.4-2.5-7.8c-1.1-1.4-2.2-2.8-3.3-4.3
			c-2.6-2.6-5.7-4.4-9.3-5.4c-6.6-0.9-13.2-1.7-19.9-1.8c-4.8-0.1-9.6,0.1-14.4,0.5c-11.5,0.9-23,2.6-34.4,4.2
			c1.9-0.2,3.7-0.5,5.6-0.8c-4,0.5-8,1.1-12,1.5c-1.9,0.2-3.8,0.4-5.8,0.6c-1.6,0.2-3.3,0.4-4.9,0.2c1.9,0.2,3.7,0.5,5.6,0.8
			c-0.6-0.1-1.2-0.2-1.8-0.4c1.7,0.7,3.3,1.4,5,2.1c-0.4-0.2-0.7-0.3-1-0.6c1.4,1.1,2.8,2.2,4.3,3.3c-0.1-0.1-0.3-0.2-0.4-0.4
			c1.1,1.4,2.2,2.8,3.3,4.3c-0.2-0.2-0.3-0.5-0.4-0.7c0.7,1.7,1.4,3.3,2.1,5c0-0.1-0.1-0.2-0.1-0.3c-0.6-2.7-1.9-5.1-3.8-7.1
			c-1.5-2.3-3.4-4.1-5.9-5.4c-2.4-1.5-5-2.4-7.8-2.5c-2.8-0.6-5.6-0.5-8.4,0.4c-5.1,1.6-10,4.8-12.6,9.7c-2.6,4.8-3.9,10.8-2.1,16.2
			c0.3,1,0.7,1.9,1.2,2.8c0.4,0.9,0.8,1.9,1.2,2.8c0.6,0.9,1.3,1.8,2,2.6c2,2.6,3.7,4.3,6.7,6.1c4.2,2.5,8.4,3.2,13.2,3.6
			c3,0.2,6.2-0.3,9.2-0.7c8.7-0.9,17.3-2.2,26-3.4c-1.9,0.3-3.7,0.5-5.6,0.8c16.3-2.2,32.9-4.1,49.4-2c-1.9-0.3-3.7-0.5-5.6-0.8
			c0.3,0,0.6,0.1,1,0.1c1.9-13.7,3.7-27.5,5.6-41.2c-21.5,0.4-43,1.3-64.5,2.8c-6.1,0.4-12.2,0.9-18.3,1.4c-2.9-0.1-5.6,0.5-8.1,1.8
			c-2.6,0.8-4.9,2.3-6.8,4.3c-2,1.9-3.5,4.2-4.3,6.8c-1.3,2.5-1.9,5.2-1.8,8.1c0.2,5.4,2,11.1,6.2,14.8
			C1631.7,1673.1,1637.1,1676.1,1642.6,1675.7L1642.6,1675.7z"/>
	</g>
</g>
<g>
	<g>
		<path d="M1868.8,1481.4c16.8,0.7,33.7,1.2,50.5,1.7c16.8,0.5,33.5,0.8,50.3,1.1c9.5,0.2,19.1,0.3,28.6,0.4
			c2.9,0.1,5.6-0.5,8.1-1.8c2.6-0.8,4.9-2.3,6.8-4.3c2-1.9,3.5-4.2,4.3-6.8c1.3-2.5,1.9-5.2,1.8-8.1c-0.2-5.4-2-11.1-6.2-14.8
			c-4.1-3.8-9.1-6.1-14.8-6.2c-16.8-0.2-33.7-0.4-50.5-0.8c-16.8-0.4-33.5-0.8-50.3-1.4c-9.5-0.3-19.1-0.7-28.6-1
			c-2.9-0.1-5.6,0.5-8.1,1.8c-2.6,0.8-4.9,2.3-6.8,4.3c-2,1.9-3.5,4.2-4.3,6.8c-1.3,2.5-1.9,5.2-1.8,8.1c0.2,5.4,2,11.1,6.2,14.8
			c1.4,1.1,2.8,2.2,4.3,3.3C1861.5,1480.4,1865,1481.4,1868.8,1481.4L1868.8,1481.4z"/>
	</g>
</g>
<g>
	<g>
		<path d="M2003.5,1544.1c-33.5-4.8-67.1-7.8-100.9-8.6c-9-0.2-18.1-0.3-27.1-0.2c-5.4,0.1-11,2.3-14.8,6.2c-2,1.9-3.5,4.2-4.3,6.8
			c-1.3,2.5-1.9,5.2-1.8,8.1c0.2,5.4,2,11.1,6.2,14.8c4.1,3.8,9.2,6.2,14.8,6.2c30.2-0.3,60.5,1.1,90.6,4.2c8.5,0.9,17,1.9,25.5,3
			c-1.9-0.2-3.7-0.5-5.6-0.8c2.1,0.3,4.2,0.6,6.3,0.9c2.8,0.9,5.6,1,8.4,0.4c2.8-0.1,5.4-1,7.8-2.5c2.4-1.3,4.4-3.1,5.9-5.4
			c1.9-2,3.1-4.4,3.8-7.1c1.2-5.4,1-11.4-2.1-16.2c-1.1-1.4-2.2-2.8-3.3-4.3C2010.2,1546.9,2007.1,1545.1,2003.5,1544.1
			L2003.5,1544.1z"/>
	</g>
</g>
<g>
	<g>
		<path d="M1896.7,1758.3c17.3,0.3,34.6,0.9,51.9,1.8s34.5,2.1,51.8,3.5c9.7,0.8,19.5,1.7,29.2,2.7c2.9,0.1,5.6-0.5,8.1-1.8
			c2.6-0.8,4.9-2.3,6.8-4.3c2-1.9,3.5-4.2,4.3-6.8c1.3-2.5,1.9-5.2,1.8-8.1c-0.2-5.4-2-11.1-6.2-14.8c-1.4-1.1-2.8-2.2-4.3-3.3
			c-3.3-1.9-6.8-2.9-10.6-2.9c-17.2-1.8-34.5-3.3-51.7-4.5c-17.3-1.2-34.5-2.1-51.8-2.8c-9.8-0.4-19.5-0.6-29.3-0.8
			c-2.9-0.1-5.6,0.5-8.1,1.8c-2.6,0.8-4.9,2.3-6.8,4.3c-2,1.9-3.5,4.2-4.3,6.8c-1.3,2.5-1.9,5.2-1.8,8.1c0.2,5.4,2,11.1,6.2,14.8
			C1886,1756,1891,1758.2,1896.7,1758.3L1896.7,1758.3z"/>
	</g>
</g>
<g>
	<g>
		<path d="M1896.7,1676.6c33-1.3,66.1-1.9,99.2-1.6c9.3,0.1,18.6,0.2,27.9,0.4c2.9,0.1,5.6-0.5,8.1-1.8c2.6-0.8,4.9-2.3,6.8-4.3
			c2-1.9,3.5-4.2,4.3-6.8c1.3-2.5,1.9-5.2,1.8-8.1c-0.2-5.4-2-11.1-6.2-14.8c-4.2-3.8-9.1-6-14.8-6.2c-33.1-0.8-66.1-0.7-99.2,0.2
			c-9.3,0.2-18.6,0.6-27.9,0.9c-5.5,0.2-10.9,2.2-14.8,6.2c-2,1.9-3.5,4.2-4.3,6.8c-1.3,2.5-1.9,5.2-1.8,8.1
			c0.2,5.4,2,11.1,6.2,14.8C1885.9,1674.2,1891.1,1676.9,1896.7,1676.6L1896.7,1676.6z"/>
	</g>
</g>
<g>
	<g>
		<path d="M3778.2-254c11.1-18.5,22.6-36.7,34.6-54.7c11.9-18,24.3-35.7,37-53.1c7.2-9.8,14.5-19.6,22-29.2
			c-1.1,1.4-2.2,2.8-3.3,4.3c24.2-31.3,49.6-61.6,76.3-90.8c26.6-29.1,54.4-57.1,83.3-83.9c16.3-15.1,32.9-29.8,49.9-44.1
			c3.9-3.3,6.2-9.9,6.2-14.8c0-5.2-2.3-11.3-6.2-14.8c-4-3.7-9.3-6.4-14.8-6.2c-1.9,0.2-3.7,0.5-5.6,0.8c-3.6,1-6.6,2.8-9.3,5.4
			c-23.4,19.7-46.1,40.2-68.1,61.3c-22.1,21.2-43.6,43.2-64.3,65.8c-20.6,22.5-40.6,45.7-59.7,69.6c-20.2,25.1-39.7,50.9-58.2,77.2
			c-17.6,25-34.4,50.5-50.3,76.6c-1.9,3.2-3.9,6.4-5.8,9.5c-2.8,4.6-3.5,11-2.1,16.2c1.3,4.9,5.1,10.1,9.7,12.6
			c4.9,2.6,10.8,3.9,16.2,2.1C3770.9-246,3775.3-249.2,3778.2-254L3778.2-254z"/>
	</g>
</g>
<g>
	<g>
		<path d="M3833.1-412.7c-8.2-11-15-22.8-20.3-35.4c0.7,1.7,1.4,3.3,2.1,5c-5.6-13.4-9.4-27.4-11.3-41.7c0.2,1.9,0.5,3.7,0.8,5.6
			c-2-15.2-1.9-30.7,0.1-45.9c-0.3,1.9-0.5,3.7-0.8,5.6c2.5-18.4,7.7-36.4,14.9-53.5c-0.7,1.7-1.4,3.3-2.1,5c8.5-20,19.7-38.8,33-56
			c-1.1,1.4-2.2,2.8-3.3,4.3c17.2-22.1,37.7-41.4,59.8-58.5c-1.4,1.1-2.8,2.2-4.3,3.3c29.4-22.6,61.5-41.4,94.2-58.7
			c35.6-18.8,71.8-36.4,108.3-53.2c21-9.6,42.1-18.9,63.4-27.9c-1.7,0.7-3.3,1.4-5,2.1c35.4-15,71.3-29,107.4-42.2
			c5.2-1.9,10.4-3.8,15.6-5.6c4.8-1.7,9.9-4.1,15-4.9c-1.9,0.3-3.7,0.5-5.6,0.8c0.9-0.1,1.8-0.1,2.7,0c-1.9-0.3-3.7-0.5-5.6-0.8
			c0.8,0.1,1.5,0.3,2.2,0.6c-1.7-0.7-3.3-1.4-5-2.1c0.9,0.4,1.7,0.8,2.5,1.4c-1.4-1.1-2.8-2.2-4.2-3.3c0.9,0.7,1.7,1.6,2.5,2.5
			c-1.1-1.4-2.2-2.8-3.3-4.3c1.2,1.5,2.1,3.2,2.8,5c-0.7-1.7-1.4-3.3-2.1-5c1.3,3.2,2.1,6.5,2.6,9.8c-0.2-1.9-0.5-3.7-0.8-5.6
			c1,7.5,1.1,15.1,1.4,22.7c0.3,7.9,0.4,15.9,0.4,23.8c-0.1,15.9-0.8,31.7-2.2,47.6c-0.8,9.1-1.8,18.1-3,27.2
			c0.2-1.9,0.5-3.7,0.8-5.6c-5.5,40.8-15.2,81-28.9,119.8c-3.9,11.1-8.2,22.1-12.8,32.9c0.7-1.7,1.4-3.3,2.1-5
			c-15.2,35.9-33.8,70.3-55.8,102.5c-6.2,9.1-12.7,18-19.4,26.8c1.1-1.4,2.2-2.8,3.3-4.3c-16.6,21.5-34.7,42-56.2,58.6
			c1.4-1.1,2.8-2.2,4.3-3.3c-13.1,10.1-27.4,18.4-42.6,24.9c1.7-0.7,3.3-1.4,5-2.1c-23.4,9.7-48.3,15.3-73.3,18.8
			c1.9-0.3,3.7-0.5,5.6-0.8c-26.8,3.6-54.1,4.3-81,0.7c1.9,0.3,3.7,0.5,5.6,0.8c-18.3-2.5-36.2-7.1-53.2-14.3c1.7,0.7,3.3,1.4,5,2.1
			c-11.5-4.9-22.4-10.9-32.5-18.2c-4.2-3-11.4-3.4-16.2-2.1c-4.9,1.3-10.1,5.1-12.6,9.7c-2.6,4.9-3.9,10.8-2.1,16.2
			c1.8,5.5,5,9.2,9.7,12.6c44.3,31.7,101.7,40.7,155,36.9c28.4-2,57.3-6.6,84.4-15.6c14.5-4.8,28.8-10.8,42.1-18.3
			c13-7.3,25-16.4,36.2-26.1c21.2-18.4,39-40.3,55.7-62.7c15.6-21,29.8-43,42.4-66c26-47.1,45.9-97.8,58.8-150
			c12.9-52.5,19.2-107.1,17.7-161.2c-0.2-6.5-0.5-12.9-0.8-19.4c-0.4-7-0.8-14.2-2.8-21c-2.1-7.3-5.8-15-11.6-20.2
			c-9.1-8-21-10.6-32.5-6.7c-28.2,9.5-56,20.2-83.6,31.1c-56.8,22.4-112.7,46.9-167.6,73.7c-49.6,24.1-99.5,49.1-144.2,81.7
			c-44.8,32.8-84.9,73.5-107.8,124.7c-11.8,26.4-19.5,53.9-21,82.9c-0.8,14.1,0.4,28.2,2.7,42.2c2.5,15.1,7.4,29.3,13.4,43.3
			c5.2,12,11.8,23.3,19.6,33.8c3.4,4.5,6.9,8.1,12.6,9.7c5,1.4,11.7,0.8,16.2-2.1c4.5-2.9,8.4-7.2,9.7-12.6
			C3836.4-401.7,3836.4-408.3,3833.1-412.7L3833.1-412.7z"/>
	</g>
</g>
<g>
	<g>
		<path d="M-585.7,2018.3c-23-24.9-46-49.7-69.1-74.6c-23.1-24.9-46.8-49.3-69-75c-5.5-6.4-10.9-12.9-16.2-19.5
			c-1.2-1.5-2.4-3-3.6-4.5c-0.7-0.8-1.3-1.7-2-2.6c-2.2-2.8,0.7,0.8,0.9,1.2c-2.5-4.1-5.9-7.8-8.8-11.6
			c-10.8-14.6-21.1-29.5-30.8-44.8c-9.6-15.1-18.7-30.5-27-46.3c-3.9-7.5-7.7-15-11.2-22.7c-0.8-1.8-1.7-3.7-2.5-5.5
			c-0.4-1-2.8-6.4-1.3-3c1.5,3.4-0.8-1.9-1.2-2.9c-0.8-2.1-1.7-4.3-2.5-6.4c-7-18.8-11.8-38.4-15.2-58.2c-0.8-4.8-1.6-9.6-2.3-14.5
			c-0.2-1.3-0.5-5,0,0.2c-0.1-1-0.3-2-0.4-3.1c-0.4-3.1-0.8-6.1-1.1-9.2c-1.2-10.2-2.2-20.5-3.1-30.8c-3.2-34.1-5.8-68.4-4.9-102.7
			c0.2-8.5,0.6-17,1.3-25.5c0.3-4.2,0.7-8.4,1.2-12.6c0.2-1.9,0.5-3.8,0.7-5.6c0.4-3-0.8,5.6-0.2,1.2c0.2-1.2,0.4-2.5,0.6-3.7
			c2.5-16.3,6.3-32.4,11.7-47.9c1.3-3.8,3-7.5,4.3-11.3c-2.3,6.4,0.1-0.1,0.8-1.6c0.8-1.8,1.7-3.6,2.6-5.4
			c3.6-7.2,7.6-14.1,12.1-20.8c1.1-1.7,2.3-3.3,3.5-4.9c0.3-0.5,2.9-3.6,0.5-0.8c-2.4,2.9,0.2-0.3,0.6-0.7c2.5-3.1,5-6,7.7-8.9
			c5.4-5.8,11.3-11.3,17.4-16.5c3.3-2.8,6.6-5.5,10-8.2c3.5-2.8-3,2.3-0.6,0.5c0.9-0.7,1.8-1.3,2.6-2c2-1.5,3.9-2.9,5.9-4.4
			c7.3-5.3,14.8-10.3,22.4-15c14.2-8.9,29-17.2,44.2-24.2c8-3.7,16.1-7.2,24.2-10.8c3.5-1.6,7-3.1,10.5-4.6c1.7-0.7,3.4-1.5,5.1-2.2
			c3.1-1.3-1.9,0.8-2,0.8c1.3-0.5,2.6-1.1,3.9-1.6c12.1-5,24.6-9.1,37.5-11.7c3.1-0.6,6.2-1.1,9.3-1.6c1.5-0.2,5.6-0.5-1.2,0.1
			c0.8-0.1,1.5-0.2,2.3-0.3c2.4-0.3,4.7-0.5,7.1-0.8c9-0.8,18-1.3,27.1-1.5c8.6-0.2,17.1,0,25.7,0.5c3.8,0.2,7.7,0.6,11.5,1
			c2.1,0.2,4.3,0.5,6.4,0.7c4.5,0.5-4.1-0.6-1.1-0.2c1.5,0.2,3,0.4,4.4,0.7c16.9,2.6,33.6,6.7,49.9,12c3.9,1.3,7.7,2.6,11.5,4
			c1.8,0.7,3.6,1.4,5.4,2.1c1.2,0.5,2.4,0.9,3.6,1.4c1.3,0.5,5.2,2.4-0.3-0.1c7.8,3.5,15.6,7,23.2,11c15.2,8,29.7,17.2,43.4,27.5
			c0.4,0.3,3.9,2.9,0.9,0.7c-2.9-2.2,0.5,0.4,0.9,0.7c1.7,1.3,3.3,2.7,5,4c3.3,2.7,6.5,5.5,9.7,8.4c6.4,5.7,12.5,11.7,18.3,18
			c5.9,6.3,11.2,13,16.7,19.5c-4.2-5,0.6,0.9,1.5,2c1.3,1.8,2.6,3.5,3.9,5.3c2.5,3.6,5,7.2,7.3,10.9c4.7,7.4,9.1,15,13.2,22.7
			c2,3.9,4,7.8,5.8,11.8c0.9,2,1.8,4,2.7,6c0.4,0.8,0.7,1.6,1.1,2.4c0.3,0.8,0.7,1.6,1,2.4c-0.4-0.9-0.7-1.7-1.1-2.6
			c0.3,1.9,1.7,4.2,2.5,6.1c0.8,2,1.6,4.1,2.3,6.1c1.5,4.1,2.9,8.3,4.3,12.4c2.7,8.3,5,16.8,7,25.3c2,8.5,3.6,17.2,4.9,25.8
			c0.2,1.6,0.1,5.7,0-0.4c0,0.8,0.2,1.8,0.3,2.6c0.3,2.2,0.5,4.4,0.7,6.5c0.4,4.4,0.8,8.7,1,13.1c1,17.7,0.6,35.5-1.4,53.1
			c-0.1,1.1-0.3,2.2-0.4,3.3c-0.4,3.6,0.2-1.3,0.2-1.7c-0.4,2.1-0.6,4.3-1,6.5c-0.7,4.5-1.5,9.1-2.5,13.6
			c-1.8,8.6-3.9,17.1-6.5,25.5c-2.9,9.5-6.2,18.8-9.9,27.9c-0.5,1.1-0.9,2.3-1.4,3.4c-1.4,3.5,0.2-0.4,0.4-0.9c-0.8,2.3-2,4.6-3,6.8
			c-2.1,4.7-4.3,9.5-6.6,14.1c-8.9,18.1-18.8,35.6-29.3,52.8c-20.2,33.4-41.4,66.2-64.6,97.6c-2.6,3.6-5.3,7.1-8,10.7
			c-1.5,2-3,4-4.5,5.9c-0.2,0.2-3.2,4.1-1.1,1.4c2-2.6-1.7,2.2-2,2.6c-6.2,7.9-12.4,15.8-18.8,23.5c-12.8,15.7-26,31.1-39.4,46.2
			c-26.6,30-54.3,59-83,87.1c-13.4,13.1-27,26-40.8,38.7c-8.1,7.5-8.1,22.2,0,29.7c8.7,8,21.1,8,29.7,0
			c60-55.2,116.6-114.4,167.9-177.9c26.1-32.3,50.9-65.6,73.4-100.5c22-34.1,43.8-68.7,60.9-105.5c9-19.3,16.9-39.1,22.6-59.7
			c5.1-18.7,8.4-37.9,10.1-57.2c3.5-37.1,0.2-75.1-8.8-111.2c-8.9-35.8-23.9-70.7-44.3-101.4c-21.2-31.9-47.7-59.1-78.3-82
			c-58.2-43.3-132-67.3-204.6-65.3c-18.2,0.5-36.6,2-54.5,5.5c-13.2,2.6-26,6.9-38.4,12.1c-32.8,13.5-65.5,27.9-95.5,46.8
			c-31.5,19.8-61.6,43-83.1,73.7c-19.9,28.4-31.3,62.6-36.8,96.6c-5.9,36-6.6,72.3-4.8,108.6c2,39.8,5.5,80,12,119.4
			c3.3,20.3,8,40.4,15.1,59.7c6.2,16.9,13.7,33.3,21.9,49.2c16.8,32.5,36.8,63.4,58.6,92.9c11.2,15.2,22.8,30,35.1,44.4
			c12,14,24.7,27.3,37.2,40.8c21.6,23.3,43.2,46.7,64.8,70c12.7,13.7,25.4,27.4,38,41.1c7.5,8.1,22.2,8.1,29.7,0
			C-577.8,2039.3-577.8,2026.9-585.7,2018.3L-585.7,2018.3z"/>
	</g>
</g>
<g>
	<g>
		<path d="M-624.4,1368.3c-7.2,3-14.2,6.1-20.8,10.4c-6.3,4.2-12.4,8.9-17.9,14.1c-5.6,5.3-10.3,11.1-15,17.2
			c-3.6,4.8-6.9,9.8-9.7,15.1c-6.4,12-11.3,25.2-13.4,38.7c-1.2,7.7-2.1,15.4-2,23.3c0.2,7.8,1.2,15.6,2.7,23.2
			c1.2,5.9,2.8,11.7,4.9,17.4c2.7,7.2,5.8,14.4,9.6,21.1c3.8,6.8,8.3,12.9,13.1,19c3.8,4.9,8,9.5,12.5,13.7
			c5.6,5.3,11.7,10.1,18.1,14.4c5,3.4,10.3,6.5,15.9,9.1c7.5,3.5,15.2,6.6,23.2,8.8c8.1,2.2,16.3,3.5,24.6,4.4
			c15,1.6,30.3,0.4,45.1-2.5c6.5-1.3,12.9-3.1,19.1-5.4c7.8-2.8,15.5-6.2,22.7-10.2c6.6-3.6,12.5-8,18.4-12.7
			c4.5-3.6,8.7-7.5,12.6-11.7c5.1-5.5,9.8-11.6,14.2-17.7c3.5-5,6.6-10.2,9.4-15.6c6-11.8,10.8-24.6,12.8-37.7
			c1.1-7.3,1.9-14.5,1.5-21.9c-0.4-7.1-1.4-14.4-3.5-21.2c-1.9-6.1-4-12.1-6.2-18c-2.9-7.7-6-15.3-9.9-22.5
			c-3.8-6.9-8.5-13.5-13.7-19.3c-5-5.6-11.2-10-17.1-14.5c-9.7-7.4-19.7-14.6-30.4-20.5c-6.6-3.6-13.7-6.8-20.9-9
			c-7.2-2.1-14.6-2.6-22.1-2.9c-28-1.3-57.4-0.2-82.7,13.2c-6.7,3.5-12.9,8.2-18.3,13.3c-2,1.9-3.5,4.2-4.3,6.8
			c-1.3,2.5-1.9,5.2-1.8,8.1c-0.1,2.9,0.5,5.6,1.8,8.1c0.8,2.6,2.3,4.9,4.3,6.8c4,3.7,9.3,6.4,14.8,6.2c1.9-0.2,3.7-0.5,5.6-0.8
			c3.6-1,6.6-2.8,9.3-5.4c1.5-1.4,3-2.7,4.5-3.9c-1.4,1.1-2.8,2.2-4.3,3.3c4.7-3.6,9.8-6.5,15.2-8.8c-1.7,0.7-3.3,1.4-5,2.1
			c8.2-3.4,16.8-5.5,25.6-6.7c-1.9,0.2-3.7,0.5-5.6,0.8c13.2-1.8,26.6-1.7,39.9-1.1c3.5,0.2,7,0.2,10.5,0.7
			c-1.9-0.2-3.7-0.5-5.6-0.8c4.8,0.7,9.4,2.2,13.8,4c-1.7-0.7-3.3-1.4-5-2.1c12.1,5.1,23.2,12.7,33.7,20.5c2.7,2,5.4,4,8,6.1
			c-1.4-1.1-2.8-2.2-4.3-3.3c5.1,3.9,9.7,8.1,13.7,13.2c-1.1-1.4-2.2-2.8-3.3-4.3c5.2,6.8,9.1,14.4,12.5,22.2
			c-0.7-1.7-1.4-3.3-2.1-5c2.5,6,4.7,12.1,6.7,18.3c1.8,5.5,3.6,10.9,4.4,16.6c-0.3-1.9-0.5-3.7-0.8-5.6c0.9,6.8,0.8,13.7-0.1,20.6
			c0.3-1.9,0.5-3.7,0.8-5.6c-1.2,9-3.8,17.8-7.3,26.2c0.7-1.7,1.4-3.3,2.1-5c-4.2,10.1-9.8,19.5-16.5,28.2c1.1-1.4,2.2-2.8,3.3-4.3
			c-6.1,7.8-13,15-20.9,21.1c1.4-1.1,2.8-2.2,4.3-3.3c-7.7,5.9-16.2,10.6-25.1,14.4c1.7-0.7,3.3-1.4,5-2.1
			c-10.6,4.4-21.8,7.5-33.2,9c1.9-0.2,3.7-0.5,5.6-0.8c-11.4,1.5-22.9,1.5-34.3,0c1.9,0.3,3.7,0.5,5.6,0.8
			c-10.4-1.4-20.6-4.2-30.3-8.2c1.7,0.7,3.3,1.4,5,2.1c-8.9-3.8-17.3-8.7-25-14.6c1.4,1.1,2.8,2.2,4.3,3.3
			c-7.9-6.1-15-13.3-21.1-21.2c1.1,1.4,2.2,2.8,3.3,4.3c-6.2-8-11.3-16.8-15.3-26.1c0.7,1.7,1.4,3.3,2.1,5c-3.8-9-6.4-18.4-7.7-28
			c0.2,1.9,0.5,3.7,0.8,5.6c-1.2-8.9-1.2-17.9,0-26.7c-0.3,1.9-0.5,3.7-0.8,5.6c1.3-9.3,3.8-18.4,7.4-27.1c-0.7,1.7-1.4,3.3-2.1,5
			c3.7-8.8,8.5-17,14.3-24.6c-1.1,1.4-2.2,2.8-3.3,4.3c5.4-7,11.7-13.3,18.7-18.8c-1.4,1.1-2.8,2.2-4.3,3.3c6.5-5,13.5-9.1,21-12.3
			c-1.7,0.7-3.3,1.4-5,2.1c0.3-0.1,0.7-0.3,1-0.4c2.7-0.6,5.1-1.9,7.1-3.8c2.3-1.5,4.1-3.4,5.4-5.9c1.5-2.4,2.4-5,2.5-7.8
			c0.6-2.8,0.5-5.6-0.4-8.4c-1.6-5.1-4.8-10-9.7-12.6c-1.7-0.7-3.3-1.4-5-2.1C-617,1367.3-620.7,1367.3-624.4,1368.3L-624.4,1368.3z
			"/>
	</g>
</g>
<g>
	<g>
		<path d="M150.3,286.8c22.2,54.5,44.4,109.1,70.5,161.8c12.7,25.7,26.3,50.9,41.3,75.3c15.9,25.9,33.5,50.6,52.3,74.5
			c36.3,46,77.3,88,118,130.1c38.6,40,77.5,79.9,118.9,117.1c42.1,37.9,86.9,73.3,135.6,102.4c5.9,3.6,11.9,7,18,10.4
			c9.6,5.3,23.4,2.6,28.7-7.5c5.2-9.9,2.7-23-7.5-28.7c-31.5-17.6-61.5-37.9-90.1-59.9c1.4,1.1,2.8,2.2,4.3,3.3
			c-43-33.3-82.9-70.4-121.4-108.8c-39.6-39.5-78.7-79.8-116.7-120.9c-22-23.8-43.4-48.3-63.3-73.9c1.1,1.4,2.2,2.8,3.3,4.3
			c-41.9-54.4-74.8-114.7-103.2-177.1c-8-17.6-15.7-35.4-23.3-53.2c0.7,1.7,1.4,3.3,2.1,5c-9.1-21.7-18-43.5-26.9-65.3
			c-2.1-5.3-4.5-9.6-9.7-12.6c-4.5-2.6-11.1-3.8-16.2-2.1c-5.1,1.6-10,4.8-12.6,9.7C150,275.2,148.3,281.7,150.3,286.8L150.3,286.8z
			"/>
	</g>
</g>
<g>
	<g>
		<path d="M735.7,963.9c61.4-12.2,120.9-36.2,173.7-69.9c6.6-4.2,13-8.5,19.4-13.1c4.1-2.9,8.3-5.7,11.9-9.1c5.4-5,8.8-11.7,9.8-19
			c1.6-11.7-3.8-21.7-8.8-31.9c-3.3-6.8-6.8-13.5-10.5-20.1c-15-27.2-32.5-52.8-51.8-77.1c-20.8-26.2-44.1-50.5-69.6-72.2
			c-4.1-3.5-9.2-6.4-14.8-6.2c-1.9,0.3-3.7,0.5-5.6,0.8c-3.6,1-6.6,2.8-9.3,5.4c-29.5,23.5-58.7,47.3-88.4,70.5
			c1.4-1.1,2.8-2.2,4.3-3.3c-5.9,4.5-11.9,8.7-18.8,11.6c1.7-0.7,3.3-1.4,5-2.1c-3.7,1.5-7.5,2.5-11.4,3c1.9-0.3,3.7-0.5,5.6-0.8
			c-4.5,0.5-8.9,0.5-13.4-0.1c1.9,0.3,3.7,0.5,5.6,0.8c-6.2-0.9-12.1-2.7-17.8-5.1c1.7,0.7,3.3,1.4,5,2.1
			c-13.1-5.6-24.8-13.9-36.1-22.6c1.4,1.1,2.8,2.2,4.3,3.3C572.5,669,525,624,482.4,574.8c-12-13.9-23.6-28.1-34.8-42.6
			c1.1,1.4,2.2,2.8,3.3,4.3c-24.8-32.1-47.6-65.8-68.2-100.7c-5.8-9.9-11.5-19.8-16.9-29.9c-5.3-9.7-19.4-13.5-28.7-7.5
			c-9.8,6.3-13.2,18.4-7.5,28.7c19.1,35.2,40.4,69.3,63.8,101.9c24.2,33.8,50.3,66.2,78.4,96.8c27.2,29.7,56.2,57.7,86.9,83.7
			c16.3,13.9,33,27.7,50.6,40.2c9.8,6.9,20,12.6,31.1,17.1c10.4,4.3,22.2,6.8,33.5,6.1c13.5-0.9,26-5.4,37.1-13
			c10.3-7.1,19.9-15.3,29.6-23.1c18.6-14.9,37.3-29.7,55.9-44.6c4.5-3.6,9.1-7.3,13.6-10.9c-9.9,0-19.8,0-29.7,0
			c27.2,23.3,51.9,49.4,73.8,77.7c-1.1-1.4-2.2-2.8-3.3-4.3c11.6,15.1,22.4,30.8,32.4,47c9.9,16.2,19.5,32.9,27,50.4
			c-0.7-1.7-1.4-3.3-2.1-5c0.8,1.9,1.3,3.8,1.6,5.8c-0.3-1.9-0.5-3.7-0.8-5.6c0.1,1,0.1,1.9,0,2.9c0.3-1.9,0.5-3.7,0.8-5.6
			c-0.2,1-0.4,1.8-0.8,2.7c0.7-1.7,1.4-3.3,2.1-5c-0.4,0.8-0.9,1.5-1.4,2.2c1.1-1.4,2.2-2.8,3.3-4.3c-1.2,1.4-2.5,2.6-3.9,3.7
			c1.4-1.1,2.8-2.2,4.3-3.3c-30.2,22.6-63.9,41.1-98.6,55.8c1.7-0.7,3.3-1.4,5-2.1c-30.6,12.9-62.4,22.6-95,29.1
			c-4.9,1-10.1,5.4-12.6,9.7c-2.6,4.5-3.8,11.1-2.1,16.2C713.6,960.7,724.2,966.2,735.7,963.9L735.7,963.9z"/>
	</g>
</g>
<g>
	<g>
		<path d="M365.9,420.3c15.4-16.8,30.7-33.5,46.1-50.3c15.3-16.7,30.6-33.4,45.9-50.1c0.8-0.9,1.6-1.7,2.3-2.6
			c1.7-2.1,3.7-4.4,5-6.9c1.3-2.4,2.5-5,3.1-7.8c0.5-2.1,0.7-4.4,0.9-6.5c0.1-0.6,0.1-1.3,0-1.9c-0.2-2.8-0.5-5.7-1.3-8.4
			c-0.8-2.8-2.1-5.5-3.3-8.1c-1.1-2.2-2.5-4.3-4-6.3c-6.6-9.2-13.2-18.3-19.8-27.5c-13.3-18.5-26.6-37-40-55.5s-26.6-37-40-55.5
			c-1.6-2.3-3.2-4.5-4.9-6.8c-1.1-1.4-2.2-2.8-3.3-4.3c-1.9-2-4.2-3.5-6.8-4.3c-1.6-0.9-3.4-1.4-5.3-1.4c-2.8-0.6-5.6-0.5-8.4,0.4
			c-30.7,9.5-60.4,22.8-87.9,39.4c-14.5,8.8-28.2,18.6-41.5,29c-11.9,9.3-23.2,19.3-33.9,30c-13.3,13.3-25.4,27.7-36.8,42.7
			c-1.5,2.4-2.4,5-2.5,7.8c-0.6,2.8-0.5,5.6,0.4,8.4c1.3,4.9,5.1,10.2,9.7,12.6c4.9,2.6,10.8,3.9,16.2,2.1c1.7-0.7,3.3-1.4,5-2.1
			c3.2-1.9,5.7-4.4,7.5-7.5c0.8-1,1.5-2,2.3-3c-1.1,1.4-2.2,2.8-3.3,4.3c15.1-19.5,32.1-37.5,50.8-53.6c5.3-4.6,10.7-9,16.2-13.3
			c-1.4,1.1-2.8,2.2-4.3,3.3c20-15.5,41.6-28.9,64.3-40.1c6.4-3.2,12.9-6.1,19.5-8.9c-1.7,0.7-3.3,1.4-5,2.1
			c11.3-4.8,22.8-9,34.5-12.6c-7.9-3.2-15.8-6.4-23.7-9.7c14.4,19.9,28.7,39.9,43.1,59.8s28.7,39.9,43.1,59.8
			c4.1,5.6,8.1,11.3,12.2,16.9c2,2.7,3.9,5.5,5.9,8.2c1.8,2.5,3.6,5.1,4.8,8c-0.7-1.7-1.4-3.3-2.1-5c0.5,1.2,0.9,2.5,1.1,3.8
			c-0.3-1.9-0.5-3.7-0.8-5.6c0.2,1.1,0.2,2.2,0,3.4c0.3-1.9,0.5-3.7,0.8-5.6c-0.1,0.8-0.4,1.6-0.7,2.4c0.7-1.7,1.4-3.3,2.1-5
			c-0.5,1.2-1.2,2.3-2,3.3c1.1-1.4,2.2-2.8,3.3-4.3c-2.8,3.4-5.9,6.6-8.9,9.8c-3.1,3.4-6.1,6.7-9.2,10.1
			c-6.2,6.8-12.4,13.6-18.6,20.3c-12.3,13.4-24.6,26.8-36.9,40.2c-7,7.6-13.9,15.2-20.9,22.7c-3.7,4.1-6.2,9.2-6.2,14.8
			c0,5.2,2.3,11.3,6.2,14.8c4,3.7,9.3,6.4,14.8,6.2C356.5,426.2,362.1,424.4,365.9,420.3L365.9,420.3z"/>
	</g>
</g>
</svg>
