<?xml version="1.0" encoding="utf-8"?>
<!-- Generator: Adobe Illustrator 27.0.0, SVG Export Plug-In . SVG Version: 6.00 Build 0)  -->
<svg version="1.1" id="Capa_1" xmlns="http://www.w3.org/2000/svg" xmlns:xlink="http://www.w3.org/1999/xlink" x="0px" y="0px"
	 viewBox="0 0 1080 1080" style="enable-background:new 0 0 1080 1080;" xml:space="preserve">
<style type="text/css">
	.st0{stroke:#000000;stroke-width:18;stroke-miterlimit:10;}
</style>
<g>
	<g>
		<g>
			<path class="st0" d="M-1283.4,1425.4c-3.4,7-6.9,13.9-10.3,20.9c-3,6-4.4,12.4-2.5,19.1c1.5,5.8,6,12,11.5,14.9
				c5.8,3.1,12.8,4.6,19.1,2.5c6-1.9,11.8-5.7,14.9-11.5c17.4-33.5,34.8-67.2,53.5-100.1c15.8-27.9,32.6-55.3,50.8-81.6
				c10.8-15.6,21.9-30.7,33.4-45.7c-1.3,1.7-2.6,3.3-3.9,5.1c9.8-12.6,19.8-25,30-37.3c5.6-6.6,11.1-13.2,16.7-19.8
				c5.6-6.5,10.9-13.9,17.6-19.3c-1.7,1.3-3.3,2.6-5.1,3.9c1.3-0.9,2.5-1.7,3.9-2.4c-2,0.8-3.9,1.7-5.9,2.5c1.2-0.5,2.4-0.8,3.5-1.1
				c-2.2,0.2-4.4,0.6-6.6,0.9c1.3-0.1,2.6-0.1,3.9,0c-2.2-0.4-4.4-0.6-6.6-0.9c1.3,0.2,2.6,0.6,3.8,1.1c-2-0.8-3.9-1.7-5.9-2.5
				c1.8,0.8,3.3,1.8,4.8,3c-1.7-1.3-3.3-2.6-5.1-3.9c4.5,3.4,8.3,7.8,12.3,11.8c4,4.1,8,8.4,12,12.6c8.3,8.7,16.3,17.5,24.2,26.5
				c16.1,18,31.5,36.5,46.4,55.4c25.8,32.6,52.8,64.1,79.6,95.9c13.6,16.1,26.9,32.2,39.8,48.9c-1.3-1.7-2.6-3.3-3.9-5.1
				c17.6,22.9,34.3,46.5,49.5,71.1c4.8,7.9,9.7,15.8,14.3,23.9c11.3-11.3,22.7-22.7,33.9-33.9c-22.2-12.9-44.4-25.6-66.6-38.5
				c-10.7-6.3-24.5-3.3-32,6.4c-3.2,4.1-5.6,9.6-5.3,15c0.2,6.3,2.4,13.2,7.3,17.5c25.9,22.3,56.2,38.9,89.3,47.6
				c7.7,2,15.4,0.4,21.6-4.5c5.8-4.5,10.3-11.8,9.8-19.5c-1.5-22.8-3.1-45.6-4.6-68.4c-16.2,2.2-32.5,4.4-48.7,6.6
				c1.8,6.5,3.1,13.1,4,19.8c-0.4-2.2-0.6-4.4-0.9-6.6c1.9,14.1,1.9,28.2,0,42.3c0.4-2.2,0.6-4.4,0.9-6.6c-0.2,1.5-0.5,3.2-0.7,4.7
				c-1.1,3.3-1.2,6.6-0.5,9.9c0.1,3.3,1.2,6.4,3,9.2c3,5.2,8.9,10,14.9,11.5c6.4,1.4,13.5,1.2,19.1-2.5c5.1-3.3,10.4-8.6,11.5-14.9
				c2.2-13.3,3.5-26.7,2.8-40.3c-0.6-13.3-2.6-26.9-6.1-39.9c-3.2-11.9-15.2-19.4-27.2-17.7c-5.2,0.7-10.6,2.8-14.3,6.9
				c-4.3,4.6-7.7,11-7.3,17.5c1.5,22.8,3.1,45.6,4.6,68.4c10.5-7.9,20.9-15.9,31.4-23.9c-9.1-2.4-17.8-5.4-26.5-9
				c2,0.8,3.9,1.7,5.9,2.5c-15.6-6.6-30.4-15.2-43.7-25.5c1.7,1.3,3.3,2.6,5.1,3.9c-2.7-2.1-5.4-4.4-8.2-6.6c-10,13-20.1,26-30,39
				c22.2,12.9,44.4,25.6,66.6,38.5c9.2,5.3,22.7,4.3,30-3.9c7.4-8.2,9.6-20.2,3.9-30c-14.5-25-30.2-49.5-47.3-72.9
				c-16.2-22.3-33.3-43.8-50.9-65c-16.9-20.3-34.1-40.3-51.2-60.5c-19.8-23.7-38.7-48.3-58.5-72.1c-20.8-24.9-42.6-49-65.3-72.3
				c-7.7-7.8-15.8-15.2-26.6-18.3c-3.3-0.9-7.1-1.4-10.5-1.4c-3.5,0-7.3,0.5-10.8,1.5c-7,2.4-12.2,5.7-17.7,10.5
				c-5.4,4.6-9.8,10.6-14.4,15.9c-4.8,5.7-9.7,11.3-14.4,17c-18,21.4-35.3,43.2-51.9,65.7c-13.8,18.7-27.1,37.8-39.5,57.4
				c-12.6,19.8-24.5,40.2-35.9,60.6c-13.1,23.5-25.6,47.4-38.2,71.2c-3.4,6.5-6.9,13.1-10.2,19.6c14.3,8.4,28.6,16.7,42.9,25
				c3.4-7,6.9-13.9,10.3-20.9c3-6,4.4-12.4,2.5-19.1c-1.5-5.8-6-12-11.5-14.9c-5.8-3.1-12.8-4.6-19.1-2.5
				C-1274.4,1415.9-1280.5,1419.6-1283.4,1425.4L-1283.4,1425.4z"/>
		</g>
	</g>
	<g>
		<g>
			<path class="st0" d="M-716.6,1633.9c16.3,22.6,31.9,45.6,46.3,69.2c12.5,20.4,24,41.5,34.5,63c5.7,11.7,11.1,23.6,16.1,35.7
				c-0.8-2-1.7-3.9-2.5-5.9c15.7,37.3,28.6,75.7,40.9,114.2c4.1,12.9,8.2,25.8,12.2,38.6c7.9-10.5,15.9-20.9,23.9-31.4
				c-32.6,0.4-65.2,0.7-97.8,0c-32.6-0.7-65.1-2.4-97.5-6.1c-26.1-3.1-52.3-5.7-78.7-7.1c-23.3-1.3-46.4-1.7-69.7-1.2
				c-27.2,0.5-54.2,1.8-81.4,3.2c-3.9,0.2-7.8,0.4-11.8,0.6c-5.7,0.2-10.5,1.9-15,5.3c-4.1,3.2-7.7,7.7-8.9,12.9
				c-0.9,4.4-0.9,8.9,0,13.2c1.3,5.7,6.3,12,11.5,14.9c14.4,7.7,28.2,16.5,41.2,26.6c-1.7-1.3-3.3-2.6-5.1-3.9
				c11,8.5,21.4,17.7,31.1,27.8c10-13,20.1-26,30-39c-26-13.2-51-28.4-74.9-45.2c-6.9-4.8-13.6-9.8-20.3-15c1.7,1.3,3.3,2.6,5.1,3.9
				c-2.2-1.8-4.5-3.5-6.7-5.3c-1.7,13-3.3,26-5.1,39c14.2-7.2,28.6-13.9,43.1-20.1c-2,0.8-3.9,1.7-5.9,2.5
				c30.5-12.9,62.4-23.9,95.3-28.4c-2.2,0.2-4.4,0.6-6.6,0.9c5.6-0.7,11.2-1.3,16.8-1.5c6.5-0.4,12.9-2.6,17.5-7.3
				c4.3-4.3,7.6-11.3,7.3-17.5c-0.2-6.4-2.4-13.1-7.3-17.5c-4.7-4.4-11-7.6-17.5-7.3c-47.7,2.2-93.6,19.3-136.8,38.5
				c-10.5,4.7-20.8,9.7-31.1,14.8c-6.9,3.4-10.9,10.9-11.8,18.1c-0.7,3.3-0.6,6.6,0.5,9.9c1.2,4.3,3.3,7.8,6.4,11
				c26.3,20.9,53.9,40,83.2,56.7c7.8,4.4,15.7,8.6,23.7,12.8c5.7,3,12.8,4.5,19.1,2.5c5.2-1.7,9.6-4.5,12.9-8.9
				c7.6-9.8,6.7-23.6-1.9-32.6c-22.4-23.2-48.8-43-77.3-58.1c-4.1,15.4-8.4,30.8-12.5,46.2c28-1.4,56.1-3,84.2-3.5
				c23.4-0.6,46.7-0.5,70.1,0.6c25.5,1.2,51,3.4,76.4,6.4c32.1,3.7,64.1,6.1,96.4,7.1c32.6,0.9,65.2,0.7,97.8,0.5c4,0,8-0.1,12-0.1
				c15.6-0.1,28.8-15.8,23.9-31.4c-7.6-24.5-15.2-48.8-23.4-73c-7.1-21-14.4-41.9-22.7-62.6c-8.5-21.4-17.6-42.5-27.8-63.1
				c-9.7-19.6-20.2-38.6-31.5-57.3c-13-21.4-26.8-42.1-41.2-62.4c-2-2.8-4-5.6-6-8.4c-1.5-2.8-3.7-5.2-6.4-7
				c-2.4-2.2-5.2-3.7-8.4-4.5c-5.9-1.7-13.8-0.9-19.1,2.5c-5.3,3.4-9.9,8.5-11.5,14.9C-720.5,1620.9-720.5,1628.6-716.6,1633.9
				L-716.6,1633.9z"/>
		</g>
	</g>
	<g>
		<g>
			<path class="st0" d="M-1105.1,1910.8c-30.2-0.5-60.4-1.1-90.6-1.5c-25.9-0.4-51.7-0.7-77.6-0.7c-24.5,0-48.9,0.1-73.4,0.7
				c-25.5,0.6-51,1.4-76.5,2.7c-29.4,1.4-58.7,3.3-88,5.3c-4.1,0.2-8.3,0.6-12.3,0.9c7.1,12.4,14.3,24.9,21.4,37.3
				c21-37.9,42.2-76,63.2-113.9c21-37.8,41.9-75.7,63-113.5c11.8-21.3,23.6-42.5,35.4-63.9c3.1-5.4,4.5-13,2.5-19.1
				c-1.7-5.2-4.5-9.6-8.9-12.9c-4.1-3.2-9.6-5.6-15-5.3c-2.2,0.2-4.4,0.6-6.6,0.9c-4.3,1.2-7.8,3.3-11,6.4c-1.3,1.1-2.7,2.1-4,3.2
				c1.7-1.3,3.3-2.6,5.1-3.9c-17.6,13.6-36.9,24.8-57.3,33.4c2-0.8,3.9-1.7,5.9-2.5c-3.7,1.5-7.3,3-11,4.4
				c8,13.8,16.1,27.6,24.1,41.5c9.9-8.7,20-17.1,30.5-25.2c-1.7,1.3-3.3,2.6-5.1,3.9c15.7-12.2,32.1-23.5,49-34
				c-12.4-7.1-24.9-14.3-37.3-21.4c1.5,31.4,0.9,63-2,94.3c-0.8,9-1.9,18-3.1,26.9c0.4-2.2,0.6-4.4,0.9-6.6
				c-0.5,3.5-0.9,7.1-1.5,10.5c-1.1,3.3-1.2,6.6-0.5,9.9c0.1,3.3,1.2,6.4,3,9.2c3,5.2,8.9,10,14.9,11.5c6.4,1.4,13.5,1.2,19.1-2.5
				c5.1-3.3,10.5-8.6,11.5-14.9c5.4-36,8.5-72.3,8.3-108.8c-0.1-9.8-0.4-19.7-0.8-29.5c-0.5-8.9-4.5-16.8-12.3-21.4
				c-7.4-4.4-17.6-4.6-25,0c-23.6,14.8-46.2,31.1-67.7,48.8c-5.7,4.7-11.3,9.5-16.8,14.3c-1.3,1.7-2.6,3.3-3.9,5.1
				c-1.8,2.8-2.8,5.9-3,9.2c-0.7,5.3,0,11.2,3,15.8c2.4,3.5,5.3,6.6,8.9,8.9c2.8,1.8,5.9,2.8,9.2,3c3.3,0.7,6.6,0.6,9.9-0.5
				c15-5.6,29.8-12.2,43.8-20.1c13.9-7.9,27.1-17.2,39.6-27.3c-13-10-26-20.1-39-30c-21,37.9-42.2,76-63.2,113.9
				c-21,37.8-41.9,75.7-63,113.5c-11.8,21.3-23.6,42.5-35.4,63.9c-4.4,7.8-4.6,17.2,0,25c4.1,7.1,12.9,12.9,21.4,12.3
				c30.1-2.2,60.2-4.1,90.4-5.8c25.9-1.3,51.6-2.4,77.5-3c24.5-0.6,48.9-0.8,73.4-0.9c25.5,0,51,0.2,76.5,0.6
				c29.4,0.4,58.8,0.9,88.2,1.4c4.1,0.1,8.3,0.1,12.4,0.2c6.3,0.1,13.1-2.8,17.5-7.3c4.3-4.3,7.6-11.3,7.3-17.5
				c-0.2-6.4-2.4-13.1-7.3-17.5C-1092.5,1913.6-1098.4,1911-1105.1,1910.8L-1105.1,1910.8z"/>
		</g>
	</g>
</g>
<g>
	<polygon points="-1085,487.2 -1085,503 -1214.5,503 -1224.2,501.9 -1225.1,504.7 -1217.1,510.1 -1183.2,544 -1195.1,556 
		-1250.4,500.7 -1250.4,488.5 -1195.1,433.2 -1183.2,445.2 -1217.1,479.1 -1225.1,484.5 -1224.2,487.3 -1214.5,486.2 -1105.3,486.2 
		-1182.7,354.6 -1167.9,346 -1085.6,486.2 	"/>
</g>
<g>
	<polygon points="-1482,504.6 -1482.4,496.6 -1417.6,384.4 -1411.8,376.7 -1413.8,374.5 -1422.4,378.7 -1468.8,391.1 -1473.2,374.8 
		-1397.7,354.5 -1387.1,360.6 -1366.9,436.2 -1383.2,440.5 -1395.6,394.1 -1396.3,384.5 -1399.2,383.9 -1403,392.8 -1457.6,487.5 
		-1304.9,486.2 -1304.9,503.3 -1467.5,504.6 	"/>
</g>
<g>
	<polygon points="-1293,134 -1283.6,133.6 -1218.8,245.8 -1215,254.7 -1212.1,254.1 -1211.4,244.5 -1199,198.1 -1182.6,202.5 
		-1202.9,278 -1213.4,284.1 -1289,263.9 -1284.6,247.6 -1238.2,260 -1229.5,264.2 -1227.6,262 -1233.4,254.2 -1288,159.6 
		-1363.3,292.5 -1378.1,283.9 -1297.9,142.5 	"/>
</g>
<g>
	<g>
		<path d="M-1749.6,529.8l-71.2-71.2v-15.7l71.2-71.2l15.4,15.4l-43.8,43.7l-10.3,6.9l1.2,3.6l12.4-1.5h166.9v21.7h-166.9l-12.4-1.5
			l-1.2,3.6l10.3,6.9l43.8,43.8L-1749.6,529.8z"/>
	</g>
</g>
<g>
	<g>
		<path class="st0" d="M1527.9,1509.6c-34.9,44.2-60.6,94.8-75.9,149.3c-14.9,53.3-20.2,109.9-14.8,165
			c5.5,56,20.9,110.1,45.4,160.7c23.1,48.1,54.8,92.3,92.3,130.2c38.8,39,84.5,71.2,134.2,94.4c52.6,24.6,108,39.7,165.6,46.9
			c55.5,7,111.8,5.1,167.2-3.7c53.9-8.5,106.2-24.9,155.6-48.1c49.6-23.3,95.6-54.4,135.3-92c39.4-37.2,72.3-81.4,96.3-129.9
			c25.1-50.5,40.9-104.2,47.2-160.2c6.1-55.4,0.7-112-16-165.2c-18.4-58.4-47.8-113.2-79.9-165.2c-31.5-51.1-68.4-99.4-114.2-138.4
			c-46.3-39.3-98.7-69.4-155.6-90.3c-57-20.9-118.6-31.4-179.5-29.7c-55.5,1.6-111.1,12.8-162.8,33.1
			c-54.1,21.2-103.8,51.1-147.8,89c-41.1,35.4-76,78.1-104.2,124.5c-28.4,46.9-50,98.4-63.6,151.4c-6.9,26.9-11.5,54.2-14.5,81.8
			c-1.3,12.5,11.9,24.6,24,24c14.2-0.7,22.5-10.6,24-24c0.3-3.1,0.7-6.4,1.2-9.6c0.1-0.6,0.1-1,0.3-1.6c0.3-2.7,0.3-2.1-0.3,1.6
			c0.6-0.7,0.6-3.7,0.7-4.8c1-6.9,2.2-13.7,3.4-20.5c2.4-13,5.4-26.1,8.8-38.8c3.3-12.4,7-24.5,11-36.6c2.1-6.1,4.2-11.9,6.6-17.9
			c1.2-3,2.2-6,3.4-9c0.6-1.5,1.2-3,1.8-4.5c1-2.4,0.7-1.9-0.6,1.3c0.4-1,0.7-1.9,1.2-2.8c10.2-23.7,22.1-46.7,35.5-68.7
			c6.7-11,13.9-21.7,21.4-32.1c1.6-2.2,3.4-4.6,5.1-7c0.9-1.2,1.9-2.5,2.8-3.7c3.3-4.5-3.3,4.2,0.1-0.1c4.2-5.2,8.5-10.5,12.8-15.8
			c16.6-19.6,34.6-37.9,54.1-54.5c5.1-4.2,10-8.5,15.2-12.5c1.2-0.9,5.1-4.6,0.3-0.3c1.2-1.2,2.7-2.1,3.9-3c3.1-2.2,6.1-4.6,9.3-6.7
			c10.6-7.6,21.5-14.6,32.7-21.4c11.5-6.9,23.6-13.4,35.7-19.3c5.8-2.8,11.6-5.5,17.6-8.1c1.5-0.7,3-1.5,4.5-1.9
			c-6.3,1.9-1.2,0.4,0.3-0.1c3.1-1.3,6.6-2.7,9.7-3.9c24.8-9.6,50.3-16.9,76.5-22.2c5.7-1.2,11.5-2.2,17.3-3.1
			c1.3-0.3,8.8-0.4,9.6-1.3c-1,0.1-2.2,0.3-3.1,0.4c1-0.1,2.2-0.3,3.1-0.4c2.2-0.3,4.2-0.4,6.4-0.7c13.3-1.5,26.6-2.4,39.9-2.7
			c13.3-0.3,26.7,0,39.9,0.9c7.2,0.4,14.5,1.2,21.7,2.1c1.8,0.3,3.7,0.3,5.4,0.7c-6.4-1.2-0.4,0,0.7,0.1c4.2,0.6,8.4,1.2,12.5,1.9
			c29.3,5.1,57.9,13,85.9,23.3c3.4,1.2,6.9,2.7,10.2,3.9c1.6,0.7,3.4,1.3,5.1,2.1c5.8,2.2-4.6-2.1,1,0.4c6.7,3,13.4,6,20,9.1
			c11.9,5.8,23.9,12.1,35.4,19c11.9,7,23.7,14.8,35.1,22.8c2.7,1.9,5.5,4,8.1,6c1.3,1,2.7,1.9,4,3.1c-4.9-4.2-0.4-0.3,0.4,0.3
			c5.2,4.2,10.5,8.5,15.5,13c21.8,18.8,41.5,39.7,59.4,62.1c1,1.2,6.7,8.5,2.7,3.4c2.2,2.7,4.2,5.7,6.4,8.5
			c4.6,6.1,9,12.4,13.3,18.7c8.4,12.1,16.4,24.5,24,37c15.1,24.6,29.4,50,42.3,75.9c3.1,6.4,6.3,12.8,9.3,19.3
			c1.5,3.1,3,6.6,4.3,9.7c0.4,1.2,0.9,2.2,1.3,3.3c1,2.4,0.9,2.2-0.3-0.7c0.4,1.2,0.9,2.2,1.3,3.3c5.7,13.7,10.8,27.6,15.1,41.8
			c4.2,13.7,7.6,27.6,10.3,41.7c0.4,2.5,0.9,5.1,1.3,7.8c0.4,2.7,0.3,6.7,1.3,9.3c-0.1-1.2-0.3-2.2-0.4-3.3c0.1,1,0.3,2.1,0.3,3.1
			c0.3,1.6,0.3,3.1,0.6,4.6c0.4,3.7,0.7,7.3,1,10.9c2.1,25.5,1.6,51.1-1.2,76.6c-0.3,1.6-0.3,3.1-0.6,4.6c-0.1,0.6-0.1,1-0.3,1.6
			c-0.3,2.7-0.3,2.1,0.3-1.6c-0.9,2.7-0.9,6.4-1.3,9.3c-1,6.7-2.2,13.4-3.7,20c-2.7,12.2-5.7,24.5-9.4,36.4
			c-3.7,12.5-8.1,24.8-13,37c-0.6,1.5-1.2,2.8-1.6,4.3c-0.3,0.4-0.3,0.9-0.6,1.5c-1,2.4-0.7,1.9,0.6-1.3c0.4,1.2-3.1,7.3-3.7,8.5
			c-2.7,6.1-5.7,12.2-8.8,18.4c-11.5,22.7-24.9,44.3-40.2,64.8c-0.9,1.2-1.8,2.5-2.7,3.7c-3.3,4.3,3.4-4.2,0,0
			c-1.6,2.1-3.1,4-4.8,6.1c-4.2,5.1-8.5,10.3-13,15.4c-9,10-18.4,19.4-28.1,28.7c-9.3,8.7-18.8,17-28.8,24.9c-1.2,0.9-2.4,2.2-3.7,3
			c5.4-3,1.2-0.9-0.1,0.1c-2.5,1.9-5.1,3.7-7.6,5.7c-5.5,4-11.2,7.9-16.9,11.8c-21.4,14.3-44.1,26.9-67.3,37.8
			c-2.8,1.3-5.7,2.7-8.5,3.9c-2.7,1.2-5.8,3.1-8.7,3.7c0.9-0.3,1.9-0.7,2.8-1.2c-0.9,0.4-1.9,0.7-2.8,1.2c-1.5,0.6-2.8,1.2-4.3,1.8
			c-3.4,1.3-6.9,2.7-10.3,4c-11.8,4.5-23.7,8.5-35.7,12.1c-24.5,7.5-49.6,13.1-74.8,17.2c-3.1,0.4-6.1,0.9-9.3,1.3
			c-1.6,0.3-6.9,0.4,0.3,0c-1.5,0.1-3.1,0.4-4.6,0.6c-6.9,0.7-13.7,1.6-20.8,2.2c-13.4,1.2-27,1.9-40.5,2.2
			c-26.6,0.4-53-0.9-79.4-4.2c-1.5-0.3-3.4-0.1-4.8-0.6c1,0.1,2.1,0.3,3.1,0.4c-1-0.1-2.2-0.3-3.1-0.4c-3.1-0.4-6.4-0.9-9.6-1.5
			c-6.4-1-12.8-2.2-19.3-3.6c-13.3-2.7-26.4-5.8-39.4-9.6c-12.5-3.6-24.8-7.6-37-11.9c-6.1-2.2-12.1-4.6-18.2-7
			c-5.2-2.2,4.9,2.2-0.3-0.1c-1.5-0.7-3-1.2-4.5-1.9c-3.4-1.5-7-3.1-10.5-4.6c-24.2-11.5-47.3-24.8-69.1-40.3
			c-2.7-1.9-5.4-3.9-8.1-5.8c-1.2-0.9-2.7-1.9-3.9-2.8c-0.4-0.3-0.7-0.6-1.2-0.9c-2.1-1.6-1.6-1.2,1.2,1c-1.2-2.1-5.1-4.2-7-5.7
			c-2.7-2.2-5.5-4.5-8.1-6.7c-9.3-7.9-18.2-16.3-26.7-24.8c-9.1-9.1-17.6-18.5-25.8-28.2c-1.9-2.4-3.9-4.6-5.8-7
			c-0.9-1.2-1.9-2.4-2.8-3.7c-0.3-0.4-0.7-0.7-0.9-1.2c-1.6-2.1-1.2-1.6,0.9,1.2c-1,0-4.8-6.4-5.7-7.3c-1.8-2.5-3.7-5.1-5.4-7.6
			c-14.9-21.1-28.1-43.3-39.3-66.6c-2.5-5.1-4.8-10.3-7-15.5c-0.1-0.3-1.6-4.3-1.8-4.2c0.4,0.9,0.7,1.9,1.2,2.8
			c-0.3-0.9-0.7-1.9-1.2-2.8c-1.3-3.3-2.7-6.7-4-10.2c-4.6-12.1-8.7-24.5-12.2-36.9c-3.4-11.9-6.3-24.2-8.7-36.4
			c-1.2-6.1-2.2-12.5-3.1-18.8c-0.1-0.6-0.1-1-0.3-1.6c-0.3-2.7-0.3-2.1,0.3,1.6c0.3-0.9-0.4-3.7-0.6-4.8c-0.4-3.7-0.7-7.5-1.2-11
			c-2.4-26.1-2.5-52.4-0.3-78.5c0.3-3.1,0.6-6.4,0.9-9.6c0.3-2.1,1.9-7.6,1.2-9.6c-0.1,1-0.3,2.2-0.4,3.1c0.1-1,0.3-2.1,0.4-3.1
			c0.3-1.6,0.4-3.1,0.7-4.8c0.6-3.7,1.2-7.3,1.9-11c2.2-12.5,5.1-25.1,8.5-37.3c3.6-12.8,7.6-25.4,12.5-37.8c1.2-3,2.2-6,3.6-8.8
			c2.1-5.1-2.2,5.1,0-0.1c0.7-1.5,1.2-2.8,1.9-4.3c2.5-5.7,5.2-11.5,8.1-17.2c5.7-11.2,11.8-22.2,18.5-32.9
			c3.3-5.2,6.9-10.5,10.5-15.7c1.8-2.5,3.7-5.1,5.5-7.6c0.7-1.2,2.2-3,3-3.7c4.2-5.1,7-10,7-16.9c0-6-2.7-13-7-16.9
			C1553.4,1501.5,1536.2,1499.1,1527.9,1509.6L1527.9,1509.6z"/>
	</g>
</g>
<g>
	<g>
		<path class="st0" d="M114.3,304.7c-34.7,43.9-60.1,94.1-75.2,148.1c-14.7,52.9-20,109-14.6,163.7c5.4,55.6,20.8,109.1,45,159.4
			c22.9,47.7,54.3,91.6,91.6,129.1c38.5,38.7,83.8,70.6,133.2,93.6c52.1,24.4,107.1,39.4,164.2,46.5c55.1,6.9,111,5,165.9-3.6
			c53.4-8.5,105.3-24.7,154.3-47.7c49.1-23,94.9-53.9,134.2-91.2c39-36.9,71.7-80.8,95.5-128.9c24.8-50,40.6-103.4,46.7-158.8
			c6-54.9,0.7-111.1-15.9-163.8c-18.2-58-47.4-112.3-79.2-163.8c-31.3-50.6-67.8-98.6-113.3-137.3c-45.8-38.9-97.9-68.9-154.3-89.6
			c-56.6-20.8-117.7-31.1-178-29.5C459.3,32.4,404.2,43.5,353,63.7C299.4,84.8,250,114.3,206.4,152
			c-40.7,35.2-75.5,77.5-103.4,123.4C74.9,322,53.4,373,39.9,425.7c-6.8,26.7-11.5,53.8-14.4,81.1c-1.4,12.5,11.9,24.4,23.8,23.8
			c14.1-0.7,22.4-10.6,23.8-23.8c0.3-3.2,0.7-6.4,1.1-9.4c0.1-0.6,0.1-1,0.2-1.6c0.3-2.6,0.2-2-0.2,1.6c0.6-0.7,0.6-3.7,0.7-4.8
			c1-6.8,2.2-13.6,3.4-20.3c2.4-12.9,5.3-25.9,8.7-38.6c3.3-12.3,6.9-24.3,11-36.3c2-6,4.2-11.9,6.5-17.8c1.1-3,2.3-5.9,3.4-8.8
			c0.6-1.5,1.2-2.9,1.8-4.4c1-2.4,0.8-1.9-0.6,1.4c0.5-1,0.8-1.9,1.2-2.8c10.1-23.5,21.9-46.3,35.3-68.1
			c6.7-10.9,13.7-21.4,21.2-31.8c1.7-2.3,3.4-4.7,5.1-6.9c0.9-1.2,1.9-2.5,2.8-3.7c3.3-4.4-3.3,4.2,0.1-0.1
			c4.2-5.2,8.4-10.4,12.7-15.7c16.5-19.4,34.4-37.6,53.7-54.1c5-4.2,10-8.4,15.1-12.4c1.1-0.9,5-4.5,0.3-0.2c1.1-1.1,2.6-2,3.9-2.9
			c3.1-2.3,6.1-4.5,9.2-6.7c10.6-7.5,21.3-14.5,32.4-21.2c11.5-6.8,23.4-13.3,35.4-19.1c5.8-2.8,11.6-5.4,17.5-8.1
			c1.5-0.7,3-1.5,4.4-1.9c-6.2,1.9-1.1,0.5,0.2-0.1c3.2-1.4,6.5-2.6,9.6-3.9c24.6-9.4,49.9-16.8,75.8-22c5.7-1.1,11.5-2.2,17.2-3.1
			c1.4-0.2,8.7-0.5,9.4-1.4c-1,0.1-2.2,0.2-3.2,0.5c1-0.1,2.2-0.2,3.2-0.5c2.2-0.2,4.2-0.5,6.4-0.8c13.2-1.5,26.3-2.4,39.6-2.6
			c13.2-0.2,26.4,0,39.5,0.9c7.1,0.5,14.3,1.1,21.4,2c1.8,0.2,3.6,0.3,5.3,0.7c-6.4-1.2-0.5,0,0.8,0.1c4.2,0.6,8.3,1.2,12.5,1.9
			c29,5,57.5,12.8,85.1,23c3.4,1.2,6.8,2.6,10.1,3.9c1.7,0.7,3.4,1.4,5,2c5.8,2.3-4.7-2,1,0.5c6.7,2.9,13.3,5.9,19.9,9.1
			c11.9,5.8,23.7,12,35.1,18.8c11.9,7,23.6,14.6,34.8,22.7c2.7,1.9,5.4,4,8.1,5.9c1.4,1,2.7,1.9,4,3.1c-4.9-4.1-0.5-0.3,0.5,0.3
			c5.2,4.2,10.4,8.4,15.4,12.8c21.6,18.6,41.2,39.4,59,61.6c1,1.2,6.7,8.4,2.7,3.4c2.2,2.7,4.2,5.6,6.4,8.4
			c4.5,6.1,8.8,12.3,13.2,18.5c8.3,12,16.2,24.3,23.8,36.8c15,24.5,29.2,49.6,42,75.2c3.2,6.4,6.2,12.7,9.2,19.1
			c1.5,3.2,3,6.5,4.3,9.6c0.5,1.1,0.9,2.2,1.4,3.3c1,2.4,0.9,2.2-0.3-0.8c0.5,1.1,0.9,2.2,1.4,3.3c5.6,13.6,10.7,27.5,15,41.5
			c4.2,13.6,7.6,27.3,10.2,41.3c0.5,2.5,0.9,5.1,1.4,7.7c0.5,2.7,0.3,6.7,1.4,9.2c-0.1-1.1-0.3-2.2-0.5-3.3c0.1,1,0.2,2,0.3,3.1
			c0.2,1.6,0.3,3.1,0.6,4.7c0.5,3.6,0.8,7.3,1,10.8c2,25.3,1.6,50.7-1.2,75.9c-0.2,1.6-0.3,3.1-0.6,4.7c-0.1,0.6-0.1,1-0.2,1.6
			c-0.3,2.6-0.2,2,0.2-1.7c-0.9,2.7-0.9,6.4-1.4,9.2c-1,6.7-2.3,13.3-3.7,19.9c-2.6,12.1-5.7,24.3-9.3,36.2
			c-3.7,12.4-8.1,24.6-12.8,36.8c-0.6,1.5-1.1,2.8-1.7,4.3c-0.2,0.5-0.3,0.9-0.6,1.5c-1,2.4-0.8,1.9,0.6-1.4
			c0.5,1.2-3.2,7.3-3.7,8.5c-2.7,6.1-5.7,12.1-8.7,18.2c-11.5,22.5-24.7,44-39.8,64.2c-0.9,1.2-1.8,2.5-2.7,3.6
			c-3.3,4.3,3.4-4.2,0,0c-1.6,2-3.2,4-4.8,6c-4.2,5.1-8.5,10.2-12.9,15.2c-8.8,9.9-18.2,19.3-27.8,28.4
			c-9.2,8.6-18.7,16.9-28.6,24.7c-1.1,0.9-2.4,2.3-3.7,2.9c5.3-2.9,1.2-0.9-0.1,0.1c-2.5,1.9-5,3.7-7.6,5.6
			c-5.4,4-11.1,7.8-16.7,11.7c-21.2,14.2-43.7,26.7-66.8,37.4c-2.8,1.4-5.7,2.6-8.5,3.9c-2.6,1.1-5.8,3.2-8.6,3.7
			c0.9-0.3,1.9-0.8,2.8-1.1c-0.9,0.5-1.9,0.8-2.8,1.2c-1.5,0.6-2.8,1.1-4.3,1.8c-3.4,1.4-6.8,2.7-10.2,4c-11.7,4.4-23.5,8.4-35.4,12
			c-24.3,7.4-49.1,13-74.2,17c-3.1,0.5-6.1,0.9-9.2,1.4c-1.6,0.2-6.8,0.5,0.2,0c-1.5,0.1-3.1,0.5-4.7,0.6
			c-6.8,0.8-13.6,1.6-20.5,2.2c-13.4,1.1-26.8,1.9-40.2,2.2c-26.3,0.5-52.6-0.9-78.9-4.1c-1.5-0.2-3.4-0.1-4.8-0.6
			c1,0.1,2,0.2,3.2,0.5c-1-0.1-2.2-0.3-3.2-0.5c-3.2-0.5-6.4-0.9-9.5-1.5c-6.4-1-12.7-2.2-19.1-3.5c-13.2-2.6-26.2-5.8-39.1-9.4
			c-12.4-3.5-24.6-7.5-36.8-11.9c-6-2.3-12-4.7-18-7c-5.2-2.2,4.9,2.2-0.2-0.1c-1.5-0.7-3-1.2-4.4-1.9c-3.4-1.5-6.9-3.1-10.3-4.7
			c-23.9-11.3-47-24.6-68.6-39.9c-2.7-1.9-5.3-3.9-7.9-5.8c-1.2-0.9-2.6-1.9-3.9-2.8c-0.5-0.3-0.8-0.6-1.2-0.9c-2-1.6-1.6-1.2,1.2,1
			c-1.2-2-5.1-4.1-7-5.7c-2.7-2.3-5.4-4.4-8.1-6.7c-9.2-7.8-18-16.1-26.5-24.6c-9-9-17.5-18.4-25.6-28c-1.9-2.4-3.9-4.7-5.8-7
			c-0.9-1.1-1.9-2.4-2.8-3.6c-0.3-0.5-0.7-0.8-0.9-1.2c-1.6-2-1.2-1.6,0.9,1.2c-1,0-4.8-6.4-5.6-7.3c-1.8-2.5-3.6-5-5.3-7.5
			c-14.7-20.9-27.8-43-38.9-66c-2.5-5.1-4.8-10.2-7-15.4c-0.1-0.3-1.7-4.3-1.8-4.2c0.5,0.9,0.8,1.9,1.2,2.8
			c-0.3-0.9-0.8-1.9-1.1-2.8c-1.4-3.3-2.7-6.7-4-10.1c-4.5-12-8.6-24.3-12.1-36.6c-3.4-11.9-6.2-24.1-8.6-36.2
			c-1.2-6.1-2.3-12.4-3.2-18.6c-0.1-0.6-0.1-1-0.2-1.6c-0.3-2.6-0.3-2,0.2,1.6c0.3-0.9-0.5-3.7-0.6-4.8c-0.5-3.6-0.8-7.4-1.1-11
			c-2.4-25.9-2.5-52-0.2-77.8c0.2-3.2,0.6-6.4,0.9-9.5c0.2-2,1.9-7.6,1.1-9.4c-0.1,1-0.2,2.2-0.5,3.2c0.1-1,0.3-2,0.5-3.2
			c0.2-1.6,0.5-3.2,0.7-4.8c0.6-3.6,1.2-7.3,1.9-11c2.3-12.5,5.1-24.8,8.5-37c3.5-12.7,7.6-25.2,12.4-37.4c1.1-2.9,2.3-5.9,3.5-8.7
			c2-5.1-2.2,5,0-0.1c0.7-1.5,1.2-2.8,1.9-4.3c2.5-5.7,5.2-11.3,8.1-17c5.6-11.1,11.7-22,18.4-32.6c3.3-5.2,6.8-10.4,10.3-15.5
			c1.8-2.5,3.6-5.1,5.4-7.5c0.8-1.1,10-13.7,10-20.5c0-5.9-2.6-12.8-7-16.8C139.5,296.8,122.6,294.3,114.3,304.7L114.3,304.7z"/>
	</g>
</g>
<g>
	<g>
		<path class="st0" d="M2029.3,1560.2c-8.8-4.9-18.2-9.1-27.8-12.1c-9.6-3.1-19.3-4.6-29.1-6c-18.4-2.4-36.9-1-55.1,1.8
			c-16.6,2.7-32.9,7.2-48.5,13c-16.1,6.1-32.1,13.1-46.3,22.8c-14.9,10.3-28.7,22.7-37.9,38.4c-10,17.3-13.3,37.5-8.5,56.9
			c1.2,5.2,3.4,10.3,5.7,15.1c1.5,3.1,3.1,6.1,5.2,9.1c3.1,4.5,6.6,9,10.5,12.8c3.9,4,8.4,7.3,12.8,10.8c7.5,5.7,15.5,9.6,24.2,13
			c8.1,3.3,16.7,5.5,25.5,6.7c11.2,1.6,22.2,2.7,33.4,2.7c9.4,0.1,18.8-0.3,28.1-0.4c18.2-0.4,36.4-0.6,54.5,1
			c4.5,0.3,9,0.9,13.4,1.5c-2.2-0.3-4.2-0.6-6.4-0.9c16.9,2.2,33.7,6.4,49.6,13c-1.9-0.7-3.7-1.6-5.7-2.4
			c10.8,4.6,20.8,10.5,30,17.5c-1.6-1.2-3.1-2.5-4.9-3.7c8.2,6.4,15.7,13.7,22.1,22c-1.2-1.6-2.5-3.1-3.7-4.9
			c5.4,7,10,14.5,13.4,22.7c-0.7-1.9-1.6-3.7-2.4-5.7c3,7,5.1,14.5,6.1,22.2c-0.3-2.2-0.6-4.2-0.9-6.4c1.2,8.2,0.9,16.6-0.1,24.8
			c0.3-2.2,0.6-4.2,0.9-6.4c-2.1,15.1-7,29.7-13,43.8c0.7-1.9,1.6-3.7,2.4-5.7c-5.7,13.3-12.4,26.1-21.2,37.6
			c1.2-1.6,2.5-3.1,3.7-4.9c-5.2,6.9-11.3,13-18.1,18.4c1.6-1.2,3.1-2.5,4.9-3.7c-5.7,4.3-11.8,7.9-18.4,10.6
			c1.9-0.7,3.7-1.6,5.7-2.4c-7,3-14.6,4.9-22.2,6c2.2-0.3,4.2-0.6,6.4-0.9c-10.5,1.3-20.8,1-31.2-0.3c2.2,0.3,4.2,0.6,6.4,0.9
			c-21.7-3-42.3-10.3-62.4-18.7c1.9,0.7,3.7,1.6,5.7,2.4c-14.9-6.3-29.4-13-43.9-20c-14.2-6.9-28.1-14.2-41.5-22.5
			c-7.6-4.6-14.9-9.7-22-15.2c1.6,1.2,3.1,2.5,4.9,3.7c-11.3-8.8-21.8-18.5-31.1-29.6c-2.2-2.2-4.8-4-7.8-4.9
			c-2.8-1.5-6-2.2-9.3-2.1c-6,0-13,2.7-16.9,7c-4.2,4.6-7.3,10.6-7,16.9c0.3,2.2,0.6,4.2,0.9,6.4c1.2,4.2,3.1,7.6,6.1,10.6
			c7.6,9.1,16.1,17.5,25.2,25.2c10.6,8.8,21.8,16.9,33.4,24.2c20.5,12.5,42.3,22.8,64.2,33c24.2,11.1,48.8,22,75,27.6
			c13.4,3,27.6,4.9,41.5,4.3c7.8-0.3,15.5-1.2,23.1-3c7.6-1.6,14.8-4.5,21.8-7.6c5.4-2.2,10.5-5.2,15.2-8.7
			c6.1-4.3,11.9-9.1,17.2-14.5c9.1-9.6,16.9-20.5,23.3-32c6.7-12.1,12.2-25.1,16.9-38.1c5.2-14.6,8.8-30,9.7-45.5
			c0.4-8.2-0.4-16.3-1.6-24.3c-0.7-5.1-2.1-10.2-3.7-15.1c-4-11.8-9.6-23.1-17-33c-7.6-10.2-15.8-19.6-26-27.5s-20.3-14.9-32.1-20.3
			c-13.4-6.1-27.2-11-41.5-13.9c-14.8-3.1-29.9-5.1-44.8-6c-13.3-0.7-26.6-0.9-39.7-0.7c-13.4,0.3-27,0.9-40.3,0.6
			c-6.6-0.3-13.4-0.7-19.9-1.5c2.2,0.3,4.2,0.6,6.4,0.9c-9.4-1.2-18.8-3.4-27.5-7c1.9,0.7,3.7,1.6,5.7,2.4c-6.7-2.8-13-6.6-18.8-11
			c1.6,1.2,3.1,2.5,4.9,3.7c-4.6-3.7-9-7.8-12.5-12.5c1.2,1.6,2.5,3.1,3.7,4.9c-3.1-4-5.7-8.4-7.6-13.1c0.7,1.9,1.6,3.7,2.4,5.7
			c-1.6-4.2-2.8-8.4-3.4-12.7c0.3,2.2,0.6,4.2,0.9,6.4c-0.6-4.3-0.6-8.7,0-13c-0.3,2.2-0.6,4.2-0.9,6.4c0.7-4.6,1.9-9.1,3.7-13.4
			c-0.7,1.9-1.6,3.7-2.4,5.7c2.2-5.4,5.2-10.3,8.8-14.9c-1.2,1.6-2.5,3.1-3.7,4.9c5.1-6.6,11.3-12.5,17.9-17.6
			c-1.6,1.2-3.1,2.5-4.9,3.7c11-8.5,23.6-15.2,36.4-20.8c-1.9,0.7-3.7,1.6-5.7,2.4c20.2-8.5,41.4-14.9,63-17.8
			c-2.2,0.3-4.2,0.6-6.4,0.9c14.6-1.9,29.6-2.2,44.2-0.3c-2.2-0.3-4.2-0.6-6.4-0.9c11,1.5,22,4.3,32.3,8.5c-1.9-0.7-3.7-1.6-5.7-2.4
			c4.2,1.8,8.5,3.9,12.5,6.1c5.5,3.1,12.5,4.2,18.5,2.4c5.7-1.5,11.5-5.8,14.5-11c3-5.7,4.5-12.4,2.4-18.5
			C2038.4,1568.7,2034.8,1563.5,2029.3,1560.2L2029.3,1560.2z"/>
	</g>
</g>
<g>
	<g>
		<path class="st0" d="M1891.2,1482.1c6.9,65.9,13.6,131.9,20.5,197.7c6.7,65.6,13.6,131.1,20.3,196.7c3.7,36.9,7.6,73.6,11.5,110.3
			c0.7,6.6,2.2,12.1,7,16.9c4.2,4.2,11,7.3,16.9,7c6.1-0.3,12.7-2.2,16.9-7c4-4.5,7.6-10.8,7-16.9c-6.9-65.9-13.6-131.9-20.5-197.7
			c-6.7-65.6-13.6-131.1-20.3-196.7c-3.7-36.9-7.6-73.6-11.5-110.3c-0.7-6.6-2.2-12.1-7-16.9c-4.2-4.2-11-7.3-16.9-7
			c-6.1,0.3-12.7,2.2-16.9,7C1894.1,1469.6,1890.4,1475.8,1891.2,1482.1L1891.2,1482.1z"/>
	</g>
</g>
<g>
	<g>
		<path class="st0" d="M72.4,416.7c4.7,11.2,10.3,20.9,18.8,29.7c6.9,7.1,15.1,13.2,23.6,18.3c15.1,9.2,31.5,15.7,47.3,23.6
			c8.7,4.4,17.4,9.3,25.2,15.3c-1.6-1.2-3.2-2.5-4.8-3.7c5.1,4,9.8,8.5,13.8,13.6c-1.2-1.6-2.5-3.2-3.7-4.9c3.3,4.3,6,9,8.2,14
			c-0.8-1.9-1.6-3.7-2.4-5.7c3.2,7.9,5,16.2,6.1,24.6c-0.2-2.2-0.6-4.2-0.9-6.4c8.1,61.6-3.6,123.9,3.1,185.6
			c3.2,29.8,9.6,58.3,22,85.7c6,13.4,13.8,25.5,22.9,37.1c5,6.5,10.4,12.7,17.7,16.6c6.6,3.5,13.4,5,20.8,4
			c6.8-0.9,12.4-3.6,16.6-9.2c1.7-2.3,3.1-4.4,4.4-6.9c8.6-15.7,15.4-32.7,20-49.9c3.6-14,5.2-28.5,10.7-41.9
			c-0.8,1.9-1.6,3.7-2.4,5.7c1.8-4.3,4.1-8.4,7-12.1c-1.2,1.6-2.5,3.2-3.7,4.9c2.2-2.7,4.7-5.1,7.4-7.3c-1.6,1.2-3.2,2.5-4.8,3.7
			c3.2-2.4,6.6-4.3,10.1-5.9c-1.9,0.8-3.7,1.6-5.7,2.4c7.1-3.1,14.7-4.5,22.5-5.6c-2.2,0.3-4.2,0.6-6.4,0.9
			c18.8-2.5,38.8-2,56.8-8.6c21.6-7.8,40.2-22.6,51.6-42.5c12-21,15-46,9.5-69.4c-4.8-20.2-17-38.1-32.6-51.6
			c-15.1-13-32.3-23.1-48.1-35.3c1.6,1.2,3.2,2.5,4.9,3.7c-7.1-5.6-13.8-11.7-19.5-18.8c1.2,1.6,2.5,3.2,3.7,4.9
			c-8.4-10.8-12.1-24.2-22.1-33.9c-9.9-9.6-22.6-14.4-33.5-22.6c1.6,1.2,3.2,2.5,4.8,3.7c-3-2.3-5.6-4.8-7.9-7.7
			c1.2,1.6,2.5,3.2,3.7,4.9c-1.5-2-2.7-4.1-3.7-6.5c0.8,1.9,1.6,3.7,2.4,5.7c-0.6-1.7-1-3.3-1.4-5.1c0.2,2.2,0.6,4.2,0.9,6.4
			c-0.2-1.8-0.2-3.5,0-5.3c-0.2,2.2-0.6,4.2-0.9,6.4c0.3-1.7,0.7-3.4,1.4-5c-0.8,1.9-1.6,3.7-2.4,5.7c1-2.3,2.2-4.3,3.7-6.4
			c-1.2,1.6-2.5,3.2-3.7,4.9c2.3-2.9,4.9-5.4,7.8-7.7c-1.6,1.2-3.2,2.5-4.9,3.7c7.3-5.4,15.5-9.4,23.8-12.9
			c-1.9,0.8-3.7,1.6-5.7,2.4c16.2-6.8,33.2-12.3,48.7-21c13.2-7.4,25.6-16.9,36.3-27.7c22.2-22.2,38.7-51.1,45.4-81.8
			c7.8-36,3.9-72.7-10.8-106.5c-12.5-28.7-33.8-53.3-57.3-73.6c-13.8-11.9-28.5-23.4-43.9-33.1c-17.2-10.9-37.8-19.4-58.5-17.8
			c-6.4,0.5-12.3,2.4-16.8,7c-4.1,4.1-7.3,10.9-7,16.8c0.6,12.1,10.6,24.8,23.8,23.8c4.1-0.3,8.1-0.2,12.1,0.3
			c-2.2-0.3-4.2-0.6-6.4-0.9c6,0.9,11.8,2.7,17.5,5.1c-1.9-0.8-3.7-1.6-5.7-2.4c15,6.6,28.4,16.6,41.3,26.4
			c-1.6-1.2-3.2-2.5-4.8-3.7c17.6,13.6,34.2,28.7,47.8,46.3c-1.2-1.6-2.5-3.2-3.7-4.9c8.5,11,15.7,22.9,21.1,35.7
			c-0.8-1.9-1.6-3.7-2.4-5.7c4.8,11.6,8.1,23.7,9.8,36.1c-0.2-2.2-0.6-4.2-0.9-6.4c1.7,13.3,1.8,26.5,0,39.8
			c0.2-2.2,0.6-4.2,0.9-6.4c-1.7,12.5-5,24.5-9.9,36.1c0.8-1.9,1.6-3.7,2.4-5.7c-4.9,11.5-11.2,22.4-18.9,32.2
			c1.2-1.6,2.5-3.2,3.7-4.9c-7.7,9.9-16.6,18.7-26.4,26.4c1.6-1.2,3.2-2.5,4.8-3.7c-10.4,7.9-21.7,14.3-33.7,19.4
			c1.9-0.8,3.7-1.6,5.7-2.4c-14.3,6-29,11-42.9,17.9c-13.3,6.8-27,16.7-33.2,30.7c-4.5,10.1-6.2,20.9-3.2,31.8
			c2.5,8.7,7.7,16.8,14.3,23c10.1,9.8,22.9,14.6,33.9,22.9c-1.6-1.2-3.2-2.5-4.8-3.7c2.6,2,5,4.4,7.1,7c-1.2-1.6-2.5-3.2-3.7-4.9
			c5.7,7.7,8.7,16.9,14.4,24.6c6,8.1,12.6,15.2,20.3,21.7c14.3,11.7,30.1,21.2,44.7,32.4c-1.6-1.2-3.2-2.5-4.9-3.7
			c7.5,5.8,14.5,12.1,20.3,19.6c-1.2-1.6-2.5-3.2-3.7-4.9c3.7,4.9,6.9,10.2,9.4,15.9c-0.8-1.9-1.6-3.7-2.4-5.7
			c2.4,5.8,4,11.8,4.9,18c-0.2-2.2-0.6-4.2-0.9-6.4c0.8,6.6,0.8,13.3,0,19.9c0.3-2.2,0.6-4.2,0.9-6.4c-0.9,5.7-2.4,11.2-4.5,16.7
			c0.8-1.9,1.6-3.7,2.4-5.7c-2.4,5.7-5.4,10.9-9.2,15.8c1.2-1.6,2.5-3.2,3.7-4.9c-3.7,4.8-8.1,9.1-12.8,12.9
			c1.6-1.2,3.2-2.5,4.9-3.7c-4.9,3.7-10.1,6.8-15.7,9.3c1.9-0.8,3.7-1.6,5.7-2.4c-7.5,3.2-15.4,4.9-23.4,6c2.2-0.3,4.2-0.6,6.4-0.9
			c-23.5,3.2-48.1,2.5-69.6,14.3c-11.9,6.6-22.1,17.4-27.8,29.7c-5.4,11.7-8.4,23.6-10.9,36.2c-2.8,13.7-6.7,27.2-12.1,40.2
			c0.8-1.9,1.6-3.7,2.4-5.7c-3.2,7.5-1.5,14.6,3.3,10.9c-0.3,0.1-0.7,0.1-1,0.2c2.2-0.3,4.2-0.6,6.4-0.9c-0.7,0.1-1.4,0.1-2,0
			c2.2,0.3,4.2,0.6,6.4,0.9c-1.1-0.2-2-0.5-3.1-0.9c1.9,0.8,3.7,1.6,5.7,2.4c-1.4-0.7-2.5-1.5-3.7-2.4c1.6,1.2,3.2,2.5,4.9,3.7
			c-3.9-3.2-6.9-7.3-10-11.2c1.2,1.6,2.5,3.2,3.7,4.9c-8.4-11.1-15.2-23.3-20.6-36.1c0.8,1.9,1.6,3.7,2.4,5.7
			c-8.2-19.5-13-40.3-15.9-61.2c0.2,2.2,0.6,4.2,0.9,6.4c-7.4-56.5,1-113.5-1.9-170.1c-0.8-15.2-1.9-31.1-6-45.8
			c-3.9-13.6-10.4-25.5-19.6-36.3c-12.5-14.5-30-24.3-46.9-32.6c-17.8-8.6-36.5-15.9-52.3-28c1.6,1.2,3.2,2.5,4.9,3.7
			c-4.8-3.7-9.2-7.9-12.9-12.7c1.2,1.6,2.5,3.2,3.7,4.9c-3.2-4.1-5.7-8.4-7.7-13c0.8,1.9,1.6,3.7,2.4,5.7c-0.1-0.2-0.2-0.5-0.3-0.8
			c-2.5-6-5.1-10.8-11-14.3c-5.1-2.9-12.6-4.3-18.4-2.4c-5.8,1.8-11.3,5.4-14.3,11C72,403.6,70,411,72.4,416.7L72.4,416.7z"/>
	</g>
</g>
<g>
	<g>
		<path class="st0" d="M730.7,101.2c-32.7,32.3-57.4,71.7-73.6,114.6c-7.6,20-12.9,40.7-16,61.8c-3.5,24.8-9.4,56.2,9.1,76.6
			c13.2,14.5,34.9,15.7,52.1,8.4c12.4-5.2,22.2-14.6,34.5-20c-1.9,0.8-3.7,1.6-5.7,2.4c8.5-3.5,17.4-5.6,26.5-6.9
			c-2.2,0.3-4.2,0.6-6.4,0.9c7.6-1,15.3-1.5,22.9-1.8c7.7-0.3,15.5-0.8,23.4,0c-2.2-0.3-4.2-0.6-6.4-0.9c3.6,0.5,7.1,1.4,10.7,2.7
			c-1.9-0.8-3.7-1.6-5.7-2.4c2.5,1.1,4.8,2.5,6.9,4.1c-1.6-1.2-3.2-2.5-4.8-3.7c3,2.3,5.4,5,7.7,7.8c-1.2-1.6-2.5-3.2-3.7-4.9
			c5.2,7,8.8,14.9,12.3,22.9c-0.8-1.9-1.6-3.7-2.4-5.7c8.6,20.4,16.7,41.4,19.9,63.5c-0.2-2.2-0.6-4.2-0.9-6.4
			c1.2,9.3,1.5,18.6,0.2,27.9c0.2-2.2,0.6-4.2,0.9-6.4c-0.9,6.5-2.6,12.8-5.2,18.8c0.8-1.9,1.6-3.7,2.4-5.7
			c-1.8,4.3-4.1,8.4-6.8,12.1c1.2-1.6,2.5-3.2,3.7-4.9c-1.7,2.2-3.5,4-5.6,5.7c1.6-1.2,3.2-2.5,4.9-3.7c-1.8,1.4-3.6,2.4-5.7,3.3
			c1.9-0.8,3.7-1.6,5.7-2.4c-2,0.8-4,1.4-6.1,1.7c2.2-0.3,4.2-0.6,6.4-0.9c-3.3,0.5-6.5,0.3-9.6,0c2.2,0.3,4.2,0.6,6.4,0.9
			c-4.1-0.6-7.9-1.7-11.7-3.3c1.9,0.8,3.7,1.6,5.7,2.4c-8.6-3.7-16-9.5-23.5-15.1c-8.8-6.6-17.7-11.8-28-15.8
			c-21.1-8.1-44.5-6.4-66.3-3.1c-11.3,1.7-22.1,4.3-32.7,9.1c-10.9,4.9-19.3,13.2-26.2,22.6c-12.4,17-16.2,39.8-14.6,60.5
			c1,13.4,3.6,26.7,6.1,39.9c2.4,12.1,4.3,24.3,6,36.5c-0.3-2.2-0.6-4.2-0.9-6.4c3.3,25,4.9,49.9,5.6,75.1
			c0.7,23.1,2.5,48.3,15.7,68.3c4.1,6.1,8.8,11.9,14.4,16.7c6.2,5.2,12.9,9.8,19.4,14.7c-1.6-1.2-3.2-2.5-4.9-3.7
			c5,3.9,9.4,8.2,13.3,13.2c-1.2-1.6-2.5-3.2-3.7-4.9c8.2,10.9,13.5,23.4,20,35.2c7.8,14.3,17.8,27.2,31.3,36.6
			c13.6,9.5,30.7,11.9,46.9,8.8c17.8-3.4,32-17.6,36.9-34.7c4.5-15.9-0.2-31.8,1.8-47.8c-0.2,2.2-0.6,4.2-0.9,6.4
			c0.7-4.2,1.7-8.2,3.3-12c-0.8,1.9-1.6,3.7-2.4,5.7c2.4-5.6,5.6-10.6,9.2-15.3c-1.2,1.6-2.5,3.2-3.7,4.9
			c11.2-14.3,25.9-25.2,38.7-37.9c7.4-7.3,14.3-15.3,19.6-24.2c6.7-11,10.2-22.9,11.3-35.7c1.4-15.7-3.1-31.4-5.3-46.9
			c0.3,2.2,0.6,4.2,0.9,6.4c-0.8-6.2-1.2-12.6-0.6-18.8c-0.2,2.2-0.6,4.2-0.9,6.4c0.5-3.6,1.4-7.1,2.7-10.7
			c-0.8,1.9-1.6,3.7-2.4,5.7c1.2-3,2.8-5.6,4.7-8.2c-1.2,1.6-2.5,3.2-3.7,4.9c2.4-3.1,5.1-5.7,8.1-8.1c-1.6,1.2-3.2,2.5-4.9,3.7
			c3.6-2.7,7.6-5,11.9-6.8c-1.9,0.8-3.7,1.6-5.7,2.4c5.3-2.2,10.7-3.5,16.3-4.3c-2.2,0.3-4.2,0.6-6.4,0.9c16.7-2.2,33.5,0.5,50,2.3
			c17.1,1.9,34.3,3.9,51.3,5.8c5.7,0.7,12.9-3.1,16.8-7c4.1-4.1,7.3-10.9,7-16.8c-0.2-6.1-2.3-12.6-7-16.8c-5-4.5-10.2-6.2-16.8-7
			c-15.8-1.8-31.5-3.5-47.2-5.3c-15.3-1.7-30.7-4.2-46.2-3.5c-16.2,0.8-33.4,4.5-46.9,14.1c-14.2,10.1-25.2,24.3-27.7,42
			c-0.8,5.2-1.4,10.3-1.1,15.7c0.2,5.3,1,10.7,1.7,15.9c1,7.6,2.6,15.2,3.7,22.9c-0.2-2.2-0.6-4.2-0.9-6.4
			c0.9,6.8,1.2,13.6,0.5,20.4c0.2-2.2,0.6-4.2,0.9-6.4c-0.7,4.3-1.8,8.5-3.5,12.5c0.8-1.9,1.6-3.7,2.4-5.7
			c-2.4,5.6-5.6,10.7-9.3,15.5c1.2-1.6,2.5-3.2,3.7-4.9c-10.8,13.7-24.7,24.4-37.2,36.5c-14.1,13.6-27.5,30.5-30.9,50.3
			c-1.4,7.9-1.7,15.7-1.2,23.7c0.5,6.7,1,13.4,0.2,20c0.2-2.2,0.6-4.2,0.9-6.4c-0.3,2.8-1,5.6-2,8.2c0.8-1.9,1.6-3.7,2.4-5.7
			c-1,2.3-2.2,4.3-3.6,6.2c1.2-1.6,2.5-3.2,3.7-4.9c-1.1,1.4-2.4,2.6-3.9,3.7c1.6-1.2,3.2-2.5,4.9-3.7c-1.9,1.5-4,2.6-6.1,3.5
			c1.9-0.8,3.7-1.6,5.7-2.4c-2.6,1-5.2,1.6-7.8,2c2.2-0.3,4.2-0.6,6.4-0.9c-3.1,0.3-6.1,0.3-9.3-0.1c2.2,0.3,4.2,0.6,6.4,0.9
			c-3.4-0.5-6.7-1.4-9.9-2.7c1.9,0.8,3.7,1.6,5.7,2.4c-3.2-1.5-6.1-3.3-8.9-5.3c1.6,1.2,3.2,2.5,4.8,3.7c-4.1-3.2-7.7-6.9-10.9-11
			c1.2,1.6,2.5,3.2,3.7,4.9c-9.5-12.5-15.3-27.1-23.3-40.6c-4.8-8.1-10.4-16-17.1-22.6c-6.9-6.7-15.2-12-22.9-17.9
			c1.6,1.2,3.2,2.5,4.9,3.7c-4.2-3.3-8.2-6.8-11.5-11c1.2,1.6,2.5,3.2,3.7,4.9c-3-3.9-5.3-8.1-7.3-12.6c0.8,1.9,1.6,3.7,2.4,5.7
			c-3-7.3-4.8-14.9-5.8-22.6c0.2,2.2,0.6,4.2,0.9,6.4c-1.5-11.2-1.7-22.7-2-34c-0.5-14.4-1.4-28.8-2.7-43.1
			c-1.6-15.8-3.6-31.5-6.1-47.2c-2.3-14.2-5.6-28.1-7.6-42.3c0.2,2.2,0.6,4.2,0.9,6.4c-1.4-9.9-1.9-19.7-0.6-29.6
			c-0.2,2.2-0.6,4.2-0.9,6.4c0.9-6,2.4-11.8,4.8-17.4c-0.8,1.9-1.6,3.7-2.4,5.7c1.8-4.2,4.1-8.1,6.8-11.7c-1.2,1.6-2.5,3.2-3.7,4.9
			c2.4-2.9,5-5.7,8.1-8.1c-1.6,1.2-3.2,2.5-4.9,3.7c3.2-2.3,6.5-4.2,10-5.7c-1.9,0.8-3.7,1.6-5.7,2.4c9.4-3.7,19.5-5.3,29.5-6.7
			c-2.2,0.3-4.2,0.6-6.4,0.9c10.9-1.4,21.8-1.9,32.7-0.7c-2.2-0.3-4.2-0.6-6.4-0.9c6.7,0.9,13.3,2.5,19.5,5.2
			c-1.9-0.8-3.7-1.6-5.7-2.4c12.7,5.6,22.6,15.2,34.2,22.6c15.1,9.6,33.6,14.4,51.3,10.3c20.2-4.7,32-22.1,39.1-40.2
			c5.6-13.8,7.3-29.5,6.1-44.4c-2.3-30.9-13.5-60-26-88c-6.1-13.8-14.6-26.3-27.2-35.2c-14.3-10.2-32.2-10.3-49-9.6
			c-17,0.7-34.7,1.7-51.1,6.8c-8.7,2.7-17.4,6.5-25.1,11.5c-6.6,4.3-12.8,9.4-20.1,12.6c1.9-0.8,3.7-1.6,5.7-2.4
			c-2.7,1-5.3,1.8-8.2,2.3c2.2-0.3,4.2-0.6,6.4-0.9c-2.2,0.2-4.2,0.2-6.4,0.1c2.2,0.3,4.2,0.6,6.4,0.9c-1.7-0.2-3.3-0.7-5-1.2
			c1.9,0.8,3.7,1.6,5.7,2.4c-1.6-0.7-3.1-1.5-4.4-2.6c1.6,1.2,3.2,2.5,4.8,3.7c-1-0.9-1.8-1.7-2.7-2.7c1.2,1.6,2.5,3.2,3.7,4.9
			c-1.1-1.6-2-3.2-2.8-5c0.8,1.9,1.6,3.7,2.4,5.7c-0.9-2.5-1.5-5-1.9-7.6c0.2,2.2,0.6,4.2,0.9,6.4c-1.5-12.3,0.3-25.1,1.9-37.2
			c-0.2,2.2-0.6,4.2-0.9,6.4c3.5-25.6,10.3-50.8,20.4-74.7c-0.8,1.9-1.6,3.7-2.4,5.7c10-23.5,22.8-45.7,38.5-65.9
			c-1.2,1.6-2.5,3.2-3.7,4.9c7.7-9.9,16.1-19.3,25-28.1c8.8-8.7,9.4-25.1,0-33.7C754.8,92.3,740.1,91.7,730.7,101.2L730.7,101.2z"/>
	</g>
</g>
</svg>
